<svg xmlns:svg="http://www.w3.org/2000/svg" xmlns="http://www.w3.org/2000/svg" version="1.1" x="0px" y="0px" width="348.16" height="348.16" viewBox="0 0 348.15999 348.16002" enable-background="new 0 0 273.6 360" xml:space="preserve"><g transform="translate(36.361992,-5.8949928)"><path d="m217.021 167.042c18.631-9.483 30.288-26.184 27.565-54.007C240.919 75.012 208.06 62.262 166.58 58.631L166.572 5.89h-32.139l-0.009 51.354c-8.456 0-17.076 0.166-25.657 0.338L108.76 5.897 76.65 5.894 76.644 58.622c-6.959 0.142-13.793 0.277-20.466 0.277v-0.156l-44.33-0.018 0.006 34.282c0 0 23.734-0.446 23.343-0.013 13.013 0.009 17.262 7.559 18.484 14.076l0.01 60.083v84.397c-0.573 4.09-2.984 10.625-12.083 10.637 0.414 0.364-23.379-0.004-23.379-0.004l-6.375 38.335h41.817c7.792 0.009 15.448 0.13 22.959 0.19l0.028 53.338 32.102 0.009-0.009-52.779c8.832 0.18 17.357 0.258 25.684 0.247l-0.009 52.532h32.138l0.018-53.249c54.022-3.1 91.842-16.697 96.544-67.385 3.79-40.809-15.434-59.025-46.105-66.379zM109.535 95.321c18.126 0 75.132-5.767 75.14 32.064-0.008 36.269-56.996 32.032-75.14 32.032V95.321zm-0.014 167.126 0.014-70.672c21.778-0.006 90.085-6.261 90.094 35.32 0.009 39.876-68.316 35.336-90.108 35.352z"/></g></svg>