<?xml version="1.0" standalone="no"?>
<!DOCTYPE svg PUBLIC "-//W3C//DTD SVG 1.1//EN" "http://www.w3.org/Graphics/SVG/1.1/DTD/svg11.dtd" >
<svg xmlns="http://www.w3.org/2000/svg">
<metadata></metadata>
<defs>
<font id="PGNSansBlackExtraBold" horiz-adv-x="1024" >
<font-face units-per-em="2048" ascent="1638" descent="-410" />
<missing-glyph horiz-adv-x="606" />
<glyph horiz-adv-x="0" />
<glyph horiz-adv-x="0" />
<glyph unicode=" "  horiz-adv-x="606" />
<glyph unicode="&#x09;" horiz-adv-x="606" />
<glyph unicode="&#xa0;" horiz-adv-x="606" />
<glyph unicode="!" horiz-adv-x="645" d="M258 0v283h281v-283h-281zM276 1427h244l-16 -1003h-211z" />
<glyph unicode="&#x22;" horiz-adv-x="872" d="M109 1427h276l-51 -489h-187zM489 1427h277l-51 -489h-187z" />
<glyph unicode="#" horiz-adv-x="1214" d="M127 391l41 166h143l49 197h-141l41 164h143l99 393h186l-98 -393h162l100 393h186l-100 -393h147l-43 -164h-145l-51 -197h147l-43 -166h-145l-98 -391h-187l98 391h-163l-99 -391h-186l98 391h-141zM498 557h161l52 197h-164z" />
<glyph unicode="$" horiz-adv-x="1176" d="M106 297h265q0 -84 38 -132t121 -65v553q-123 37 -200.5 73t-139 111.5t-61.5 198t66 201.5t159.5 113t175.5 34v164h121v-164q183 -17 281.5 -104t114.5 -223h-265q-6 84 -28 132.5t-103 70.5v-502q105 -34 156.5 -53t117.5 -62q154 -100 154 -285q0 -217 -137 -303 q-61 -38 -126 -52.5t-165 -25.5v-188h-121v188q-215 13 -311 89t-113 231zM399 1046.5q0 -181.5 131 -241.5v455q-131 -32 -131 -213.5zM651 100q111 27 141 117q17 48 17 120.5t-22 126.5q-40 96 -136 140v-504z" />
<glyph unicode="%" horiz-adv-x="1821" d="M59 870.5q0 204.5 77.5 333.5t262.5 129t261.5 -129t76.5 -333.5t-76.5 -333.5t-261.5 -129t-262.5 129t-77.5 333.5zM233 871q0 -172 38.5 -260.5t126.5 -88.5t126.5 88.5t38.5 260.5t-38.5 261t-126.5 89t-126.5 -89t-38.5 -261zM594 0l475 1311h156l-475 -1311h-156z M1085 440.5q0 204.5 77.5 333.5t262.5 129t261.5 -129t76.5 -333.5t-77 -334t-261.5 -129.5t-262 129.5t-77.5 334zM1260 440q0 -173 37.5 -261.5t126 -88.5t127 89t38.5 260.5t-38.5 261.5t-127 90t-126 -89t-37.5 -262z" />
<glyph unicode="&#x26;" horiz-adv-x="1403" d="M94 382q0 160 83.5 235.5t213.5 97.5v4q-80 24 -132 49.5t-95 88t-43 169.5q0 193 121 272.5t299 79.5q124 0 231 -39v-163q-98 53 -199.5 53t-148.5 -61.5t-47 -155.5q0 -133 68.5 -177t199.5 -44h283v434l227 137v-571h258v-148h-258v-321q0 -195 148 -195q47 0 110 27 v-160q-75 -17 -173.5 -17t-168.5 24q-143 49 -143 239v403h-279q-101 0 -161 -15q-138 -36 -138 -261q0 -126 66 -183t166 -57t209 49v-166q-132 -33 -252 -33t-221.5 37t-162.5 122.5t-61 245.5z" />
<glyph unicode="'" horiz-adv-x="494" d="M109 1427h276l-51 -489h-187z" />
<glyph unicode="(" horiz-adv-x="682" d="M131 646.5q0 312.5 25 493.5t135 308t346 145v-166q-239 -3 -259 -467q-5 -118 -5 -313t5 -314t30 -229q54 -233 229 -239v-164q-236 18 -346 144.5t-135 307.5t-25 493.5z" />
<glyph unicode=")" horiz-adv-x="682" d="M49 -135q178 6 229 236q24 106 29.5 228.5t5.5 317.5t-5.5 317.5t-29.5 227.5q-52 233 -229 235v166q236 -18 346 -145t135 -308t25 -493.5t-25 -493.5t-135 -307.5t-346 -144.5v164z" />
<glyph unicode="*" horiz-adv-x="645" d="M12 1044v146h142l69 -21l4 5l-53 51l-72 131l125 71l74 -129l21 -73h4l16 73l74 129l123 -71l-72 -131l-51 -51l4 -5l72 21h141v-146h-141l-72 21l-4 -4l51 -51l72 -127l-123 -72l-74 125l-16 74h-4l-21 -74l-74 -125l-125 72l72 127l53 51l-4 4l-69 -21h-142z" />
<glyph unicode="+" horiz-adv-x="1214" d="M121 434v187h387v387h199v-387h387v-187h-387v-434h-199v434h-387z" />
<glyph unicode="," horiz-adv-x="494" d="M117 -207l37 490h256l-97 -490h-196z" />
<glyph unicode="-" horiz-adv-x="948" d="M94 422v223h762v-223h-762z" />
<glyph unicode="." horiz-adv-x="494" d="M106 0v283h281v-283h-281z" />
<glyph unicode="/" horiz-adv-x="645" d="M-20 -281l469 1856h217l-469 -1856h-217z" />
<glyph unicode="0" horiz-adv-x="1139" d="M74 655q0 292 113 475q126 203 382 203q257 0 384 -205q112 -180 112 -473q0 -409 -211 -585q-111 -93 -285.5 -93t-284.5 93q-210 176 -210 585zM330 656q0 -513 239.5 -513t239.5 513t-239.5 513t-239.5 -513z" />
<glyph unicode="1" horiz-adv-x="1139" d="M236 975v196l305 162h192v-1333h-233v1124z" />
<glyph unicode="2" horiz-adv-x="1139" d="M98 0v197q85 63 231.5 205t266 307t119.5 284q0 114 -83 163q-40 24 -109.5 24t-117 -50.5t-47.5 -123.5h-256q13 133 111.5 230t329.5 97q257 0 369 -160q59 -83 59 -208t-64 -243t-159.5 -216t-192.5 -174.5t-176 -138.5v-5h596v-188h-877z" />
<glyph unicode="3" horiz-adv-x="1139" d="M80 295h270q0 -60 40.5 -106t137.5 -46q197 0 197 232q0 179 -136 215q-60 16 -140 16v166q116 0 182.5 39t66.5 176q0 182 -161 182q-95 0 -129.5 -41.5t-40.5 -105.5h-256q0 123 105 213q115 98 319 98q191 0 303 -86q116 -89 116 -256q0 -132 -61 -203.5t-148 -93.5 v-4q71 -19 123 -52q113 -73 113 -273t-116.5 -294t-341 -94t-329.5 92.5t-114 225.5z" />
<glyph unicode="4" horiz-adv-x="1139" d="M57 330v162l549 819h264v-805h230v-176h-230v-330h-225v330h-588zM274 506h371v561h-4z" />
<glyph unicode="5" horiz-adv-x="1139" d="M129 297h270q22 -154 191 -154q111 0 162 63.5t51 190.5q0 256 -211 256q-64 0 -110 -30t-60 -64h-238l37 752h733v-178h-514l-18 -385q90 61 222 61t224 -49q191 -99 191 -375q0 -208 -137 -313q-124 -95 -350.5 -95t-327.5 94t-115 226z" />
<glyph unicode="6" horiz-adv-x="1139" d="M135 633q0 187 21 309.5t74 210.5q108 180 393 180q200 0 303 -101q89 -88 96 -216h-256q0 54 -40.5 103.5t-123.5 49.5q-129 0 -170 -126.5t-41 -364.5q115 119 289 119q121 0 205 -51q164 -100 164 -361q0 -193 -117 -301q-117 -107 -318 -107t-305 88.5t-139 234.5 t-35 333zM399 391q0 -152 91 -223q45 -35 110 -35q102 0 147.5 72.5t45.5 187.5q0 248 -193 248q-201 0 -201 -250z" />
<glyph unicode="7" horiz-adv-x="1139" d="M135 1133v178h852v-176l-467 -1135h-258l467 1133h-594z" />
<glyph unicode="8" horiz-adv-x="1139" d="M117 346q0 168 61.5 234t163.5 104q-98 46 -152.5 109t-54.5 193t58 205q110 142 376 142q200 0 317.5 -81.5t117.5 -262.5q0 -96 -31 -156t-71 -89.5t-103 -59.5q70 -27 114.5 -56.5t76.5 -97.5t32 -184q0 -369 -452.5 -369t-452.5 369zM367 374q0 -108 54.5 -174.5 t147.5 -66.5q203 0 203 250q0 100 -50 164.5t-151 64.5t-152.5 -65t-51.5 -173zM385 974.5q0 -94.5 50.5 -150.5t136.5 -56t134 54.5t48 153t-47 151.5t-131 53t-137.5 -55.5t-53.5 -150z" />
<glyph unicode="9" horiz-adv-x="1139" d="M104 926q0 261 204 359q99 48 237 48q186 0 286.5 -87t134 -234t33.5 -365t-39 -365q-81 -305 -430 -305q-138 0 -226.5 47.5t-129 120t-43.5 150.5h256q0 -53 41.5 -102.5t122.5 -49.5q147 0 178 231q14 103 14 259q-51 -54 -113 -86.5t-157 -32.5q-185 0 -277 110.5 t-92 301.5zM360 921.5q0 -111.5 45.5 -181.5t145.5 -70q182 0 182 250q0 111 -45.5 185.5t-141.5 74.5t-141 -73.5t-45 -185z" />
<glyph unicode=":" horiz-adv-x="606" d="M238 0v283h280v-283h-280zM238 700v285h280v-285h-280z" />
<glyph unicode=";" horiz-adv-x="606" d="M213 -207l37 490h258l-98 -490h-197zM244 700v285h280v-285h-280z" />
<glyph unicode="&#x3c;" horiz-adv-x="1214" d="M119 410v188l977 410v-189l-789 -317l789 -314v-188z" />
<glyph unicode="=" horiz-adv-x="1214" d="M121 254v186h973v-186h-973zM121 612v187h973v-187h-973z" />
<glyph unicode="&#x3e;" horiz-adv-x="1214" d="M119 0v188l790 314l-790 317v189l977 -410v-188z" />
<glyph unicode="?" horiz-adv-x="948" d="M115 1194v221q155 35 298 35t245.5 -36t161.5 -110.5t59 -180t-52 -181t-154 -164t-147 -141.5t-45 -125v-88h-221v149q0 77 49 144t145 150.5t139.5 133t43.5 109.5q0 96 -67 129t-147.5 33t-168.5 -24.5t-139 -53.5zM225 0v283h281v-283h-281z" />
<glyph unicode="@" horiz-adv-x="2048" d="M219 425.5q0 162.5 73 331t201.5 297.5t296 203t335.5 74t303.5 -48.5t236.5 -138.5q213 -188 213 -480q0 -181 -83 -334.5t-217 -241.5t-275 -88q-84 0 -116 45.5t-32 101.5q-120 -135 -266 -135q-116 0 -194.5 78.5t-78.5 222t78 303t202 264.5t240 105t167 -47 t81 -107l46 113h178l-172 -430q-12 -31 -34.5 -88t-41.5 -106q-49 -126 -49 -156q0 -55 60 -55t131 38.5t136 112.5q146 165 146 404q0 258 -189 413q-183 150 -450 150q-146 0 -287.5 -69t-254 -186t-178 -265t-65.5 -306.5t87.5 -293t250 -211t375.5 -76.5q233 0 417 91 q79 39 181 118l55 -47q-36 -40 -130 -100.5t-234.5 -108t-307 -47.5t-322.5 49.5t-272 141.5t-178.5 219t-62.5 289.5zM780 252q0 -156 142 -156q57 0 101.5 30t67.5 61t78.5 122.5t102.5 246t47 202t-15 78.5q-33 67 -118.5 67t-182 -120.5t-160 -282t-63.5 -248.5z" />
<glyph unicode="A" horiz-adv-x="1251" d="M0 0l483 1427h289l481 -1427h-249l-123 387h-508l-123 -387h-250zM430 571h393l-194 627h-4z" />
<glyph unicode="B" horiz-adv-x="1139" d="M147 0v1427h435q158 0 279.5 -71t121.5 -264q0 -106 -38.5 -173t-86 -98t-110.5 -57v-4q175 -26 258 -160q47 -77 47 -205q0 -235 -135 -315t-336 -80h-435zM387 172h96q94 0 164.5 18.5t116 73t45.5 152.5q0 254 -326 254h-96v-498zM387 842h96q127 0 191.5 40.5 t64.5 168.5q0 157 -117 189q-54 15 -139 15h-96v-413z" />
<glyph unicode="C" horiz-adv-x="1139" d="M92 719q0 461 238 639q125 92 319 92q235 0 359 -122q116 -114 116 -292h-266q0 150 -77 208q-46 34 -146 34t-166 -78q-113 -134 -113 -442q0 -590 385 -590q161 0 330 104v-213q-196 -82 -390.5 -82t-328.5 91q-260 178 -260 651z" />
<glyph unicode="D" horiz-adv-x="1214" d="M154 0v1427h350q340 0 480 -162q140 -163 140 -548q0 -440 -193 -599q-88 -73 -192.5 -95.5t-234.5 -22.5h-350zM393 172h111q126 0 204 46q152 92 152 499q0 185 -28 301t-106 176.5t-222 60.5h-111v-1083z" />
<glyph unicode="E" horiz-adv-x="1063" d="M152 0v1427h825v-184h-586v-412h555v-184h-555v-463h602v-184h-841z" />
<glyph unicode="F" horiz-adv-x="985" d="M152 0v1427h798v-184h-559v-412h529v-184h-529v-647h-239z" />
<glyph unicode="G" horiz-adv-x="1251" d="M92 715q0 357 133.5 546t425.5 189q316 0 421 -191q50 -90 50 -208h-266q0 92 -50 159.5t-155 67.5q-167 0 -231 -152t-64 -411q0 -565 338 -565q76 0 130.5 16.5t74.5 38.5v454h-266v172h506v-722q-58 -45 -176.5 -88.5t-268.5 -43.5q-204 0 -339 94q-263 183 -263 644z " />
<glyph unicode="H" horiz-adv-x="1290" d="M152 0v1427h239v-591h508v591h240v-1427h-240v651h-508v-651h-239z" />
<glyph unicode="I" horiz-adv-x="530" d="M145 0v1427h240v-1427h-240z" />
<glyph unicode="J" horiz-adv-x="797" d="M0 4v191q123 -45 207 -45t132 26q89 47 89 195v1056h240v-1042q0 -104 -17.5 -177.5t-65 -125t-140 -78.5t-217.5 -27t-228 27z" />
<glyph unicode="K" horiz-adv-x="1176" d="M150 0v1427h239v-622h4l455 622h291l-500 -677l539 -750h-291l-494 694h-4v-694h-239z" />
<glyph unicode="L" horiz-adv-x="948" d="M154 0v1427h239v-1243h555v-184h-794z" />
<glyph unicode="M" horiz-adv-x="1745" d="M150 0v1427h327l393 -1140h4l396 1140h325v-1427h-219v1124h-4l-389 -1124h-221l-389 1124h-4v-1124h-219z" />
<glyph unicode="N" horiz-adv-x="1366" d="M152 0v1427h294l545 -1050h4v1050h219v-1427h-268l-571 1102h-4v-1102h-219z" />
<glyph unicode="O" horiz-adv-x="1327" d="M92 713q0 344 130.5 540.5t441.5 196.5t441 -197t130 -539.5t-130.5 -539.5t-441 -197t-441 196t-130.5 540zM356 714q0 -564 307.5 -564t307.5 564t-307.5 564t-307.5 -564z" />
<glyph unicode="P" d="M150 0v1427h364q102 0 184.5 -13t153.5 -54q158 -91 158 -344q0 -158 -77 -249q-135 -159 -419 -159h-125v-608h-239zM389 780h125q114 0 183 59t69 163t-29 156q-53 97 -223 97h-125v-475z" />
<glyph unicode="Q" horiz-adv-x="1366" d="M90 719q0 338 130.5 534.5t441.5 196.5t441 -197t130 -552.5t-146 -528.5l256 14v-186h-681q-310 0 -441 190.5t-131 528.5zM354 725q0 -553 307.5 -553t307.5 553t-307.5 553t-307.5 -553z" />
<glyph unicode="R" horiz-adv-x="1139" d="M147 0v1427h428q455 0 455 -374q0 -197 -137 -277q-61 -35 -143 -55v-4q133 -27 184 -113q25 -40 37.5 -81.5t29.5 -121.5l86 -401h-243l-66 307q-27 130 -53 189.5t-81 87.5t-163 28h-94v-612h-240zM387 784h94q90 0 155 18t107.5 72t42.5 140.5t-24 137.5 q-49 103 -187 103h-188v-471z" />
<glyph unicode="S" horiz-adv-x="1063" d="M70 1074q0 129 64 212t175 123.5t253 40.5t339 -39v-223q-106 43 -182.5 66.5t-172 23.5t-154 -44t-58.5 -128.5t60.5 -129t247 -149.5t276.5 -201.5t90 -242.5q0 -193 -144 -302q-139 -104 -377 -104q-151 0 -391 60v250q141 -85 228.5 -111t194.5 -26t165.5 58.5 t58.5 150.5t-79.5 157t-249 159t-257 182t-87.5 217z" />
<glyph unicode="T" horiz-adv-x="948" d="M0 1243v184h948v-184h-354v-1243h-240v1243h-354z" />
<glyph unicode="U" horiz-adv-x="1251" d="M135 436v991h240v-991q0 -286 251 -286t251 286v991h239v-991q0 -306 -226 -409q-110 -50 -260.5 -50t-261.5 50.5t-172 153.5t-61 255z" />
<glyph unicode="V" horiz-adv-x="1176" d="M-35 1427h250l369 -1148h4l375 1148h249l-485 -1427h-289z" />
<glyph unicode="W" horiz-adv-x="1858" d="M47 1427h219l203 -1073h4l361 1073h192l365 -1073h4l198 1073h219l-266 -1427h-250l-364 1055h-4l-359 -1055h-250z" />
<glyph unicode="X" horiz-adv-x="1176" d="M0 0l455 754l-400 673h262l273 -444l264 444h266l-397 -673l455 -754h-271l-317 526l-318 -526h-272z" />
<glyph unicode="Y" horiz-adv-x="1100" d="M-35 1427h273l313 -514l313 514h273l-467 -765v-662h-240v662z" />
<glyph unicode="Z" d="M35 0v184l645 1059h-610v184h888v-184l-645 -1059h676v-184h-954z" />
<glyph unicode="[" horiz-adv-x="721" d="M201 -260v1853h497v-166h-268v-1521h268v-166h-497z" />
<glyph unicode="\" horiz-adv-x="645" d="M-20 1575h217l469 -1856h-217z" />
<glyph unicode="]" horiz-adv-x="721" d="M23 -94h268v1521h-268v166h497v-1853h-497v166z" />
<glyph unicode="^" horiz-adv-x="872" d="M127 1071l246 356h127l245 -356h-165l-144 186l-143 -186h-166z" />
<glyph unicode="_" d="M0 -156h1024v-102h-1024v102z" />
<glyph unicode="`" horiz-adv-x="676" d="M82 1501h246l94 -344h-170z" />
<glyph unicode="a" horiz-adv-x="985" d="M92 252q0 132 98 205t210 91t237 21v97q0 85 -29.5 132.5t-107.5 47.5q-150 0 -150 -152h-221q0 144 93 228q93 86 278 86q354 0 354 -308v-700h-217v115h-4q-65 -138 -254 -138q-125 0 -205 71q-82 72 -82 204zM313 256q0 -56 31 -86.5t95 -30.5t110 43q88 84 88 252 q-131 0 -227.5 -43.5t-96.5 -134.5z" />
<glyph unicode="b" d="M121 418v1009h227v-561h4q90 142 256 142t249 -134.5t83 -381.5q0 -320 -168 -446q-92 -69 -244 -69q-195 0 -301 112t-106 329zM348 501q0 -138 16 -213q30 -149 164 -149q170 0 170 353q0 169 -33 268.5t-131.5 99.5t-142 -110.5t-43.5 -248.5z" />
<glyph unicode="c" horiz-adv-x="909" d="M78 537q0 288 194 409q101 62 252 62q201 0 286 -101.5t85 -259.5h-242q0 199 -147 199q-60 0 -102 -35q-85 -70 -85 -233q0 -108 41 -209t131.5 -165.5t207.5 -64.5t186 25v-141q-147 -46 -285 -46q-235 0 -378.5 137.5t-143.5 422.5z" />
<glyph unicode="d" d="M82 492q0 229 83.5 372.5t250.5 143.5q96 0 154 -43.5t89 -98.5h5v561h227v-1427h-227v137h-5q-18 -51 -89 -105.5t-154 -54.5q-334 0 -334 515zM324 492q0 -336 168 -336q87 0 129.5 99.5t42.5 236.5q0 337 -172 337q-102 0 -135 -92.5t-33 -244.5z" />
<glyph unicode="e" horiz-adv-x="948" d="M82 545q0 294 182 405q93 58 210 58t187.5 -28t116.5 -81q92 -106 92 -291v-55h-577q0 -80 37.5 -177t120.5 -167t208 -70q79 0 187 37v-160q-123 -39 -273 -39q-236 0 -363.5 148t-127.5 420zM299 690h356q0 66 -38.5 118t-117.5 52t-118 -28q-72 -52 -82 -142z" />
<glyph unicode="f" horiz-adv-x="758" d="M45 825v160h178v133q0 216 179 293q91 39 225.5 39t222.5 -20v-177q-89 35 -178 35q-129 0 -175 -65t-46 -170v-68h286v-160h-286v-825h-228v825h-178z" />
<glyph unicode="g" d="M82 514q0 297 148 428q76 66 169 66t142.5 -23.5t73 -49t53.5 -69.5h4v119h217v-1053q0 -275 -211 -357q-103 -40 -249 -40t-310 39v225q156 -86 304 -86t198.5 81t50.5 206v154h-4q-94 -154 -252 -154q-122 0 -197 70q-137 128 -137 444zM324 514q0 -138 34 -237 t134 -99q61 0 102 52q78 99 78 284q0 179 -74 267q-41 48 -106 48q-168 0 -168 -315z" />
<glyph unicode="h" horiz-adv-x="1063" d="M141 0v1427h228v-626h4q32 78 100.5 142.5t186.5 64.5t192 -82.5t74 -243.5v-682h-228v563q0 184 -36 214q-20 16 -78.5 16t-110 -56t-78 -141t-26.5 -170v-426h-228z" />
<glyph unicode="i" horiz-adv-x="530" d="M152 0v985h227v-985h-227zM152 1200v227h227v-227h-227z" />
<glyph unicode="j" horiz-adv-x="530" d="M-150 -295q66 -8 101 -8q169 0 201 136q16 65 16 167v985h227v-1046q0 -238 -140.5 -321t-326.5 -83l-78 4v166zM168 1200v227h227v-227h-227z" />
<glyph unicode="k" horiz-adv-x="985" d="M137 0v1427h228v-819l315 377h272l-360 -426l393 -559h-272l-344 496h-4v-496h-228z" />
<glyph unicode="l" horiz-adv-x="530" d="M152 0v1427h227v-1427h-227z" />
<glyph unicode="m" horiz-adv-x="1554" d="M141 0v985h228v-151h4q28 66 89.5 120t160 54t165 -49t86.5 -148h5q27 71 99 134t181.5 63t183.5 -82.5t74 -243.5v-682h-227v563q0 185 -38 214q-20 16 -72 16t-96.5 -56.5t-67.5 -141t-23 -169.5v-426h-227v563q0 185 -38 214q-20 16 -72.5 16t-97.5 -57 q-89 -115 -89 -310v-426h-228z" />
<glyph unicode="n" horiz-adv-x="1063" d="M141 0v985h228v-184h4q32 78 100.5 142.5t186.5 64.5t192 -82.5t74 -243.5v-682h-228v563q0 184 -36 214q-20 16 -78.5 16t-110 -56t-78 -141t-26.5 -170v-426h-228z" />
<glyph unicode="o" d="M82 472.5q0 143.5 27 237t82 160.5q112 138 321 138q208 0 320 -136q110 -133 110 -380q0 -331 -195 -454q-97 -61 -235 -61q-280 0 -381 237q-49 115 -49 258.5zM324 492q0 -167 38 -260t150 -93t150 93.5t38 259.5t-38 260t-150 94t-150 -93.5t-38 -260.5z" />
<glyph unicode="p" d="M135 -442v1427h227v-137h5q20 52 89 106t152 54q124 0 198 -68q138 -127 138 -448q0 -228 -84 -371.5t-246.5 -143.5t-246.5 142h-5v-561h-227zM362 492q0 -336 170 -336q130 0 158 166q12 73 12 170q0 337 -170 337q-85 0 -127.5 -102t-42.5 -235z" />
<glyph unicode="q" d="M82 492q0 516 334 516q83 0 154 -54.5t89 -105.5h5v137h227v-1427h-227v561h-5q-78 -142 -243.5 -142t-249.5 143.5t-84 371.5zM324 492q0 -152 24 -216t57 -92t87 -28q172 0 172 336q0 192 -73 286q-39 51 -99 51q-168 0 -168 -337z" />
<glyph unicode="r" horiz-adv-x="721" d="M137 0v985h228v-182h4q38 65 71 106q80 99 244 99v-240q-225 0 -287 -142q-32 -73 -32 -194v-432h-228z" />
<glyph unicode="s" horiz-adv-x="758" d="M74 718.5q0 90.5 43 155.5q89 134 307 134q64 0 107.5 -9.5t113.5 -27.5v-195q-119 66 -197 66t-125 -25t-47 -65.5t77.5 -93t156.5 -102.5q195 -122 195 -276.5t-100 -228.5t-253 -74t-274 39v199q132 -59 248 -59q61 0 114.5 18.5t53.5 63t-37 71.5t-154.5 106 t-173 146t-55.5 157.5z" />
<glyph unicode="t" horiz-adv-x="758" d="M41 825v160h190v234l228 139v-373h289v-160h-289v-465q0 -144 53 -192q33 -29 88 -29t117 17v-162q-105 -17 -187 -17q-177 0 -238 70t-61 201v577h-190z" />
<glyph unicode="u" horiz-adv-x="1063" d="M139 301v684h228v-563q0 -184 36 -213q20 -16 77 -16t109.5 56t79.5 142.5t27 167.5v426h228v-985h-228v184h-4q-33 -80 -102.5 -143.5t-185 -63.5t-190.5 82t-75 242z" />
<glyph unicode="v" horiz-adv-x="909" d="M-2 985h238l217 -674h4l219 674h237l-348 -985h-221z" />
<glyph unicode="w" horiz-adv-x="1403" d="M68 985h208l144 -674h4l201 674h155l201 -674h4l143 674h209l-219 -985h-227l-186 629h-5l-186 -629h-227z" />
<glyph unicode="x" horiz-adv-x="985" d="M0 0l369 512l-322 473h260l187 -270l186 270h260l-315 -461l362 -524h-262l-231 338l-234 -338h-260z" />
<glyph unicode="y" horiz-adv-x="909" d="M-2 985h238l225 -663h4l211 663h237l-485 -1427h-209l139 430z" />
<glyph unicode="z" horiz-adv-x="797" d="M35 0v160l446 665h-420v160h682v-160l-446 -665h465v-160h-727z" />
<glyph unicode="{" horiz-adv-x="1139" d="M289 444v50q98 31 161.5 98.5t63.5 165.5q0 46 -22 151q-35 161 -35 249t63.5 167t162.5 125t206 51v-51q-107 -24 -163 -105t-56 -158.5t14 -192.5t14 -165q0 -104 -53 -176.5t-122 -113t-142 -70.5q82 -36 146.5 -75t117.5 -110.5t53 -172.5q0 -54 -14 -168.5t-14 -191 t55.5 -156t163.5 -105.5v-53q-162 6 -297 108.5t-135 243.5q0 75 28.5 215t28.5 189.5t-31 102.5q-63 109 -194 148z" />
<glyph unicode="|" horiz-adv-x="606" d="M205 -260v1853h198v-1853h-198z" />
<glyph unicode="}" horiz-adv-x="1139" d="M256 -510q109 26 164 105t55 156t-14.5 197.5t-14.5 162.5q0 101 53.5 173t118 110.5t146.5 74.5q-73 30 -142 70.5t-122.5 113t-53.5 176.5q0 41 14.5 160t14.5 180.5t-24 119.5q-52 126 -195 161v51q166 -6 296 -105q136 -103 136 -245q0 -96 -24 -203 q-33 -146 -33 -190q0 -98 63.5 -165t161.5 -99v-50q-96 -30 -160.5 -100t-64.5 -162q0 -38 28.5 -178t28.5 -213.5t-36.5 -136t-100.5 -111.5q-130 -99 -295 -106v53z" />
<glyph unicode="~" horiz-adv-x="1251" d="M133 354v189q0 121 74 177q37 28 91 28t87.5 -14.5t103.5 -51.5l312 -154q64 -37 78.5 -42t31.5 -5q35 0 35 74v145h170v-159q0 -236 -194 -236q-62 0 -181 64l-305 151q-72 39 -92 39q-41 0 -41 -98v-107h-170z" />
<glyph horiz-adv-x="0" d="M-940 264q2 89 61 156t152 67q49 0 49 -49q0 -28 -48 -49.5t-71.5 -41.5t-23.5 -83t49 -98t123 -35q4 2 8 2q70 0 138.5 26t113.5 75t45 106.5t-30 114.5t-88 143.5t-88 150.5t-30 130q0 202 197 376q89 81 204 138t201.5 57t133.5 -37t47 -106q0 -22 -6 -43 q88 80 202 136t202 56t134.5 -37t46.5 -113.5t-61.5 -158.5t-136.5 -141q-189 -148 -277 -148q-19 0 -38 14t-19 33l2 4q0 40 70 66q110 36 194 103q158 123 158 212q0 31 -19 48.5t-68.5 17.5t-134.5 -40t-154 -93.5t-127 -142t-58 -166t30.5 -141.5t90.5 -155.5t91 -151 t31 -116.5q0 -92 -64 -164.5t-162 -111.5t-187 -39q-191 0 -262 110q-61 -54 -149.5 -85t-179.5 -31t-160 33q-132 64 -132 202zM-467 916q0 -70 20.5 -123t45 -94t76.5 -123t69 -119q61 37 96 37q62 0 62 -50q0 -19 -12.5 -29.5t-40 -21t-46.5 -21.5q-45 -28 -45 -114 q4 -57 53.5 -89t118.5 -32q4 2 9 2q70 0 138.5 26t113.5 75t45 106.5t-30 114.5t-88 143.5t-88 150.5t-30 131.5t23 133.5q-5 -4 -14 -14t-43.5 -37t-112 -72t-111.5 -45t-53 14t-19 33l2 4q0 40 70 66q108 35 207 110q145 121 145 205q0 31 -19 48.5t-67.5 17.5t-133 -39.5 t-155.5 -94t-128.5 -142.5t-57.5 -158zM360 86q0 60 68 212t151 281.5t115 129.5q16 0 27.5 -10.5t11.5 -27t-55 -102.5q-142 -219 -209 -444q-14 -50 -24 -69t-34.5 -19t-37.5 15t-13 34zM766 954q0 26 21 62t50.5 62t55.5 26q49 0 49 -49q0 -27 -21.5 -63.5t-51.5 -62.5 t-56 -26q-47 0 -47 51z" />
<glyph unicode="&#xa1;" horiz-adv-x="645" d="M106 862v285h281v-285h-281zM125 -281l16 1002h211l17 -1002h-244z" />
<glyph unicode="&#xa2;" horiz-adv-x="985" d="M68 535q0 221 108 346q101 117 285 127v172h102v-172q156 -18 256.5 -107.5t100.5 -253.5h-234q0 98 -27 164t-96 92v-803q43 -14 103 -14q121 0 225 51v-98q-146 -62 -328 -62v-194h-102v194q-176 31 -284.5 160t-108.5 398zM324 560q0 -152 37 -243t100 -159v745 q-75 -25 -106 -108t-31 -235z" />
<glyph unicode="&#xa3;" d="M66 604v148h151v307q0 165 110.5 242t269.5 77t253 -46.5t141 -121.5t49 -157h-256q-12 68 -42.5 111.5t-125.5 43.5t-132.5 -55t-37.5 -154v-247h295v-148h-295v-403h549v-201h-778v604h-151z" />
<glyph unicode="&#xa4;" d="M27 1083l65 66l141 -141q128 94 280 94t280 -94l141 141l65 -66l-143 -141q98 -106 98 -281.5t-96 -287.5l137 -137l-61 -64l-135 135q-129 -96 -287 -96t-285 96l-135 -135l-61 64l137 137q-96 106 -96 275t98 294zM156 653q0 -95 48.5 -178.5t131 -131.5t167.5 -48 t148 27.5t113 77.5q106 106 106 253q0 150 -104 259q-103 106 -252 106q-74 0 -138 -27.5t-114 -78.5q-106 -108 -106 -259z" />
<glyph unicode="&#xa5;" horiz-adv-x="1100" d="M-37 1427h273l315 -514l311 514h273l-291 -479h215v-141h-301l-88 -145v-95h389v-141h-389v-426h-240v426h-391v141h391v95l-88 145h-303v141h217z" />
<glyph unicode="&#xa6;" horiz-adv-x="606" d="M205 -260v741h198v-741h-198zM205 850v743h198v-743h-198z" />
<glyph unicode="&#xa7;" d="M66 735q0 144 137 246q-39 39 -64.5 80t-25.5 122.5t59 144.5q114 122 348 122q166 0 352 -53v-189q-182 80 -348 80q-69 0 -117.5 -27t-48.5 -63q0 -61 59 -91.5t221 -93t242.5 -127.5t80.5 -163.5t-40.5 -158.5t-91.5 -91q41 -38 69 -83.5t28 -132t-61.5 -151t-163 -97 t-244 -32.5t-316.5 54v190q223 -82 353 -82q72 0 129 22t57 80t-66 94.5t-226.5 104.5t-241 132.5t-80.5 162.5zM256 817q0 -43 44 -78t129.5 -73t163.5 -69.5t132 -61.5q45 58 45 99t-44 76t-95 59.5t-169.5 74.5t-154.5 67q-51 -51 -51 -94z" />
<glyph unicode="&#xa8;" horiz-adv-x="676" d="M0 1180v229h252v-229h-252zM422 1180v229h252v-229h-252z" />
<glyph unicode="&#xa9;" d="M31 963.5q0 131.5 65 243t176 177.5t224 66t200.5 -37.5t155.5 -106.5q141 -142 141 -341q0 -202 -139 -345q-140 -143 -358 -143q-113 0 -224 65.5t-176 177.5t-65 243.5zM102 964.5q0 -112.5 55 -207t151 -150.5t204 -56t204 56t151 150.5t55 193.5t-32.5 175 t-88.5 132q-120 120 -289 120q-108 0 -204 -56t-151 -150.5t-55 -207zM256 973q0 116 85 196t196 80q71 0 115 -24t79 -56l-53 -69q-74 65 -143.5 65t-129 -53t-59.5 -141t58 -139.5t119 -51.5t89 15t66 47l53 -66q-38 -34 -79.5 -58t-115.5 -24t-138 37t-103 101t-39 141z " />
<glyph unicode="&#xaa;" horiz-adv-x="569" d="M63 731q0 112 96 146t206 34v58q0 98 -76 98q-37 0 -58.5 -21.5t-21.5 -62.5h-125q0 82 55 127t145 45q195 0 195 -156v-399h-114v64h-5q-31 -74 -139 -74q-68 0 -113 38.5t-45 102.5zM186 741q0 -65 66 -65q55 0 84 50t29 114q-61 0 -120 -21.5t-59 -77.5z" />
<glyph unicode="&#xab;" horiz-adv-x="834" d="M63 524l146 398h211l-129 -398l129 -399h-211zM406 524l145 398h211l-129 -398l129 -399h-211z" />
<glyph unicode="&#xac;" horiz-adv-x="1214" d="M119 434v187h979v-545h-199v358h-780z" />
<glyph unicode="&#xad;" horiz-adv-x="948" d="M94 422v223h762v-223h-762z" />
<glyph unicode="&#xae;" d="M31 963.5q0 131.5 65 243t176 177.5t224 66t200.5 -37.5t155.5 -106.5q141 -142 141 -341q0 -202 -139 -345q-140 -143 -358 -143q-113 0 -224 65.5t-176 177.5t-65 243.5zM102 964.5q0 -112.5 55 -207t151 -150.5t204 -56t204 56t151 150.5t55 193.5t-32.5 175 t-88.5 132q-120 120 -289 120q-108 0 -204 -56t-151 -150.5t-55 -207zM330 719v514h170q93 0 150 -32t57 -134q0 -58 -23.5 -81.5t-65.5 -43.5l95 -223h-103l-78 207h-110v-207h-92zM422 1010h110q78 0 78 65q0 70 -86 70h-102v-135z" />
<glyph unicode="&#xaf;" horiz-adv-x="676" d="M25 1157v158h626v-158h-626z" />
<glyph unicode="&#xb0;" horiz-adv-x="721" d="M123 1094q0 63 31.5 119.5t87 88t119 31.5t119 -31.5t87 -88t31.5 -119.5q0 -98 -69 -169t-168.5 -71t-168.5 71.5t-69 168.5zM240 1094.5q0 -51.5 35 -86.5t85.5 -35t85.5 35t35 86.5t-34.5 87t-86 35.5t-86 -35.5t-34.5 -87z" />
<glyph unicode="&#xb1;" horiz-adv-x="1214" d="M121 -96h973v-187h-973v187zM121 434v187h387v387h199v-387h387v-187h-387v-434h-199v434h-387z" />
<glyph unicode="&#xb2;" horiz-adv-x="797" d="M78 418v133q50 40 152.5 139.5t185 213t82.5 181t-31.5 104t-92 36.5t-90.5 -34t-30 -85h-174q10 97 73 162t228 65q171 0 251 -113q40 -57 40 -145.5t-45 -171t-108 -145.5t-126 -112t-125 -97h408v-131h-598z" />
<glyph unicode="&#xb3;" horiz-adv-x="797" d="M63 616h185q10 -106 119 -106q139 0 139 162q0 99 -52 131.5t-139 32.5v110q81 0 125.5 26t44.5 104.5t-23.5 113.5t-84.5 35q-113 0 -117 -105h-174q0 54 33 103t98.5 79.5t150.5 30.5t151 -25.5t103 -77t37 -136.5t-42 -136t-99 -65v-4q78 -18 120 -69t42 -156 q0 -263 -303 -263q-163 0 -234 61t-80 154z" />
<glyph unicode="&#xb4;" horiz-adv-x="676" d="M252 1157l94 344h246l-170 -344h-170z" />
<glyph unicode="&#xb5;" horiz-adv-x="1063" d="M143 -442v1427h228v-563q0 -184 57 -230q31 -26 86.5 -26t93.5 51q76 100 76 342v426h227v-690q0 -109 30.5 -141.5t102.5 -32.5v-125q-217 -52 -304 47q-31 36 -48 98q-74 -164 -231 -164q-48 0 -90 23v-442h-228z" />
<glyph unicode="&#xb6;" horiz-adv-x="1139" d="M190 926q0 304 220.5 402.5t490.5 98.5h141v-79h-143v-1792h-78v1790q-29 -4 -100 -13v-1777h-76v903q-112 22 -211.5 70t-170 145.5t-73.5 251.5z" />
<glyph unicode="&#xb8;" horiz-adv-x="676" d="M201 -358q45 -29 72 -41.5t67.5 -12.5t64 29t23.5 61q0 62 -45 87.5t-83.5 25.5t-72.5 -8l58 250h116l-39 -168q14 2 29 2q73 0 136 -45t63 -140.5t-61.5 -154.5t-155.5 -59t-172 45v129z" />
<glyph unicode="&#xb9;" horiz-adv-x="797" d="M170 1090v135l209 108h131v-915h-160v776z" />
<glyph unicode="&#xba;" horiz-adv-x="569" d="M47 872.5q0 282.5 237.5 282.5t237.5 -282.5t-237.5 -282.5t-237.5 282.5zM180 871.5q0 -195.5 104.5 -195.5t104.5 195.5t-104.5 195.5t-104.5 -195.5z" />
<glyph unicode="&#xbb;" horiz-adv-x="834" d="M76 125l129 399l-129 398h211l145 -398l-145 -399h-211zM418 125l129 399l-129 398h211l145 -398l-145 -399h-211z" />
<glyph unicode="&#xbc;" horiz-adv-x="1821" d="M102 1090v135l209 108h131v-915h-159v776zM526 0l475 1311h156l-475 -1311h-156zM1008 221v115l374 559h181v-547h155v-127h-155v-221h-156v221h-399zM1155 348h252v385h-4z" />
<glyph unicode="&#xbd;" horiz-adv-x="1821" d="M145 1090v135l209 108h131v-915h-159v776zM522 0l475 1311h158l-477 -1311h-156zM1077 0v135q211 179 339 353q81 112 81 181.5t-30.5 104.5t-92 35t-91.5 -34t-30 -87h-174q7 59 32.5 109.5t90.5 85.5t183.5 35t202 -66t83.5 -174t-45 -191t-106 -144q-92 -92 -252 -212 h407v-131h-598z" />
<glyph unicode="&#xbe;" horiz-adv-x="1821" d="M63 616h185q10 -106 119 -106q139 0 139 162q0 99 -52 131.5t-139 32.5v110q81 0 125.5 26t44.5 104.5t-23.5 113.5t-84.5 35q-113 0 -117 -105h-174q0 54 33 103t98.5 79.5t150.5 30.5t151 -25.5t103 -77t37 -136.5t-42 -136t-99 -65v-4q78 -18 120 -69t42 -156 q0 -263 -303 -263q-163 0 -234 61t-80 154zM594 0l477 1311h156l-475 -1311h-158zM1075 221v115l375 559h180v-547h156v-127h-156v-221h-155v221h-400zM1223 348h252v385h-5z" />
<glyph unicode="&#xbf;" horiz-adv-x="948" d="M66 27q0 101 51.5 175.5t152.5 162.5t147 142.5t46 125.5v88h223v-148q0 -76 -49.5 -143t-144 -149t-140 -134t-45.5 -112q0 -162 215 -162q78 0 166.5 25.5t142.5 54.5v-221q-148 -35 -330 -35t-308.5 83.5t-126.5 246.5zM438 862v285h281v-285h-281z" />
<glyph unicode="&#xc0;" horiz-adv-x="1251" d="M0 0l483 1427h289l481 -1427h-249l-123 387h-508l-123 -387h-250zM371 1944h245l95 -345h-170zM430 571h393l-194 627h-4z" />
<glyph unicode="&#xc1;" horiz-adv-x="1251" d="M0 0l483 1427h289l481 -1427h-249l-123 387h-508l-123 -387h-250zM430 571h393l-194 627h-4zM541 1599l94 345h246l-170 -345h-170z" />
<glyph unicode="&#xc2;" horiz-adv-x="1251" d="M0 0l483 1427h289l481 -1427h-249l-123 387h-508l-123 -387h-250zM317 1599l199 308h221l199 -308h-166l-143 173l-144 -173h-166zM430 571h393l-194 627h-4z" />
<glyph unicode="&#xc3;" horiz-adv-x="1251" d="M0 0l483 1427h289l481 -1427h-249l-123 387h-508l-123 -387h-250zM344 1618q0 198 52 252q30 31 83 31q56 0 204 -100q56 -38 74 -38t24.5 23.5t6.5 95.5h121q0 -107 -9.5 -166.5t-39 -88t-82.5 -28.5t-93 21t-104 62.5t-82.5 41.5t-26 -21t-7.5 -85h-121zM430 571h393 l-194 627h-4z" />
<glyph unicode="&#xc4;" horiz-adv-x="1251" d="M0 0l483 1427h289l481 -1427h-249l-123 387h-508l-123 -387h-250zM289 1622v229h252v-229h-252zM430 571h393l-194 627h-4zM711 1622v229h252v-229h-252z" />
<glyph unicode="&#xc5;" horiz-adv-x="1251" d="M0 0l483 1427h289l481 -1427h-249l-123 387h-508l-123 -387h-250zM420 1793.5q0 70.5 28.5 118.5t76.5 76.5t102.5 28.5t102 -28.5t76 -76t28.5 -105t-28.5 -105.5t-76 -76.5t-117.5 -28.5t-131 63t-61 133.5zM430 571h393l-194 627h-4zM539 1807.5q0 -37.5 26 -63.5 t63 -26t62 26t25 63.5t-24.5 63t-62.5 25.5t-63.5 -25.5t-25.5 -63z" />
<glyph unicode="&#xc6;" horiz-adv-x="1782" d="M2 0l799 1427h899v-184h-547l39 -491h477v-185h-463l31 -383h479v-184h-696l-45 567h-410l-291 -567h-272zM662 752h296l-36 501h-4z" />
<glyph unicode="&#xc7;" horiz-adv-x="1139" d="M92 757.5q0 179.5 57 343.5t181.5 256.5t318.5 92.5q235 0 359 -122q116 -114 116 -292h-266q0 150 -77 208q-46 34 -146 34t-166 -78q-113 -134 -113 -442q0 -590 385 -590q161 0 330 104v-213q-196 -82 -385 -82q-33 0 -45 3l-27 -115q14 2 29 2q73 0 136 -45 t63 -140.5t-61.5 -154.5t-155.5 -59t-172 45v129q47 -31 73.5 -42.5t66.5 -11.5t63.5 29t23.5 61q0 62 -45 87.5t-83.5 25.5t-72.5 -8l49 213q-329 73 -410 460q-26 122 -26 301.5z" />
<glyph unicode="&#xc8;" horiz-adv-x="1063" d="M152 0v1427h825v-184h-586v-412h555v-184h-555v-463h602v-184h-841zM307 1944h246l94 -345h-170z" />
<glyph unicode="&#xc9;" horiz-adv-x="1063" d="M152 0v1427h825v-184h-586v-412h555v-184h-555v-463h602v-184h-841zM467 1599l94 345h246l-170 -345h-170z" />
<glyph unicode="&#xca;" horiz-adv-x="1063" d="M152 0v1427h825v-184h-586v-412h555v-184h-555v-463h602v-184h-841zM244 1599l198 308h222l198 -308h-166l-143 173l-143 -173h-166z" />
<glyph unicode="&#xcb;" horiz-adv-x="1063" d="M152 0v1427h825v-184h-586v-412h555v-184h-555v-463h602v-184h-841zM225 1622v229h252v-229h-252zM647 1622v229h252v-229h-252z" />
<glyph unicode="&#xcc;" horiz-adv-x="604" d="M10 1944h246l94 -345h-170zM145 0v1427h240v-1427h-240z" />
<glyph unicode="&#xcd;" horiz-adv-x="604" d="M145 0v1427h240v-1427h-240zM180 1599l94 345h246l-170 -345h-170z" />
<glyph unicode="&#xce;" horiz-adv-x="604" d="M-43 1599l199 308h221l198 -308h-165l-144 173l-143 -173h-166zM145 0v1427h240v-1427h-240z" />
<glyph unicode="&#xcf;" horiz-adv-x="604" d="M-72 1622v229h252v-229h-252zM145 0v1427h240v-1427h-240zM350 1622v229h252v-229h-252z" />
<glyph unicode="&#xd0;" horiz-adv-x="1214" d="M0 676v131h154v620h350q340 0 480 -162q140 -163 140 -548q0 -440 -193 -599q-88 -73 -192.5 -95.5t-234.5 -22.5h-350v676h-154zM393 172h111q126 0 204 46q152 92 152 499q0 185 -28 301t-106 176.5t-222 60.5h-111v-448h256v-131h-256v-504z" />
<glyph unicode="&#xd1;" horiz-adv-x="1366" d="M152 0v1427h294l545 -1050h4v1050h219v-1427h-268l-571 1102h-4v-1102h-219zM401 1618q0 199 53 252q30 31 82 31q56 0 213 -105q48 -33 65.5 -33t24.5 23t7 96h121q0 -107 -10 -166.5t-39.5 -88t-82.5 -28.5t-93 21t-104 62.5t-82.5 41.5t-26 -21t-7.5 -85h-121z" />
<glyph unicode="&#xd2;" horiz-adv-x="1327" d="M92 713q0 344 130.5 540.5t441.5 196.5t441 -197t130 -539.5t-130.5 -539.5t-441 -197t-441 196t-130.5 540zM356 714q0 -564 307.5 -564t307.5 564t-307.5 564t-307.5 -564zM408 1944h245l95 -345h-170z" />
<glyph unicode="&#xd3;" horiz-adv-x="1327" d="M92 713q0 344 130.5 540.5t441.5 196.5t441 -197t130 -539.5t-130.5 -539.5t-441 -197t-441 196t-130.5 540zM356 714q0 -564 307.5 -564t307.5 564t-307.5 564t-307.5 -564zM578 1599l94 345h246l-170 -345h-170z" />
<glyph unicode="&#xd4;" horiz-adv-x="1327" d="M92 713q0 344 130.5 540.5t441.5 196.5t441 -197t130 -539.5t-130.5 -539.5t-441 -197t-441 196t-130.5 540zM354 1599l199 308h221l199 -308h-166l-143 173l-144 -173h-166zM356 714q0 -564 307.5 -564t307.5 564t-307.5 564t-307.5 -564z" />
<glyph unicode="&#xd5;" horiz-adv-x="1327" d="M92 713q0 344 130.5 540.5t441.5 196.5t441 -197t130 -539.5t-130.5 -539.5t-441 -197t-441 196t-130.5 540zM356 714q0 -564 307.5 -564t307.5 564t-307.5 564t-307.5 -564zM381 1618q0 198 53 252q29 31 81 31q57 0 205 -100q56 -38 74 -38t24.5 23.5t6.5 95.5h121 q0 -107 -9.5 -166.5t-39 -88t-83 -28.5t-94.5 21t-103 62.5t-81 41.5t-26.5 -21t-7.5 -85h-121z" />
<glyph unicode="&#xd6;" horiz-adv-x="1327" d="M92 713q0 344 130.5 540.5t441.5 196.5t441 -197t130 -539.5t-130.5 -539.5t-441 -197t-441 196t-130.5 540zM326 1622v229h252v-229h-252zM356 714q0 -564 307.5 -564t307.5 564t-307.5 564t-307.5 -564zM748 1622v229h251v-229h-251z" />
<glyph unicode="&#xd7;" horiz-adv-x="1214" d="M123 147l346 363l-346 367l139 131l344 -353l344 353l140 -131l-342 -367l342 -363l-140 -147l-344 362l-350 -362z" />
<glyph unicode="&#xd8;" horiz-adv-x="1327" d="M92 696.5q0 358.5 131 556t441 197.5q206 0 340 -94l108 166l117 -72l-127 -195q133 -183 133 -533.5t-130.5 -547.5t-440.5 -197q-193 0 -328 86l-103 -157l-114 71l114 181q-141 180 -141 538.5zM356 713q0 -190 33 -314l492 762q-76 117 -217 117q-308 0 -308 -565z M457 252q75 -102 207 -102q307 0 307 563q0 174 -29 293z" />
<glyph unicode="&#xd9;" horiz-adv-x="1251" d="M135 436v991h240v-991q0 -286 251 -286t251 286v991h239v-991q0 -306 -226 -409q-110 -50 -260.5 -50t-261.5 50.5t-172 153.5t-61 255zM371 1944h245l95 -345h-170z" />
<glyph unicode="&#xda;" horiz-adv-x="1251" d="M135 436v991h240v-991q0 -286 251 -286t251 286v991h239v-991q0 -306 -226 -409q-110 -50 -260.5 -50t-261.5 50.5t-172 153.5t-61 255zM541 1599l94 345h246l-170 -345h-170z" />
<glyph unicode="&#xdb;" horiz-adv-x="1251" d="M135 436v991h240v-991q0 -286 251 -286t251 286v991h239v-991q0 -306 -226 -409q-110 -50 -260.5 -50t-261.5 50.5t-172 153.5t-61 255zM317 1599l199 308h221l199 -308h-166l-143 173l-144 -173h-166z" />
<glyph unicode="&#xdc;" horiz-adv-x="1251" d="M135 436v991h240v-991q0 -286 251 -286t251 286v991h239v-991q0 -306 -226 -409q-110 -50 -260.5 -50t-261.5 50.5t-172 153.5t-61 255zM289 1622v229h252v-229h-252zM711 1622v229h252v-229h-252z" />
<glyph unicode="&#xdd;" horiz-adv-x="1100" d="M-35 1427h273l313 -514l313 514h273l-467 -765v-662h-240v662zM496 1599l94 345h246l-170 -345h-170z" />
<glyph unicode="&#xde;" horiz-adv-x="1251" d="M145 0v1427h240v-247h240q157 0 252.5 -14t162.5 -58q134 -86 134 -375q0 -176 -55 -269.5t-172 -127t-322 -33.5h-240v-303h-240zM385 475h240q219 0 276 111q29 56 29 154t-28 157.5t-92.5 85t-184.5 25.5h-240v-533z" />
<glyph unicode="&#xdf;" horiz-adv-x="1100" d="M123 0v948q0 143 31 252.5t122 179.5t234 70t236 -44t143.5 -126t50.5 -187.5t-30 -171.5q-53 -116 -201 -151v-4q136 -17 216.5 -104.5t80.5 -278t-99 -298.5t-299 -108q-89 0 -170 23v135q78 -24 138.5 -24t105.5 37q82 69 82 239q0 235 -110 287q-56 26 -150 31v131 q67 0 109 22q85 45 85 223q0 104 -38.5 170t-137.5 66t-135.5 -80.5t-36.5 -212.5v-1024h-227z" />
<glyph unicode="&#xe0;" horiz-adv-x="985" d="M92 252q0 132 98 205t210 91t237 21v97q0 85 -29.5 132.5t-107.5 47.5q-150 0 -150 -152h-221q0 144 93 228q93 86 278 86q354 0 354 -308v-700h-217v115h-4q-65 -138 -254 -138q-125 0 -205 71q-82 72 -82 204zM238 1501h245l95 -344h-170zM313 256q0 -56 31 -86.5 t95 -30.5t110 43q88 84 88 252q-131 0 -227.5 -43.5t-96.5 -134.5z" />
<glyph unicode="&#xe1;" horiz-adv-x="985" d="M92 252q0 132 98 205t210 91t237 21v97q0 85 -29.5 132.5t-107.5 47.5q-150 0 -150 -152h-221q0 144 93 228q93 86 278 86q354 0 354 -308v-700h-217v115h-4q-65 -138 -254 -138q-125 0 -205 71q-82 72 -82 204zM313 256q0 -56 31 -86.5t95 -30.5t110 43q88 84 88 252 q-131 0 -227.5 -43.5t-96.5 -134.5zM408 1157l94 344h246l-170 -344h-170z" />
<glyph unicode="&#xe2;" horiz-adv-x="985" d="M92 252q0 132 98 205t210 91t237 21v97q0 85 -29.5 132.5t-107.5 47.5q-150 0 -150 -152h-221q0 144 93 228q93 86 278 86q354 0 354 -308v-700h-217v115h-4q-65 -138 -254 -138q-125 0 -205 71q-82 72 -82 204zM184 1157l199 307h221l199 -307h-166l-143 172l-144 -172 h-166zM313 256q0 -56 31 -86.5t95 -30.5t110 43q88 84 88 252q-131 0 -227.5 -43.5t-96.5 -134.5z" />
<glyph unicode="&#xe3;" horiz-adv-x="985" d="M92 252q0 132 98 205t210 91t237 21v97q0 85 -29.5 132.5t-107.5 47.5q-150 0 -150 -152h-221q0 144 93 228q93 86 278 86q354 0 354 -308v-700h-217v115h-4q-65 -138 -254 -138q-125 0 -205 71q-82 72 -82 204zM211 1176q0 151 28.5 216.5t108.5 65.5q56 0 202 -99 q56 -38 74 -38t24.5 23.5t6.5 95.5h121q0 -107 -9.5 -166.5t-39 -88t-83 -28.5t-94.5 21t-103 62.5t-81 41.5t-26.5 -21t-7.5 -85h-121zM313 256q0 -56 31 -86.5t95 -30.5t110 43q88 84 88 252q-131 0 -227.5 -43.5t-96.5 -134.5z" />
<glyph unicode="&#xe4;" horiz-adv-x="985" d="M92 252q0 132 98 205t210 91t237 21v97q0 85 -29.5 132.5t-107.5 47.5q-150 0 -150 -152h-221q0 144 93 228q93 86 278 86q354 0 354 -308v-700h-217v115h-4q-65 -138 -254 -138q-125 0 -205 71q-82 72 -82 204zM156 1180v229h252v-229h-252zM313 256q0 -56 31 -86.5 t95 -30.5t110 43q88 84 88 252q-131 0 -227.5 -43.5t-96.5 -134.5zM578 1180v229h251v-229h-251z" />
<glyph unicode="&#xe5;" horiz-adv-x="985" d="M92 252q0 132 98 205t210 91t237 21v97q0 85 -29.5 132.5t-107.5 47.5q-150 0 -150 -152h-221q0 144 93 228q93 86 278 86q354 0 354 -308v-700h-217v115h-4q-65 -138 -254 -138q-125 0 -205 71q-82 72 -82 204zM287 1365.5q0 56.5 28.5 104.5t76.5 76.5t101.5 28.5 t102.5 -29q104 -62 104 -180q0 -57 -28 -105t-76.5 -77t-102 -29t-101.5 28.5t-76.5 77t-28.5 105zM313 256q0 -56 31 -86.5t95 -30.5t110 43q88 84 88 252q-131 0 -227.5 -43.5t-96.5 -134.5zM406 1366q0 -37 25.5 -63.5t63 -26.5t62.5 26t25 57t-12 51q-24 44 -68.5 44 t-70 -25.5t-25.5 -62.5z" />
<glyph unicode="&#xe6;" horiz-adv-x="1518" d="M92 258q0 234 173 304.5t384 70.5q0 114 -26 163.5t-109 49.5t-119.5 -37t-36.5 -82h-221q4 129 102.5 205t267 76t255.5 -111q117 111 302.5 111t279.5 -107t94 -293v-114h-576q0 -69 37 -151.5t120.5 -143t209.5 -60.5q78 0 186 37v-160q-123 -39 -272 -39 q-250 0 -393 187q-45 -80 -135.5 -133.5t-225 -53.5t-216 79t-81.5 202zM313 279q0 -65 34.5 -102.5t86.5 -37.5q125 0 170 90.5t45 264.5q-149 0 -242.5 -51t-93.5 -164zM868 633h357q0 134 -69 194q-37 33 -101.5 33t-106.5 -32q-80 -64 -80 -195z" />
<glyph unicode="&#xe7;" horiz-adv-x="909" d="M78 537q0 288 194 409q101 62 252 62q201 0 286 -101.5t85 -259.5h-242q0 199 -147 199q-60 0 -102 -35q-85 -70 -85 -233q0 -108 41 -209t131.5 -165.5t207.5 -64.5t186 25v-141q-147 -46 -285 -46q-40 0 -94 7l-27 -119q14 2 29 2q73 0 136 -45t63 -140.5t-61.5 -154.5 t-154.5 -59t-174 45v129q45 -29 72 -41.5t68 -12.5t64.5 29t23.5 61q0 62 -45 87.5t-84.5 25.5t-71.5 -8l51 225q-148 50 -232.5 180.5t-84.5 348.5z" />
<glyph unicode="&#xe8;" horiz-adv-x="948" d="M82 545q0 294 182 405q93 58 210 58t187.5 -28t116.5 -81q92 -106 92 -291v-55h-577q0 -80 37.5 -177t120.5 -167t208 -70q79 0 187 37v-160q-123 -39 -273 -39q-236 0 -363.5 148t-127.5 420zM240 1501h245l95 -344h-170zM299 690h356q0 66 -38.5 118t-117.5 52 t-118 -28q-72 -52 -82 -142z" />
<glyph unicode="&#xe9;" horiz-adv-x="948" d="M82 545q0 294 182 405q93 58 210 58t187.5 -28t116.5 -81q92 -106 92 -291v-55h-577q0 -80 37.5 -177t120.5 -167t208 -70q79 0 187 37v-160q-123 -39 -273 -39q-236 0 -363.5 148t-127.5 420zM299 690h356q0 66 -38.5 118t-117.5 52t-118 -28q-72 -52 -82 -142z M410 1157l94 344h246l-170 -344h-170z" />
<glyph unicode="&#xea;" horiz-adv-x="948" d="M82 545q0 294 182 405q93 58 210 58t187.5 -28t116.5 -81q92 -106 92 -291v-55h-577q0 -80 37.5 -177t120.5 -167t208 -70q79 0 187 37v-160q-123 -39 -273 -39q-236 0 -363.5 148t-127.5 420zM166 1157l199 307h221l198 -307h-166l-143 172l-143 -172h-166zM299 690h356 q0 66 -38.5 118t-117.5 52t-118 -28q-72 -52 -82 -142z" />
<glyph unicode="&#xeb;" horiz-adv-x="948" d="M82 545q0 294 182 405q93 58 210 58t187.5 -28t116.5 -81q92 -106 92 -291v-55h-577q0 -80 37.5 -177t120.5 -167t208 -70q79 0 187 37v-160q-123 -39 -273 -39q-236 0 -363.5 148t-127.5 420zM137 1180v229h252v-229h-252zM299 690h356q0 66 -38.5 118t-117.5 52 t-118 -28q-72 -52 -82 -142zM559 1180v229h252v-229h-252z" />
<glyph unicode="&#xec;" horiz-adv-x="604" d="M10 1501h246l94 -344h-170zM152 0v985h227v-985h-227z" />
<glyph unicode="&#xed;" horiz-adv-x="604" d="M152 0v985h227v-985h-227zM180 1157l94 344h246l-170 -344h-170z" />
<glyph unicode="&#xee;" horiz-adv-x="604" d="M-43 1157l199 307h221l198 -307h-165l-144 172l-143 -172h-166zM152 0v985h227v-985h-227z" />
<glyph unicode="&#xef;" horiz-adv-x="604" d="M-72 1180v229h252v-229h-252zM152 0v985h227v-985h-227zM350 1180v229h252v-229h-252z" />
<glyph unicode="&#xf0;" d="M82 491q0 162 44 279q91 238 353 238q52 0 83 -10.5t71 -36.5l4 4q-73 104 -139 157l-217 -73l-33 96l153 53q-144 84 -223 109v6h342q9 -6 76 -49l168 57l33 -98l-111 -37q256 -295 256 -694q0 -331 -195 -454q-97 -61 -235 -61q-280 0 -381 237q-49 115 -49 277z M324 492q0 -167 38 -260t150 -93t150 93.5t38 259.5t-38 260t-150 94t-150 -93.5t-38 -260.5z" />
<glyph unicode="&#xf1;" horiz-adv-x="1063" d="M141 0v985h228v-184h4q32 78 100.5 142.5t186.5 64.5t192 -82.5t74 -243.5v-682h-228v563q0 184 -36 214q-20 16 -78.5 16t-110 -56t-78 -141t-26.5 -170v-426h-228zM250 1176q0 151 28 216.5t109 65.5q56 0 202 -99q56 -38 73.5 -38t24.5 23t7 96h121 q0 -107 -9.5 -166.5t-39 -88t-83 -28.5t-94.5 21t-103 62.5t-81 41.5t-26.5 -21t-7.5 -85h-121z" />
<glyph unicode="&#xf2;" d="M82 472.5q0 143.5 27 237t82 160.5q112 138 321 138q208 0 320 -136q110 -133 110 -380q0 -331 -195 -454q-97 -61 -235 -61q-280 0 -381 237q-49 115 -49 258.5zM256 1501h246l94 -344h-170zM324 492q0 -167 38 -260t150 -93t150 93.5t38 259.5t-38 260t-150 94 t-150 -93.5t-38 -260.5z" />
<glyph unicode="&#xf3;" d="M82 472.5q0 143.5 27 237t82 160.5q112 138 321 138q208 0 320 -136q110 -133 110 -380q0 -331 -195 -454q-97 -61 -235 -61q-280 0 -381 237q-49 115 -49 258.5zM324 492q0 -167 38 -260t150 -93t150 93.5t38 259.5t-38 260t-150 94t-150 -93.5t-38 -260.5zM426 1157 l94 344h246l-170 -344h-170z" />
<glyph unicode="&#xf4;" d="M82 472.5q0 143.5 27 237t82 160.5q112 138 321 138q208 0 320 -136q110 -133 110 -380q0 -331 -195 -454q-97 -61 -235 -61q-280 0 -381 237q-49 115 -49 258.5zM203 1157l198 307h222l198 -307h-166l-143 172l-143 -172h-166zM324 492q0 -167 38 -260t150 -93t150 93.5 t38 259.5t-38 260t-150 94t-150 -93.5t-38 -260.5z" />
<glyph unicode="&#xf5;" d="M82 472.5q0 143.5 27 237t82 160.5q112 138 321 138q208 0 320 -136q110 -133 110 -380q0 -331 -195 -454q-97 -61 -235 -61q-280 0 -381 237q-49 115 -49 258.5zM229 1176q0 152 28.5 217t109.5 65q55 0 201 -99q56 -38 74 -38t25 23t7 96h121q0 -107 -10 -166.5 t-39.5 -88t-82.5 -28.5t-93 21t-104 62.5t-82.5 41.5t-26 -21t-7.5 -85h-121zM324 492q0 -167 38 -260t150 -93t150 93.5t38 259.5t-38 260t-150 94t-150 -93.5t-38 -260.5z" />
<glyph unicode="&#xf6;" d="M82 472.5q0 143.5 27 237t82 160.5q112 138 321 138q208 0 320 -136q110 -133 110 -380q0 -331 -195 -454q-97 -61 -235 -61q-280 0 -381 237q-49 115 -49 258.5zM174 1180v229h252v-229h-252zM324 492q0 -167 38 -260t150 -93t150 93.5t38 259.5t-38 260t-150 94 t-150 -93.5t-38 -260.5zM596 1180v229h252v-229h-252z" />
<glyph unicode="&#xf7;" horiz-adv-x="1214" d="M121 434v187h973v-187h-973zM487 0v242h240v-242h-240zM487 813v242h240v-242h-240z" />
<glyph unicode="&#xf8;" d="M82 -53l111 166q-111 131 -111 379q0 375 245 481q81 35 203 35t222 -64l104 150l88 -62l-110 -164q108 -138 108 -376q0 -331 -195 -454q-97 -61 -234 -61t-239 62l-104 -156zM324 530q0 -129 12 -206l309 458q-45 64 -145 64t-138 -93.5t-38 -222.5zM381 197 q45 -58 131 -58q112 0 150 93.5t38 227.5t-10 195z" />
<glyph unicode="&#xf9;" horiz-adv-x="1063" d="M139 301v684h228v-563q0 -184 36 -213q20 -16 77 -16t109.5 56t79.5 142.5t27 167.5v426h228v-985h-228v184h-4q-33 -80 -102.5 -143.5t-185 -63.5t-190.5 82t-75 242zM276 1501h246l94 -344h-170z" />
<glyph unicode="&#xfa;" horiz-adv-x="1063" d="M139 301v684h228v-563q0 -184 36 -213q20 -16 77 -16t109.5 56t79.5 142.5t27 167.5v426h228v-985h-228v184h-4q-33 -80 -102.5 -143.5t-185 -63.5t-190.5 82t-75 242zM446 1157l95 344h245l-170 -344h-170z" />
<glyph unicode="&#xfb;" horiz-adv-x="1063" d="M139 301v684h228v-563q0 -184 36 -213q20 -16 77 -16t109.5 56t79.5 142.5t27 167.5v426h228v-985h-228v184h-4q-33 -80 -102.5 -143.5t-185 -63.5t-190.5 82t-75 242zM223 1157l199 307h221l199 -307h-166l-144 172l-143 -172h-166z" />
<glyph unicode="&#xfc;" horiz-adv-x="1063" d="M139 301v684h228v-563q0 -184 36 -213q20 -16 77 -16t109.5 56t79.5 142.5t27 167.5v426h228v-985h-228v184h-4q-33 -80 -102.5 -143.5t-185 -63.5t-190.5 82t-75 242zM195 1180v229h251v-229h-251zM616 1180v229h252v-229h-252z" />
<glyph unicode="&#xfd;" horiz-adv-x="909" d="M-2 985h238l225 -663h4l211 663h237l-485 -1427h-209l139 430zM389 1157l94 344h246l-170 -344h-170z" />
<glyph unicode="&#xfe;" d="M135 -442v1869h227v-579h5q20 52 89 106t152 54q124 0 198 -68q138 -127 138 -448q0 -228 -84 -371.5t-246.5 -143.5t-246.5 142h-5v-561h-227zM362 492q0 -336 170 -336q130 0 158 166q12 73 12 170q0 337 -170 337q-85 0 -127.5 -102t-42.5 -235z" />
<glyph unicode="&#xff;" horiz-adv-x="909" d="M-2 985h238l225 -663h4l211 663h237l-485 -1427h-209l139 430zM117 1180v229h252v-229h-252zM539 1180v229h252v-229h-252z" />
<glyph unicode="&#x152;" horiz-adv-x="1896" d="M94 712.5q0 342.5 131 540t441 197.5q85 0 173.5 -49t141.5 -131h4v157h827v-184h-587v-412h557v-184h-557v-463h604v-184h-844v162h-4q-32 -53 -88 -96q-114 -89 -227 -89q-310 0 -441 196.5t-131 539zM358 714q0 -564 307.5 -564t307.5 564t-307.5 564t-307.5 -564z " />
<glyph unicode="&#x153;" horiz-adv-x="1593" d="M82 472.5q0 143.5 27 237t82 160.5q112 138 318.5 138t315.5 -127q124 127 313.5 127t283.5 -107t94 -293v-114h-576q0 -69 37 -151.5t120.5 -143t209.5 -60.5q78 0 186 37v-160q-123 -39 -272 -39q-234 0 -367 160q-113 -160 -342 -160q-280 0 -381 237 q-49 115 -49 258.5zM324 492q0 -167 38 -260t150 -93t150 93.5t38 259.5t-38 260t-150 94t-150 -93.5t-38 -260.5zM946 633h357q0 136 -69 194q-39 33 -104 33t-106 -33q-78 -63 -78 -194z" />
<glyph unicode="&#x178;" horiz-adv-x="1100" d="M-35 1427h273l313 -514l313 514h273l-467 -765v-662h-240v662zM213 1622v229h252v-229h-252zM635 1622v229h252v-229h-252z" />
<glyph unicode="&#x2c6;" horiz-adv-x="676" d="M29 1157l198 307h222l198 -307h-166l-143 172l-143 -172h-166z" />
<glyph unicode="&#x2dc;" horiz-adv-x="676" d="M55 1176q0 152 28.5 217t109.5 65q55 0 201 -99q56 -38 74 -38t25 23t7 96h121q0 -107 -10 -166.5t-39.5 -88t-82.5 -28.5t-93 21t-104 62.5t-82.5 41.5t-26 -21t-7.5 -85h-121z" />
<glyph unicode="&#x2000;" horiz-adv-x="1008" />
<glyph unicode="&#x2001;" horiz-adv-x="2017" />
<glyph unicode="&#x2002;" horiz-adv-x="1008" />
<glyph unicode="&#x2003;" horiz-adv-x="2017" />
<glyph unicode="&#x2004;" horiz-adv-x="672" />
<glyph unicode="&#x2005;" horiz-adv-x="504" />
<glyph unicode="&#x2006;" horiz-adv-x="336" />
<glyph unicode="&#x2007;" horiz-adv-x="336" />
<glyph unicode="&#x2008;" horiz-adv-x="252" />
<glyph unicode="&#x2009;" horiz-adv-x="403" />
<glyph unicode="&#x200a;" horiz-adv-x="112" />
<glyph unicode="&#x2010;" horiz-adv-x="948" d="M94 422v223h762v-223h-762z" />
<glyph unicode="&#x2011;" horiz-adv-x="948" d="M94 422v223h762v-223h-762z" />
<glyph unicode="&#x2012;" horiz-adv-x="948" d="M94 422v223h762v-223h-762z" />
<glyph unicode="&#x2013;" horiz-adv-x="1139" d="M94 422v223h950v-223h-950z" />
<glyph unicode="&#x2014;" horiz-adv-x="1479" d="M92 422v223h1294v-223h-1294z" />
<glyph unicode="&#x2018;" horiz-adv-x="494" d="M104 938l80 489h195l-19 -489h-256z" />
<glyph unicode="&#x2019;" horiz-adv-x="494" d="M115 938l18 489h256l-80 -489h-194z" />
<glyph unicode="&#x201a;" horiz-adv-x="494" d="M115 -207l18 490h256l-80 -490h-194z" />
<glyph unicode="&#x201c;" horiz-adv-x="872" d="M104 938l80 489h195l-19 -489h-256zM481 938l80 489h195l-19 -489h-256z" />
<glyph unicode="&#x201d;" horiz-adv-x="872" d="M115 938l18 489h256l-80 -489h-194zM492 938l18 489h256l-80 -489h-194z" />
<glyph unicode="&#x201e;" horiz-adv-x="872" d="M115 -207l18 490h256l-80 -490h-194zM492 -207l18 490h256l-80 -490h-194z" />
<glyph unicode="&#x2022;" horiz-adv-x="1139" d="M199 712q0 100 49.5 187t136 137.5t174 50.5t154.5 -28.5t118 -80.5q109 -111 109 -267q0 -154 -110.5 -262.5t-273.5 -108.5q-86 0 -171.5 50t-135.5 136t-50 186z" />
<glyph unicode="&#x2026;" horiz-adv-x="1479" d="M127 0v242h240v-242h-240zM621 0v242h239v-242h-239zM1114 0v242h240v-242h-240z" />
<glyph unicode="&#x202f;" horiz-adv-x="403" />
<glyph unicode="&#x2039;" horiz-adv-x="494" d="M63 524l146 398h211l-129 -398l129 -399h-211z" />
<glyph unicode="&#x203a;" horiz-adv-x="494" d="M76 125l129 399l-129 398h211l145 -398l-145 -399h-211z" />
<glyph unicode="&#x205f;" horiz-adv-x="504" />
<glyph unicode="&#x2122;" horiz-adv-x="1251" d="M66 1339v88h389v-88h-150v-512h-90v512h-149zM522 827v600h164l98 -471h4l101 471h164v-600h-90v543h-5l-116 -543h-109l-117 543h-4v-543h-90z" />
<glyph unicode="&#xe000;" horiz-adv-x="985" d="M0 0v985h985v-985h-985z" />
</font>
</defs>
</svg>
