P1
# CREATOR: GIMP PNM Filter Version 1.1
207 30
0000000000000000000000000000000000000000000000000000000000000000000000
0000000000000000000000000000000000000000000000000000000000000000000000
0000000000000000000000000000000000000000000000000000000000000000000000
0000000000000000000000000000000000000000000000000000000000000000000000
0000000000000000000000000000000000000000000000000000000000000000000000
0000000000000000000000000000000000000000000000000000000000000000000000
0000000000000000000000000000000000000000000000000000000000000000000000
0000000000000000000000000000000000000000000000000000000000000000000000
0000000000000000000000000000000000000000000000000000000000000000000000
0000000000000000000000000000000000000000000000000000000000000000000000
0000000000000000000000000000000000000000000000000000000000000000000000
0000000000000000000000000000000000000000000000000000000000000000000000
0000000000000000000000000000000000000000000000000000000000000000000000
0000000000000000000000000000000000000000000000000000000000000000000000
0000000000000000000000000000000000000000000000000000000000000000000000
0000000000000000000001100000110000000000000000000000000000000000000000
0000000000000000000000000000000000000000000000000000000000000000000000
0000000000000000000000000000000110000000000000011000001100000000001100
0000000000000000001100000110000000000000000000000000000000011111110000
0000111000000000110000011000000000011000000000001100000000111000000001
1000000000000000000000000000110000000000000011000001100000000001100000
0000000000000001100000110000000000000000000000000000000111111111100000
0111100000000110000011000000000011000000000001100000000111000000001100
0000000000000000000000000110000000000000011000001100000000001100000000
0000000000001100000110000000000000000000000000000011100000011110000011
1100000000110000011000000000011000000000000110000001111100000011000000
0000000000000000000000110000000000000011000001100000000001100000000000
0000000001100000110000000000000000000000000000011000000000110000011011
0000000110000011000000000011000000000000110000001101100000011000000000
0000000000000000000110000000000000011000001100000000001100000000111110
0000001100000110000000011111000000000000000110000000000000000011011100
0000110000011000000000011000000000000110000001101100000011000000111110
0000001100111100110000000111110011000001100000000001100000011111111100
0001100000110000001111111110000000000000110000000000000000011001100000
0110000011000000000011000000000000110000001101100000011000011111111100
0001101111100110000001111111111000001100000000001100000111000001110000
1100000110000011100000111000000000001100000000000000000011001110000011
0000011000000000011000000000000011000011000110000110000111000001110000
1111000000110000011100001111000001111111111111100000110000000110000110
0000110000011000000011000000000001100000000000000000011000110000011000
0011000000000011000000000000011000011000110000110000110000000110000111
0000000110000011000000111000001111111111111100001100000000011000110000
0110000110000000001100000000001100000000111111000011000011000011000001
1000000000011000000000000011000011000110000110001100000000011000110000
0000110000110000000011000001100000000001100001100000000011000110000011
0000110000000001100000000001100000000111111000011000011000011000001100
0000000011000000000000011000011000110000110001100000000011000110000000
0110000110000000011000001100000000001100001111111111111000110000011000
0110000000001100000000001100000000000011000011000001100011000001100000
0000011000000000000001100110000011001100001100000000011000110000000011
0000110000000011000001100000000001100001111111111111000110000011000011
0000000001100000000001100000000000011000011000001110011000001100000000
0011000000000000001100110000011001100001100000000011000110000000011000
0110000000011000001100000000001100001100000000000000110000011000011000
0000001100000000000110000000000011000011000000110011000001100000000001
1000000000000001100110000011001100001100000000011000110000000011000011
0000000011000001100000000001100001100000000000000110000011000011100000
0001100000000000110000000000011000011000000011011000001100000000001100
0000000000001110110000011001100001110000000011000110000000011000011000
0000011000001100000000001100000110000000000000110000011000001100000001
1000000000000011000000000011000011000000011011000000110000000011000000
0000000000110100000001111000000110000000110000110000000011000001100000
0111000001100000000001100000111000000010000110000011000001110000011100
0000000000011110000000111000011000000001111000000111000000111000000000
0000000111100000001111000000111000001110000110000000011000001110000111
1000001100000000001100000011111111110000110000011000000111111111000000
0000000000111111111110000011000000001111000000011111111110000000000000
0000111100000001111000000011111111100000110000000011000000111111111100
0001100000000001100000000111111000000110000011000000001111100000000000
0000000001111111000000011000000000111000000000111111000000000000000000
0111100000001111000000000111110000000110000000011000000001111001100000
0000000000000000000000000000000000000000000000000000000000000000000000
0000000000000000000000000000000000000000000000000000000000000000000000
0000000000000000000000000000000000000000000000000000000000000000000000
0000000000000000000000000000000000000000000000000000000000000000000000
0000000000000000000000000000000000000000000000000000000000000000000000
0000000000000000000000000000000000000000000000000000000000000000000000
0000000000000000000000000000000000000000000000000000000000000000000000
0000000000000000000000000000000000000000000000000000000000000000000000
0000000000000000000000000000000000000000000000000000000000000000000000
0000000000000000000000000000000000000000000000000000000000000000000000
0000000000000000000000000000000000000000000000000000000000000000000000
0000000000000000000000000000000000000000000000000000000000000000000000
0000000000000000000000000000000000000000000000000000000000000000000000
0000000000000000000000000000000000000000000000000000000000000000000000
0000000000000000000000000000000000000000000000000000000000000000000000
0000000000000000000000000000000000000000000000000000000000000000000000
0000000000000000000000000000000000000000000000000000000000000000000000
00000000000000000000000000000000000000000000000000