P2
# CREATOR: GIMP PNM Filter Version 1.1
207 30
255
255
255
255
255
255
255
255
255
255
255
255
255
255
255
255
255
255
255
255
255
255
255
255
255
255
255
255
255
255
255
255
255
255
255
255
255
255
255
255
255
255
255
255
255
255
255
255
255
255
255
255
255
255
255
255
255
255
255
255
255
255
255
255
255
255
255
255
255
255
255
255
255
255
255
255
255
255
255
255
255
255
255
255
255
255
255
255
255
255
255
255
255
255
255
255
255
255
255
255
255
255
255
255
255
255
255
255
255
255
255
255
255
255
255
255
255
255
255
255
255
255
255
255
255
255
255
255
255
255
255
255
255
255
255
255
255
255
255
255
255
255
255
255
255
255
255
255
255
255
255
255
255
255
255
255
255
255
255
255
255
255
255
255
255
255
255
255
255
255
255
255
255
255
255
255
255
255
255
255
255
255
255
255
255
255
255
255
255
255
255
255
255
255
255
255
255
255
255
255
255
255
255
255
255
255
255
255
255
255
255
255
255
255
255
255
255
255
255
255
255
255
255
255
255
255
255
255
255
255
255
255
255
255
255
255
255
255
255
255
255
255
255
255
255
255
255
255
255
255
255
255
255
255
255
255
255
255
255
255
255
255
255
255
255
255
255
255
255
255
255
255
255
255
255
255
255
255
255
255
255
255
255
255
255
255
255
255
255
255
255
255
255
255
255
255
255
255
255
255
255
255
255
255
255
255
255
255
255
255
255
255
255
255
255
255
255
255
255
255
255
255
255
255
255
255
255
255
255
255
255
255
255
255
255
255
255
255
255
255
255
255
255
255
255
255
255
255
255
255
255
255
255
255
255
255
255
255
255
255
255
255
255
255
255
255
255
255
255
255
255
255
255
255
255
255
255
255
255
255
255
255
255
255
255
255
255
255
255
255
255
255
255
255
255
255
255
255
255
255
255
255
255
255
255
255
255
255
255
255
255
255
255
255
255
255
255
255
255
255
255
255
255
255
255
255
255
255
255
255
255
255
255
255
255
255
255
255
255
255
255
255
255
255
255
255
255
255
255
255
255
255
255
255
255
255
255
255
255
255
255
255
255
255
255
255
255
255
255
255
255
255
255
255
255
255
255
255
255
255
255
255
255
255
255
255
255
255
255
255
255
255
255
255
255
255
255
255
255
255
255
255
255
255
255
255
255
255
255
255
255
255
255
255
255
255
255
255
255
255
255
255
255
255
255
255
255
255
255
255
255
255
255
255
255
255
255
255
255
255
255
255
255
255
255
255
255
255
255
255
255
255
255
255
255
255
255
255
255
255
255
255
255
255
255
255
255
255
255
255
255
255
255
255
255
255
255
255
255
255
255
255
255
255
255
255
255
255
255
255
255
255
255
255
255
255
255
255
255
255
255
255
255
255
255
255
255
255
255
255
255
255
255
255
255
255
255
255
255
255
255
255
255
255
255
255
255
255
255
255
255
255
255
255
255
255
255
255
255
255
255
255
255
255
255
255
255
255
255
255
255
255
255
255
255
255
255
255
255
255
255
255
255
255
255
255
255
255
255
255
255
255
255
255
255
255
255
255
255
255
255
255
255
255
255
255
255
255
255
255
255
255
255
255
255
255
255
255
255
255
255
255
255
255
255
255
255
255
255
255
255
255
255
255
255
255
255
255
255
255
255
255
255
255
255
255
255
255
255
255
255
255
255
255
255
255
255
255
255
255
255
255
255
255
255
255
255
255
255
255
255
255
255
255
255
255
255
255
255
255
255
255
255
255
255
255
255
255
255
255
255
255
255
255
255
255
255
255
255
255
255
255
255
255
255
255
255
255
255
255
255
255
255
255
255
255
255
255
255
255
255
255
255
255
255
255
255
255
255
255
255
255
255
255
255
255
255
255
255
255
255
255
255
255
255
255
255
255
255
255
255
255
255
255
255
255
255
255
255
255
255
255
255
255
255
255
255
255
255
255
255
255
255
255
255
255
255
255
255
255
255
255
255
255
255
255
255
255
255
255
255
255
255
255
255
255
255
255
255
255
255
255
255
255
255
255
255
255
255
255
255
255
255
255
255
255
255
255
255
255
255
255
255
255
255
255
255
255
255
255
255
255
255
255
255
255
255
255
255
255
255
255
255
255
255
255
255
255
255
255
255
255
255
255
255
255
255
255
255
255
255
255
255
255
255
255
255
255
255
255
255
255
255
255
255
255
255
255
255
255
255
255
255
255
255
255
255
255
255
255
255
255
255
255
255
255
255
255
255
255
255
255
255
255
255
255
255
255
255
255
255
255
255
255
255
255
255
255
255
255
255
255
255
255
255
255
255
255
255
255
255
255
255
255
255
255
255
255
255
255
255
255
255
255
255
255
255
255
255
255
255
255
255
255
255
255
255
255
255
255
255
255
255
255
255
255
255
255
255
255
255
255
255
255
255
255
255
255
255
255
255
255
255
255
255
255
255
255
255
255
255
255
0
0
255
255
255
255
255
0
0
255
255
255
255
255
255
255
255
255
255
255
255
255
255
255
255
255
255
255
255
255
255
255
255
255
255
255
255
255
255
255
255
255
255
255
255
255
255
255
255
255
255
255
255
255
255
255
255
255
255
255
255
255
255
255
255
255
255
255
255
255
255
255
255
255
255
255
255
255
255
255
255
255
255
255
255
255
255
255
255
255
255
255
255
255
255
255
255
255
255
255
255
255
255
255
255
255
255
255
255
255
255
255
255
255
255
255
255
255
255
255
255
255
255
255
255
255
255
255
255
255
255
255
255
255
255
255
255
255
255
255
255
255
255
255
255
255
255
255
255
255
0
0
255
255
255
255
255
255
255
255
255
255
255
255
255
255
0
0
255
255
255
255
255
0
0
255
255
255
255
255
255
255
255
255
255
0
0
255
255
255
255
255
255
255
255
255
255
255
255
255
255
255
255
255
255
255
255
0
0
255
255
255
255
255
0
0
255
255
255
255
255
255
255
255
255
255
255
255
255
255
255
255
255
255
255
255
255
255
255
255
255
255
255
255
255
255
255
226
129
63
26
7
13
37
93
172
251
255
255
255
255
255
255
0
0
0
175
255
255
255
255
255
255
255
255
0
0
255
255
255
255
255
0
0
255
255
255
255
255
255
255
255
255
255
0
0
255
255
255
255
255
255
255
255
255
255
255
31
0
207
255
255
255
255
255
255
234
1
0
0
228
255
255
255
255
255
255
207
0
32
255
255
255
255
255
255
255
255
255
255
255
255
255
255
255
255
255
255
255
255
255
255
255
255
255
255
255
0
0
255
255
255
255
255
255
255
255
255
255
255
255
255
255
0
0
255
255
255
255
255
0
0
255
255
255
255
255
255
255
255
255
255
0
0
255
255
255
255
255
255
255
255
255
255
255
255
255
255
255
255
255
255
255
255
0
0
255
255
255
255
255
0
0
255
255
255
255
255
255
255
255
255
255
255
255
255
255
255
255
255
255
255
255
255
255
255
255
255
255
255
255
255
252
117
6
0
0
0
0
0
0
0
0
30
175
255
255
255
255
255
0
0
0
36
249
255
255
255
255
255
255
255
0
0
255
255
255
255
255
0
0
255
255
255
255
255
255
255
255
255
255
0
0
255
255
255
255
255
255
255
255
255
255
255
96
0
143
255
255
255
255
255
255
171
0
0
0
165
255
255
255
255
255
255
142
0
97
255
255
255
255
255
255
255
255
255
255
255
255
255
255
255
255
255
255
255
255
255
255
255
255
255
255
255
0
0
255
255
255
255
255
255
255
255
255
255
255
255
255
255
0
0
255
255
255
255
255
0
0
255
255
255
255
255
255
255
255
255
255
0
0
255
255
255
255
255
255
255
255
255
255
255
255
255
255
255
255
255
255
255
255
0
0
255
255
255
255
255
0
0
255
255
255
255
255
255
255
255
255
255
255
255
255
255
255
255
255
255
255
255
255
255
255
255
255
255
255
255
252
74
0
8
103
184
231
249
234
196
109
14
0
0
255
255
255
255
255
0
0
42
0
141
255
255
255
255
255
255
255
0
0
255
255
255
255
255
0
0
255
255
255
255
255
255
255
255
255
255
0
0
255
255
255
255
255
255
255
255
255
255
255
161
0
78
255
255
255
255
255
255
108
0
24
0
102
255
255
255
255
255
255
77
0
162
255
255
255
255
255
255
255
255
255
255
255
255
255
255
255
255
255
255
255
255
255
255
255
255
255
255
255
0
0
255
255
255
255
255
255
255
255
255
255
255
255
255
255
0
0
255
255
255
255
255
0
0
255
255
255
255
255
255
255
255
255
255
0
0
255
255
255
255
255
255
255
255
255
255
255
255
255
255
255
255
255
255
255
255
0
0
255
255
255
255
255
0
0
255
255
255
255
255
255
255
255
255
255
255
255
255
255
255
255
255
255
255
255
255
255
255
255
255
255
255
255
121
0
34
213
255
255
255
255
255
255
255
229
81
0
255
255
255
255
255
0
0
183
0
16
236
255
255
255
255
255
255
0
0
255
255
255
255
255
0
0
255
255
255
255
255
255
255
255
255
255
0
0
255
255
255
255
255
255
255
255
255
255
255
225
0
16
253
255
255
255
255
255
44
0
141
0
39
255
255
255
255
255
252
15
0
227
255
255
255
255
255
255
255
255
255
255
255
255
255
255
255
255
255
255
255
255
255
255
255
255
255
255
255
0
0
255
255
255
255
255
255
255
255
255
255
255
255
255
255
0
0
255
255
255
255
255
0
0
255
255
255
255
255
255
255
255
255
255
0
0
255
255
255
255
255
255
255
194
91
32
8
13
51
134
244
255
255
255
255
255
0
0
255
255
255
255
255
0
0
255
255
255
255
255
255
252
158
69
21
5
21
69
159
252
255
255
255
255
255
255
255
255
255
255
255
255
229
7
7
211
255
255
255
255
255
255
255
255
255
254
115
255
255
255
255
255
0
0
255
73
0
107
255
255
255
255
255
255
0
0
255
255
255
255
255
0
0
255
255
255
255
255
255
255
255
255
255
0
0
255
255
255
255
255
255
255
255
255
255
255
255
34
0
204
255
255
255
255
236
1
9
245
12
0
232
255
255
255
255
203
0
36
255
255
255
255
252
158
69
21
5
21
69
159
252
255
255
255
255
255
0
0
255
190
86
28
6
2
255
255
0
0
255
255
255
255
255
255
238
116
34
6
20
71
176
255
0
0
255
255
255
255
255
0
0
255
255
255
255
255
255
255
255
255
255
0
0
255
255
255
255
255
250
100
0
0
0
0
0
0
0
37
222
255
255
255
255
0
0
255
255
255
255
255
0
0
255
255
255
255
255
235
57
0
0
0
0
0
0
0
60
236
255
255
255
255
255
255
255
255
255
255
255
133
0
97
255
255
255
255
255
255
255
255
255
255
255
255
255
255
255
255
255
0
0
255
214
4
4
214
255
255
255
255
255
0
0
255
255
255
255
255
0
0
255
255
255
255
255
255
255
255
255
255
0
0
255
255
255
255
255
255
255
255
255
255
255
255
99
0
139
255
255
255
255
173
0
66
255
71
0
169
255
255
255
255
138
0
101
255
255
255
235
57
0
0
0
0
0
0
0
60
236
255
255
255
255
0
0
124
0
0
0
0
0
255
255
0
0
255
255
255
255
255
223
31
0
0
0
0
0
0
117
0
0
255
255
255
255
255
0
0
255
255
255
255
255
255
255
255
255
255
0
0
255
255
255
255
255
104
0
13
134
216
249
241
182
50
0
47
249
255
255
255
0
0
255
255
255
255
255
0
0
255
255
255
255
253
65
0
18
146
226
249
226
144
16
0
68
254
255
255
255
255
255
255
255
255
255
255
68
0
179
255
255
255
255
255
255
255
255
255
255
255
255
255
255
255
255
255
0
0
255
255
108
0
73
255
255
255
255
255
0
0
255
255
255
255
255
0
0
255
255
255
255
255
255
255
255
255
255
0
0
255
255
255
255
255
255
255
255
255
255
255
255
163
0
75
255
255
255
255
110
0
130
255
134
0
106
255
255
255
255
74
0
166
255
255
253
65
0
18
146
226
249
226
144
16
0
68
254
255
255
255
0
0
0
55
186
242
255
255
255
255
0
0
255
255
255
255
252
52
0
40
180
243
243
179
38
0
0
0
255
255
255
255
255
0
0
0
0
0
0
0
0
0
0
0
0
0
0
255
255
255
255
201
0
14
211
255
255
255
255
255
247
51
0
158
255
255
255
0
0
255
255
255
255
255
0
0
255
255
255
255
175
0
13
213
255
255
255
255
255
209
10
0
177
255
255
255
255
255
255
255
255
255
255
26
0
228
255
255
255
255
255
255
255
255
255
255
255
255
255
255
255
255
255
0
0
255
255
237
17
0
184
255
255
255
255
0
0
255
255
255
255
255
0
0
255
255
255
255
255
255
255
255
255
255
0
0
255
255
255
255
255
255
255
255
255
255
255
255
228
0
14
252
255
255
255
46
0
193
255
196
0
43
255
255
255
251
13
0
230
255
255
175
0
13
213
255
255
255
255
255
209
10
0
177
255
255
255
0
0
49
248
255
255
255
255
255
255
0
0
255
255
255
255
169
0
26
236
255
255
255
255
234
24
0
0
255
255
255
255
255
0
0
0
0
0
0
0
0
0
0
0
0
0
0
255
255
255
255
99
0
133
255
255
255
255
255
255
255
183
0
73
255
255
255
0
0
255
255
255
255
255
0
0
255
255
255
255
84
0
131
255
255
255
255
255
255
255
126
0
85
255
255
255
255
255
255
255
255
255
255
8
0
247
255
255
255
255
255
255
255
0
0
0
0
0
0
255
255
255
255
0
0
255
255
255
143
0
43
252
255
255
255
0
0
255
255
255
255
255
0
0
255
255
255
255
255
255
255
255
255
255
0
0
255
255
255
255
255
255
255
255
255
255
255
255
255
37
0
201
255
255
237
1
8
248
255
249
9
1
235
255
255
200
0
39
255
255
255
84
0
131
255
255
255
255
255
255
255
126
0
85
255
255
255
0
0
174
255
255
255
255
255
255
255
0
0
255
255
255
255
81
0
146
255
255
255
255
255
255
144
0
0
255
255
255
255
255
0
0
255
255
255
255
255
255
255
255
255
255
0
0
255
255
255
255
37
0
212
255
255
255
255
255
255
255
242
0
24
255
255
255
0
0
255
255
255
255
255
0
0
255
255
255
255
30
0
213
255
255
255
255
255
255
255
210
0
31
255
255
255
255
255
255
255
255
255
255
8
0
247
255
255
255
255
255
255
255
0
0
0
0
0
0
255
255
255
255
0
0
255
255
255
250
38
0
150
255
255
255
0
0
255
255
255
255
255
0
0
255
255
255
255
255
255
255
255
255
255
0
0
255
255
255
255
255
255
255
255
255
255
255
255
255
101
0
136
255
255
175
0
64
255
255
255
66
0
173
255
255
135
0
104
255
255
255
30
0
213
255
255
255
255
255
255
255
210
0
31
255
255
255
0
0
234
255
255
255
255
255
255
255
0
0
255
255
255
255
29
0
218
255
255
255
255
255
255
217
0
0
255
255
255
255
255
0
0
255
255
255
255
255
255
255
255
255
255
0
0
255
255
255
255
10
0
3
3
3
2
2
1
1
0
0
0
5
255
255
255
0
0
255
255
255
255
255
0
0
255
255
255
255
8
0
247
255
255
255
255
255
255
255
246
0
9
255
255
255
255
255
255
255
255
255
255
27
0
226
255
255
255
255
255
255
255
255
255
255
255
0
0
255
255
255
255
0
0
255
255
255
255
178
0
21
240
255
255
0
0
255
255
255
255
255
0
0
255
255
255
255
255
255
255
255
255
255
0
0
255
255
255
255
255
255
255
255
255
255
255
255
255
166
0
71
255
255
111
0
128
255
255
255
128
0
110
255
255
70
0
169
255
255
255
8
0
247
255
255
255
255
255
255
255
246
0
9
255
255
255
0
0
253
255
255
255
255
255
255
255
0
0
255
255
255
255
7
0
248
255
255
255
255
255
255
247
0
0
255
255
255
255
255
0
0
255
255
255
255
255
255
255
255
255
255
0
0
255
255
255
255
7
0
0
0
0
0
0
0
0
0
0
0
0
255
255
255
0
0
255
255
255
255
255
0
0
255
255
255
255
8
0
247
255
255
255
255
255
255
255
246
0
9
255
255
255
255
255
255
255
255
255
255
70
0
173
255
255
255
255
255
255
255
255
255
255
255
0
0
255
255
255
255
0
0
255
255
255
255
255
68
0
116
255
255
0
0
255
255
255
255
255
8
0
245
255
255
255
255
255
255
255
255
243
0
9
255
255
255
255
255
255
255
255
255
255
255
255
255
230
0
12
251
255
48
0
191
255
255
255
191
0
47
255
250
11
0
233
255
255
255
8
0
247
255
255
255
255
255
255
255
246
0
9
255
255
255
0
0
255
255
255
255
255
255
255
255
0
0
255
255
255
255
7
0
248
255
255
255
255
255
255
247
0
0
255
255
255
255
255
0
0
255
255
255
255
255
255
255
255
255
255
0
0
255
255
255
255
30
0
235
255
255
255
255
255
255
255
255
255
255
255
255
255
0
0
255
255
255
255
255
0
0
255
255
255
255
30
0
213
255
255
255
255
255
255
255
211
0
31
255
255
255
255
255
255
255
255
255
255
137
0
83
255
255
255
255
255
255
255
255
255
255
255
0
0
255
255
255
255
0
0
255
255
255
255
255
211
3
6
220
255
0
0
255
255
255
255
255
29
0
213
255
255
255
255
255
255
255
255
211
0
30
255
255
255
255
255
255
255
255
255
255
255
255
255
255
39
0
198
238
2
7
247
255
255
255
247
7
2
238
197
0
43
255
255
255
255
30
0
213
255
255
255
255
255
255
255
211
0
31
255
255
255
0
0
255
255
255
255
255
255
255
255
0
0
255
255
255
255
29
0
218
255
255
255
255
255
255
217
0
0
255
255
255
255
255
0
0
255
255
255
255
255
255
255
255
255
255
0
0
255
255
255
255
89
0
163
255
255
255
255
255
255
255
255
255
255
255
255
255
0
0
255
255
255
255
255
0
0
255
255
255
255
83
0
132
255
255
255
255
255
255
255
128
0
85
255
255
255
255
255
255
255
255
255
255
234
10
2
192
255
255
255
255
255
255
255
255
255
255
0
0
255
255
255
255
0
0
255
255
255
255
255
255
103
0
82
255
0
0
255
255
255
255
255
80
0
142
255
255
255
255
255
255
255
255
140
0
82
255
255
255
255
255
255
255
255
255
255
255
255
255
255
104
0
133
177
0
62
255
255
255
255
255
61
0
177
132
0
108
255
255
255
255
83
0
132
255
255
255
255
255
255
255
128
0
85
255
255
255
0
0
255
255
255
255
255
255
255
255
0
0
255
255
255
255
81
0
146
255
255
255
255
255
255
144
0
0
255
255
255
255
255
0
0
255
255
255
255
255
255
255
255
255
255
0
0
255
255
255
255
189
0
31
231
255
255
255
255
255
255
255
255
255
255
255
255
0
0
255
255
255
255
255
0
0
255
255
255
255
174
0
14
216
255
255
255
255
255
211
11
0
177
255
255
255
255
255
255
255
255
255
255
255
133
0
18
186
255
255
255
255
255
255
255
255
255
0
0
255
255
255
255
0
0
255
255
255
255
255
255
234
15
0
193
0
0
255
255
255
255
255
167
0
25
231
255
255
255
255
255
255
229
23
0
169
255
255
255
255
255
255
255
255
255
255
255
255
255
255
169
0
68
113
0
126
255
255
255
255
255
123
0
114
67
0
173
255
255
255
255
174
0
14
216
255
255
255
255
255
211
11
0
177
255
255
255
0
0
255
255
255
255
255
255
255
255
0
0
255
255
255
255
168
0
27
236
255
255
255
255
234
24
0
0
255
255
255
255
255
0
0
255
255
255
255
255
255
255
255
255
255
0
0
255
255
255
255
255
93
0
24
146
219
249
249
230
190
129
45
255
255
255
255
0
0
255
255
255
255
255
0
0
255
255
255
255
253
64
0
19
149
228
250
227
146
17
0
68
254
255
255
255
255
255
255
255
255
255
255
255
254
91
0
1
71
162
217
241
252
243
213
157
67
0
0
255
255
255
255
0
0
255
255
255
255
255
255
255
139
0
50
0
0
255
255
255
255
255
252
55
0
28
149
220
248
248
220
149
26
0
59
252
255
255
255
255
255
255
255
255
255
255
255
255
255
255
233
0
9
44
0
189
255
255
255
255
255
186
0
44
9
1
236
255
255
255
255
253
64
0
19
149
228
250
227
146
17
0
68
254
255
255
255
0
0
255
255
255
255
255
255
255
255
0
0
255
255
255
255
251
50
0
41
181
243
243
180
39
0
0
0
255
255
255
255
255
0
0
255
255
255
255
255
255
255
255
255
255
0
0
255
255
255
255
255
248
95
0
0
0
0
0
0
0
0
0
255
255
255
255
0
0
255
255
255
255
255
0
0
255
255
255
255
255
235
56
0
0
0
0
0
0
0
59
236
255
255
255
255
255
255
255
255
255
255
255
255
255
254
137
12
0
0
0
0
0
0
0
0
0
47
189
255
255
255
255
0
0
255
255
255
255
255
255
255
249
35
0
0
0
255
255
255
255
255
255
230
55
0
0
0
0
0
0
0
0
57
232
255
255
255
255
255
255
255
255
255
255
255
255
255
255
255
255
42
0
0
6
246
255
255
255
255
255
244
4
0
0
47
255
255
255
255
255
255
235
56
0
0
0
0
0
0
0
59
236
255
255
255
255
0
0
255
255
255
255
255
255
255
255
0
0
255
255
255
255
255
221
29
0
0
0
0
0
0
116
0
0
255
255
255
255
255
0
0
255
255
255
255
255
255
255
255
255
255
0
0
255
255
255
255
255
255
255
194
93
33
8
5
25
66
137
216
255
255
255
255
0
0
255
255
255
255
255
0
0
255
255
255
255
255
255
251
157
67
20
4
20
68
159
252
255
255
255
255
255
255
255
255
255
255
255
255
255
255
255
255
237
142
75
30
11
6
22
57
113
197
255
255
255
255
255
255
0
0
255
255
255
255
255
255
255
255
174
0
0
0
255
255
255
255
255
255
255
251
166
79
28
8
8
28
80
167
252
255
255
255
255
255
255
255
255
255
255
255
255
255
255
255
255
255
107
0
0
60
255
255
255
255
255
255
255
56
0
0
111
255
255
255
255
255
255
255
251
157
67
20
4
20
68
159
252
255
255
255
255
255
0
0
255
255
255
255
255
255
255
255
0
0
255
255
255
255
255
255
237
114
33
6
18
68
173
255
0
0
255
255
255
255
255
255
255
255
255
255
255
255
255
255
255
255
255
255
255
255
255
255
255
255
255
255
255
255
255
255
255
255
255
255
255
255
255
255
255
255
255
255
255
255
255
255
255
255
255
255
255
255
255
255
255
255
255
255
255
255
255
255
255
255
255
255
255
255
255
255
255
255
255
255
255
255
255
255
255
255
255
255
255
255
255
255
255
255
255
255
255
255
255
255
255
255
255
255
255
255
255
255
255
255
255
255
255
255
255
255
255
255
255
255
255
255
255
255
255
255
255
255
255
255
255
255
255
255
255
255
255
255
255
255
255
255
255
255
255
255
255
255
255
255
255
255
255
255
255
255
255
255
255
255
255
255
255
255
255
255
255
255
255
255
255
255
255
255
255
255
255
255
255
255
255
255
255
255
255
255
255
255
255
255
255
255
255
255
255
255
255
255
255
255
255
255
255
255
255
255
255
255
255
255
255
255
255
255
255
255
255
255
255
255
255
255
255
255
255
255
255
255
255
255
255
255
255
255
255
255
255
255
255
255
255
255
255
255
255
255
255
255
255
255
255
255
255
255
255
255
255
255
255
255
255
255
255
255
255
255
255
255
255
255
255
255
255
255
255
255
255
255
255
255
255
255
255
255
255
255
255
255
255
255
255
255
255
255
255
255
255
255
255
255
255
255
255
255
255
255
255
255
255
255
255
255
255
255
255
255
255
255
255
255
255
255
255
255
255
255
255
255
255
255
255
255
255
255
255
255
255
255
255
255
255
255
255
255
255
255
255
255
255
255
255
255
255
255
255
255
255
255
255
255
255
255
255
255
255
255
255
255
255
255
255
255
255
255
255
255
255
255
255
255
255
255
255
255
255
255
255
255
255
255
255
255
255
255
255
255
255
255
255
255
255
255
255
255
255
255
255
255
255
255
255
255
255
255
255
255
255
255
255
255
255
255
255
255
255
255
255
255
255
255
255
255
255
255
255
255
255
255
255
255
255
255
255
255
255
255
255
255
255
255
255
255
255
255
255
255
255
255
255
255
255
255
255
255
255
255
255
255
255
255
255
255
255
255
255
255
255
255
255
255
255
255
255
255
255
255
255
255
255
255
255
255
255
255
255
255
255
255
255
255
255
255
255
255
255
255
255
255
255
255
255
255
255
255
255
255
255
255
255
255
255
255
255
255
255
255
255
255
255
255
255
255
255
255
255
255
255
255
255
255
255
255
255
255
255
255
255
255
255
255
255
255
255
255
255
255
255
255
255
255
255
255
255
255
255
255
255
255
255
255
255
255
255
255
255
255
255
255
255
255
255
255
255
255
255
255
255
255
255
255
255
255
255
255
255
255
255
255
255
255
255
255
255
255
255
255
255
255
255
255
255
255
255
255
255
255
255
255
255
255
255
255
255
255
255
255
255
255
255
255
255
255
255
255
255
255
255
255
255
255
255
255
255
255
255
255
255
255
255
255
255
255
255
255
255
255
255
255
255
255
255
255
255
255
255
255
255
255
255
255
255
255
255
255
255
255
255
255
255
255
255
255
255
255
255
255
255
255
255
255
255
255
255
255
255
255
255
255
255
255
255
255
255
255
255
255
255
255
255
255
255
255
255
255
255
255
255
255
255
255
255
255
255
255
255
255
255
255
255
255
255
255
255
255
255
255
255
255
255
255
255
255
255
255
255
255
255
255
255
255
255
255
255
255
255
255
255
255
255
255
255
255
255
255
255
255
255
255
255
255
255
255
255
255
255
255
255
255
255
255
255
255
255
255
255
255
255
255
255
255
255
255
255
255
255
255
255
255
255
255
255
255
255
255
255
255
255
255
255
255
255
255
255
255
255
255
255
255
255
255
255
255
255
255
255
255
255
255
255
255
255
255
255
255
255
255
255
255
255
255
255
255
255
255
255
255
255
255
255
255
255
255
255
255
255
255
255
255
255
255
255
255
255
255
255
255
255
255
255
255
255
255
255
255
255
255
255
255
255
255
255
255
255
255
255
255
255
255
255
255
255
255
255
255
255
255
255
255
255
255
255
255
255
255
255
255
255
255
255
255
255
255
255
255
255
255
255
255
255
255
255
255
255
255
255
255
255
255
255
255
255
255
255
255
255
255
255
255
255
255
255
255
255
255
255
255
255
255
255
255
255
255
255
255
255
255
255
255
255
255
255
255
255
255
255
255
255
255
255
255
255
255
255
255
255
255
255
255
255
255
255
255
255
255
255
255
255
255
255
255
255
255
255
255
255
255
255
255
255
255
255
255
255
255
255
255
255
255
255
255
255
255
255
255
255
255
255
255
255
255
255
255
255
255
255
255
255
255
255
255
255
255
255
255
255
255
255
255
255
255
255
255
255
255
255
255
255
255
255
255
255
255
255
255
255
255
255
255
255
255
255
255
255
255
255
255
255
255
255
255
255
255
255
255
255
255
255
255
255
255
255
255
255
255
255
255
255
255
255
255
255
255
255
255
255
255
255
255
255
255
255
255
255
255
255
255
255
255
255
255
255
255
255
255
255
255
255
255
255
255
255
255
255
255
255
255
255
255
255
255
255
255
255
255
255
255
255
255
255
255
255
255
255
255
255
255
255
255
255
255
255
255
255
255
255
255
255
255
255
255
255
255
255
255
255
255
255
255
255
255
255
255
255
255
255
255
255
255
255
255
255
255
255
255
255
255
255
255
255
255
255
255
255
255
255
255
255
255
255
255
255
255
255
255
255
255
255
255
255
255
255
255
255
255
255
255
255
255
255
255
255
255
255
255
255
255
255
255
255
255
255
255
255
255
255
255
255
255
255
255
255
255
255
255
255
255
255
255
255
255
255
