<?xml version="1.0" encoding="utf-8"?>
<!-- Generator: Adobe Illustrator 17.0.0, SVG Export Plug-In . SVG Version: 6.00 Build 0)  -->
<!DOCTYPE svg PUBLIC "-//W3C//DTD SVG 1.1//EN" "http://www.w3.org/Graphics/SVG/1.1/DTD/svg11.dtd">
<svg version="1.1" id="Gear__x28_Large_x29__1_" xmlns="http://www.w3.org/2000/svg" xmlns:xlink="http://www.w3.org/1999/xlink"
	 x="0px" y="0px" width="37.5px" height="37.499px" viewBox="0 0 37.5 37.499" enable-background="new 0 0 37.5 37.499"
	 xml:space="preserve">
<g id="Gear__x28_Large_x29__3_">
	<g>
		<path fill-rule="evenodd" clip-rule="evenodd" d="M34.771,15.254c-1.04-0.37-1.878-1.165-2.3-2.185c0,0,0-0.001,0-0.001
			c-0.424-1.022-0.394-2.177,0.081-3.177l1.243-2.614l-3.571-3.571l-2.614,1.242c-0.999,0.475-2.155,0.505-3.177,0.081
			c0,0-0.001,0-0.001-0.001c-1.021-0.423-1.814-1.259-2.184-2.3L21.275,0h-5.05l-0.971,2.729c-0.37,1.04-1.164,1.877-2.184,2.3
			c0,0-0.001,0-0.001,0.001c-1.023,0.424-2.177,0.394-3.177-0.081L7.277,3.706L3.706,7.277l1.243,2.614
			c0.475,0.999,0.505,2.155,0.081,3.177c0,0,0,0.001,0,0.001c-0.423,1.021-1.259,1.814-2.3,2.184L0,16.225v5.05l2.729,0.97
			c1.04,0.37,1.877,1.164,2.3,2.184c0,0,0,0.001,0,0.001c0.424,1.023,0.395,2.177-0.081,3.177l-1.243,2.614l3.571,3.571l2.614-1.243
			c0.999-0.475,2.156-0.505,3.178-0.081c0,0,0.001,0,0.001,0.001c1.021,0.423,1.814,1.259,2.184,2.3l0.971,2.729h5.05l0.964-2.711
			c0.373-1.05,1.175-1.895,2.204-2.323c0,0,0.001,0,0.001-0.001c1.013-0.421,2.156-0.392,3.147,0.079l2.631,1.25l3.571-3.571
			l-1.243-2.615c-0.474-0.998-0.504-2.153-0.081-3.174c0,0,0-0.001,0.001-0.001c0.424-1.022,1.26-1.816,2.302-2.186l2.727-0.97
			v-5.05L34.771,15.254z M18.75,25.626c-3.798,0-6.876-3.078-6.876-6.876s3.078-6.876,6.876-6.876c3.797,0,6.876,3.079,6.876,6.876
			S22.547,25.626,18.75,25.626z"/>
	</g>
</g>
</svg>