<?xml version="1.0" encoding="UTF-8" standalone="no"?>
<!-- Created with Inkscape (http://www.inkscape.org/) -->

<svg
   xmlns:dc="http://purl.org/dc/elements/1.1/"
   xmlns:cc="http://creativecommons.org/ns#"
   xmlns:rdf="http://www.w3.org/1999/02/22-rdf-syntax-ns#"
   xmlns:svg="http://www.w3.org/2000/svg"
   xmlns="http://www.w3.org/2000/svg"
   xmlns:sodipodi="http://sodipodi.sourceforge.net/DTD/sodipodi-0.dtd"
   xmlns:inkscape="http://www.inkscape.org/namespaces/inkscape"
   width="2120"
   height="765"
   id="svg3765"
   version="1.1"
   inkscape:version="0.48.4 r9939"
   sodipodi:docname="background.svg">
  <defs
     id="defs3767" />
  <sodipodi:namedview
     id="base"
     pagecolor="#ffffff"
     bordercolor="#666666"
     borderopacity="1.0"
     inkscape:pageopacity="0.0"
     inkscape:pageshadow="2"
     inkscape:zoom="0.49497475"
     inkscape:cx="1620.7402"
     inkscape:cy="353.13111"
     inkscape:document-units="px"
     inkscape:current-layer="layer3"
     showgrid="false"
     inkscape:window-width="1366"
     inkscape:window-height="705"
     inkscape:window-x="-8"
     inkscape:window-y="-8"
     inkscape:window-maximized="1" />
  <metadata
     id="metadata3770">
    <rdf:RDF>
      <cc:Work
         rdf:about="">
        <dc:format>image/svg+xml</dc:format>
        <dc:type
           rdf:resource="http://purl.org/dc/dcmitype/StillImage" />
        <dc:title />
      </cc:Work>
    </rdf:RDF>
  </metadata>
  <g
     inkscape:label="Background"
     inkscape:groupmode="layer"
     id="layer1"
     transform="translate(0,-287.36217)"
     style="display:none"
     sodipodi:insensitive="true">
    <rect
       style="fill:#000000;fill-opacity:1;stroke:#ffffff;stroke-width:0;stroke-linejoin:miter;stroke-miterlimit:4;stroke-opacity:1;stroke-dasharray:none;stroke-dashoffset:0"
       id="rect4282"
       width="2563.7673"
       height="771.75647"
       x="2.0203006"
       y="-4.736239"
       transform="translate(0,287.36217)" />
  </g>
  <g
     inkscape:groupmode="layer"
     id="layer3"
     inkscape:label="Layer">
    <path
       d="m 482.19898,433.27836 c -5.20699,-1.49309 -10.32343,0.90999 -14.84297,5.58675 l -0.0446,-0.0456 c -6.6609,7.12872 -14.563,10.7175 -21.51999,8.72262 l -1.68156,-0.48218 -11.17737,-3.20507 -10.54075,-3.02251 c -5.68888,-1.63125 -11.74293,2.66315 -13.78145,9.77232 -2.03996,7.11426 0.81993,13.95918 6.5088,15.59043 2.79461,0.81227 4.40823,3.72341 3.60532,6.52345 l -6.54537,22.82648 c -0.80364,2.8026 0.81797,5.72418 3.61801,6.52708 l 10.14509,2.90905 c 2.80006,0.80292 5.72346,-0.81541 6.52709,-3.61801 l 0.72726,-2.53628 c 0.72727,-2.53627 -1.48391,-4.39726 -1.08173,-5.7998 l 5.09085,-17.75393 c 0.0173,-0.0582 0.0689,-0.0872 0.0908,-0.14411 0.12941,-0.35542 0.32426,-0.66187 0.57134,-0.92039 0.0696,-0.0706 0.13675,-0.12279 0.21363,-0.18027 0.28945,-0.24366 0.61689,-0.41874 0.98411,-0.52205 0.0182,-0.005 0.0276,-0.0197 0.0456,-0.0252 0.0105,0.003 0.0206,-0.005 0.0308,-10e-4 0.23564,-0.056 0.48639,-0.012 0.73284,-0.009 6.20665,2.51534 10.52061,9.34354 12.26625,18.26518 l 0.0721,-0.012 c 1.36209,6.34409 4.42041,11.08025 9.62231,12.57187 11.65675,3.34252 22.87606,-12.77213 27.93565,-30.41701 5.05959,-17.64486 4.08451,-37.25618 -7.57221,-40.59871 z m -22.8631,31.87152 c 0.75417,-2.6301 1.6376,-5.12708 2.59775,-7.48954 l 7.19286,2.06251 c 2.80006,0.80291 4.09512,4.8633 2.89077,9.06336 -1.20582,4.20515 -4.4543,6.95719 -7.25435,6.15429 l -7.19288,-2.06252 c 0.43767,-2.51226 1.01022,-5.0929 1.76585,-7.7281 z M 413.68291,452.0591 c 1.20436,-4.20006 4.45431,-6.95718 7.25435,-6.15429 l 10.54075,3.02253 2.14063,0.6138 5.10806,1.46471 c -2.10268,1.39804 -3.87142,3.79489 -4.75359,6.87138 -0.88362,3.08157 -0.65377,6.05151 0.39001,8.34626 l -5.10808,-1.46471 -12.68136,-3.63632 c -2.80006,-0.80289 -4.09656,-4.85819 -2.89077,-9.06336 z m 13.71383,47.84943 -10.14509,-2.90907 6.54538,-22.82647 c 0.53017,-1.84893 0.53012,-3.71806 0.0926,-5.4631 l 1.77032,0.50764 -0.009,0.0305 7.62912,2.18762 c -0.49756,0.71095 -0.8948,1.50285 -1.14717,2.38293 l -5.09085,17.75393 c -0.70036,2.44242 0.19799,4.45945 0.73431,5.66177 0.073,0.16646 0.16566,0.3412 0.23687,0.52356 l -0.61671,2.15075 z m 12.56788,-32.04587 -0.57318,-0.16438 0.009,-0.0305 c -2.80006,-0.8029 -4.09657,-4.8582 -2.89076,-9.06335 1.20435,-4.20006 4.45429,-6.9572 7.25435,-6.15429 l 0.57318,0.16438 c 4.78342,1.37162 9.80213,0.77405 14.67148,-1.33207 -1.89627,3.8754 -3.50655,8.09357 -4.7451,12.41285 -1.24289,4.33449 -2.11695,8.78025 -2.55813,13.07564 -3.01519,-4.36971 -6.95715,-7.53671 -11.74057,-8.90833 z m 23.32546,31.35886 c -5.11821,-1.46763 -7.42306,-10.0089 -6.42638,-21.05645 l 6.44468,1.84799 c 5.68633,1.63051 11.74145,-2.65806 13.78142,-9.77232 2.03852,-7.10917 -0.82244,-13.95992 -6.50877,-15.59043 l -6.44468,-1.84799 c 5.00762,-9.89193 11.48988,-15.91904 16.60808,-14.45142 7.0052,2.00871 8.77378,17.26375 3.95421,34.07163 -4.81959,16.80791 -14.40339,28.80769 -21.40856,26.79899 z"
       id="megaphone"
       inkscape:connector-curvature="0"
       style="fill:#ffffff;fill-opacity:0.54736843;stroke:none" />
    <path
       d="m 577.89406,196.57048 c -0.59504,-0.26539 -1.2582,-0.30969 -1.87511,-0.13274 -0.15191,0.0436 -0.30267,0.1011 -0.44797,0.17272 l -21.32303,10.40308 c -1.19923,0.58403 -1.80424,1.9441 -1.43643,3.22677 l 0.75756,2.64198 0.3788,1.32098 5.3674,18.71836 c -1.61959,-0.58778 -3.52373,-0.66223 -5.45502,-0.10846 -1.12283,0.32197 -2.19225,0.8302 -3.18319,1.50748 -2.26744,1.55512 -3.79731,3.80797 -4.19674,6.18413 -0.30819,1.83677 0.0965,3.62209 1.13624,5.02947 1.77725,2.40391 5.13169,3.3234 8.54645,2.34424 1.12282,-0.32198 2.19302,-0.82756 3.18187,-1.50712 2.2669,-1.5521 3.79677,-3.80494 4.19694,-6.17846 0.17099,-1.024 0.10133,-2.02478 -0.15895,-2.96231 l 0.0237,-0.007 -6.06056,-21.13573 c 0.15189,-0.0436 0.30266,-0.1011 0.4487,-0.17021 l 20.88776,-10.19106 4.5977,16.03411 c -1.6209,-0.5874 -3.52371,-0.66222 -5.45632,-0.108 -1.12283,0.32196 -2.19359,0.83056 -3.1832,1.50748 -2.26746,1.55513 -3.79732,3.80797 -4.1941,6.18336 -0.3082,1.83678 0.0952,3.62249 1.13494,5.02986 1.77854,2.40353 5.13035,3.32377 8.54642,2.34422 1.12285,-0.32195 2.19434,-0.82792 3.1832,-1.50748 2.26557,-1.55172 3.79544,-3.80456 4.19562,-6.17808 0.1723,-1.02438 0.10133,-2.02478 -0.15761,-2.96269 l 0.0237,-0.007 -6.81815,-23.77772 -0.37879,-1.321 -0.75757,-2.64196 c -0.22346,-0.77938 -0.78247,-1.42254 -1.52443,-1.75159 z m -20.10485,47.53648 c -2.86243,1.96305 -6.43034,1.8696 -7.96282,-0.2042 -1.53586,-2.07569 -0.46021,-5.34913 2.40091,-7.31178 2.86243,-1.96306 6.42959,-1.87225 7.96281,0.2042 1.53682,2.07398 0.46154,5.34874 -2.4009,7.31178 z m 23.91613,-11.14663 c -2.86506,1.96378 -6.43297,1.87035 -7.96545,-0.20346 -1.53587,-2.0757 -0.4589,-5.34951 2.4009,-7.31179 2.86507,-1.96379 6.43222,-1.87299 7.96545,0.20345 1.53682,2.074 0.46284,5.34837 -2.4009,7.3118 z m -3.84663,-29.90219 -21.32303,10.4031 -0.37878,-1.32099 -0.75758,-2.64197 21.32304,-10.40309 0.75758,2.64196 0.37877,1.32099 z"
       id="music"
       inkscape:connector-curvature="0"
       style="fill:#ffffff;fill-opacity:0.54736843;stroke:none" />
    <g
       id="iphone"
       transform="matrix(4.2606532,-1.2217226,1.2217226,4.2606532,1503.3701,440.60553)"
       style="fill:#ffffff;fill-opacity:0.54736849;stroke:none">
      <path
         id="path4365"
         d="M 24,0 8,0 C 6.342,0 5,1.343 5,3 v 26 c 0,1.658 1.343,3 3,3 h 16 c 1.656,0 3,-1.344 3,-3 V 3 C 27,1.342 25.656,0 24,0 z m 1,29 c 0,0.551 -0.449,1 -1,1 H 8 C 7.448,30 7,29.553 7,29 V 26.996 H 25 V 29 z m 0,-3.004 H 7 V 6 L 25,6 V 25.996 z M 25,5 7,5 V 3 C 7,2.448 7.448,2 8,2 l 16,0 c 0.551,0 1,0.448 1,1 v 2 z"
         inkscape:connector-curvature="0"
         style="fill:#ffffff;fill-opacity:0.54736849;stroke:none" />
      <path
         id="path4367"
         d="M 18,3.5 C 18,3.776 17.775,4 17.5,4 h -3 C 14.223,4 14,3.776 14,3.5 l 0,0 C 14,3.223 14.223,3 14.5,3 h 3 C 17.775,3 18,3.223 18,3.5 l 0,0 z"
         inkscape:connector-curvature="0"
         style="fill:#ffffff;fill-opacity:0.54736849;stroke:none" />
      <path
         id="path4369"
         d="m 17,28.496 c 0,0.275 -0.225,0.5 -0.5,0.5 h -1 c -0.276,0 -0.5,-0.225 -0.5,-0.5 l 0,0 c 0,-0.277 0.224,-0.5 0.5,-0.5 h 1 c 0.275,0 0.5,0.223 0.5,0.5 l 0,0 z"
         inkscape:connector-curvature="0"
         style="fill:#ffffff;fill-opacity:0.54736849;stroke:none" />
    </g>
    <path
       d="m 1620.2845,258.56586 c -27.5304,0 -49.8451,22.31456 -49.8451,49.84517 0,27.53062 22.3147,49.84518 49.8451,49.84518 27.5306,0 49.8454,-22.31456 49.8454,-49.84518 0,-27.53061 -22.3148,-49.84517 -49.8454,-49.84517 z m 43.3333,48.23726 h -19.282 c -0.1769,-7.12303 -1.4439,-13.9277 -3.6918,-20.15674 4.3412,-1.81049 8.3546,-4.21916 12.0142,-7.06515 6.5057,7.30312 10.5737,16.78656 10.9596,27.22189 z m -45.1115,44.93141 c -5.3447,-4.45068 -9.8276,-10.22952 -13.1079,-16.94091 4.2097,-1.31528 8.67,-2.03563 13.2782,-2.18355 v 19.13088 c -0.059,0 -0.1131,-0.003 -0.1703,-0.007 z m 3.5502,-86.64698 c 6.0651,5.04881 11.0141,11.81169 14.362,19.70009 -4.586,1.5661 -9.4578,2.47618 -14.5293,2.63697 V 265.0779 c 0.061,0.003 0.1131,0.007 0.1673,0.01 z m 5.3576,0.54667 c 8.8756,1.47606 16.8379,5.62126 23.0381,11.62198 -3.3671,2.5823 -7.0458,4.76905 -11.0237,6.42519 -2.9266,-6.9365 -7.0332,-13.06908 -12.0144,-18.04717 z m -8.7375,-0.55632 v 22.34671 c -5.0713,-0.16401 -9.9464,-1.07087 -14.5288,-2.63697 3.3474,-7.8884 8.2966,-14.65128 14.3616,-19.70009 0.059,-0.003 0.1103,-0.007 0.1672,-0.01 z m -17.5388,18.60672 c -3.9716,-1.65616 -7.6537,-3.84291 -11.0208,-6.42522 6.1968,-6.00071 14.1625,-10.14588 23.0382,-11.62195 -4.9847,4.97486 -9.088,11.10744 -12.0174,18.04717 z m 1.7973,4.06801 c 4.959,1.72046 10.2427,2.72379 15.7415,2.89102 v 16.15947 h -19.2272 c 0.1736,-6.73391 1.3666,-13.16876 3.4857,-19.05049 z m 15.7415,22.2663 v 19.37531 c -5.0713,0.15437 -9.9754,0.98405 -14.5965,2.47296 -2.7848,-6.63101 -4.428,-14.01774 -4.6307,-21.84827 h 19.2272 z m -5.5214,41.16891 c -7.9528,-1.32169 -15.1755,-4.78513 -21.0475,-9.81466 3.1676,-2.19641 6.5925,-4.05515 10.2518,-5.46689 2.8044,5.81418 6.4735,10.97558 10.7957,15.28155 z m 8.7374,0.55634 v -19.1309 c 4.6049,0.14792 9.0686,0.86827 13.278,2.18354 -3.2833,6.7114 -7.763,12.49024 -13.1077,16.94092 -0.055,0 -0.1131,0.003 -0.1703,0.007 z m 16.3171,-15.83789 c 3.6564,1.41174 7.0779,3.27369 10.2518,5.46689 -5.8721,5.02631 -13.0946,8.49297 -21.0474,9.81466 4.3221,-4.30597 7.9881,-9.46737 10.7956,-15.28155 z m -1.7205,-4.03909 c -4.6244,-1.48891 -9.5285,-2.31859 -14.5966,-2.47296 v -19.37531 h 19.2272 c -0.2025,7.83053 -1.849,15.21726 -4.6306,21.84827 z m -14.5966,-25.06408 v -16.15947 c 5.4959,-0.16723 10.7793,-1.16734 15.7414,-2.88781 2.116,5.88173 3.3091,12.31658 3.4858,19.0505 h -19.2272 z m -33.9784,-27.22189 c 3.6596,2.84599 7.673,5.25466 12.0109,7.06515 -2.2477,6.22904 -3.5146,13.03371 -3.6915,20.15674 h -19.2822 c 0.3859,-10.43533 4.454,-19.91877 10.9628,-27.22189 z m -10.9628,30.4377 h 19.2822 c 0.1992,8.21642 1.9164,15.97619 4.8333,22.95131 -4.0744,1.58861 -7.8724,3.70462 -11.3774,6.20974 -7.5509,-7.51536 -12.3167,-17.78991 -12.7381,-29.16105 z m 73.9285,29.15784 c -3.5054,-2.50191 -7.3032,-4.62114 -11.3807,-6.20976 2.9199,-6.9751 4.6339,-14.73485 4.8366,-22.95129 h 19.282 c -0.4214,11.37435 -5.1903,21.6489 -12.7379,29.16105 z"
       id="world"
       inkscape:connector-curvature="0"
       style="fill:#ffffff;fill-opacity:0.54736849;stroke:none" />
    <g
       id="photo_1_"
       transform="matrix(0.9612617,-0.27563736,0.27563736,0.9612617,1709.5908,426.74058)"
       style="fill:#ffffff;fill-opacity:0.54736849;stroke:none">
      <path
         id="path4392"
         d="M 27,0 H 5 C 2.791,0 1,1.791 1,4 v 24 c 0,2.209 1.791,4 4,4 h 22 c 2.209,0 4,-1.791 4,-4 V 4 C 31,1.791 29.209,0 27,0 z m 2,28 c 0,1.102 -0.898,2 -2,2 H 5 C 3.897,30 3,29.102 3,28 V 4 C 3,2.897 3.897,2 5,2 h 22 c 1.102,0 2,0.897 2,2 v 24 z"
         inkscape:connector-curvature="0"
         style="fill:#ffffff;fill-opacity:0.54736849;stroke:none" />
      <path
         id="path4394"
         d="M 26,4 H 6 C 5.447,4 5,4.447 5,5 v 18 c 0,0.553 0.447,1 1,1 h 20 c 0.553,0 1,-0.447 1,-1 V 5 C 27,4.447 26.553,4 26,4 z m 0,1 v 13.869 l -3.25,-3.53 C 22.559,15.123 22.287,15 22,15 c -0.287,0 -0.561,0.123 -0.75,0.339 l -2.604,2.95 -7.896,-8.95 C 10.56,9.123 10.287,9 10,9 9.713,9 9.44,9.123 9.25,9.339 L 6,13.087 V 5 h 20 z m -20,9.6 4,-4.6 8.066,9.143 0.58,0.658 L 21.408,23 H 6 V 14.6 z M 22.74,23 19.312,19.045 22,16 26,20.379 V 23 h -3.26 z"
         inkscape:connector-curvature="0"
         style="fill:#ffffff;fill-opacity:0.54736849;stroke:none" />
      <path
         id="path4396"
         d="m 20,13 c 1.656,0 3,-1.343 3,-3 0,-1.657 -1.344,-3 -3,-3 -1.658,0 -3,1.343 -3,3 0,1.657 1.342,3 3,3 z m 0,-5 c 1.102,0 2,0.897 2,2 0,1.103 -0.898,2 -2,2 -1.104,0 -2,-0.897 -2,-2 0,-1.103 0.896,-2 2,-2 z"
         inkscape:connector-curvature="0"
         style="fill:#ffffff;fill-opacity:0.54736849;stroke:none" />
    </g>
    <path
       d="m 1844.5461,202.29274 -9.2502,-11.82277 c -0.3608,-0.46428 -0.7893,-0.86647 -1.2333,-1.25089 v -14.13232 c 0,-3.26471 -2.7627,-5.91434 -6.1668,-5.91434 h -61.6689 c -3.4073,0 -6.1668,2.64963 -6.1668,5.91434 v 14.13528 c -0.4441,0.38146 -0.8728,0.7807 -1.2335,1.24201 l -9.2473,11.82573 c -1.1962,1.5259 -1.8531,3.41553 -1.8531,5.32586 v 2.95716 c 0,4.89117 4.1504,8.87153 9.2503,8.87153 h 0 v 38.44322 c 0,3.26473 2.7627,5.91434 6.1668,5.91434 h 67.8358 c 3.4041,0 6.1668,-2.64961 6.1668,-5.91434 v -38.44322 l 0,0 c 5.1003,0 9.2505,-3.98036 9.2505,-8.87153 v -2.95716 c 0,-1.91033 -0.6569,-3.79996 -1.8503,-5.3229 z m -16.6503,-27.20598 v 11.82868 h -61.6689 0 v -11.82868 h 61.6689 z m -48.7401,38.44322 h -12.9165 l 12.3338,-20.7002 h 6.7496 l -6.1669,20.7002 z m 9.3767,-20.7002 h 6.9872 v 20.7002 h -13.154 l 6.1668,-20.7002 z m 10.0706,0 h 6.9871 l 6.1668,20.7002 h -13.1539 v -20.7002 z m 10.1908,0 h 6.7497 l 12.3336,20.7002 h -12.9164 l -6.1669,-20.7002 z m -54.9007,17.74302 v -2.95716 c 0,-0.6417 0.2159,-1.26272 0.6168,-1.7743 l 9.2502,-11.82869 c 0.5828,-0.74521 1.4955,-1.18287 2.4668,-1.18287 h 8.794 l -12.3338,20.7002 h -5.7106 c -1.702,0 -3.0834,-1.32185 -3.0834,-2.95718 z m 55.5019,47.31475 h -23.1257 v -29.57171 h 23.1257 v 29.57171 z m 21.5841,0 h -18.5005 v -29.57171 c 0,-1.63532 -1.3845,-2.95717 -3.0836,-2.95717 h -23.1257 c -1.7021,0 -3.0834,1.32185 -3.0834,2.95717 v 29.57171 h -20.0426 v -38.44322 h 67.8358 v 38.44322 z m 9.2505,-47.31475 c 0,1.63533 -1.3785,2.95718 -3.0837,2.95718 h -5.7166 l -12.3338,-20.7002 h 8.8003 l 0,0 c 0.968,0 1.8837,0.43766 2.4636,1.18287 l 9.2503,11.82869 c 0.4039,0.51158 0.6199,1.1326 0.6199,1.7743 v 2.95716 z"
       id="shop_1_"
       inkscape:connector-curvature="0"
       style="fill:#ffffff;fill-opacity:0.54736849;stroke:none" />
    <g
       id="vallet_1_"
       transform="matrix(6.0805354,-1.7435655,1.7435655,6.0805354,1886.6368,332.34321)"
       style="fill:#ffffff;fill-opacity:0.54736849;stroke:none">
      <circle
         id="circle4419"
         r="2"
         cy="20"
         cx="18"
         sodipodi:cx="18"
         sodipodi:cy="20"
         sodipodi:rx="2"
         sodipodi:ry="2"
         style="fill:#ffffff;fill-opacity:0.54736849;stroke:none"
         d="m 20,20 c 0,1.104569 -0.895431,2 -2,2 -1.104569,0 -2,-0.895431 -2,-2 0,-1.104569 0.895431,-2 2,-2 1.104569,0 2,0.895431 2,2 z" />
      <path
         id="path4421"
         d="M 29.001,13 C 29,13 29,13 29.001,13 L 29,7 V 6.5 4 C 29,2.343 27.656,1 26,1 H 22 5.5 C 2.467,1 0,3.468 0,6.5 v 20 C 0,29.532 2.467,32 5.5,32 h 18 C 26.532,32 29,29.532 29,26.5 V 25 c 0,0 0,0 0.001,0 3.998,-3.001 3.998,-8.999 0,-12 z M 5.5,3 H 22 26 c 0.551,0 1,0.448 1,1 V 6.5 7 10.184 C 26.686,10.072 26.352,10 26,10 H 25.999 V 9 7 5 c 0,-0.553 -0.448,-1 -1,-1 h -21 c -0.552,0 -1,0.447 -1,1 V 7 8.943 C 2.382,8.312 2,7.452 2,6.5 2,4.567 3.566,3 5.5,3 z m 19.499,3 h -21 V 5 h 21 v 1 z m 0,1 v 1 h -21 V 7 h 21 z m 0,2 v 1 H 22 5.5 C 4.96,10 4.456,9.868 4,9.65 V 9 H 24.999 z M 27,26.5 C 27,28.433 25.433,30 23.5,30 H 5.5 C 3.566,30 2,28.433 2,26.5 V 10.739 C 2.951,11.526 4.171,12 5.5,12 H 22 26 c 0.551,0 1,0.448 1,1 v 2 h -9 c -2.762,0 -5,2.238 -5,5 0,2.762 2.239,5 5,5 h 9 v 1.5 z M 28.277,23 H 18 c -1.654,0 -3,-1.346 -3,-3 0,-1.654 1.346,-3 3,-3 h 9 c 0.617,-0.008 1.229,-0.307 1.602,-0.804 0.104,-0.14 0.185,-0.297 0.25,-0.461 0.009,-0.022 0.025,-0.039 0.033,-0.062 C 29.604,16.616 30,17.772 30,19 c 0,1.538 -0.621,2.965 -1.723,4 z"
         inkscape:connector-curvature="0"
         style="fill:#ffffff;fill-opacity:0.54736849;stroke:none" />
    </g>
    <g
       id="g4447"
       transform="matrix(3.3864418,-0.97104658,0.97104658,3.3864418,1787.3225,491.82341)"
       style="fill:#ffffff;fill-opacity:0.54736849;stroke:none">
      <g
         id="Layer_1"
         style="fill:#ffffff;fill-opacity:0.54736849;stroke:none">
        <g
           id="fire_1_"
           style="fill:#ffffff;fill-opacity:0.54736849;stroke:none">
          <path
             id="path4436"
             d="m 22,9 c -0.062,2.675 -2.07,4.934 -2.07,4.934 C 19.93,8.958 16,5 16,5 16,5 15.947,7.962 13.957,10.948 11.967,3.981 5.995,0 5.995,0 8.981,10.948 5,14.93 5,22.892 5,27.563 8.954,32 15,32 23.957,32 25.689,28.712 26.615,25.007 27.891,19.906 25.98,13.976 22,9 z m 2.676,15.521 C 24.033,27.09 23.307,30 15,30 9.992,30 7,26.386 7,22.892 7,20.216 7.488,18.019 8.004,15.693 8.66,12.744 9.332,9.725 9.041,5.732 c 3.084,4.269 4.182,9.925 4.182,9.925 0,0 2.871,-4.031 3.643,-5.903 C 17.457,10.957 18,15 18,19 c 0,0 2.656,-2.188 4.648,-5.478 2.098,3.762 2.854,7.695 2.028,10.999 z"
             inkscape:connector-curvature="0"
             style="fill:#ffffff;fill-opacity:0.54736849;stroke:none" />
          <path
             id="path4438"
             d="m 22.432,16.795 -0.85,0.985 c -1.053,1.228 -2.049,2.392 -4.708,3.73 -0.381,-1.142 -0.727,-2.399 -0.727,-4.323 v -1.709 l -1.518,2.378 c -0.512,0.811 -0.936,1.483 -1.568,2.376 C 12.102,18.07 11.424,16.471 10.909,15.02 L 10.43,13.67 9.91,15.18 c -0.66,1.921 -1.285,3.735 -1.285,8.444 0,0.276 0.223,0.5 0.5,0.5 0.275,0 0.5,-0.224 0.5,-0.5 0,-3.609 0.359,-5.396 0.84,-6.941 0.52,1.322 1.176,2.825 2.037,4.75 l 0.352,0.784 0.508,-0.692 c 0.83,-1.13 1.324,-1.89 1.865,-2.743 0.158,1.479 0.523,2.54 0.885,3.59 L 16.294,22.9 16.8,22.661 c 2.703,-1.284 3.968,-2.453 4.972,-3.575 0.156,1.864 -0.09,3.904 -0.674,5.353 -0.104,0.256 0.021,0.547 0.277,0.65 0.061,0.024 0.125,0.036 0.188,0.036 0.197,0 0.385,-0.118 0.463,-0.313 0.775,-1.924 1.008,-4.664 0.592,-6.982 l -0.186,-1.035 z"
             inkscape:connector-curvature="0"
             style="fill:#ffffff;fill-opacity:0.54736849;stroke:none" />
        </g>
      </g>
      <g
         id="Layer_2"
         style="fill:#ffffff;fill-opacity:0.54736849;stroke:none" />
    </g>
    <g
       id="settings"
       transform="matrix(2.7677966,0,0,2.7677966,476.95443,306.54815)"
       style="fill:#ffffff;fill-opacity:0.54736843;stroke:none">
      <path
         id="path4456"
         d="M 30.391,12.68 27.327,12.066 C 27.173,11.623 26.991,11.193 26.79,10.777 L 28.526,8.173 C 29.055,7.38 28.95,6.323 28.276,5.65 L 26.352,3.726 C 25.965,3.339 25.454,3.14 24.936,3.14 c -0.383,0 -0.77,0.11 -1.107,0.336 L 21.225,5.211 C 20.807,5.009 20.377,4.829 19.934,4.675 L 19.32,1.61 C 19.134,0.674 18.312,0.002 17.359,0.002 h -2.72 c -0.953,0 -1.774,0.673 -1.961,1.608 L 12.064,4.675 C 11.621,4.829 11.191,5.01 10.775,5.211 L 8.172,3.476 C 7.833,3.25 7.447,3.14 7.063,3.14 6.546,3.14 6.035,3.339 5.648,3.726 L 3.725,5.65 C 3.051,6.324 2.946,7.38 3.475,8.173 l 1.735,2.604 c -0.202,0.417 -0.382,0.847 -0.536,1.29 L 1.608,12.68 C 0.673,12.867 0,13.688 0,14.641 v 2.72 c 0,0.953 0.673,1.775 1.608,1.961 l 3.065,0.615 c 0.154,0.443 0.335,0.873 0.536,1.289 L 3.475,23.83 c -0.529,0.793 -0.424,1.85 0.25,2.523 l 1.924,1.924 c 0.387,0.387 0.898,0.586 1.415,0.586 0.384,0 0.771,-0.111 1.108,-0.336 l 2.604,-1.736 c 0.417,0.203 0.847,0.383 1.29,0.537 l 0.613,3.064 c 0.187,0.936 1.008,1.609 1.961,1.609 h 2.72 c 0.953,0 1.775,-0.674 1.961,-1.609 l 0.615,-3.064 c 0.443,-0.154 0.873,-0.336 1.289,-0.537 l 2.604,1.736 c 0.338,0.225 0.725,0.336 1.107,0.336 0.518,0 1.029,-0.199 1.416,-0.586 l 1.924,-1.924 c 0.674,-0.674 0.779,-1.73 0.25,-2.523 L 26.79,21.226 c 0.203,-0.418 0.383,-0.848 0.537,-1.291 l 3.064,-0.613 C 31.326,19.137 32,18.314 32,17.361 v -2.72 c 0,-0.953 -0.674,-1.774 -1.609,-1.961 z m -3.457,5.295 c -0.695,0.139 -1.264,0.635 -1.496,1.305 -0.129,0.369 -0.279,0.727 -0.447,1.074 -0.311,0.639 -0.258,1.393 0.135,1.982 l 1.736,2.604 -1.924,1.924 -2.604,-1.736 C 22,24.905 21.613,24.792 21.225,24.792 c -0.297,0 -0.596,0.066 -0.871,0.199 -0.348,0.168 -0.705,0.32 -1.076,0.449 -0.668,0.232 -1.164,0.801 -1.303,1.496 l -0.615,3.066 h -2.72 l -0.613,-3.066 c -0.139,-0.695 -0.635,-1.264 -1.304,-1.496 -0.369,-0.129 -0.728,-0.279 -1.075,-0.447 -0.276,-0.135 -0.574,-0.201 -0.872,-0.201 -0.389,0 -0.775,0.113 -1.109,0.336 L 7.063,26.864 5.139,24.94 6.874,22.336 C 7.267,21.746 7.318,20.992 7.011,20.356 6.843,20.008 6.692,19.651 6.563,19.28 6.331,18.612 5.761,18.116 5.067,17.977 L 2.002,17.362 2,14.641 5.066,14.028 C 5.76,13.889 6.33,13.393 6.562,12.724 6.691,12.355 6.84,11.996 7.009,11.649 7.319,11.011 7.267,10.257 6.873,9.668 L 5.139,7.064 7.062,5.14 9.666,6.875 c 0.334,0.223 0.721,0.336 1.109,0.336 0.297,0 0.595,-0.066 0.871,-0.199 0.347,-0.168 0.705,-0.319 1.075,-0.448 0.669,-0.232 1.165,-0.802 1.304,-1.496 l 0.614,-3.065 2.72,-0.001 0.613,3.066 c 0.139,0.694 0.635,1.264 1.305,1.496 0.369,0.129 0.727,0.278 1.074,0.447 0.277,0.134 0.574,0.2 0.873,0.2 0.389,0 0.775,-0.113 1.109,-0.336 l 2.604,-1.735 1.924,1.924 -1.736,2.604 c -0.393,0.59 -0.443,1.343 -0.137,1.98 0.168,0.347 0.32,0.705 0.449,1.075 0.232,0.669 0.801,1.165 1.496,1.304 l 3.064,0.614 0.003,2.72 -3.066,0.614 z"
         inkscape:connector-curvature="0"
         style="fill:#ffffff;fill-opacity:0.54736843;stroke:none" />
      <path
         id="path4458"
         d="m 16,9.001 c -3.865,0 -7,3.135 -7,7 0,3.866 3.135,7 7,7 3.865,0 7,-3.135 7,-7 0,-3.865 -3.135,-7 -7,-7 z m 0,13.126 c -3.382,0 -6.125,-2.744 -6.125,-6.125 0,-3.382 2.743,-6.125 6.125,-6.125 3.381,0 6.125,2.743 6.125,6.125 0,3.381 -2.744,6.125 -6.125,6.125 z"
         inkscape:connector-curvature="0"
         style="fill:#ffffff;fill-opacity:0.54736843;stroke:none" />
      <path
         id="path4460"
         d="m 16,12.001 c -2.21,0 -4,1.79 -4,4 0,2.209 1.79,4 4,4 2.209,0 4,-1.791 4,-4 0,-2.209 -1.791,-4 -4,-4 z m 0,7.001 c -1.656,0 -3,-1.344 -3,-3 0,-1.656 1.344,-3 3,-3 1.656,0 3,1.344 3,3 0,1.656 -1.344,3 -3,3 z"
         inkscape:connector-curvature="0"
         style="fill:#ffffff;fill-opacity:0.54736843;stroke:none" />
    </g>
    <g
       id="tag"
       transform="matrix(2.2872127,0.6558477,-0.6558477,2.2872127,355.45564,276.06826)"
       style="fill:#ffffff;fill-opacity:0.54736843;stroke:none">
      <path
         id="path4474"
         d="m 31.391,13.883 -5,-8 C 25.661,4.714 24.379,4.003 23,4.003 H 4 c -2.209,0 -4,1.791 -4,4 v 16 c 0,2.209 1.791,4 4,4 h 19 c 1.379,0 2.66,-0.711 3.391,-1.881 l 5,-8 c 0.812,-1.295 0.812,-2.942 0,-4.239 z m -1.696,3.179 -5,8.002 C 24.328,25.652 23.693,26.003 23,26.003 H 4 c -1.103,0 -2,-0.898 -2,-2 v -16 c 0,-1.103 0.897,-2 2,-2 h 19 c 0.693,0 1.328,0.352 1.695,0.939 l 5,8 c 0.403,0.645 0.403,1.477 0,2.12 z"
         clip-rule="evenodd"
         inkscape:connector-curvature="0"
         style="fill:#ffffff;fill-opacity:0.54736843;fill-rule:evenodd;stroke:none" />
      <path
         id="path4476"
         d="m 23,13.003 c -1.658,0 -3,1.343 -3,3 0,1.657 1.342,3 3,3 1.656,0 3,-1.344 3,-3 0,-1.657 -1.344,-3 -3,-3 z m 0,5.001 c -1.105,0 -2,-0.896 -2,-2 0,-1.104 0.895,-2 2,-2 1.104,0 2,0.896 2,2 0,1.103 -0.896,2 -2,2 z"
         clip-rule="evenodd"
         inkscape:connector-curvature="0"
         style="fill:#ffffff;fill-opacity:0.54736843;fill-rule:evenodd;stroke:none" />
    </g>
    <path
       d="m 471.18876,186.87774 c -1.80946,-2.3982 -4.41256,-3.9867 -7.14448,-4.37064 -2.30454,-0.32388 -4.54623,0.23272 -6.31325,1.56196 l -7.10968,5.39986 c -0.0217,0.0152 -0.0451,0.0236 -0.0669,0.0402 -0.0116,0.009 -0.02,0.022 -0.0315,0.0295 l 0.003,0.003 -15.0888,11.46175 c -0.69415,0.51965 -1.24152,1.21128 -1.60284,1.99953 l -4.5358,10.46434 c -0.006,0.0291 -0.3226,0.85631 -0.38375,1.29137 -0.34744,2.47218 1.37827,4.76073 3.85428,5.10871 0.49264,0.0693 1.47902,-0.0322 1.51429,-0.0324 l 11.24923,-1.32756 c 0.85841,-0.12857 1.66954,-0.46869 2.36442,-0.99345 l 22.2968,-16.93913 c 4.05173,-3.05549 4.48852,-9.06955 0.9959,-13.69684 z m -20.93741,24.74017 c 0.0573,-1.16895 -0.10983,-2.34724 -0.4476,-3.49079 l 13.7987,-10.39693 c 0.41121,2.44049 -0.31231,4.83109 -2.16158,6.22576 -0.0116,0.009 -0.0253,0.0134 -0.0358,0.0224 l 0.0156,0.0191 -11.28959,8.57826 c 0.0447,-0.31862 0.10402,-0.62868 0.1203,-0.95783 z m -0.92595,-4.74806 c -0.36705,-0.85147 -0.80313,-1.68524 -1.38068,-2.45015 -0.67195,-0.89171 -1.48281,-1.6307 -2.34717,-2.27673 l 13.91125,-10.48289 c 0.89742,0.55934 1.72983,1.29353 2.42598,2.21735 0.59532,0.78699 1.02157,1.63503 1.32067,2.49653 l -13.93005,10.49589 z m -4.84689,-5.50136 c -1.11782,-0.64382 -2.32072,-1.09081 -3.56214,-1.28224 l 11.25256,-8.54692 c 1.71545,-1.2595 3.97204,-1.37427 6.06048,-0.53403 l -13.7509,10.36319 z M 433.999,217.26475 c -0.14398,0.0129 -0.59322,0.0615 -0.89041,0.0406 -1.05003,-0.16063 -1.78338,-1.13534 -1.63556,-2.18716 0.0456,-0.21282 0.18327,-0.57057 0.23158,-0.7008 l 2.0333,-4.69099 c 1.46815,0.16588 2.96203,0.9565 4.02513,2.37033 1.08032,1.43059 1.44597,3.11828 1.17393,4.58977 l -4.93797,0.57826 z m 6.24531,-0.73508 c 0.21062,-1.72153 -0.23698,-3.60603 -1.44928,-5.21176 -1.14577,-1.52201 -2.78286,-2.53761 -4.5134,-2.85129 l 1.92313,-4.43637 c 0.13529,-0.29415 0.36091,-0.5717 0.62333,-0.80493 2.82511,-1.47674 6.6964,-0.3794 9.05282,2.75072 2.49333,3.30723 2.34413,7.61842 -0.24647,9.84057 -0.1594,0.0572 -0.31954,0.11035 -0.48743,0.13506 l -4.9027,0.578 z m 28.39057,-18.01653 -2.46001,1.86863 c 0.0407,-0.28919 0.11422,-0.562 0.12895,-0.86137 0.12276,-2.50766 -0.69495,-5.06399 -2.30645,-7.19949 -1.79133,-2.37869 -4.3871,-3.96354 -7.12307,-4.35588 l 2.41934,-1.83912 c 1.20951,-0.90914 2.77235,-1.28712 4.39104,-1.05962 2.05886,0.28935 4.0431,1.51815 5.44161,3.36796 1.31238,1.73855 1.956,3.7602 1.81732,5.69409 -0.13095,1.8045 -0.95122,3.36075 -2.30867,4.3848 z"
       id="pen"
       inkscape:connector-curvature="0"
       style="fill:#ffffff;fill-opacity:0.54736843;stroke:none" />
    <g
       id="search_1_"
       transform="matrix(2.0732536,0,0,2.0732536,1487.1076,179.2631)"
       style="fill:#ffffff;fill-opacity:0.54736849;stroke:none">
      <path
         id="path4498"
         d="m 20,0.005 c -6.627,0 -12,5.373 -12,12 0,2.026 0.507,3.933 1.395,5.608 l -8.344,8.342 0.007,0.006 C 0.406,26.602 0,27.49 0,28.477 c 0,1.949 1.58,3.529 3.529,3.529 0.985,0 1.874,-0.406 2.515,-1.059 l -0.002,-0.002 8.341,-8.34 c 1.676,0.891 3.586,1.4 5.617,1.4 6.627,0 12,-5.373 12,-12 0,-6.627 -5.373,-12 -12,-12 z M 4.795,29.697 c -0.322,0.334 -0.768,0.543 -1.266,0.543 -0.975,0 -1.765,-0.789 -1.765,-1.764 0,-0.498 0.21,-0.943 0.543,-1.266 l -0.009,-0.008 8.066,-8.066 c 0.705,0.951 1.545,1.791 2.494,2.498 L 4.795,29.697 z M 20,22.006 c -5.522,0 -10,-4.479 -10,-10 0,-5.522 4.478,-10 10,-10 5.521,0 10,4.478 10,10 0,5.521 -4.479,10 -10,10 z"
         inkscape:connector-curvature="0"
         style="fill:#ffffff;fill-opacity:0.54736849;stroke:none" />
      <path
         id="path4500"
         d="m 20,5.005 c -3.867,0 -7,3.134 -7,7 0,0.276 0.224,0.5 0.5,0.5 0.276,0 0.5,-0.224 0.5,-0.5 0,-3.313 2.686,-6 6,-6 0.275,0 0.5,-0.224 0.5,-0.5 0,-0.276 -0.225,-0.5 -0.5,-0.5 z"
         inkscape:connector-curvature="0"
         style="fill:#ffffff;fill-opacity:0.54736849;stroke:none" />
    </g>
    <path
       d="m 1463.5348,370.94556 c -0.3348,-0.1596 -6.4039,-3.02328 -14.9213,-3.65037 2.4923,-4.26734 3.7134,-9.7078 4.0575,-13.26302 0.4791,-4.92752 -1.2779,-14.18971 -6.6718,-19.35774 -3.1529,-3.02025 -7.1486,-4.28748 -11.5551,-3.66819 -4.4064,0.61929 -7.8979,2.94032 -10.0948,6.7109 -3.7606,6.45305 -2.895,15.84049 -1.0778,20.44532 1.3106,3.32266 3.9824,8.216 7.556,11.63085 -8.0146,2.95051 -13.0592,7.3761 -13.3355,7.62158 -1.0123,0.90053 -1.3168,2.36036 -0.7464,3.58848 0.5679,1.2331 1.8787,1.94698 3.2194,1.75854 l 42.663,-5.9959 c 1.3425,-0.18865 2.4026,-1.23572 2.6119,-2.57654 0.2113,-1.33796 -0.4837,-2.65731 -1.7051,-3.24391 z m -17.5787,-5.20201 -0.408,0.70061 c -3.0473,4.68559 -7.7859,5.35157 -12.0051,1.68719 l -0.587,-0.56078 c -4.999,-4.78068 -8.1044,-11.59727 -8.1514,-18.50962 -0.086,-6.63654 2.6932,-13.97092 10.0678,-15.00736 7.3746,-1.03642 12.0694,5.24913 13.8161,11.65225 1.8576,6.66101 0.7579,14.06079 -2.7324,20.03771 z m -26.4193,13.971 c 0.1905,-0.16973 4.8769,-4.28084 12.3525,-7.03129 l 3.6698,-1.35014 c 1.4762,0.69684 3.0364,1.04157 4.6668,0.81245 1.6319,-0.22935 3.0351,-0.99058 4.262,-2.0673 l 3.8998,0.28628 c 7.8814,0.57975 13.4958,3.20434 13.8121,3.35411 l -42.663,5.99589 z"
       id="usericon"
       inkscape:connector-curvature="0"
       style="fill:#ffffff;fill-opacity:0.54736849;stroke:none" />
    <g
       id="vynil_1_"
       transform="matrix(1.7574128,0,0,1.7574128,1357.8039,213.61584)"
       style="fill:#ffffff;fill-opacity:0.54736849;stroke:none">
      <path
         id="path4522"
         d="m 21.951,1.15 c -8.202,-3.284 -17.515,0.702 -20.8,8.905 -3.286,8.204 0.702,17.518 8.905,20.802 8.203,3.285 17.516,-0.702 20.801,-8.905 C 34.143,13.748 30.154,4.436 21.951,1.15 z M 10.8,29.001 C 3.634,26.131 0.138,17.967 3.007,10.8 5.877,3.634 14.042,0.137 21.209,3.008 28.375,5.877 31.871,14.042 29.002,21.208 26.131,28.375 17.967,31.87 10.8,29.001 z"
         clip-rule="evenodd"
         inkscape:connector-curvature="0"
         style="fill:#ffffff;fill-opacity:0.54736849;fill-rule:evenodd;stroke:none" />
      <path
         id="path4524"
         d="m 16.749,14.147 c -1.025,-0.411 -2.19,0.088 -2.601,1.113 -0.411,1.025 0.088,2.189 1.112,2.6 1.025,0.411 2.191,-0.088 2.601,-1.112 0.41,-1.025 -0.088,-2.189 -1.112,-2.601 z m -1.117,2.786 c -0.512,-0.206 -0.761,-0.788 -0.557,-1.301 0.206,-0.512 0.789,-0.761 1.301,-0.557 0.511,0.205 0.76,0.788 0.556,1.301 -0.205,0.512 -0.788,0.761 -1.3,0.557 z"
         clip-rule="evenodd"
         inkscape:connector-curvature="0"
         style="fill:#ffffff;fill-opacity:0.54736849;fill-rule:evenodd;stroke:none" />
      <path
         id="path4526"
         d="m 18.234,10.435 c -3.076,-1.232 -6.568,0.264 -7.8,3.339 -1.232,3.076 0.264,6.568 3.339,7.8 3.076,1.232 6.568,-0.263 7.8,-3.339 1.232,-3.076 -0.262,-6.569 -3.339,-7.8 z m -3.716,9.282 c -2.048,-0.819 -3.046,-3.153 -2.227,-5.2 0.82,-2.047 3.152,-3.046 5.199,-2.227 2.049,0.82 3.047,3.154 2.229,5.201 -0.821,2.047 -3.154,3.047 -5.201,2.226 z"
         clip-rule="evenodd"
         inkscape:connector-curvature="0"
         style="fill:#ffffff;fill-opacity:0.54736849;fill-rule:evenodd;stroke:none" />
      <path
         id="path4528"
         d="m 23.432,18.978 c 0.102,-0.256 -0.023,-0.547 -0.279,-0.649 -0.256,-0.104 -0.547,0.021 -0.65,0.278 v -10e-4 c -0.719,1.796 -2.098,3.129 -3.744,3.834 -0.252,0.108 -0.371,0.402 -0.262,0.655 0.109,0.255 0.402,0.372 0.656,0.264 0.01,-0.004 0.014,-0.012 0.021,-0.015 1.873,-0.81 3.439,-2.327 4.256,-4.366 h 0.002 z"
         clip-rule="evenodd"
         inkscape:connector-curvature="0"
         style="fill:#ffffff;fill-opacity:0.54736849;fill-rule:evenodd;stroke:none" />
      <path
         id="path4530"
         d="m 26.865,19.814 c -0.256,-0.103 -0.547,0.022 -0.65,0.278 -1.129,2.82 -3.295,4.915 -5.883,6.023 -0.252,0.108 -0.371,0.402 -0.262,0.656 0.109,0.255 0.402,0.371 0.656,0.263 0.012,-0.006 0.021,-0.017 0.033,-0.022 2.809,-1.213 5.16,-3.49 6.385,-6.548 0.102,-0.256 -0.023,-0.547 -0.279,-0.65 z"
         clip-rule="evenodd"
         inkscape:connector-curvature="0"
         style="fill:#ffffff;fill-opacity:0.54736849;fill-rule:evenodd;stroke:none" />
      <path
         id="path4532"
         d="m 25.008,19.071 c -0.256,-0.103 -0.547,0.021 -0.65,0.278 -0.922,2.308 -2.693,4.021 -4.812,4.928 h 0.002 c -0.254,0.109 -0.373,0.403 -0.264,0.657 0.109,0.254 0.402,0.371 0.656,0.263 0.01,-0.005 0.016,-0.014 0.027,-0.02 2.34,-1.011 4.299,-2.907 5.32,-5.456 0.102,-0.256 -0.023,-0.547 -0.279,-0.65 z"
         clip-rule="evenodd"
         inkscape:connector-curvature="0"
         style="fill:#ffffff;fill-opacity:0.54736849;fill-rule:evenodd;stroke:none" />
      <path
         id="path4534"
         d="M 13.513,8.912 C 13.404,8.657 13.11,8.541 12.856,8.65 12.847,8.653 12.842,8.661 12.835,8.664 10.962,9.474 9.395,10.992 8.579,13.03 H 8.578 c -0.103,0.257 0.022,0.547 0.278,0.65 0.257,0.103 0.548,-0.022 0.65,-0.278 h 10e-4 c 0.718,-1.794 2.097,-3.128 3.743,-3.832 0.254,-0.11 0.372,-0.403 0.263,-0.658 z"
         clip-rule="evenodd"
         inkscape:connector-curvature="0"
         style="fill:#ffffff;fill-opacity:0.54736849;fill-rule:evenodd;stroke:none" />
      <path
         id="path4536"
         d="M 11.938,5.235 C 11.829,4.981 11.535,4.864 11.281,4.972 11.269,4.977 11.26,4.988 11.25,4.993 8.44,6.207 6.09,8.483 4.865,11.541 4.761,11.799 4.886,12.09 5.143,12.192 5.399,12.295 5.69,12.171 5.793,11.914 6.923,9.095 9.088,7 11.676,5.892 11.929,5.782 12.047,5.489 11.938,5.235 z"
         clip-rule="evenodd"
         inkscape:connector-curvature="0"
         style="fill:#ffffff;fill-opacity:0.54736849;fill-rule:evenodd;stroke:none" />
      <path
         id="path4538"
         d="M 12.463,7.729 C 12.716,7.621 12.835,7.328 12.726,7.073 12.617,6.82 12.323,6.702 12.069,6.811 12.059,6.815 12.053,6.825 12.043,6.829 9.702,7.841 7.743,9.739 6.723,12.287 6.619,12.544 6.745,12.834 7,12.938 7.256,13.04 7.547,12.917 7.65,12.66 8.573,10.352 10.345,8.638 12.462,7.732 V 7.729 z"
         clip-rule="evenodd"
         inkscape:connector-curvature="0"
         style="fill:#ffffff;fill-opacity:0.54736849;fill-rule:evenodd;stroke:none" />
    </g>
    <g
       id="location"
       transform="matrix(1.675205,0.7458493,-0.7458493,1.675205,608.52999,436.10764)"
       style="fill:#ffffff;fill-opacity:0.54736843;stroke:none">
      <path
         id="path4558"
         d="m 16.002,17.746 c 3.309,0 6,-2.692 6,-6 0,-3.308 -2.691,-6 -6,-6 -3.309,0 -6,2.691 -6,6 0,3.309 2.691,6 6,6 z m 0,-11 c 2.758,0 5,2.242 5,5 0,2.758 -2.242,5 -5,5 -2.758,0 -5,-2.242 -5,-5 0,-2.758 2.242,-5 5,-5 z"
         clip-rule="evenodd"
         inkscape:connector-curvature="0"
         style="fill:#ffffff;fill-opacity:0.54736843;fill-rule:evenodd;stroke:none" />
      <path
         id="path4560"
         d="M 16,0 C 9.382,0 4,5.316 4,12.001 c 0,7 6.001,14.161 10.376,19.194 0.016,0.02 0.718,0.805 1.586,0.805 0.002,0 0.073,0 0.077,0 0.867,0 1.57,-0.785 1.586,-0.805 C 22.002,26.162 28.002,19.002 28.002,12.001 28.002,5.316 22.619,0 16,0 z m 0.117,29.883 c -0.021,0.02 -0.082,0.064 -0.135,0.098 -0.01,-0.027 -0.084,-0.086 -0.129,-0.133 C 12.188,25.631 6,18.514 6,12.001 6,6.487 10.487,2 16,2 c 5.516,0 10.002,4.487 10.002,10.002 0,6.512 -6.188,13.629 -9.885,17.881 z"
         clip-rule="evenodd"
         inkscape:connector-curvature="0"
         style="fill:#ffffff;fill-opacity:0.54736843;fill-rule:evenodd;stroke:none" />
    </g>
    <g
       id="sound"
       transform="translate(648.68038,336.85777)"
       style="fill:#ffffff;fill-opacity:0.54736843;stroke:none">
      <path
         id="path4573"
         d="M 26.998,14.003 H 27 c 0.002,0.274 0.225,0.496 0.5,0.496 0.275,0 0.5,-0.223 0.5,-0.499 0,-0.003 -0.002,-0.005 -0.002,-0.008 C 27.992,8.483 23.533,4.019 18.025,4.006 18.018,4.004 18.01,4 18,4 c -0.277,0 -0.5,0.224 -0.5,0.5 0,0.275 0.223,0.499 0.498,0.5 v 0.004 c 4.963,-10e-4 9,4.037 9,8.999 z"
         inkscape:connector-curvature="0"
         style="fill:#ffffff;fill-opacity:0.54736843;stroke:none" />
      <path
         id="path4575"
         d="M 9.121,0.878 C 8.548,0.304 7.78,0 6.999,0 6.613,0 6.224,0.074 5.853,0.228 4.731,0.692 4,1.786 4,3 l -10e-4,13.757 -3.12,3.122 c -1.172,1.17 -1.172,3.07 0,4.242 l 7,7 C 8.465,31.707 9.232,32 10,32 c 0.768,0 1.535,-0.293 2.121,-0.879 L 15.242,28 h 13.756 c 1.215,0 2.309,-0.73 2.771,-1.852 0.465,-1.121 0.209,-2.412 -0.65,-3.27 l -21.998,-22 z m 4.707,25.708 -3.121,3.121 C 10.452,29.961 10.154,30 10,30 9.846,30 9.548,29.961 9.293,29.707 l -7,-7 C 2.038,22.451 2,22.154 2,22 2,21.846 2.038,21.547 2.293,21.293 l 3.12,-3.121 c 0.009,-0.01 0.012,-0.021 0.021,-0.031 l 8.425,8.426 c -0.009,0.007 -0.022,0.009 -0.031,0.019 z M 15.242,26 c -0.155,0 -0.299,0.055 -0.447,0.088 L 5.91,17.203 C 5.944,17.055 5.999,16.911 5.999,16.757 L 6,4.711 27.287,26 H 15.242 z m 14.68,-0.617 C 29.768,25.758 29.404,26 28.998,26 H 28.701 L 6,3.297 V 3 C 6,2.594 6.242,2.231 6.617,2.076 6.74,2.025 6.868,2 6.999,2 7.267,2 7.518,2.104 7.706,2.292 l 21.999,22.001 c 0.287,0.287 0.373,0.715 0.217,1.09 z"
         inkscape:connector-curvature="0"
         style="fill:#ffffff;fill-opacity:0.54736843;stroke:none" />
      <path
         id="path4577"
         d="m 17.998,2 v 0.004 c 6.617,0 12,5.383 12,12 H 30 c 0.002,0.55 0.449,0.996 1,0.996 0.553,0 1,-0.447 1,-1 0,-0.003 -0.002,-0.005 -0.002,-0.008 C 31.992,6.274 25.742,0.019 18.025,0.005 18.018,0.004 18.01,0 18,0 c -0.553,0 -1,0.447 -1,1 0,0.551 0.447,0.999 0.998,1 z"
         inkscape:connector-curvature="0"
         style="fill:#ffffff;fill-opacity:0.54736843;stroke:none" />
    </g>
    <g
       id="stack"
       transform="matrix(1.7576144,0,0,1.7576144,1820.4572,311.09886)"
       style="fill:#ffffff;fill-opacity:0.54736849;stroke:none">
      <path
         id="path4591"
         d="M 31.924,18.455 27.922,3.449 C 27.68,2.596 26.889,2 26,2 H 16 6 C 5.11,2 4.32,2.596 4.078,3.449 L 0.076,18.455 C 0.025,18.637 0,18.82 0,19 v 7 c 0,2.209 1.791,4 4,4 h 24 c 2.209,0 4,-1.791 4,-4 v -7 c 0,-0.18 -0.025,-0.363 -0.076,-0.545 z M 30,26 c 0,1.102 -0.898,2 -2,2 H 4 C 2.897,28 2,27.102 2,26 V 19 L 6.001,3.999 H 25.998 L 30,19 v 7 z"
         inkscape:connector-curvature="0"
         style="fill:#ffffff;fill-opacity:0.54736849;stroke:none" />
      <path
         id="path4593"
         d="M 23.742,6 H 8.258 C 7.805,6 7.408,6.305 7.291,6.743 l -3.445,12 C 3.767,19.044 3.83,19.364 4.02,19.61 4.21,19.856 4.502,20 4.812,20 H 7.718 8.859 9.38 l 1.447,2.895 c 0.34,0.677 1.032,1.105 1.79,1.105 h 6.766 c 0.758,0 1.449,-0.428 1.789,-1.105 L 22.619,20 h 0.521 1.141 2.906 c 0.311,0 0.604,-0.145 0.793,-0.391 0.189,-0.246 0.252,-0.566 0.174,-0.867 l -3.445,-12 C 24.592,6.304 24.195,6 23.742,6 z m 0.539,12 h -1.662 c -0.762,0 -1.447,0.422 -1.789,1.105 L 19.383,22 H 12.617 L 11.17,19.105 C 10.828,18.422 10.143,18 9.381,18 H 7.719 5.334 L 8.258,7 h 15.484 l 2.924,11 h -2.385 z"
         inkscape:connector-curvature="0"
         style="fill:#ffffff;fill-opacity:0.54736849;stroke:none" />
    </g>
    <g
       id="food_1_"
       transform="matrix(1.4419417,0,0,1.4419417,1721.4622,322.71561)"
       style="fill:#ffffff;fill-opacity:0.54736849;stroke:none">
      <path
         id="path4606"
         d="m 29.5,21 h -2.691 c -0.045,-0.239 -0.1,-0.473 -0.16,-0.706 l 4.799,-2.399 c 0.494,-0.247 0.693,-0.848 0.447,-1.342 -0.248,-0.494 -0.846,-0.692 -1.342,-0.447 l -4.578,2.288 C 24.229,14.626 20.42,12 16,12 10.618,12 6.135,15.888 5.191,21 H 2.5 C 1.122,21 0,22.121 0,23.5 c 0,0.49 0.18,0.963 0.505,1.329 L 4,28.761 V 29.5 C 4,30.879 5.122,32 6.5,32 h 19 c 1.379,0 2.5,-1.121 2.5,-2.5 v -0.739 l 3.494,-3.932 C 31.82,24.463 32,23.99 32,23.5 32,22.121 30.879,21 29.5,21 z m -3.701,0 h -0.562 l 0.498,-0.25 c 0.019,0.084 0.046,0.165 0.064,0.25 z M 16,13 c 4.029,0 7.5,2.4 9.082,5.841 l -0.891,0.445 C 22.775,16.171 19.645,14 16,14 11.718,14 8.141,16.993 7.23,21 H 6.202 C 7.131,16.441 11.171,13 16,13 z m 4.576,8 C 19.803,19.237 18.045,18 16,18 c -2.045,0 -3.802,1.237 -4.576,3 H 10.35 c 0.826,-2.326 3.043,-4 5.65,-4 2.465,0 4.588,1.496 5.508,3.627 L 20.764,21 H 20.576 z M 16,20 c -0.883,0 -1.67,0.391 -2.22,1 h -1.224 c 0.694,-1.189 1.97,-2 3.444,-2 1.473,0 2.75,0.811 3.443,2 H 18.218 C 17.67,20.391 16.883,20 16,20 z m 0,-4 c -3.165,0 -5.842,2.112 -6.705,5 H 8.263 C 9.155,17.556 12.28,15 16,15 c 3.246,0 6.043,1.948 7.295,4.734 L 22.402,20.18 C 21.314,17.723 18.855,16 16,16 z m 10,12 v 1.5 C 26,29.776 25.775,30 25.5,30 H 6.5 C 6.224,30 6,29.776 6,29.5 V 28 L 2,23.5 C 2,23.224 2.224,23 2.5,23 h 2.5 1 1 1 1 1 1 1 1 6 1 1 1 1 1 1 1 1 2.5 c 0.275,0 0.5,0.224 0.5,0.5 L 26,28 z"
         inkscape:connector-curvature="0"
         style="fill:#ffffff;fill-opacity:0.54736849;stroke:none" />
      <path
         id="path4608"
         d="m 7.977,11.712 c 0.003,0.006 0.005,0.012 0.008,0.018 0,0 10e-4,0 0.002,0 C 8.07,11.89 8.236,12 8.43,12 c 0.277,0 0.502,-0.226 0.502,-0.503 0,-0.043 -0.007,-0.085 -0.018,-0.125 0.002,-0.007 0.002,-0.013 0,-0.02 C 8.539,10.47 8.895,9.502 9.333,8.46 9.806,7.334 10.313,6.084 9.755,4.813 9.684,4.63 9.507,4.5 9.299,4.5 c -0.271,0 -0.49,0.22 -0.49,0.49 0,0.06 0.012,0.116 0.032,0.169 0,0.002 0,0.004 0.001,0.006 C 8.843,5.168 8.844,5.171 8.845,5.174 8.847,5.178 8.848,5.182 8.85,5.186 9.254,6.095 8.863,7.027 8.422,8.079 7.956,9.188 7.44,10.417 7.959,11.67 c 0.006,0.015 0.011,0.028 0.018,0.042 z"
         inkscape:connector-curvature="0"
         style="fill:#ffffff;fill-opacity:0.54736849;stroke:none" />
      <path
         id="path4610"
         d="m 20.154,11.566 c 0.004,0.006 0.006,0.012 0.008,0.018 h 0.002 c 0.084,0.16 0.25,0.271 0.443,0.271 0.277,0 0.504,-0.226 0.504,-0.503 0,-0.043 -0.008,-0.085 -0.018,-0.125 0.002,-0.007 0.002,-0.013 -0.002,-0.02 -0.373,-0.882 -0.018,-1.85 0.42,-2.892 0.473,-1.126 0.98,-2.376 0.422,-3.647 -0.072,-0.184 -0.248,-0.313 -0.457,-0.313 -0.27,0 -0.49,0.22 -0.49,0.49 0,0.06 0.014,0.116 0.033,0.169 0,0.002 0,0.004 0,0.006 0.002,0.003 0.002,0.006 0.004,0.009 0.002,0.004 0.004,0.008 0.004,0.012 0.404,0.909 0.014,1.841 -0.428,2.893 -0.465,1.109 -0.98,2.339 -0.461,3.592 0.005,0.013 0.01,0.027 0.016,0.04 z"
         inkscape:connector-curvature="0"
         style="fill:#ffffff;fill-opacity:0.54736849;stroke:none" />
      <path
         id="path4612"
         d="m 15.019,7.212 c 0.003,0.006 0.005,0.012 0.008,0.018 0,0 0.001,0 0.002,0 0.084,0.16 0.25,0.271 0.443,0.271 0.277,0 0.502,-0.226 0.502,-0.503 0,-0.043 -0.007,-0.085 -0.018,-0.125 0.002,-0.007 0.002,-0.013 0,-0.02 C 15.581,5.971 15.937,5.003 16.375,3.961 16.848,2.835 17.355,1.585 16.797,0.314 16.725,0.13 16.549,0 16.34,0 c -0.27,0 -0.49,0.22 -0.49,0.49 0,0.06 0.012,0.116 0.032,0.169 0,0.002 0,0.004 10e-4,0.006 0.001,0.003 0.002,0.006 0.003,0.009 0.001,0.004 0.003,0.008 0.004,0.012 0.404,0.909 0.013,1.841 -0.428,2.893 C 14.996,4.688 14.48,5.918 15,7.171 c 0.007,0.014 0.012,0.027 0.019,0.041 z"
         inkscape:connector-curvature="0"
         style="fill:#ffffff;fill-opacity:0.54736849;stroke:none" />
    </g>
    <g
       id="like"
       transform="matrix(1.6313453,0,0,1.6313453,1390.1324,449.99483)"
       style="fill:#ffffff;fill-opacity:0.54736849;stroke:none">
      <path
         id="path4627"
         d="M 29.164,10.472 C 27.914,10.144 24.975,10.148 20.676,10.034 20.879,9.096 20.926,8.25 20.926,6.748 20.926,3.16 18.312,0 16,0 14.367,0 13.021,1.335 13,2.977 12.978,4.991 12.355,8.469 9,10.233 8.754,10.363 8.05,10.71 7.947,10.755 L 8,10.8 C 7.475,10.347 6.747,10 6,10 H 3 c -1.654,0 -3,1.346 -3,3 v 16 c 0,1.654 1.346,3 3,3 h 3 c 1.19,0 2.186,-0.719 2.668,-1.727 0.012,0.004 0.033,0.01 0.047,0.012 0.066,0.018 0.144,0.037 0.239,0.062 0.018,0.005 0.027,0.007 0.046,0.012 0.576,0.143 1.685,0.408 4.055,0.953 0.508,0.116 3.192,0.688 5.972,0.688 h 5.467 c 1.666,0 2.867,-0.641 3.582,-1.928 0.01,-0.02 0.24,-0.469 0.428,-1.076 0.141,-0.457 0.193,-1.104 0.023,-1.76 1.074,-0.738 1.42,-1.854 1.645,-2.58 0.377,-1.191 0.264,-2.086 0.002,-2.727 0.604,-0.57 1.119,-1.439 1.336,-2.766 0.135,-0.822 -0.01,-1.668 -0.389,-2.372 0.566,-0.636 0.824,-1.436 0.854,-2.176 l 0.012,-0.209 C 31.994,14.275 32,14.194 32,13.906 32,12.643 31.125,11.032 29.164,10.472 z M 7,29 c 0,0.553 -0.447,1 -1,1 H 3 C 2.447,30 2,29.553 2,29 V 13 c 0,-0.553 0.447,-1 1,-1 h 3 c 0.553,0 1,0.447 1,1 V 29 z M 29.977,14.535 C 29.957,15.029 29.75,16 28,16 c -1.5,0 -2,0 -2,0 -0.277,0 -0.5,0.224 -0.5,0.5 0,0.276 0.223,0.5 0.5,0.5 0,0 0.438,0 1.938,0 1.5,0 1.697,1.244 1.6,1.844 C 29.414,19.59 29.064,21 27.375,21 25.688,21 25,21 25,21 c -0.277,0 -0.5,0.223 -0.5,0.5 0,0.275 0.223,0.5 0.5,0.5 0,0 1.188,0 1.969,0 1.688,0 1.539,1.287 1.297,2.055 C 27.947,25.064 27.752,26 25.625,26 c -0.719,0 -1.631,0 -1.631,0 -0.277,0 -0.5,0.223 -0.5,0.5 0,0.275 0.223,0.5 0.5,0.5 0,0 0.693,0 1.568,0 1.094,0 1.145,1.035 1.031,1.406 -0.125,0.406 -0.273,0.707 -0.279,0.721 C 26.012,29.672 25.525,30 24.494,30 h -5.467 c -2.746,0 -5.47,-0.623 -5.54,-0.639 -4.154,-0.957 -4.373,-1.031 -4.634,-1.105 0,0 -0.846,-0.143 -0.846,-0.881 L 8,13.563 C 8,13.094 8.299,12.67 8.794,12.521 8.856,12.497 8.94,12.471 9,12.446 13.568,10.554 14.959,6.406 15,3 c 0.006,-0.479 0.375,-1 1,-1 1.057,0 2.926,2.122 2.926,4.748 0,2.371 -0.096,2.781 -0.926,5.252 10,0 9.93,0.144 10.812,0.375 1.094,0.313 1.188,1.219 1.188,1.531 0,0.343 -0.01,0.293 -0.023,0.629 z"
         clip-rule="evenodd"
         inkscape:connector-curvature="0"
         style="fill:#ffffff;fill-opacity:0.54736849;fill-rule:evenodd;stroke:none" />
      <path
         id="path4629"
         d="M 4.5,26 C 3.672,26 3,26.672 3,27.5 3,28.328 3.672,29 4.5,29 5.328,29 6,28.328 6,27.5 6,26.672 5.328,26 4.5,26 z m 0,2 C 4.225,28 4,27.775 4,27.5 4,27.225 4.225,27 4.5,27 4.775,27 5,27.225 5,27.5 5,27.775 4.775,28 4.5,28 z"
         clip-rule="evenodd"
         inkscape:connector-curvature="0"
         style="fill:#ffffff;fill-opacity:0.54736849;fill-rule:evenodd;stroke:none" />
    </g>
    <g
       id="monitor"
       transform="matrix(7.6063247,2.1810785,-2.1810785,7.6063247,30.340261,284.87564)"
       style="fill:#ffffff;fill-opacity:0.54736843;stroke:none">
      <path
         id="path4642"
         d="M 27,4.996 5,5 C 4.447,5 4,5.443 4,5.996 v 14 c 0,0.553 0.447,1 1,1 h 22 c 0.553,0 1,-0.447 1,-1 v -14 c 0,-0.553 -0.447,-1 -1,-1 z M 27,20 H 5 V 5.996 H 27 V 20 z"
         inkscape:connector-curvature="0"
         style="fill:#ffffff;fill-opacity:0.54736843;stroke:none" />
      <path
         id="path4644"
         d="M 29,1 H 3 C 1.343,1 0,2.342 0,4 v 20 c 0,1.654 1.338,2.994 2.99,2.998 H 13 v 1.217 L 6.758,29.026 C 6.312,29.137 6,29.537 6,29.996 c 0,0.553 0.447,1 1,1 h 18 c 0.553,0 1,-0.447 1,-1 0,-0.459 -0.312,-0.859 -0.758,-0.971 L 19,28.215 V 26.998 H 29.01 C 30.662,26.994 32,25.654 32,24 V 4 C 32,2.342 30.656,1 29,1 z m 1,23 c 0,0.551 -0.449,1 -1,1 H 20 12 3 C 2.448,25 2,24.551 2,24 V 4 C 2,3.448 2.448,3 3,3 h 26 c 0.551,0 1,0.448 1,1 v 20 z"
         inkscape:connector-curvature="0"
         style="fill:#ffffff;fill-opacity:0.54736843;stroke:none" />
    </g>
    <path
       d="m 298.93455,216.00119 -55.14662,-24.55287 c -5.07577,-2.25987 -11.02438,0.0255 -13.28323,5.09898 l -13.29947,29.87108 c -2.25989,5.0758 0.0232,11.02336 5.09896,13.28324 l 55.14661,24.55287 c 5.0758,2.25988 11.02337,-0.0232 13.28325,-5.09897 l 13.29947,-29.87108 c 2.25886,-5.0735 -0.0232,-11.02337 -5.09897,-13.28325 z m -65.1131,-14.5356 10.71119,19.22355 -21.45306,4.90309 10.74187,-24.12664 z m 52.31705,55.64385 c -1.12943,2.53676 -4.10946,3.67688 -6.64163,2.54949 l -55.14661,-24.55286 c -2.53444,-1.1284 -3.67892,-4.10487 -2.54948,-6.64162 l 24.00652,-5.48701 6.6842,11.99843 c 0.81753,1.45979 2.06537,2.57153 3.52216,3.22013 1.4545,0.64758 3.11463,0.83329 4.74753,0.46177 l 13.39147,-3.06017 11.98584,21.51184 0,0 z m 1.27879,-2.87221 -10.71349,-19.22456 21.45537,-4.90208 -10.74188,24.12664 z m -27.21634,-18.0315 c -1.06997,0.24498 -2.16242,0.13854 -3.16425,-0.3075 -1.00183,-0.44604 -1.8132,-1.19 -2.34813,-2.14676 l -6.32784,-11.35795 -1.27464,-2.2883 -11.98687,-21.50956 0.001,-0.003 c 1.12841,-2.53445 4.10719,-3.67789 6.64163,-2.54949 l 55.14661,24.55285 c 2.53215,1.1274 3.67789,4.10719 2.54948,6.64164 l -39.23701,8.96737 z"
       id="mail"
       inkscape:connector-curvature="0"
       style="fill:#ffffff;fill-opacity:0.54736843;stroke:none" />
  </g>
</svg>
