<?xml version="1.0" standalone="no"?>
<!DOCTYPE svg PUBLIC "-//W3C//DTD SVG 1.1//EN" "http://www.w3.org/Graphics/SVG/1.1/DTD/svg11.dtd" >
<svg xmlns="http://www.w3.org/2000/svg">
<metadata>
This is a custom SVG webfont generated by Font Squirrel.
Copyright   : Copyright c Juan Pablo De Gregorio 2004 All rights reserved
Foundry     : Juan Pablo De Gregorio
</metadata>
<defs>
<font id="RomeralinlineRegular" horiz-adv-x="1445" >
<font-face units-per-em="2048" ascent="1638" descent="-410" />
<missing-glyph horiz-adv-x="512" />
<glyph unicode=" "  horiz-adv-x="512" />
<glyph unicode="&#x09;" horiz-adv-x="512" />
<glyph unicode="&#xa0;" horiz-adv-x="512" />
<glyph unicode="!" horiz-adv-x="671" d="M-18 1341q-8 127 85 215.5t216 88.5q145 0 281 -138.5t126 -267.5l-63 -856q-6 -80 -53.5 -142.5t-120.5 -82.5q188 -145 188 -295q0 -109 -74.5 -182.5t-183.5 -73.5q-121 0 -237.5 115.5t-116.5 244.5q0 88 53 158t135 92q-162 100 -174 268zM23 1343l61 -854 q6 -84 61.5 -140t135.5 -56q84 0 140 56.5t62 139.5l64 854q8 104 -73 182.5t-191 78.5q-113 0 -190.5 -72t-69.5 -189zM70 -33q0 -88 62.5 -150.5t148.5 -62.5q88 0 151.5 62.5t63.5 150.5t-63.5 152.5t-151.5 64.5q-86 0 -148.5 -64.5t-62.5 -152.5z" />
<glyph unicode="&#x22;" horiz-adv-x="612" d="M-18 1499q-4 66 38.5 106t104.5 40q70 0 137 -58q41 57 121 58q86 0 170 -88.5t78 -161.5l-27 -310q-4 -47 -38 -79.5t-83 -32.5q-74 0 -145 76q-33 -76 -113 -76q-74 0 -145.5 75.5t-75.5 141.5zM23 1501l22 -307q4 -33 25.5 -55.5t52.5 -22.5q33 0 54.5 22.5t25.5 55.5 l26 307q2 41 -29.5 72t-74.5 31t-73.5 -29t-28.5 -74zM281 1501l22 -307q4 -33 25.5 -55.5t52.5 -22.5q33 0 54.5 22.5t25.5 55.5l26 307q2 41 -29.5 72t-74.5 31t-73.5 -29t-28.5 -74z" />
<glyph unicode="#" horiz-adv-x="1456" d="M-20 739l118 324h142v2h-2l-103 102l119 324h147l56 149h346l100 -100l35 100h346l102 -102l-18 -47h6l103 -102l-113 -324h-143l104 -104l-113 -324h-157l-54 -145h-344l-102 102l-37 -102h-342l-102 102l14 43h-6zM39 780h143l-53 -145h258l53 145h224l-54 -145h260 l54 145h157l84 242h-153l69 186h152l84 242h-148l56 149h-258l-56 -149h-223l55 149h-258l-55 -149h-147l-88 -242h145l-70 -186h-143zM528 1022l70 186h223l-69 -186h-224z" />
<glyph unicode="$" horiz-adv-x="1187" d="M-20 766q0 109 61 193.5t166 134.5v192h323l48 -47v47h323l103 -102v-84l71 -17l103 -102v-371h-213q51 -35 81.5 -60.5t74.5 -74.5t65.5 -113.5t21.5 -144.5q0 -201 -204 -321v-222h-324l-47 50v-50h-324l-102 103v108l-123 47l-102 103v338h239q-49 33 -83 60.5 t-74.5 74.5t-62 112.5t-21.5 145.5zM20 766q0 -109 46.5 -180.5t116 -99t151.5 -46t151.5 -24.5t115.5 -32t46 -73q0 -37 -32.5 -63.5t-84.5 -26.5q-111 0 -143 96l-4 15h-360v-271q88 -39 225 -67v-176h241v147q63 -4 129 0v-147h242v205q205 98 205 296q0 106 -47 178 t-118 102t-153.5 50.5t-153.5 29.5t-118 34.5t-47 70.5q0 29 34 54.5t83 25.5q104 0 127 -94l2 -16h360v297q-74 16 -174 30v164h-242v-135q-61 6 -116 6h-13v129h-241v-178q-104 -43 -166 -121t-62 -180z" />
<glyph unicode="%" horiz-adv-x="1714" d="M-20 762q0 164 116.5 279.5t278.5 115.5q156 0 278.5 -95t188.5 -243l323 484l209 -134l103 -102l-232 -348q199 -6 344.5 -156.5t145.5 -341.5q0 -164 -118 -281.5t-282 -117.5q-154 0 -287 107.5t-176 230.5l-331 -502l-211 137l-103 103l242 362q-205 14 -347 163 t-142 339zM20 761.5q0 -145.5 104.5 -252t250 -106.5t252 106.5t106.5 252t-106.5 250t-252 104.5t-250 -104.5t-104.5 -250zM213 762q0 66 48 114t114 48q70 0 118 -48.5t48 -113.5q0 -70 -48.5 -118t-117.5 -48q-66 0 -114 48t-48 118zM285 -90l141 -92l891 1339l-139 88z M356 637h19q57 0 95 44t28 97q-53 10 -97.5 -27.5t-44.5 -91.5v-22zM879 323.5q0 -145.5 104 -252t249.5 -106.5t252 106.5t106.5 252t-106.5 250t-252 104.5t-249.5 -104.5t-104 -250zM1071 324q0 66 48 113.5t114 47.5q70 0 118 -48t48 -113q0 -70 -48 -118t-118 -48 q-66 0 -114 48t-48 118zM1214 199h19q57 0 94 43t29 98q-53 10 -97.5 -28t-44.5 -91v-22z" />
<glyph unicode="&#x26;" horiz-adv-x="1538" d="M-20 340q0 217 217 303q-61 45 -96 79t-68 100.5t-33 148.5q0 211 153.5 313t424.5 102q147 0 295.5 -27.5t224.5 -55.5l76 -29l102 -103v-337h-422l-102 102l-4 8q-51 4 -86 -24.5t-35 -83.5v-19q53 -14 135 -18h694l103 -103v-290h-113v-404q-8 -8 -25.5 -19.5t-80 -43 t-135 -55t-192.5 -43t-253 -19.5q-211 0 -383 52t-284.5 173t-112.5 293zM20 340q0 -188 175.5 -281.5t461.5 -93.5q205 0 366 40t220 79l60 39v426h112v209h-627v-209h101v-303q-70 -35 -168 -40t-178 37t-80 130q0 94 67.5 135t219.5 41v209q-266 0 -267 180q0 57 30 95 t73 47.5t87 2t77.5 -36t37.5 -69.5h345v270q-27 10 -74 26.5t-192.5 44.5t-288.5 28q-252 0 -394.5 -92.5t-142.5 -282.5q0 -86 43 -150.5t104.5 -94.5t124 -47t105.5 -20l43 -4q-18 0 -48 -2t-106 -19.5t-134 -47t-105.5 -94t-47.5 -152.5zM606 258q127 -31 242 14v131 q-127 -4 -184.5 -35.5t-57.5 -97.5v-12z" />
<glyph unicode="'" horiz-adv-x="354" d="M-18 1499q-4 66 38.5 106t104.5 40q86 0 170 -88.5t78 -161.5l-27 -310q-4 -47 -38 -79.5t-83 -32.5q-74 0 -145.5 75.5t-75.5 141.5zM23 1501l22 -307q4 -33 25.5 -55.5t52.5 -22.5q33 0 54.5 22.5t25.5 55.5l26 307q2 41 -29.5 72t-74.5 31t-73.5 -29t-28.5 -74z" />
<glyph unicode="(" horiz-adv-x="823" d="M-20 637q0 289 62 509t171 347t241 189.5t287 62.5l103 -103v-419q-299 0 -299 -688q0 -397 98 -564q16 -10 41 -15t41 -5l16 -2l103 -103v-419q-422 14 -643 328.5t-221 881.5zM20 636.5q0 -278.5 55.5 -489t153 -333.5t216 -183.5t255.5 -60.5v338q-299 0 -299 729 t299 729v338q-137 0 -255.5 -59.5t-216 -182.5t-153 -335t-55.5 -490.5z" />
<glyph unicode=")" horiz-adv-x="823" d="M-20 -51q299 0 299 688q0 391 -99 563q-16 8 -40.5 14.5t-41.5 6.5l-16 2l-102 102v420q406 -12 635 -332.5t229 -877.5q0 -289 -62.5 -509.5t-171 -347.5t-240.5 -189t-288 -62l-102 102v420zM20 -92v-338q137 0 256 59.5t216.5 182t152.5 334.5t55 490.5t-55 489.5 t-152.5 334t-216 183.5t-256.5 60.5v-338q299 0 299 -729t-299 -729z" />
<glyph unicode="*" horiz-adv-x="1116" d="M-20 1049q0 90 65.5 150.5t165.5 86.5q-49 20 -79 67.5t-30 98.5q0 76 53.5 130t129.5 54q78 0 134 -38.5t116 -114.5q6 72 54 114.5t124 42.5q100 0 191 -88t91 -194q0 -84 -34 -150q4 -4 33.5 -24.5t36.5 -27.5t30.5 -27.5t32 -35t21.5 -37t17.5 -47t4.5 -53.5 q0 -88 -64.5 -136t-167.5 -48q-74 0 -131 25q20 -41 21 -101q0 -82 -49.5 -127t-131.5 -45q-94 0 -173 77t-119 171q-25 -8 -60 -8q-111 0 -196.5 92.5t-85.5 192.5zM20 1049q0 -59 37 -100.5t103 -41.5q59 0 98 37t39 90q0 23 -18 68q45 27 122 14q-68 -127 -67 -211 q0 -82 49 -159.5t129 -77.5q63 0 101 34.5t38 96.5q0 66 -40 104.5t-115 24.5q-39 61 2 147q141 -160 305 -160q84 0 137 37t53 107q0 63 -37.5 101t-97.5 38q-117 0 -137 -113q-63 -18 -133 48q104 43 184 123.5t80 203.5q0 63 -40 101t-99 38q-61 0 -99.5 -36.5 t-38.5 -100.5q0 -78 70 -112q-4 -63 -84 -115q-2 63 -27.5 141t-92 148.5t-156.5 70.5q-59 0 -100.5 -42t-41.5 -101q0 -51 40 -94t96 -43q29 0 53 11t33 22l10 12q63 -27 76 -117q-43 25 -116 19.5t-142.5 -24.5t-121 -70t-51.5 -119z" />
<glyph unicode="+" horiz-adv-x="788" d="M-20 346v324h200v200h324l102 -102v-98h101l102 -103v-323h-203v-203h-323l-103 102v101h-98zM20 387h201v-203h242v203h203v242h-203v200h-242v-200h-201v-242z" />
<glyph unicode="," horiz-adv-x="647" d="M-20 -166q137 33 190 119q-154 66 -154 227q0 119 76 196t191 77q147 0 266 -120t119 -261q0 -289 -318 -459q-98 -53 -182 -74l-102 103zM31 -190l57 -121q18 4 47 14t104.5 49t133 89t104.5 139.5t47 193.5q0 109 -69.5 173.5t-171.5 64.5q-96 0 -161 -64.5t-65 -167.5 q0 -82 51.5 -136t118.5 -67q-18 -55 -67 -97t-90 -56z" />
<glyph unicode="-" horiz-adv-x="894" d="M-20 346v324h833l102 -103v-323h-833zM20 387h752v242h-752v-242z" />
<glyph unicode="." horiz-adv-x="587" d="M-20 201q0 109 76.5 187.5t183.5 78.5q141 0 254.5 -122t113.5 -247q0 -111 -77.5 -187.5t-188.5 -76.5q-137 0 -249.5 119t-112.5 248zM20 201q0 -94 63.5 -159t156.5 -65q94 0 159.5 64.5t65.5 159.5q0 92 -65.5 158.5t-159.5 66.5q-90 0 -155 -66.5t-65 -158.5z" />
<glyph unicode="/" horiz-adv-x="1054" d="M-20 -137l690 1841l303 -115l102 -102l-688 -1841l-305 114zM33 -113l227 -86l660 1764l-226 86z" />
<glyph unicode="0" horiz-adv-x="1294" d="M-20 541q0 272 177 444t439 172q281 0 500 -218t219 -501q0 -268 -179.5 -442t-437.5 -174q-281 0 -499.5 218t-218.5 501zM20 541q0 -250 166 -413t410 -163q242 0 408.5 163t166.5 413q0 254 -165.5 414.5t-409.5 160.5t-410 -159.5t-166 -415.5zM352 541q0 102 72 180 t172 78t172 -78t72 -180q0 -109 -75 -183.5t-169 -74.5t-169 74.5t-75 183.5zM507.5 512q-22.5 -80 10.5 -172q70 -29 134.5 -8.5t98 71t46 115t-20.5 121.5q-90 35 -168 -6t-100.5 -121z" />
<glyph unicode="1" horiz-adv-x="731" d="M-20 610v324q76 -8 132 9.5t83.5 47t45 60t21.5 53.5l2 22h289l102 -102v-645l97 -103v-419h-668l-102 102v420h104v129h-4zM20 651h107v-313h-104v-338h585v338h-96v747h-211q0 -8 -3 -21t-21.5 -48t-45 -61.5t-83 -46t-128.5 -17.5v-240z" />
<glyph unicode="2" horiz-adv-x="1089" d="M-20 758q0 180 141 289.5t401 109.5q233 0 410.5 -144.5t177.5 -342.5q0 -164 -141 -295h30l103 -103v-415h-940l-103 102v309q92 35 199 92q-135 74 -206.5 160t-71.5 238zM20 758q0 -233 236 -293q74 -20 137 -16l49 188q-59 6 -80.5 55t11.5 96.5t110 47.5 q57 0 92 -34t35 -93q0 -78 -52 -155t-127 -131t-150.5 -97t-128.5 -64l-52 -22v-240h858v334q-307 0 -532 -51q41 12 89 28.5t134 60.5t151.5 95t116 133t50.5 172q0 147 -124 245.5t-321 98.5q-240 0 -371 -98t-131 -260zM501.5 651q-14.5 -39 28.5 -63q35 55 37 102 q-51 0 -65.5 -39z" />
<glyph unicode="3" horiz-adv-x="1150" d="M-20 53v322h403l102 -103v-6h17q66 0 84 53h-86l-103 103v182h-299l-102 103v323q23 14 63.5 35.5t167.5 56.5t254 35q281 0 475.5 -124t194.5 -337q0 -168 -137 -247q158 -109 157 -271q0 -186 -144 -271t-443 -85q-260 0 -488 121l-14 8zM20 76q20 -12 59.5 -30.5 t159 -49.5t242.5 -31q279 0 413 75t134 241q0 184 -203 243q-47 14 -86 17q10 0 28.5 3t65 18.5t82 41t64.5 76.5t29 119q0 147 -142.5 232t-384.5 85q-252 0 -434 -102l-10 -6v-260h309q6 51 44 80.5t91 29.5q61 0 102.5 -32.5t41.5 -90.5q0 -68 -42 -100.5t-108 -32.5h-37 v-139h56q59 0 99 -30t40 -87q0 -55 -38 -88t-93.5 -33t-102.5 30t-53 79h-326v-258zM494 643q78 10 88 72q-63 -4 -88 -72z" />
<glyph unicode="4" horiz-adv-x="1251" d="M-20 -41v393l651 774h413l103 -102v-645h22l103 -103v-419h-125v-299h-477l-103 102v197h-485zM20 0h588v-299h396v299h124v338h-124v747h-355l-629 -747v-338zM340 303l268 342v-342h-268z" />
<glyph unicode="5" horiz-adv-x="1189" d="M-20 68l104 311l-16 14v733h985l102 -102v-420h-170q225 -139 225 -371q0 -209 -134 -310t-425 -101t-549 133l-20 10zM29 86q23 -14 65.5 -33.5t179 -53.5t275.5 -34q270 0 394 91t124 280q0 154 -111.5 237.5t-298.5 83.5h-151v91h506v337h-903v-651h374q190 0 191 -86 q0 -51 -48 -73.5t-161 -22.5q-158 0 -350 88z" />
<glyph unicode="6" horiz-adv-x="1245" d="M-20 608q0 350 198.5 564t566.5 214q229 0 406 -114l12 -8l103 -103l-97 -330q-158 84 -305 84q-43 0 -112 -12q193 -39 337 -190.5t144 -362.5q0 -242 -149.5 -385t-399.5 -143q-332 0 -518 221t-186 565zM20 608q0 -98 15.5 -185t55.5 -173t101.5 -147.5t161 -99.5 t228.5 -38q231 0 369.5 132t138.5 356q0 127 -58.5 222t-146.5 139t-185.5 56.5t-183.5 -18.5t-129 -92q14 137 113.5 218t261.5 81q156 0 280 -66l74 254q-14 10 -43 26.5t-125 44.5t-203 28q-348 0 -536.5 -203t-188.5 -535zM408 444q0 213 155.5 213t155.5 -213 q0 -211 -155.5 -211t-155.5 211zM557 274q76 -4 103.5 67t11.5 173h-6q-78 0 -101.5 -74t-7.5 -166z" />
<glyph unicode="7" horiz-adv-x="1083" d="M-20 -350q6 176 53 338t120.5 280.5t139 196.5t135.5 139h-309l-103 103v419h985l103 -102v-397l-51 -52q-33 -33 -117 -142t-148.5 -227t-122 -298t-63.5 -361h-520zM23 -309h438q6 176 60 349t127 295t143.5 219t119.5 146l50 48v337h-904v-337h619q-12 -8 -35 -21.5 t-87.5 -63t-122.5 -106.5t-132 -150.5t-129 -193.5t-97 -238.5t-50 -283.5z" />
<glyph unicode="8" horiz-adv-x="1277" d="M-20 342q0 119 81.5 205t190.5 115q-96 43 -169 125.5t-73 191.5q0 408 580 407q305 0 491.5 -135t186.5 -374q0 -186 -191 -295q61 -41 102.5 -77t80 -107.5t38.5 -157.5q0 -176 -154.5 -297t-453.5 -121q-311 0 -510.5 142t-199.5 378zM20 342q0 -160 143.5 -268.5 t424 -108.5t424 108.5t143.5 268.5q0 233 -356 315q25 4 65.5 21.5t105 53.5t109.5 101.5t45 145.5q0 367 -534 367q-539 0 -539 -367q0 -80 44 -145.5t107.5 -101.5t106.5 -53t66 -22q-27 -6 -50.5 -11t-86 -30.5t-104.5 -56.5t-78 -89t-36 -128zM412 375q0 76 51 123 t125 65q74 -18 125 -65t51 -123q0 -61 -48 -104.5t-128 -43.5t-128 43.5t-48 104.5zM432 938q0 70 43 108.5t107 38.5q70 0 115.5 -37.5t45.5 -109.5q0 -143 -155 -188q-156 45 -156 188zM555 270q82 -12 136 35t20 125q-16 -4 -36 -12t-50.5 -25.5t-50 -50.5t-19.5 -72z M588 791q119 45 114 149q-66 10 -105.5 -36.5t-8.5 -112.5z" />
<glyph unicode="9" horiz-adv-x="1212" d="M-20 625q0 242 149.5 385t398.5 143q336 0 520.5 -227.5t184.5 -603.5q0 -360 -172 -570.5t-535 -210.5q-229 0 -405 115l-12 8l-103 103l96 329q158 -84 306 -84q96 0 165 49h-14q-233 0 -406 163t-173 401zM20 625q0 -127 58.5 -222.5t146.5 -139.5t185.5 -56 t183.5 18.5t129 91.5q4 -147 -78 -246.5t-237 -99.5q-156 0 -281 66l-74 -254q14 -10 43 -26.5t125 -44t203 -27.5q342 0 504 199.5t162 539.5q0 688 -562 688q-231 0 -369.5 -132t-138.5 -355zM391 633q0 211 155.5 211t155.5 -211q0 -213 -155.5 -213t-155.5 213zM541 461 q74 -4 103.5 62.5t10.5 176.5q-74 2 -103 -64t-11 -175z" />
<glyph unicode=":" horiz-adv-x="587" d="M-20 201q0 109 76.5 187.5t183.5 78.5q141 0 254.5 -122t113.5 -247q0 -111 -77.5 -187.5t-188.5 -76.5q-137 0 -249.5 119t-112.5 248zM-20 891q0 109 76.5 187.5t183.5 78.5q141 0 254.5 -122t113.5 -247q0 -111 -77.5 -187.5t-188.5 -76.5q-137 0 -249.5 119 t-112.5 248zM20 201q0 -94 63.5 -159t156.5 -65q94 0 159.5 64.5t65.5 159.5q0 92 -65.5 158.5t-159.5 66.5q-90 0 -155 -66.5t-65 -158.5zM20 891q0 -94 63.5 -158.5t156.5 -64.5q94 0 159.5 64.5t65.5 158.5q0 92 -65.5 158.5t-159.5 66.5q-90 0 -155 -66.5t-65 -158.5z " />
<glyph unicode=";" horiz-adv-x="647" d="M-20 -166q137 33 190 119q-154 66 -154 227q0 119 76 196t191 77q147 0 266 -120t119 -261q0 -289 -318 -459q-98 -53 -182 -74l-102 103zM-20 891q0 109 76.5 187.5t183.5 78.5q141 0 254.5 -122t113.5 -247q0 -111 -77.5 -187.5t-188.5 -76.5q-137 0 -249.5 119 t-112.5 248zM20 891q0 -94 63.5 -158.5t156.5 -64.5q94 0 159.5 64.5t65.5 158.5q0 92 -65.5 158.5t-159.5 66.5q-90 0 -155 -66.5t-65 -158.5zM31 -190l57 -121q18 4 47 14t104.5 49t133 89t104.5 139.5t47 193.5q0 109 -69.5 173.5t-171.5 64.5q-96 0 -161 -64.5 t-65 -167.5q0 -82 51.5 -136t118.5 -67q-18 -55 -67 -97t-90 -56z" />
<glyph unicode="&#x3c;" horiz-adv-x="862" d="M-20 367v338l622 401l103 -102l178 -277l-426 -276l323 -209l103 -103l-178 -276l-623 401zM20 389l570 -366l133 206l-475 306l475 307l-133 207l-570 -367v-293z" />
<glyph unicode="=" horiz-adv-x="1052" d="M-20 211v324h16l-16 16v323h991l102 -102v-323h-16l16 -17v-323h-991zM20 252h910v242h-910v-242zM20 592h910v242h-910v-242z" />
<glyph unicode="&#x3e;" horiz-adv-x="862" d="M-20 240l426 276l-324 209l-102 102l178 277l622 -402l103 -102v-338l-623 -401l-102 102zM37 227l133 -207l569 367v293l-569 367l-133 -207l475 -305z" />
<glyph unicode="?" horiz-adv-x="1116" d="M-20 1194v338q27 12 72.5 30.5t173.5 50.5t239 32q311 0 491.5 -132.5t180.5 -388.5q0 -82 -20.5 -148.5t-65.5 -120.5t-76 -80.5t-90 -74.5q-47 -35 -72 -56t-47.5 -56t-22.5 -70v-184h-147q66 -51 107.5 -123t41.5 -133q0 -92 -62 -153.5t-155 -61.5q-117 0 -215 99 t-98 218q0 106 82 172l-84 84v246q0 61 15.5 109.5t51 88.5t61.5 62.5t77 58.5q43 31 67.5 51.5t49 56.5t30.5 73q-41 0 -69.5 -22.5t-36.5 -45.5l-8 -22h-369zM20 1235h297q0 4 3.5 10t13.5 21.5t25.5 27t43 21.5t62.5 10q143 0 143 -119q0 -66 -36.5 -118t-88 -89.5 t-103.5 -76.5t-89 -99.5t-37 -140.5v-205h346v144q0 61 41 110t98.5 91t114.5 90.5t98 128t41 186.5q0 377 -528 377q-225 0 -440 -97l-5 -2v-270zM256 180q0 -74 49 -124t121 -50q74 0 125 50t51 124q0 72 -51 124t-125 52q-70 0 -120 -52t-50 -124z" />
<glyph unicode="@" horiz-adv-x="1916" d="M-6 393q0 248 125 443.5t334 300t460 104.5q281 0 514.5 -108.5t371.5 -311.5t138 -459q0 -176 -76.5 -302t-186 -180t-234.5 -54q-84 0 -168 34t-139 89q-133 -76 -285 -74l108 -6l103 -102l-2 -338q-289 -8 -530.5 108.5t-387 341.5t-145.5 514zM35 393 q0 -373 229.5 -597t650.5 -224v256q-270 0 -429.5 158.5t-159.5 402.5q0 240 171 391.5t418 151.5q256 0 424 -120t168 -351q0 -90 -38.5 -164t-108.5 -74q-39 0 -60.5 25.5t-21.5 62.5v408q-197 78 -401 78q-172 0 -290 -94.5t-118 -292.5q0 -195 92 -294.5t222 -96 t257 84.5q43 -59 117 -94t157 -40t169 24t154.5 86t112.5 157.5t44 227.5q0 348 -250 541.5t-631 193.5q-242 0 -441.5 -99.5t-318 -285.5t-118.5 -422zM764 410q0 82 23.5 128t62.5 53t69.5 2t61.5 -20v-333q-33 -14 -62.5 -18.5t-68.5 2.5t-62.5 54.5t-23.5 131.5z M907 307q0 -35 2 -49q20 4 31 8v166q-33 -33 -33 -125zM1421 299q45 57 45 161.5t-45 190.5v-352z" />
<glyph unicode="A" horiz-adv-x="1456" d="M-20 -43v420h61q12 31 389 995h496l102 -102l350 -897l99 -99v-419h-631l-103 102v319h-24v-421h-637zM20 -2h555v338h-67l33 84h274l33 -84h-64v-338h549v338h-47l-389 995h-438l-389 -995h-50v-338zM594 557l84 213l84 -213h-168z" />
<glyph unicode="B" horiz-adv-x="1335" d="M-20 -41v420h110v450h-6l-102 103v420h677q188 0 343 -51.5t254.5 -163t99.5 -269.5q0 -59 -19.5 -108t-47 -79t-54.5 -51.5t-47 -29.5l-19 -8q8 -4 20.5 -13.5t44.5 -40t56.5 -64.5t45 -90t20.5 -116q0 -106 -44 -185t-106.5 -121t-149.5 -67.5t-151.5 -31.5t-134.5 -6 h-688zM20 0h648q66 0 126 6t141 28.5t138 60.5t98 108.5t41 167.5q0 74 -35.5 133t-86 92t-100.5 54.5t-85 29.5l-37 6q14 0 37 4t82.5 21.5t105.5 46t82.5 84t36.5 129.5q0 106 -58 179t-153.5 104.5t-176.5 44t-165 12.5h-636v-338h108v-635h-111v-338zM567 338v217h99 q53 0 82.5 -29.5t29.5 -76.5q0 -51 -28.5 -81t-83.5 -30h-99zM567 795v178h99q53 0 82.5 -25.5t29.5 -62.5q0 -90 -112 -90h-99z" />
<glyph unicode="C" horiz-adv-x="1300" d="M-20 674q0 184 54 324.5t149.5 223.5t214 123.5t257.5 40.5q297 0 510 -147l29 -20l102 -103v-375h-415l-103 103l-6 18q-4 2 -12 2q-70 0 -111 -73.5t-41 -212.5q0 -129 41 -205q49 -25 119 -25q74 0 167 22.5t150 43.5l56 22l102 -102l78 -393q-270 -119 -528 -119 q-356 0 -584.5 233.5t-228.5 618.5zM20 674q0 -174 45.5 -306t119 -210t174 -125t206.5 -60q61 -7 124 -7q47 0 94 4q112 9 209.5 34t178.5 62l-61 313q-170 -72 -342 -72q-133 0 -218 88t-85 285q0 160 52 244t140 84q59 0 98.5 -31t47.5 -62l10 -30h340v315 q-6 6 -19.5 15.5t-60.5 35t-100 45t-139 35t-179 15.5q-274 0 -454.5 -167t-180.5 -505z" />
<glyph unicode="D" horiz-adv-x="1384" d="M-20 -41v420h110v450h-6l-102 103v420h630q324 0 558.5 -233.5t234.5 -565.5q0 -307 -192.5 -501.5t-497.5 -194.5h-633zM20 0h592q287 0 468.5 183.5t181.5 472t-181.5 472t-468.5 183.5h-589v-338h108v-635h-111v-338zM567 338v633q106 -8 182 -87t76 -229 q0 -147 -78 -227t-180 -90zM711 449q74 78 73 206q0 86 -32 148q-23 10 -41 16v-370z" />
<glyph unicode="E" horiz-adv-x="1298" d="M-20 -41v420h110v450h-6l-102 103v420h1235l102 -103v-561h-338v-129h236l102 -102v-600h-1237zM20 0h1156v518h-338v-180h-271v217h271v240h-271v178h271v-142h338v480h-1153v-338h108v-635h-111v-338z" />
<glyph unicode="F" horiz-adv-x="1298" d="M-20 -41v420h110v450h-6l-102 103v420h1235l102 -103v-561h-334v-319h-266l102 -93v-419h-739zM20 0h658v338h-111v174h275v256h-275v205h271v-142h338v480h-1153v-338h108v-635h-111v-338z" />
<glyph unicode="G" horiz-adv-x="1288" d="M-20 676q0 184 53 323.5t147 222.5t210 123.5t253 40.5q311 0 518 -149l31 -23l102 -102v-371h-415l-103 103l-6 18q-12 2 -24 2q-40 0 -70 -27q-39 -36 -53 -108h583l103 -102v-695q-29 -12 -77 -30.5t-183.5 -49t-251.5 -30.5q-367 0 -592 226.5t-225 627.5zM20 676 q0 -197 54.5 -340t153 -221t213 -114t253.5 -36q244 0 467 94l4 2v627h-540v-262h190v-119q-48 -9 -90 -9q-115 0 -177 71q-85 96 -85 307q0 168 51 250t141 82q59 0 98.5 -31t49.5 -62l8 -30h340v311q-6 6 -19.5 16.5t-59.5 36t-100 45t-143.5 36t-185.5 16.5 q-127 0 -236.5 -39t-197.5 -117t-138.5 -210t-50.5 -304z" />
<glyph unicode="H" horiz-adv-x="1536" d="M-20 -41v420h110v450h-8l-102 103v420h1474l102 -103v-420h-110v-450h6l102 -103v-419h-1472zM20 0h656v338h-109v246h299v-246h-110v-338h655v338h-108v635h110v338h-657v-338h110v-252h-299v252h111v338h-658v-338h111v-635h-111v-338zM711 379h114v61h-114v-61z M711 762h114v67h-114v-67z" />
<glyph unicode="I" horiz-adv-x="800" d="M-20 -41v420h110v450h-8l-102 103v420h739l102 -103v-420h-110v-450h6l102 -103v-419h-737zM20 0h656v338h-109v635h111v338h-658v-338h111v-635h-111v-338z" />
<glyph unicode="J" horiz-adv-x="815" d="M-283 -453l86 402q63 -31 131 -37q12 -1 23 -1q54 0 96 24q51 30 51 98v796h-8l-102 103v420h739l103 -103v-420h-111v-976q0 -227 -147.5 -352.5t-380.5 -125.5q-96 0 -190.5 17.5t-141.5 34.5l-45 18zM-236 -430q119 -51 330 -51q215 0 351.5 113.5t136.5 322.5v1018 h110v338h-657v-338h110v-940q0 -78 -52 -121q-50 -41 -115 -41h-7q-70 2 -137 23z" />
<glyph unicode="K" horiz-adv-x="1409" d="M-20 -41v420h110v450h-8l-102 103v420h700l102 -103v-63l121 166h424l103 -103v-420h-164l-199 -276l123 -174h135l102 -103v-419h-419l-103 102l-125 170v-272h-698zM20 0h617v338h-70v154l359 -492h358v338h-141l-230 317l230 318h143v338h-362l-357 -490v152h72v338 h-619v-338h111v-635h-111v-338z" />
<glyph unicode="L" horiz-adv-x="1241" d="M-20 -41v420h110v450h-8l-102 103v420h739l102 -103v-420h-110v-450h28v180h420l103 -102v-600h-1180zM20 0h1098v518h-338v-180h-213v635h111v338h-658v-338h111v-635h-111v-338z" />
<glyph unicode="M" horiz-adv-x="2168" d="M-20 -41v420h110v450h-8l-102 103v420h944l102 -103v-420h-49l88 -237l115 305l-37 35v420h944l102 -103v-420h-110v-450h6l102 -103v-419h-737l-92 102l-41 -111h-373l-88 89l-37 98v-178h-737zM20 0h656v338h-109v502l318 -863h297l317 863v-502h-110v-338h655v338 h-109v635h111v338h-862v-338h67l-219 -592l-217 592h68v338h-863v-338h111v-635h-111v-338z" />
<glyph unicode="N" horiz-adv-x="1656" d="M-20 -41v420h110v450h-8l-102 103v420h593l103 -103l160 -272v375h739l102 -103v-420h-110v-450h6l102 -103v-419h-600l-102 102l-154 260v-362h-737zM20 0h656v338h-109v393l428 -731h537v338h-109v635h111v338h-657v-338h110v-406l-436 744h-531v-338h111v-635h-111 v-338z" />
<glyph unicode="O" horiz-adv-x="1454" d="M-20 647q0 188 61 334.5t164.5 231.5t222.5 127t248 42q326 0 562.5 -239.5t236.5 -597.5q0 -190 -61.5 -334.5t-165 -226.5t-222.5 -122t-248 -40q-332 0 -565 227t-233 598zM20 647q0 -178 58.5 -315t155 -214t208 -115t234.5 -38t234.5 38t207.5 115t154.5 214 t58.5 315t-58.5 316.5t-154.5 218.5t-208.5 119.5t-233.5 39.5t-233.5 -39.5t-209 -119.5t-155 -218.5t-58.5 -316.5zM489 647q0 195 53.5 292t133.5 97t133 -97t53 -292q0 -193 -52 -285t-134 -92t-134.5 92t-52.5 285zM633 545q0 -147 33 -234h10q63 0 104 82t41 254 q0 147 -35 246h-8q-61 0 -103 -87t-42 -261z" />
<glyph unicode="P" horiz-adv-x="1376" d="M-20 -41v420h110v450h-8l-102 103v420h796q246 0 433.5 -167t187.5 -417q0 -225 -140.5 -341t-336.5 -116h-132l35 -35v-419h-741zM20 0h660v338h-113v117h250q178 0 307 105.5t129 309.5q0 215 -139 328t-338 113h-756v-338h111v-635h-111v-338zM567 770v203h148 q43 0 72.5 -30t29.5 -73q0 -41 -29.5 -70.5t-72.5 -29.5h-148z" />
<glyph unicode="Q" horiz-adv-x="1464" d="M-20 647q0 182 56 325.5t154.5 230.5t221.5 133t264 46q328 0 563.5 -242.5t235.5 -594.5q0 -434 -304 -617q70 -82 209 -82q74 0 151 34t116 67l39 35l102 -103l162 -248q-6 -12 -19.5 -31.5t-61.5 -69.5t-102.5 -89t-144.5 -71t-188 -32q-121 0 -225.5 32t-173 72 t-141.5 116.5t-109.5 128t-96.5 141.5q-313 47 -510.5 264t-197.5 555zM20 647q0 -309 169 -486t452 -196q29 -35 85 -120t99 -135t114 -109.5t169 -89t223 -29.5q92 0 174 25.5t133.5 62.5t90 74t55.5 61l16 27l-123 186q-12 -12 -36.5 -30.5t-101.5 -50.5t-159 -32 q-129 0 -214 63.5t-154 176.5q319 180 319 602q0 182 -61.5 322.5t-160.5 218.5t-208.5 115.5t-224.5 37.5q-276 0 -466 -179t-190 -515zM489 668q0 90 16.5 168.5t60.5 139t110 60.5q92 0 139 -112.5t47 -255.5q0 -193 -45 -318q-93 106 -226 106q-40 0 -83 -10 q-19 85 -19 222zM633 565q0 -49 2 -73q86 -12 162 -68q25 98 24 244q0 127 -37 225h-6q-74 0 -109.5 -100.5t-35.5 -227.5z" />
<glyph unicode="R" d="M-20 -41v420h104v450l-102 103v420h677q317 0 507 -128t190 -329q0 -92 -47 -167t-115 -114q61 -31 99 -95t46 -136q4 2 12.5 3t12.5 1l102 -102v-424q-125 -14 -170 -15q-305 0 -469 238v-227h-745zM20 0h664v338h-117v217h66q53 0 82.5 -31.5t29.5 -72.5 q0 -70 12.5 -133.5t50.5 -133t98.5 -115.5t167.5 -67q57 -11 123 -11q59 0 126 9v338q-16 -2 -29 -3q-43 0 -62 25q-26 33 -32 87.5t-24.5 109.5t-94.5 94q-69 35 -187 35h-26q14 0 37 4t82.5 21.5t105.5 46t82.5 84t36.5 129.5q0 106 -58 179t-153.5 104.5t-176.5 44 t-165 12.5h-636v-338h108v-635h-111v-338zM567 795v178h99q53 0 82.5 -25.5t29.5 -62.5q0 -90 -112 -90h-99z" />
<glyph unicode="S" horiz-adv-x="1185" d="M-20 35v338h436l102 -103v-8q33 0 52.5 15.5t21.5 29.5l2 17l-199 88q-156 70 -281.5 208t-125.5 328.5t156.5 312t412.5 121.5q121 0 250 -19.5t197 -37.5l69 -18l103 -103v-368h-431l-102 102v6q-53 -6 -53 -63q18 -12 101 -47t162 -78t164 -108.5t137 -166t52 -221.5 q0 -199 -133 -319.5t-418 -120.5q-143 0 -286.5 27.5t-214.5 56.5l-72 28zM20 61q25 -10 70 -26.5t184.5 -44t278.5 -27.5q262 0 386 109.5t124 289.5q0 127 -63.5 217.5t-154.5 138.5t-181.5 84t-154 79t-63.5 98q0 49 27 80t80 31q104 0 127 -95l2 -16h350v297 q-211 66 -475 65q-238 0 -383 -110.5t-145 -282.5q0 -129 62.5 -221t151.5 -140t178 -84t151.5 -77t62.5 -94q0 -47 -31 -79t-90 -32q-100 0 -129 98l-4 13h-361v-271z" />
<glyph unicode="T" horiz-adv-x="1472" d="M-20 791v561h1411l102 -103v-561h-420l-26 27v-336h8l102 -103v-419h-739l-103 102v420h111v309h-344zM20 831h338v142h109v-635h-111v-338h658v338h-111v635h109v-142h338v480h-1330v-480z" />
<glyph unicode="U" horiz-adv-x="1536" d="M-20 932v420h1474l102 -103v-420h-110v-481q0 -240 -164 -365.5t-463 -125.5q-332 0 -530.5 155.5t-198.5 438.5v378h-8zM20 973h111v-522q0 -219 153.5 -335t432 -116t432.5 115.5t154 335.5v522h110v338h-657v-338h110v-520q0 -76 -37.5 -124t-111.5 -48q-72 0 -111 49 t-39 123v520h111v338h-658v-338zM711 319q53 0 83.5 39t30.5 95v376h-114v-510z" />
<glyph unicode="V" horiz-adv-x="1411" d="M-20 932v420h630l82 -82v82h637l103 -103v-420h-60l-368 -995h-496l-102 103l-334 903zM20 973h48l366 -996h438l367 996h49v338h-555v-338h68l-148 -402l-147 402h63v338h-549v-338z" />
<glyph unicode="W" horiz-adv-x="2066" d="M-20 932v420h630l103 -103v-125h563l72 -71v299h637l102 -103v-420h-59l-355 -995h-502l-102 103l-27 92l-55 -195h-500l-102 103l-317 907zM20 973h48l348 -996h438l123 424l123 -424h442l352 996h50v338h-555v-338h67l-180 -527l-109 299h68v338h-514v-338h67 l-108 -294l-174 522h63v338h-549v-338z" />
<glyph unicode="X" horiz-adv-x="1298" d="M-20 -41v420h69l289 276l-182 174h-74l-102 103v420h1237l102 -103v-420h-76l-280 -272l184 -178h70l102 -103v-419h-1237zM20 0h549v338h-104l133 127l133 -127h-104v-338h549v338h-48l-331 317l329 318h50v338h-555v-338h108l-131 -127l-131 127h108v338h-555v-338h50 l329 -318l-331 -317h-48v-338z" />
<glyph unicode="Y" horiz-adv-x="1320" d="M-20 932v420h1259l102 -103v-420h-67l-270 -479l73 -74v-419h-737l-102 102v420h110v14l-246 436h-20zM20 973h48l321 -570v-65h-110v-338h655v338h-109v65l324 570h49v338h-555v-338h68l-103 -182l-102 182h63v338h-549v-338z" />
<glyph unicode="Z" horiz-adv-x="1120" d="M-20 -41v274l329 484h-209l-102 102v531h1038l103 -103v-276l-338 -512h237l103 -103v-499h-1059zM20 0h977v418h-387v-80h-108l493 747v224h-956v-449h348v111h148l-515 -752v-219z" />
<glyph unicode="[" horiz-adv-x="722" d="M-20 -442v2187h661l102 -103v-419h-143v-1246h39l102 -102v-420h-659zM20 -401h578v338h-141v1429h143v338h-580v-2105z" />
<glyph unicode="\" horiz-adv-x="1054" d="M-20 1589l303 115l102 -102l690 -1842l-305 -114l-102 102zM33 1565l659 -1764l228 86l-662 1764z" />
<glyph unicode="]" horiz-adv-x="722" d="M-20 -23h143v1246h-39l-102 102v420h659l102 -103v-2187h-661l-102 103v419zM20 -63v-338h580v2105h-577v-338h141v-1429h-144z" />
<glyph unicode="^" horiz-adv-x="1087" d="M-20 1044l344 603h338l102 -103l344 -602h-377l-102 102l-58 97l-114 -199h-375zM49 1085h283l160 277l159 -277h285l-297 521h-293z" />
<glyph unicode="_" horiz-adv-x="1052" d="M-20 -41v324h991l102 -103v-323h-991zM20 0h910v242h-910v-242z" />
<glyph unicode="`" horiz-adv-x="772" d="M-20 1380l260 385l450 -356l103 -102q-4 -98 -66.5 -159t-148.5 -64t-179 36l-317 158zM41 1397l274 -137q133 -61 229.5 -15.5t102.5 146.5l-397 315z" />
<glyph unicode="a" d="M-20 510q0 174 55 302t154.5 201.5t223.5 108.5t275 35q270 0 551 -123l14 -6l103 -102v-539l8 2l102 -102v-406q-117 -59 -276 -59q-174 0 -266 102q-150 -102 -320 -102q-260 0 -442 201.5t-182 486.5zM20 510q0 -268 138.5 -406.5t343.5 -138.5q178 0 327 119 q80 -119 258 -119q68 0 126.5 11.5t84.5 21.5l25 10v330q-22 -5 -40 -5q-71 0 -71 79v589q-27 12 -74.5 32t-186 51.5t-263.5 31.5q-299 0 -483.5 -145.5t-184.5 -460.5zM457 545q0 152 56 214t138 62l125 -28v-498q-76 -31 -139 -31q-180 0 -180 281zM600 442 q0 -82 16 -137h21q39 0 98 19v352q-135 -17 -135 -234z" />
<glyph unicode="b" horiz-adv-x="1452" d="M-20 1186v420h634l103 -103v-370q78 25 162 24q258 0 426 -206t168 -513q0 -162 -54.5 -284.5t-147.5 -192.5t-203 -104.5t-237 -36.5q-137 0 -295.5 33.5t-248.5 68.5l-88 33l-103 102v1026h-14zM20 1227h117v-1143q33 -14 89.5 -33.5t212 -53.5t290.5 -34 q119 2 222.5 35t190.5 98.5t137 179t50 265.5q0 215 -77.5 354t-193.5 184q-86 34 -181 34q-32 0 -65 -4q-130 -15 -239 -89v545h-553v-338zM573 295v493q47 20 94 28q17 3 35 3q31 0 66 -8q55 -12 90 -80.5t35 -189.5q0 -98 -24.5 -161t-59.5 -87.5t-82 -27.5 q-12 -1 -23 -1q-33 0 -59 7q-35 10 -72 24zM717 305q94 4 125 125q14 53 13 107q0 69 -21 139q-13 2 -27 2q-41 0 -90 -19v-354z" />
<glyph unicode="c" horiz-adv-x="1241" d="M-20 541q0 285 158.5 450.5t420.5 165.5q150 0 289 -40t205 -79l65 -39l103 -102v-373h-420l-103 103q-2 16 -6 32q-45 -2 -69 -59q-23 -53 -23 -113q0 -69 18 -125q40 -15 90 -15q135 0 343 114l102 -103l109 -368q-8 -6 -24.5 -17.5t-71 -41t-114 -51t-148.5 -40 t-179 -18.5q-317 0 -531 204t-214 515zM20 541q0 -274 166 -425t437 -151q137 0 260 36t176 71l53 34l-86 293q-160 -94 -326 -94q-100 0 -171.5 69.5t-71.5 192.5q0 238 147 238q55 0 88 -34t39 -69l6 -34h340v311q-23 16 -63.5 38.5t-176 60.5t-278.5 38 q-244 0 -391.5 -154.5t-147.5 -420.5z" />
<glyph unicode="d" horiz-adv-x="1439" d="M-20 541q0 309 141 462.5t348 153.5q115 0 225 -47l-76 76v420h629l103 -103v-1116l8 2l102 -102v-406q-117 -59 -276 -59q-178 0 -273 112q-143 -113 -342 -112q-258 0 -423.5 204t-165.5 515zM20 540.5q0 -288.5 128 -432t319 -143.5q80 0 177 32t173 99 q76 -131 264 -131q68 0 126.5 11.5t82.5 21.5l27 10v330q-22 -5 -40 -5q-71 0 -71 79v1153h-547v-338h111v-205q-143 94 -301 94q-190 0 -319.5 -143.5t-129.5 -432zM457 541q0 98 23.5 161.5t58 88t81.5 28.5q14 1 27 1q30 0 53 -6q35 -9 70 -26v-493q-51 -25 -102 -30 q-12 -1 -24 -1q-39 0 -77 14q-49 17 -79.5 84.5t-30.5 178.5zM600 438q0 -80 16 -133q8 -2 25 -2q41 0 88 19v356q-129 -13 -129 -240z" />
<glyph unicode="e" horiz-adv-x="1318" d="M-20 541q0 164 50 286.5t139 192.5t196.5 103.5t234.5 33.5q375 0 577 -226q162 -182 162 -444q0 -64 -10 -133h-82l90 -352q-8 -8 -23.5 -20.5t-69.5 -43t-115.5 -55t-159 -44t-201.5 -19.5q-336 0 -562 195.5t-226 525.5zM20 541q0 -295 175.5 -436.5t470.5 -141.5 q98 0 188 16.5t148.5 40t103.5 46t65 38.5l19 17l-76 299q-20 -12 -54 -30.5t-131.5 -50.5t-183.5 -32q-244 0 -280 191h723q4 47 4 91q0 527 -592 527q-119 0 -219 -31.5t-183 -97t-130.5 -179t-47.5 -267.5zM461 631q14 190 149 190q139 0 140 -190h-289z" />
<glyph unicode="f" horiz-adv-x="1228" d="M-20 -41v420h110v225h-8l-102 103v419h108v60q0 215 152.5 337t412.5 122q90 0 173 -17.5t139.5 -42t99.5 -50.5t61 -44l21 -16l102 -103v-278h-403q-20 74 -66 73q-51 0 -63 -41h39l102 -102v-420h-147v-225h45l102 -103v-419h-776zM20 0h695v338h-148v410h148v337h-150 q2 33 2 103q0 123 111 123q33 0 57.5 -18.5t30.5 -37.5l8 -18h332v221q-6 6 -18.5 15.5t-54.5 35t-90 45t-127 35t-163 15.5q-242 0 -383 -111t-141 -307v-101h-109v-337h111v-410h-111v-338z" />
<glyph unicode="g" horiz-adv-x="1341" d="M-49 -399l119 385q102 -49 217 -76q-154 111 -228.5 248t-74.5 387q0 162 54 284.5t146 191.5t203 102.5t238 33.5q139 0 296.5 -31.5t245.5 -64.5l90 -31l103 -102l2 -1078q0 -240 -174 -376t-491.5 -136t-614.5 146l-29 14zM0 -381q27 -16 78 -38.5t205.5 -60.5 t310.5 -38q297 0 461 126t164 345l-2 1048q-33 12 -89.5 32t-212 51.5t-290.5 31.5q-119 0 -222.5 -31.5t-190.5 -96t-137 -178.5t-50 -265q0 -297 122.5 -438.5t341.5 -141.5q168 0 291 98v-22q0 -106 -114 -157q-89 -39 -206 -39q-33 0 -69 3q-160 14 -297 80zM461 545 q0 276 180 276q35 0 69.5 -7t51.5 -15l18 -6v-496q-37 -16 -70 -26q-25 -7 -59 -7q-11 0 -23 1q-48 3 -83 26.5t-59.5 88.5t-24.5 165zM604 442q0 -82 17 -137h22q49 0 96 19v354q-135 -5 -135 -236z" />
<glyph unicode="h" horiz-adv-x="1517" d="M-20 -41v420h110v704h-8l-102 103v420h632l103 -103v-397q113 51 246 51q190 0 326 -158.5t136 -353.5v-266h13l102 -103v-419h-1456zM20 0h662v338h-111v340q98 66 174 65q45 0 71 -26.5t26 -71.5v-307h-111v-338h664v338h-115v410q0 141 -80 254.5t-239 113.5 q-219 0 -390 -149v598h-551v-338h111v-889h-111v-338zM715 379h86v213q-41 -10 -86 -39v-174z" />
<glyph unicode="i" horiz-adv-x="800" d="M-20 -41v420h110v225h-8l-102 103v419h221q-147 117 -148 273q0 123 86 211t207 88q147 0 274.5 -130t127.5 -272q0 -121 -93 -217l56 -55v-645h8l102 -103v-419h-739zM20 0h658v338h-111v747h-547v-337h111v-410h-111v-338zM94 1399q0 -109 74 -182.5t178 -73.5 q109 0 183.5 73.5t74.5 182.5q0 106 -75.5 182t-182.5 76q-104 0 -178 -76t-74 -182z" />
<glyph unicode="j" horiz-adv-x="745" d="M-399 -434l98 362q160 -61 246 -61q164 0 164 168v569h-9l-102 103v419h221q-147 117 -147 273q0 123 86 211t207 88q147 0 274 -130t127 -272q0 -121 -92 -217l55 -55l2 -1182q0 -236 -150.5 -368.5t-396.5 -132.5q-215 0 -481 122zM-352 -412q182 -86 355 -101 q42 -4 81 -4q123 0 219 37q127 48 205 158.5t78 266.5v1140h-547v-337h111v-713q0 -156 -119 -196q-42 -14 -92 -14q-92 0 -213 48zM113 1399q0 -109 73.5 -182.5t178.5 -73.5q109 0 183.5 73.5t74.5 182.5q0 106 -76 182t-182 76q-104 0 -178 -76t-74 -182z" />
<glyph unicode="k" horiz-adv-x="1404" d="M-20 -41v420h110v704h-8l-102 103v420h628l103 -103v-397q109 51 243 51q172 0 293 -121t121 -284q0 -90 -46 -172t-136 -134q92 -47 143 -131t62.5 -159.5t25 -180t31.5 -159.5q11 -3 27 -3q46 0 135 21l102 -102l72 -260q-14 -12 -42 -33t-120 -53.5t-192 -32.5 q-518 0 -619 504h-729zM20 0h658v338h-111v113q39 6 58 6q82 0 126 -53.5t56 -137.5t18 -187.5t26.5 -205.5t65 -186t147.5 -137.5t263 -53.5q94 0 171 22.5t108 47.5l30 22l-55 197q-56 -14 -101 -14q-32 0 -59 7q-63 17 -87.5 62t-41 112.5t-19.5 140.5t-23.5 148.5 t-52.5 137t-106.5 102.5t-187.5 49q156 25 239 117t83 207q0 262 -271 262q-252 0 -387 -178v627h-547v-338h111v-889h-111v-338zM567 633v14q0 84 58.5 152.5t126.5 68.5q39 0 65.5 -22.5t26.5 -65.5q0 -70 -74 -121q-50 -35 -125 -34q-36 0 -78 8z" />
<glyph unicode="l" horiz-adv-x="800" d="M-20 -41v420h110v704h-8l-102 103v420h628l103 -103v-1124h8l102 -103v-419h-739zM20 0h658v338h-111v1227h-547v-338h111v-889h-111v-338z" />
<glyph unicode="m" horiz-adv-x="2228" d="M-20 -41v420h112v225h-10l-102 103v419h628l49 -49q141 80 306 80q186 0 297 -158q170 158 415 158q207 0 335 -130t128 -382v-266h8l103 -103v-419h-2167zM20 0h664v338h-117v336q100 70 181 69q43 0 69.5 -26.5t26.5 -71.5v-307h-115v-338h664v338h-111v338 q98 68 178 67q43 0 69.5 -26.5t26.5 -71.5v-307h-114v-338h663v338h-110v410q0 141 -80 254.5t-240 113.5q-254 0 -430 -190q-82 190 -282 190q-227 0 -396 -155v124h-547v-337h113v-410h-113v-338zM711 379h92v213q-49 -14 -92 -41v-172zM1425 379h91v215q-45 -12 -91 -41 v-174z" />
<glyph unicode="n" horiz-adv-x="1515" d="M-20 -41v420h112v225h-10l-102 103v419h628l49 -49q141 80 306 80q190 0 326 -157.5t136 -354.5v-266h9l102 -103v-419h-1454zM20 0h664v338h-117v336q100 70 181 69q43 0 69.5 -26.5t26.5 -71.5v-307h-115v-338h664v338h-111v410q0 141 -80 254.5t-239 113.5 q-227 0 -396 -155v124h-547v-337h113v-410h-113v-338zM711 379h92v213q-49 -14 -92 -41v-172z" />
<glyph unicode="o" horiz-adv-x="1368" d="M-20 541q0 297 184 455.5t469 158.5q326 0 541 -200.5t215 -516.5q0 -295 -185.5 -456.5t-468.5 -161.5q-315 0 -535 207t-220 514zM20 541q0 -274 173.5 -426t439.5 -152t439 151.5t173 426.5q0 283 -172 428t-440 145q-266 0 -439.5 -148.5t-173.5 -424.5zM453 541 q0 139 49 208.5t127 69.5q82 0 130 -68.5t48 -209.5q0 -135 -50 -205t-128 -70t-127 69t-49 206zM612 307h17q66 0 103 71q36 67 36 143q0 82 -20 153q-10 1 -19 1q-74 0 -112 -90q-22 -54 -22 -129q0 -67 17 -149z" />
<glyph unicode="p" d="M-20 -106h112v710h-10l-102 103v419h628l25 -26q115 57 244 57q254 0 421.5 -209t167.5 -510q0 -309 -141 -462.5t-348 -153.5q-123 0 -232 51l82 -82v-414h-745l-102 103v414zM20 -147v-332h664v332h-117v210q139 -98 307 -98q190 0 319.5 143.5t129.5 432t-128 432 t-318 143.5q-166 0 -310 -100v69h-547v-337h113v-895h-113zM567 295v487q35 16 70 26q28 8 65 7h17q47 -2 83 -25.5t60.5 -86t24.5 -163t-24.5 -165t-60.5 -88t-83 -25.5h-17q-37 0 -65 7q-35 10 -70 26zM711 301q135 4 135 240q0 78 -17 131q-8 2 -20 2q-51 0 -98 -21v-352 z" />
<glyph unicode="q" d="M-20 545q0 162 53 284.5t146 191.5t203 102.5t236 33.5q139 0 298 -31.5t247 -64.5l90 -31l103 -102v-1028h8l102 -103v-420h-745l-103 103v348q-18 -1 -36 -1q-250 0 -420 186q-182 200 -182 532zM20 545q0 -215 78 -354.5t194 -184.5q86 -34 180 -33q32 0 66 3 q130 15 238 90v-213h-117v-332h664v338h-111v1142q-33 12 -89 32t-212.5 51.5t-292.5 31.5q-119 0 -221 -31.5t-189 -96t-137.5 -178t-50.5 -265.5zM457 544.5q0 100.5 24.5 163t59 86t83.5 25.5q9 0 17 1q37 0 66 -8q35 -9 69 -26v-487q-35 -16 -69 -26q-28 -8 -66 -7h-17 q-48 2 -83 25.5t-59.5 88t-24.5 165zM600 442q0 -82 16 -137q10 -1 19 0q56 0 100 21v352q-135 -5 -135 -236z" />
<glyph unicode="r" horiz-adv-x="1069" d="M-20 -41v420h112v225h-10l-102 103v419h628l39 -39q90 70 234 70h106l103 -102v-514l-113 14q-53 4 -70 4q-102 0 -149 -39t-47 -96v-45h34l103 -103v-419h-766zM20 0h685v338h-138v188q0 86 75 139q55 39 158 38q36 0 79 -5l67 -8v426h-65q-197 0 -314 -178v147h-547 v-337h113v-410h-113v-338z" />
<glyph unicode="s" horiz-adv-x="1187" d="M-20 766q0 180 156.5 285.5t365.5 105.5q104 0 247.5 -17.5t233.5 -35.5l92 -19l103 -102v-373h-213q109 -61 176 -164.5t67 -228.5q0 -182 -153.5 -289.5t-397.5 -107.5q-143 0 -286.5 27.5t-214.5 56.5l-72 28l-102 103v338h239q-113 63 -177 152t-64 241zM20 766 q0 -109 46.5 -180.5t116 -99t151.5 -46t151.5 -24.5t115.5 -32t46 -73q0 -37 -32.5 -63.5t-84.5 -26.5q-111 0 -143 96l-4 15h-360v-271q25 -10 69.5 -26.5t184 -44t278.5 -27.5q225 0 367.5 96.5t142.5 259.5q0 106 -47 178t-118 102t-153.5 50.5t-153.5 29.5t-118 34.5 t-47 70.5q0 29 34 54.5t83 25.5q104 0 127 -94l2 -16h360v297q-311 66 -532 65q-193 0 -337.5 -94t-144.5 -256z" />
<glyph unicode="t" horiz-adv-x="868" d="M-20 707v419h90q45 0 80.5 17.5t55 41t33 48t17.5 41.5l4 18h287l102 -102v-64h137l103 -102v-420h-240v-280q35 4 137 45l103 -103v-377q-166 -70 -318 -69q-240 0 -386 153.5t-146 401.5v272zM20 748h60v-373q0 -190 99.5 -301t289.5 -111q66 0 134.5 14.5t105.5 26.5 l36 14v287q-39 -18 -92 -22q-7 -1 -14 -1q-45 0 -86 22q-47 26 -47 89v355h239v337h-239v166h-211q-2 -6 -5 -17t-19.5 -40t-38 -50.5t-65.5 -40t-97 -18.5h-50v-337z" />
<glyph unicode="u" horiz-adv-x="1495" d="M-20 707v419h630l64 -63v63h629l102 -102v-637l8 2l103 -102v-406q-117 -59 -277 -59q-199 0 -291 133q-141 -133 -344 -133q-223 0 -368.5 152.5t-145.5 383.5v246h-8zM20 748h111v-390q0 -182 99.5 -287.5t271.5 -105.5q217 0 354 162q68 -162 281 -162q68 0 126 11.5 t85 21.5l24 10v330q-22 -5 -40 -5q-71 0 -70 79v673h-547v-337h110v-351q-76 -55 -141 -55q-49 0 -82 29.5t-33 83.5v630h-549v-337zM713 385q39 8 71 33v186h-8l-63 64v-283z" />
<glyph unicode="v" horiz-adv-x="1296" d="M-20 707v419h1234l103 -102v-420h-62q-51 -129 -155.5 -394t-153.5 -394h-495l-103 102l-270 690zM20 748h48l309 -789h438l309 789h50v337h-556v-337h68l-90 -230l-90 230h63v337h-549v-337z" />
<glyph unicode="w" horiz-adv-x="1959" d="M-20 707v419h630l103 -102v-61h442l86 -86v249h637l102 -102v-420h-61q-51 -129 -155.5 -394t-153.5 -394h-498l-102 102l-15 45q-33 -102 -47 -147h-497l-103 102l-270 690zM20 748h48l309 -789h438l113 350l112 -350h439l309 789h49v337h-555v-337h68l-93 -236 l-133 410h-393l-133 -408l-92 234h63v337h-549v-337z" />
<glyph unicode="x" horiz-adv-x="1298" d="M-20 -41v420h114q41 27 110.5 72t112.5 73l-116 80h-119l-102 103v419h1237l102 -102v-420h-119q-47 -31 -116.5 -78t-102.5 -69q23 -14 63.5 -42t55.5 -36h117l102 -103v-419h-1237zM20 0h549v338h-104l133 88l133 -88h-104v-338h549v338h-89l-311 205l309 205h91v337 h-555v-337h108l-131 -86l-131 86h108v337h-555v-337h91l309 -205l-311 -205h-89v-338z" />
<glyph unicode="y" horiz-adv-x="1302" d="M-20 707v419h1241l102 -102v-420h-61l-304 -751q-49 -121 -89 -196t-99 -145.5t-140 -103.5t-188 -33q-178 0 -325 47l-103 103l52 377q117 -29 184 -29q88 0 121 41l-25 25l-262 665h-2zM20 748h54l301 -768h82q-14 -35 -26.5 -57.5t-39 -47.5t-62.5 -34q-32 -8 -83 -8 h-12q-58 1 -134 20l-41 -299q109 -35 281 -35q78 0 142.5 22.5t110.5 59.5t88 99t70.5 121.5t65.5 149.5l313 777h50v337h-551v-337h73l-102 -252l-98 252h69v337h-551v-337z" />
<glyph unicode="z" horiz-adv-x="1120" d="M-20 -41v309l274 271h-160l-102 102v485h1016l102 -102v-317l-285 -285h213l103 -103v-462h-1059zM20 0h977v381h-387v-43h-129l486 487v260h-934v-403h348v66h145l-506 -496v-252z" />
<glyph unicode="{" horiz-adv-x="823" d="M-20 635q0 57 40 110q61 86 62 177v372q0 178 137 314.5t371 136.5h151l103 -103v-419h-111q-31 0 -31 -31v-414q0 -117 -116 -237l-6 -6q123 -94 122 -244v-342h39l103 -103v-419h-152q-285 0 -426 200q-88 63 -136 157.5t-48 195.5v372q0 94 -64 178q-38 48 -38 105z M51 555q72 -92 72 -203v-372q0 -162 127 -286t340 -124h110v338h-69q-72 0 -72 72v413q0 147 -135 232l-23 12q6 2 17.5 8t38 27.5t47 47t38 68.5t17.5 93v413q0 72 72 72h69v338h-110q-213 0 -340 -124t-127 -286v-372q0 -102 -70 -201q-63 -88 -2 -166z" />
<glyph unicode="|" horiz-adv-x="385" d="M-20 -557v2208h323l103 -103v-2207h-324zM20 -516h242v2126h-242v-2126z" />
<glyph unicode="}" horiz-adv-x="823" d="M-20 -51h110q31 0 31 31v413q0 117 117 238l6 6q-123 94 -123 244v342h-39l-102 102v420h151q266 0 438 -161t172 -392v-373q0 -94 64 -178q39 -47 39 -104.5t-41 -110.5q-61 -86 -62 -176v-373q0 -178 -137 -314t-371 -136h-151l-102 102v420zM20 -92v-338h111 q213 0 340 124t127 286v372q0 102 70 201q63 88 2 166q-72 92 -72 203v372q0 162 -127 286t-340 124h-111v-338h70q72 0 72 -72v-413q0 -147 135 -232l22 -12q-6 -2 -17 -8t-37.5 -27.5t-47 -47.5t-38 -69t-17.5 -92v-413q0 -72 -72 -72h-70z" />
<glyph unicode="~" horiz-adv-x="1255" d="M-18 786h352l100 -100q41 12 96.5 44t118 53.5t148.5 21.5q215 0 351 -172t126 -397h-352l-101 100q-27 -6 -83 -39t-126.5 -56.5t-152.5 -23.5q-219 0 -353 169t-124 400zM23 745q0 -168 79.5 -276.5t253.5 -108.5q115 0 233 62.5t175 62.5q43 0 69.5 -31.5t26.5 -74.5 h270q0 168 -79.5 276.5t-253.5 108.5q-115 0 -233 -62.5t-175 -62.5q-43 0 -69.5 31.5t-26.5 74.5h-270z" />
<glyph unicode="&#xa1;" horiz-adv-x="671" d="M-18 -254l63 856q6 80 53 142.5t121 82.5q-188 145 -188 295q0 109 74.5 182.5t183.5 73.5q121 0 237.5 -115.5t116.5 -244.5q0 -88 -53 -157.5t-135 -92.5q162 -100 174 -268l61 -856q8 -127 -85 -215t-216 -88q-150 0 -283.5 132t-123.5 273zM23 -256 q-8 -104 72.5 -182t191.5 -78q113 0 190.5 71.5t69.5 188.5l-62 854q-6 84 -61 140.5t-135 56.5q-84 0 -140.5 -56.5t-62.5 -140.5zM74 1120q0 -88 63.5 -152.5t151.5 -64.5q86 0 148.5 64.5t62.5 152.5t-62.5 150.5t-148.5 62.5q-88 0 -151.5 -62.5t-63.5 -150.5z" />
<glyph unicode="&#xa2;" horiz-adv-x="1241" d="M-20 541q0 285 158.5 450.5t420.5 165.5q76 0 135 -8l133 354l303 -114l103 -103l-111 -293l99 -96v-373h-420l-103 103q-2 16 -6 32q-45 -2 -69.5 -59t-22.5 -122.5t18 -115.5q147 -57 433 99l102 -103l109 -368q-8 -6 -24.5 -17.5t-71 -41t-114 -51t-148.5 -40 t-179 -18.5q-27 0 -39 2l-141 -379l-305 115l-103 102l117 311q-129 96 -201.5 244t-72.5 324zM20 541q0 -186 78 -317.5t219 -196.5l-127 -340l228 -86l137 366q23 -2 68 -2q137 0 260 36t176 71l53 34l-86 293q-160 -94 -326 -94q-100 0 -171.5 69.5t-71.5 192.5 q0 238 147 238q55 0 88 -34t39 -69l6 -34h340v311q-43 31 -123 61l123 324l-225 86l-131 -346q-98 12 -162 12q-244 0 -391.5 -154.5t-147.5 -420.5z" />
<glyph unicode="&#xa3;" horiz-adv-x="1241" d="M-20 -41v420h110v225h-8l-102 103v419h108v60q0 215 152.5 337t412.5 122q90 0 173 -17.5t139.5 -42t99.5 -50.5t61 -44l21 -16l102 -103v-278h-403l-74 73q-43 0 -55 -41h39l102 -102v-420h-147l49 -45h399l103 -102v-600h-1180zM20 0h1098v518h-338v-180h-213v410h148 v337h-148v103q0 123 111 123q33 0 57.5 -18.5t30.5 -37.5l8 -18h332v221q-6 6 -18.5 15.5t-54.5 35t-90 45t-127 35t-163 15.5q-242 0 -383 -111t-141 -307v-101h-109v-337h111v-410h-111v-338z" />
<glyph unicode="&#xa5;" horiz-adv-x="1323" d="M-20 393v389h149q-14 25 -27 47h-20l-102 103v420h1259l102 -103v-420h-67q-6 -12 -17.5 -30.5t-15.5 -26.5l102 -92v-389h-266v-434h-737l-102 102v332h-156zM20 434h351l18 -31v-65h-110v-338h655v338h-109v65h2l17 31h356v127h-285l31 53h254v127h-182l131 232h49v338 h-555v-338h68l-103 -182l-102 182h63v338h-549v-338h48l131 -232h-179v-127h250l29 -53h-279v-127z" />
<glyph unicode="&#xa6;" horiz-adv-x="385" d="M-20 494h323l103 -103v-1050h-324l-102 102v1051zM-20 700v951h323l103 -103v-950h-324zM20 453v-969h242v969h-242zM20 741h242v869h-242v-869z" />
<glyph unicode="&#xa7;" horiz-adv-x="1114" d="M-20 -131h411l103 -102v-3q47 6 55 52q-12 6 -34.5 15t-31.5 13q-92 39 -171 87.5t-156.5 117t-122.5 159.5t-45 193q0 172 127 275q-127 119 -127 305q0 178 146.5 293t385.5 115q252 0 484 -72l102 -103v-348h-406l-100 101q-37 -12 -39 -52q37 -20 78 -32 q186 -63 341 -211t155 -338q0 -186 -119 -293q119 -113 119 -287q0 -186 -125 -299.5t-392 -113.5q-133 0 -267 26.5t-201 52.5l-68 27l-102 102v320zM20 -172v-252q23 -10 65 -25.5t172 -41t259 -25.5q246 0 360.5 102.5t114.5 270.5q0 178 -143 288q143 94 143 291 q0 117 -59.5 202t-143 129t-167.5 78t-143.5 73.5t-59.5 91.5q0 45 24.5 73.5t73.5 28.5q51 0 81 -25.5t34 -50.5l6 -26h326v276q-197 61 -443 62q-221 0 -356 -103.5t-135 -263.5q0 -195 153 -305q-154 -102 -153 -275q0 -102 42 -180t104.5 -120t135 -78.5t135 -59 t104.5 -57.5t42 -78q0 -45 -27.5 -74.5t-85.5 -29.5q-47 0 -77.5 25.5t-36.5 51.5l-9 27h-336zM418 430q0 78 61 96q113 -53 113 -118q0 -78 -68 -99q-106 51 -106 121z" />
<glyph unicode="&#xa8;" horiz-adv-x="1030" d="M-20 1415q0 96 66.5 163t160.5 67q66 0 125 -35t89 -69t73 -93q12 84 75.5 140.5t149.5 56.5q123 0 227.5 -111t104.5 -221q0 -94 -66.5 -161t-163.5 -67q-51 0 -95 16.5t-81 51.5t-57.5 58.5t-52.5 66.5q-12 -84 -76 -138.5t-150 -54.5q-111 0 -220 104.5t-109 225.5z M20 1415q0 -78 54.5 -132t132.5 -54t133 54t55 132t-55 133.5t-133 55.5t-132.5 -55.5t-54.5 -133.5zM532 1415q0 -78 54.5 -132t132.5 -54t133 54t55 132t-55 133.5t-133 55.5t-132.5 -55.5t-54.5 -133.5z" />
<glyph unicode="&#xa9;" horiz-adv-x="612" d="M-20 1360q0 131 73.5 208t196.5 77q145 0 260 -80l102 -103v-192l-39 -13l60 -198q-111 -86 -254 -86q-174 0 -286.5 115.5t-112.5 271.5zM20 1360q0 -117 71 -180.5t185 -63.5q57 0 109.5 15.5t75.5 29.5l22 15l-37 122q-68 -39 -137 -38q-43 0 -72.5 29.5t-29.5 80.5 q0 100 61 100q47 -4 58 -57h143v131q-82 59 -219 60q-104 0 -167 -65.5t-63 -178.5z" />
<glyph unicode="&#xaa;" horiz-adv-x="735" d="M-20 1333q0 164 95 240t249 76q139 0 280 -68l103 -102v-226l49 -49v-223q-70 -39 -148 -39t-125 41q-70 -41 -141 -41q-139 0 -250.5 113.5t-111.5 277.5zM20 1333q0 -121 63.5 -184.5t156.5 -63.5q80 0 149 56q37 -55 117 -56q31 0 57.5 5.5t38.5 11.5l10 4v149 q-49 -12 -49 33v266q-111 53 -239 54q-135 0 -219.5 -66t-84.5 -209zM219 1348q0 125 88 125l58 -13v-225q-43 -14 -64 -14q-82 0 -82 127z" />
<glyph unicode="&#xab;" horiz-adv-x="1130" d="M-20 367v338l571 368l102 -102v-154l396 256l102 -102v-391l-199 -129l97 -62l102 -102v-391l-498 319v-319l-571 368zM20 389l490 -315v293l-262 168l262 170v292l-490 -315v-293zM561 360l447 -286v293l-263 168l263 170v292l-447 -286v-351z" />
<glyph unicode="&#xac;" horiz-adv-x="1052" d="M-20 201v454h991l102 -102v-698h-356l-103 102v141h-532zM20 242h635v-244h275v616h-910v-372z" />
<glyph unicode="&#xad;" horiz-adv-x="894" d="M-20 346v324h833l102 -103v-323h-833zM20 387h752v242h-752v-242z" />
<glyph unicode="&#xae;" horiz-adv-x="663" d="M-20 1044v218h45v170h-45v217h294q162 0 263.5 -82t101.5 -197q0 -66 -49 -108l94 -95v-221q-176 -25 -256 55v-59h-346zM20 1085h265v136h-47v86h26q45 0 45 -41q0 -37 9.5 -69t32 -62.5t71.5 -45t119 -4.5v136q-31 -6 -41.5 15t-11.5 49t-31.5 51.5t-98.5 21.5 q16 2 39 6t61 32.5t38 76.5q0 55 -43 86.5t-87 40t-92 8.5h-254v-135h46v-252h-46v-136zM238 1403v70h41q45 0 45 -35t-45 -35h-41z" />
<glyph unicode="&#xaf;" horiz-adv-x="788" d="M-20 1292v324h727l102 -103v-323h-727zM20 1333h646v242h-646v-242z" />
<glyph unicode="&#xb0;" horiz-adv-x="888" d="M-20 1231q0 170 121.5 292t291.5 122q207 0 361.5 -163t154.5 -354q0 -170 -121.5 -291.5t-291.5 -121.5q-217 0 -366.5 153.5t-149.5 362.5zM20 1230.5q0 -153.5 110 -263t263.5 -109.5t263 109.5t109.5 263t-109.5 263.5t-263 110t-263.5 -110t-110 -263.5zM221 1231 q0 72 51.5 122t121 50t120.5 -51.5t51 -121t-51 -120.5t-120.5 -51t-121 51t-51.5 121zM365 1128q0 -18 2 -26q8 -2 26 -2q53 0 92 40t39 91q0 8 -4 24q-16 4 -24 5q-53 0 -92 -39.5t-39 -92.5z" />
<glyph unicode="&#xb1;" horiz-adv-x="788" d="M-20 53v324h200v59h-98l-102 103v323h200v201h324l102 -102v-99h101l102 -102v-324h-203v-59h101l102 -103v-323h-727zM20 94h646v242h-646v-242zM20 580h201v-203h242v203h203v241h-203v201h-242v-201h-201v-241z" />
<glyph unicode="&#xb2;" horiz-adv-x="581" d="M-20 1438q0 94 70.5 150.5t201.5 56.5q154 0 252 -88.5t98 -215.5q0 -90 -82 -163q23 2 78 2v-238h-479l-103 102v181q39 14 80 35l-6 18q-110 41 -110 160zM20 1438q0 -121 132 -142l41 -2l22 86q-27 4 -37 27t5.5 44.5t49.5 21.5q59 0 59.5 -57.5t-58 -113 t-117.5 -81.5l-60 -25v-111h398v156q-113 0 -248 -24q25 6 56.5 19t81.5 41t82 72t32 95q0 68 -58.5 114t-148.5 46q-111 0 -171.5 -46t-60.5 -120z" />
<glyph unicode="&#xb3;" horiz-adv-x="598" d="M-20 1114v180h112l-104 105v180q104 68 241 68q158 0 269.5 -86t111.5 -201q0 -25 -12 -53.5t-25 -44.5l-12 -17q57 -43 57 -119q0 -184 -286 -184q-59 0 -122 17.5t-95 35.5l-33 17zM20 1137q84 -51 209 -52q246 0 246 144q0 49 -32.5 77.5t-65.5 32.5l-33 7 q14 0 34.5 5t54.5 33.5t34 77.5q0 68 -64.5 106t-173.5 38q-55 0 -105 -12.5t-73 -24.5l-22 -13v-116h139q6 49 61 49q27 0 45.5 -15.5t18.5 -39.5q0 -59 -68 -60h-16v-63h24q63 0 64 -54q0 -25 -17.5 -39t-42 -14t-46 13.5t-23.5 35.5h-148v-116z" />
<glyph unicode="&#xb4;" horiz-adv-x="772" d="M-20 1409l450 356l102 -102l261 -385l-318 -158q-80 -39 -156 -39q-127 0 -226 98.5t-113 229.5zM23 1391q6 -100 102 -146.5t229 15.5l275 137l-209 309z" />
<glyph unicode="&#xb5;" horiz-adv-x="1495" d="M-20 -100h110v704h-8l-102 103v419h630l64 -63v63h629l102 -102v-637l8 2l103 -102v-406q-117 -59 -277 -59q-199 0 -291 133q-102 -94 -235 -123v-455h-631l-102 103v420zM20 -141v-338h549v450q164 14 287 156q68 -162 281 -162q68 0 126 11.5t85 21.5l24 10v330 q-111 -25 -110 74v673h-547v-337h110v-351q-76 -55 -141 -55q-49 0 -82 29.5t-33 83.5v630h-549v-337h111v-889h-111zM713 385q39 8 71 33v186h-8l-63 64v-283z" />
<glyph unicode="&#xb7;" horiz-adv-x="587" d="M-20 594q0 109 76.5 187.5t183.5 78.5q141 0 254.5 -122t113.5 -246q0 -111 -77.5 -188t-188.5 -77q-137 0 -249.5 119t-112.5 248zM20 594q0 -94 63.5 -158.5t156.5 -64.5q94 0 159.5 64.5t65.5 158.5q0 92 -65.5 158.5t-159.5 66.5q-90 0 -155 -66.5t-65 -158.5z" />
<glyph unicode="&#xb8;" horiz-adv-x="835" d="M-20 -299q0 180 219 242q57 16 106 18v213l320 -16l102 -103l-2 -379l-20 2l88 -55l63 -194q-152 -88 -309 -88q-137 0 -263 38.5t-215 123.5t-89 198zM20 -299q0 -111 134.5 -168t298 -49t252.5 65l-39 121q-63 -33 -162 -32q-88 0 -137.5 25.5t-49.5 70.5q0 98 222 92 l43 -2l2 295l-236 12v-209q-14 0 -36.5 -1t-79 -13t-99.5 -32.5t-78 -67t-35 -107.5z" />
<glyph unicode="&#xb9;" horiz-adv-x="425" d="M-20 1358v198q113 -4 137 82l2 11h180l102 -103v-315l45 -45v-244h-362l-102 102v244h49v29zM20 1399h52v-152h-49v-162h280v162h-45v361h-102q0 -4 -2 -10.5t-10.5 -24t-21.5 -29.5t-40 -22.5t-62 -8.5v-114z" />
<glyph unicode="&#xba;" horiz-adv-x="669" d="M-20 1341q0 125 89 214.5t214 89.5q152 0 279.5 -132.5t127.5 -273.5q0 -125 -90 -215t-215 -90q-141 0 -273 126.5t-132 280.5zM20 1341.5q0 -108.5 78 -186.5t184.5 -78t185.5 78t79 186q0 106 -78 184.5t-186 78.5q-106 0 -184.5 -77t-78.5 -185.5zM197 1341 q0 35 25.5 60.5t60.5 25.5q37 0 62.5 -25.5t25.5 -60.5q0 -37 -26 -62.5t-62 -25.5q-35 0 -60.5 25.5t-25.5 62.5z" />
<glyph unicode="&#xbb;" horiz-adv-x="1130" d="M-20 -4v391l196 129l-94 62l-102 102v391l497 -321v321l572 -369l102 -102v-338l-571 -368l-103 102v151l-395 -253zM20 72l447 286v351l-447 286v-293l263 -167l-263 -170v-293zM518 72l490 315v293l-490 315v-293l262 -167l-262 -170v-293z" />
<glyph unicode="&#xbc;" horiz-adv-x="1935" d="M-20 715v282q180 -6 229 127l8 35h254l102 -102v-525l89 -59l555 830l208 -134l103 -102l-76 -115h297l102 -102v-522h2l103 -103v-364h-105v-250h-411l-103 102v148h-389l-102 102v76l-254 -381l-211 137l-102 103l112 170h-307l-102 102v365h86v114zM20 756h89v-262 h-86v-283h489v283h-82v624h-176q0 -6 -3 -18.5t-17.5 -41t-37 -51t-68.5 -39t-108 -14.5v-198zM336 -90l141 -92l891 1339l-139 88zM887 4h491v-250h330v250h104v283h-104v624h-297l-524 -624v-283zM1153 258l225 285v-285h-225z" />
<glyph unicode="&#xbd;" horiz-adv-x="2043" d="M-20 715v282q180 -6 229 127l8 35h254l102 -102v-525l89 -59l555 830l208 -134l103 -102l-68 -100h2q137 31 278.5 -22.5t232.5 -164t91 -235.5q0 -59 -26.5 -118.5t-55.5 -90.5l-26 -29l102 -86v-362h-798l-103 102v270q70 25 152 70q-45 25 -89 68t-65 73l-22 31 l-541 -815l-211 137l-102 103l112 170h-307l-102 102v365h86v114zM20 756h89v-262h-86v-283h489v283h-82v624h-176q0 -6 -3 -18.5t-17.5 -41t-37 -51t-68.5 -39t-108 -14.5v-198zM336 -90l141 -92l891 1339l-139 88zM1130 635q0 -78 33 -133.5t78 -78t91 -34.5t79 -12h33 l41 158q-49 6 -67.5 47t9 79.5t91.5 38.5q47 0 76.5 -28.5t29.5 -77.5q0 -66 -44 -130.5t-106.5 -109.5t-125 -80.5t-107.5 -52.5l-43 -18v-201h717v281q-268 0 -449 -45q45 12 100.5 34.5t145.5 71.5t149.5 129t59.5 174q0 123 -103.5 205t-269.5 82q-199 0 -308.5 -82 t-109.5 -217z" />
<glyph unicode="&#xbe;" horiz-adv-x="2152" d="M-20 254v278h350q6 -49 39.5 -73.5t70.5 -16.5l-112 113v137h-232l-102 103v280q18 12 53 30.5t142.5 48.5t216.5 30q252 0 416.5 -118t164.5 -292q0 -139 -115 -209v-2q2 -2 2 -4q51 -27 82 -70l543 814l209 -134l102 -102l-77 -117h233l102 -102v-522h3l102 -103v-364 h-105v-250h-411l-103 102v148h-389l-94 96l-197 -297l-210 137l-103 103l98 147q-68 -6 -151 -6q-106 0 -213 27.5t-160 56.5l-53 29zM20 276q16 -10 49 -25t133.5 -42t203.5 -27q231 0 342.5 62.5t111.5 199.5q0 55 -23.5 97.5t-52 64t-69.5 35.5t-59.5 16t-34.5 5 q14 2 31.5 5t54 17t64.5 34.5t50.5 62.5t22.5 96q0 125 -119 195.5t-319 70.5q-217 0 -367 -88l-4 -2v-217h258q4 43 35.5 67.5t77.5 24.5q51 0 85.5 -28t34.5 -75q0 -55 -35.5 -82.5t-91.5 -27.5h-30v-119h47q49 0 82.5 -24.5t33.5 -71.5t-32.5 -74t-77.5 -27q-47 0 -86 25 t-43 68h-273v-216zM618 -90l142 -92l891 1339l-140 88zM1104 2h491v-250h330v250h105v283h-105v624h-297l-524 -624v-283zM1370 256l225 285v-285h-225z" />
<glyph unicode="&#xbf;" horiz-adv-x="1116" d="M-20 -141q0 111 40.5 196.5t98 136t115 91.5t98.5 86t41 96v184h108q-74 61 -112.5 118.5t-38.5 135.5q0 109 74.5 182.5t183.5 73.5q131 0 242.5 -117.5t111.5 -240.5q0 -121 -92 -201l53 -53v-246q0 -80 -32.5 -142.5t-81 -103.5t-98.5 -76.5t-90 -80.5t-50 -97 q41 0 69.5 22.5t36.5 45.5l9 22h368l103 -102v-338q-27 -12 -73 -30.5t-174 -50.5t-239 -32q-301 0 -486 133.5t-185 387.5zM20 -141q0 -377 529 -377q225 0 440 96l4 2v270h-297q0 -4 -3 -10t-13 -21.5t-25.5 -26.5t-43 -21.5t-62.5 -10.5q-143 0 -143 119q0 66 36.5 118 t88 90t103.5 77t89 99.5t37 139.5v205h-346v-143q0 -61 -41 -110.5t-98.5 -91.5t-115 -90t-98.5 -128t-41 -186zM371 903q0 -90 63.5 -153.5t153.5 -63.5q88 0 149.5 63.5t61.5 153.5q0 92 -61.5 153.5t-149.5 61.5q-92 0 -154.5 -61.5t-62.5 -153.5z" />
<glyph unicode="&#xc0;" horiz-adv-x="1456" d="M-20 -43v420h61l387 991l-100 51l-103 103l260 385l451 -357l102 -102q-2 -82 -49 -141l39 -37l350 -897l99 -99v-419h-631l-103 102v319h-24v-421h-637zM20 -2h555v338h-67l33 84h274l33 -84h-64v-338h549v338h-47l-389 995h-438l-389 -995h-50v-338zM287 1538l274 -137 q133 -61 229.5 -15t102.5 146l-397 315zM594 557l84 213l84 -213h-168z" />
<glyph unicode="&#xc1;" horiz-adv-x="1456" d="M-20 -43v420h61q12 31 389 995h74q-72 84 -84 197l450 356l103 -102l260 -385l-250 -125l45 -43l350 -897l99 -99v-419h-631l-103 102v319h-24v-421h-637zM20 -2h555v338h-67l33 84h274l33 -84h-64v-338h549v338h-47l-389 995h-438l-389 -995h-50v-338zM463 1550 q6 -100 102.5 -146t229.5 15l274 137l-209 310zM594 557l84 213l84 -213h-168z" />
<glyph unicode="&#xc2;" horiz-adv-x="1456" d="M-20 -43v420h61q289 739 362 930q-70 74 -96 157l213 303q61 80 170 80q86 0 148.5 -50t122.5 -132q35 -49 102 -148.5t108 -152.5q-31 -102 -127 -135l334 -856l99 -99v-419h-631l-103 102v319h-24v-421h-637zM20 -2h555v338h-67l33 84h274l33 -84h-64v-338h549v338h-47 l-389 995h-438l-389 -995h-50v-338zM352 1456q16 -55 68.5 -79.5t106 -15.5t83.5 42l80 86l76 -84q31 -33 84 -42t105.5 15.5t68.5 79.5l-199 285q-47 66 -137 65.5t-135 -65.5zM594 557l84 213l84 -213h-168z" />
<glyph unicode="&#xc3;" horiz-adv-x="1456" d="M-20 -43v420h61l348 889q-145 61 -229 209.5t-74 326.5h352l101 -100q41 12 96 44t117.5 53.5t148.5 21.5q215 0 351.5 -172t125.5 -398h-344l344 -878l99 -99v-419h-631l-103 102v319h-24v-421h-637zM20 -2h555v338h-67l33 84h274l33 -84h-64v-338h549v338h-47l-389 995 h-438l-389 -995h-50v-338zM127 1761q0 -168 80 -276.5t254 -108.5q115 0 232.5 62.5t174.5 62.5q43 0 70 -31.5t27 -74.5h270q0 168 -80 276.5t-254 108.5q-115 0 -232.5 -62.5t-174.5 -62.5q-43 0 -70 31.5t-27 74.5h-270zM594 557l84 213l84 -213h-168z" />
<glyph unicode="&#xc4;" horiz-adv-x="1456" d="M-20 -43v420h61q61 162 183 472t169 431q-84 47 -141 128t-57 165q0 96 66.5 162.5t160.5 66.5q66 0 125 -34.5t89 -68.5t73 -93q12 84 75.5 140t149.5 56q123 0 227.5 -110.5t104.5 -221.5q0 -94 -66.5 -160.5t-161.5 -66.5l340 -870l99 -99v-419h-631l-103 102v319h-24 v-421h-637zM20 -2h555v338h-67l33 84h274l33 -84h-64v-338h549v338h-47l-389 995h-438l-389 -995h-50v-338zM236 1573q0 -78 54 -132.5t132 -54.5t133 54.5t55 132.5t-55 133t-133 55t-132 -55t-54 -133zM594 557l84 213l84 -213h-168zM748 1573q0 -78 54 -132.5t132 -54.5 t133 54.5t55 132.5t-55 133t-133 55t-132 -55t-54 -133z" />
<glyph unicode="&#xc5;" horiz-adv-x="1456" d="M-20 -43v420h61q12 31 389 995h49q-90 104 -90 219q0 104 75 179t179 75q129 0 242.5 -117.5t113.5 -238.5q0 -78 -47 -146l76 -73l350 -897l99 -99v-419h-631l-103 102v319h-24v-421h-637zM20 -2h555v338h-67l33 84h274l33 -84h-64v-338h549v338h-47l-389 995h-438 l-389 -995h-50v-338zM430 1591q0 -88 62.5 -150.5t150.5 -62.5t150.5 62.5t62.5 150.5t-62.5 150.5t-150.5 62.5t-150.5 -62.5t-62.5 -150.5zM545 1591q0 39 28.5 69t69.5 30t69.5 -30t28.5 -69t-28.5 -68.5t-69.5 -29.5t-69.5 29.5t-28.5 68.5zM594 557l84 213l84 -213 h-168z" />
<glyph unicode="&#xc6;" horiz-adv-x="1953" d="M-20 -43v420h67l608 975h1217l102 -103v-561h-338v-129h236l102 -102v-600l-1892 -2zM20 -2h555v338h-67l51 84h227v-82h-110v-338h1155v518h-338v-180h-270v217h270v240h-270v178h270v-142h338v480h-1153l-608 -975h-50v-338zM645 557l141 225v-225h-141z" />
<glyph unicode="&#xc7;" horiz-adv-x="1300" d="M-20 674q0 184 54 324.5t149.5 223.5t214 123.5t257.5 40.5q297 0 510 -147l29 -20l102 -103v-375h-415l-103 103l-6 18q-4 2 -12 2q-70 0 -111 -73.5t-41 -212.5q0 -129 41 -205q49 -25 119 -25q74 0 167 22.5t150 43.5l56 22l102 -102l78 -393q-172 -76 -371 -107v-158 l-20 2l88 -55l63 -194q-152 -88 -309 -88q-137 0 -263 38.5t-215 123.5t-89 198q0 160 170 225q-184 104 -289.5 298t-105.5 450zM20 674q0 -338 154 -505t399 -196v-51q-14 0 -36.5 -1t-79 -13t-99.5 -32.5t-77.5 -67t-34.5 -107.5q0 -111 134 -168t298 -49t252 65l-39 121 q-63 -33 -162 -32q-88 0 -137 25.5t-49 70.5q0 98 221 92l43 -2v149q203 20 364 93l-61 313q-170 -72 -342 -72q-133 0 -218 88t-85 285q0 160 52 244t140 84q59 0 98.5 -31t47.5 -62l10 -30h340v315q-6 6 -19.5 15.5t-60.5 35t-100 45t-139 35t-179 15.5 q-274 0 -454.5 -167t-180.5 -505z" />
<glyph unicode="&#xc8;" horiz-adv-x="1298" d="M-20 -41v420h110v450h-6l-102 103v420h464l-155 78l-103 102l261 385l450 -356l102 -103q-2 -59 -26 -106h242l102 -103v-561h-338v-129h236l102 -102v-600h-1237zM20 0h1156v518h-338v-180h-271v217h271v240h-271v178h271v-142h338v480h-1153v-338h108v-635h-111v-338z M250 1548l274 -137q133 -61 229.5 -15t102.5 146l-397 316z" />
<glyph unicode="&#xc9;" horiz-adv-x="1298" d="M-20 -41v420h110v450h-6l-102 103v420h442q-82 92 -94 209l450 356l103 -102l260 -385l-158 -78h232l102 -103v-561h-338v-129h236l102 -102v-600h-1237zM20 0h1156v518h-338v-180h-271v217h271v240h-271v178h271v-142h338v480h-1153v-338h108v-635h-111v-338zM373 1542 q6 -100 102 -146t230 15l274 137l-209 310z" />
<glyph unicode="&#xca;" horiz-adv-x="1298" d="M-20 -41v420h110v450h-6l-102 103v420h354q-49 39 -66 102l213 303q59 84 170 84q41 0 74 -9t87 -52t110 -125l211 -301l-2 -2h84l102 -103v-561h-338v-129h236l102 -102v-600h-1237zM20 0h1156v518h-338v-180h-271v217h271v240h-271v178h271v-142h338v480h-1153v-338 h108v-635h-111v-338zM315 1448q16 -55 68.5 -80t106 -15.5t83.5 42.5l80 86l76 -84q31 -33 84 -42t105.5 15.5t68.5 79.5l-199 285q-47 66 -137 65.5t-135 -65.5z" />
<glyph unicode="&#xcb;" horiz-adv-x="1298" d="M-20 -41v420h110v450h-6l-102 103v420h231q-80 94 -80 194q0 96 66.5 163t160.5 67q66 0 125.5 -35t89 -69t72.5 -93q12 84 75.5 140.5t149.5 56.5q123 0 227.5 -111t104.5 -221q0 -47 -20 -92h33l102 -103v-561h-338v-129h236l102 -102v-600h-1237zM20 0h1156v518h-338 v-180h-271v217h271v240h-271v178h271v-142h338v480h-1153v-338h108v-635h-111v-338zM174 1546q0 -78 54.5 -132t132 -54t133 54t55.5 132t-55.5 133.5t-133 55.5t-132 -55.5t-54.5 -133.5zM672 1352h59q-18 20 -43 57q-8 -37 -16 -57zM686 1546q0 -78 54.5 -132t132 -54 t133 54t55.5 132t-55.5 133.5t-133 55.5t-132 -55.5t-54.5 -133.5z" />
<glyph unicode="&#xcc;" horiz-adv-x="800" d="M-20 -41v420h110v450h-8l-102 103v420h245l-143 71l-102 103l260 385l450 -357l103 -102q-2 -76 -43 -133l71 -70v-420h-110v-450h6l102 -103v-419h-737zM20 0h656v338h-109v635h111v338h-658v-338h111v-635h-111v-338zM41 1542l274 -137q133 -61 229.5 -15t102.5 146 l-397 315z" />
<glyph unicode="&#xcd;" horiz-adv-x="815" d="M-20 -41v420h110v450h-8l-102 103v420h131q-76 88 -88 202l450 357l102 -103l261 -385l-146 -71h29l102 -103v-420h-110v-450h6l102 -103v-419h-737zM20 0h656v338h-109v635h111v338h-658v-338h111v-635h-111v-338zM66 1536q6 -100 102 -146.5t229 15.5l275 137l-209 309 z" />
<glyph unicode="&#xce;" horiz-adv-x="823" d="M-20 1462l213 303q59 84 169 84q41 0 74 -9t87.5 -52t109.5 -125l211 -301q-14 -45 -45 -80l35 -33v-420h-111v-450h6l102 -103v-419h-737l-102 102v420h110v450h-8l-102 103v420h63q-55 34 -75 110zM25 1456q16 -55 68 -79.5t105.5 -15.5t84.5 42l79 86l76 -84 q31 -33 84 -42t105.5 15.5t68.5 79.5l-198 285q-47 66 -137.5 65.5t-135.5 -65.5zM33 0h655v338h-108v635h110v338h-657v-338h110v-635h-110v-338z" />
<glyph unicode="&#xcf;" horiz-adv-x="1030" d="M-20 1548q0 96 66.5 163t160.5 67q66 0 125 -35t89 -69t73 -93q12 84 75.5 140.5t149.5 56.5q123 0 227.5 -111t104.5 -221q0 -131 -115 -197v-420h-111v-450h6l103 -103v-419h-737l-103 102v420h111v450h-8l-103 103v385q-114 110 -114 231zM20 1548q0 -78 54.5 -132 t132.5 -54t133 54t55 132t-55 133.5t-133 55.5t-132.5 -55.5t-54.5 -133.5zM135 0h656v338h-109v635h111v338h-658v-338h111v-635h-111v-338zM516 1352h64q-8 12 -23.5 31.5t-21.5 27.5q-7 -32 -19 -59zM532 1548q0 -78 54.5 -132t132.5 -54t133 54t55 132t-55 133.5 t-133 55.5t-132.5 -55.5t-54.5 -133.5z" />
<glyph unicode="&#xd0;" horiz-adv-x="1384" d="M-20 -41v420h110v4h-6l-102 102v324h108v20h-6l-102 103v420h585q219 0 413 -105.5t309.5 -291t115.5 -402.5q0 -301 -213 -498.5t-522 -197.5h-588zM20 0h547q291 0 493 186.5t202 469t-202 469t-493 186.5h-544v-338h108v-205h-108v-242h108v-188h-111v-338zM567 338 v188h125v242h-125v203q106 -8 182 -87t76 -229q0 -147 -78 -227t-180 -90z" />
<glyph unicode="&#xd1;" horiz-adv-x="1656" d="M-20 -41v420h110v450h-8l-102 103v420h360q-158 168 -145 426h352l100 -101q41 12 96.5 44t118 53.5t148.5 21.5q184 0 311 -128t158 -316h96l102 -103v-420h-110v-450h6l102 -103v-419h-600l-102 102l-154 260v-362h-737zM20 0h656v338h-109v393l428 -731h537v338h-109 v635h111v338h-657v-338h110v-406l-436 744h-531v-338h111v-635h-111v-338zM236 1737q0 -168 79.5 -276.5t253.5 -108.5q115 0 233 62.5t175 62.5q43 0 69.5 -32t26.5 -75h270q0 168 -79.5 276.5t-253.5 108.5q-115 0 -233 -62.5t-175 -62.5q-43 0 -69.5 32t-26.5 75h-270z M698 1208l138 -231v258q-68 -21 -138 -27z" />
<glyph unicode="&#xd2;" horiz-adv-x="1454" d="M-20 647q0 293 138 470t351 237l-145 73l-103 103l260 385l451 -356l102 -103q-2 -84 -49 -139q219 -94 354.5 -301t135.5 -471q0 -190 -61.5 -334.5t-165 -226.5t-222.5 -122t-248 -40q-332 0 -565 227t-233 598zM20 647q0 -178 58.5 -315t155 -214t208 -115t234.5 -38 t234.5 38t207.5 115t154.5 214t58.5 315t-58.5 316.5t-154.5 218.5t-208.5 119.5t-233.5 39.5t-233.5 -39.5t-209 -119.5t-155 -218.5t-58.5 -316.5zM283 1546l274 -137q133 -61 229.5 -15t102.5 146l-397 315zM489 647q0 195 53.5 292t133.5 97t133 -97t53 -292 q0 -193 -52 -285t-134 -92t-134.5 92t-52.5 285zM633 545q0 -147 33 -234h10q63 0 104 82t41 254q0 147 -35 246h-8q-61 0 -103 -87t-42 -261z" />
<glyph unicode="&#xd3;" horiz-adv-x="1454" d="M-20 647q0 279 124.5 452t325.5 242q-86 96 -98 213l450 357l103 -103l260 -385l-191 -94q229 -88 375 -299t146 -485q0 -190 -61.5 -334.5t-165 -226.5t-222.5 -122t-248 -40q-332 0 -565 227t-233 598zM20 647q0 -178 58.5 -315t155 -214t208 -115t234.5 -38t234.5 38 t207.5 115t154.5 214t58.5 315t-58.5 316.5t-154.5 218.5t-208.5 119.5t-233.5 39.5t-233.5 -39.5t-209 -119.5t-155 -218.5t-58.5 -316.5zM375 1536q6 -100 102 -146.5t230 15.5l274 137l-209 309zM489 647q0 195 53.5 292t133.5 97t133 -97t53 -292q0 -193 -52 -285 t-134 -92t-134.5 92t-52.5 285zM633 545q0 -147 33 -234h10q63 0 104 82t41 254q0 147 -35 246h-8q-61 0 -103 -87t-42 -261z" />
<glyph unicode="&#xd4;" horiz-adv-x="1454" d="M-20 647q0 268 117.5 440.5t305.5 245.5q-82 35 -110 129l213 303q59 84 170 84q41 0 73.5 -9t87 -52t109.5 -125l211 -301q-20 -66 -65 -100q174 -111 278.5 -299.5t104.5 -417.5q0 -190 -61.5 -334.5t-165 -226.5t-222.5 -122t-248 -40q-332 0 -565 227t-233 598z M20 647q0 -178 58.5 -315t155 -214t208 -115t234.5 -38t234.5 38t207.5 115t154.5 214t58.5 315t-58.5 316.5t-154.5 218.5t-208.5 119.5t-233.5 39.5t-233.5 -39.5t-209 -119.5t-155 -218.5t-58.5 -316.5zM338 1456q16 -55 68.5 -79.5t105.5 -15.5t84 42l80 86l76 -84 q31 -33 84 -42t105 15.5t69 79.5l-199 285q-47 66 -137 65.5t-135 -65.5zM489 647q0 195 53.5 292t133.5 97t133 -97t53 -292q0 -193 -52 -285t-134 -92t-134.5 92t-52.5 285zM633 545q0 -147 33 -234h10q63 0 104 82t41 254q0 147 -35 246h-8q-61 0 -103 -87t-42 -261z" />
<glyph unicode="&#xd5;" horiz-adv-x="1454" d="M-20 647q0 238 93 399.5t249 245.5q-106 76 -165 207t-51 281h353l100 -101q41 12 96.5 44t118 53.5t148.5 21.5q215 0 351 -172t126 -397h-260q156 -115 246 -292t90 -392q0 -190 -61.5 -334.5t-165 -226.5t-222.5 -122t-248 -40q-332 0 -565 227t-233 598zM20 647 q0 -178 58.5 -315t155 -214t208 -115t234.5 -38t234.5 38t207.5 115t154.5 214t58.5 315t-58.5 316.5t-154.5 218.5t-208.5 119.5t-233.5 39.5t-233.5 -39.5t-209 -119.5t-155 -218.5t-58.5 -316.5zM147 1739q0 -168 80 -276.5t254 -108.5q115 0 232.5 62.5t175.5 62.5 q43 0 69.5 -32t26.5 -75h270q0 168 -79.5 276.5t-253.5 108.5q-115 0 -233 -62.5t-175 -62.5q-43 0 -69.5 32t-26.5 75h-271zM489 647q0 195 53.5 292t133.5 97t133 -97t53 -292q0 -193 -52 -285t-134 -92t-134.5 92t-52.5 285zM633 545q0 -147 33 -234h10q63 0 104 82 t41 254q0 147 -35 246h-8q-61 0 -103 -87t-42 -261z" />
<glyph unicode="&#xd6;" horiz-adv-x="1454" d="M-20 647q0 242 95 404.5t255 246.5q-137 113 -137 250q0 96 66.5 163t160.5 67q66 0 125 -35t89 -69t73 -93q12 84 75.5 140.5t149.5 56.5q123 0 227.5 -111t104.5 -221q0 -70 -38 -126t-100 -83q160 -113 254.5 -293t94.5 -399q0 -190 -61.5 -334.5t-165 -226.5 t-222.5 -122t-248 -40q-332 0 -565 227t-233 598zM20 647q0 -178 58.5 -315t155 -214t208 -115t234.5 -38t234.5 38t207.5 115t154.5 214t58.5 315t-58.5 316.5t-154.5 218.5t-208.5 119.5t-233.5 39.5t-233.5 -39.5t-209 -119.5t-155 -218.5t-58.5 -316.5zM233 1548 q0 -78 54.5 -132t132.5 -54t133 54t55 132t-55 133.5t-133 55.5t-132.5 -55.5t-54.5 -133.5zM489 647q0 195 53.5 292t133.5 97t133 -97t53 -292q0 -193 -52 -285t-134 -92t-134.5 92t-52.5 285zM633 545q0 -147 33 -234h10q63 0 104 82t41 254q0 147 -35 246h-8 q-61 0 -103 -87t-42 -261zM739 1378q6 0 17.5 -1t17.5 -1q-16 20 -26 35q-5 -25 -9 -33zM745 1548q0 -78 54.5 -132t132.5 -54t133 54t55 132t-55 133.5t-133 55.5t-132.5 -55.5t-54.5 -133.5z" />
<glyph unicode="&#xd7;" horiz-adv-x="991" d="M-20 272l235 236l-235 235l229 230l235 -236l236 236l332 -332l-236 -235l236 -236l-230 -229l-235 235l-236 -235zM37 272l172 -172l235 236l236 -236l172 172l-236 236l236 235l-172 172l-236 -235l-235 235l-172 -172l235 -235z" />
<glyph unicode="&#xd8;" horiz-adv-x="1454" d="M-20 647q0 188 61 334.5t164.5 231.5t222.5 127t248 42q14 0 28.5 -1t33 -3t28.5 -2l102 287l303 -115l103 -102l-90 -254q135 -115 213 -282t78 -365q0 -190 -61.5 -334.5t-165 -226.5t-222.5 -122t-248 -40q-53 0 -104 6l-88 -223l-305 114l-103 103l76 188 q-274 234 -274 637zM20 647q0 -414 295 -590l-84 -211l228 -86l86 217q66 -12 131 -12q123 0 234.5 38t207.5 115t154.5 214t58.5 315q0 422 -309 604l96 273l-225 86l-100 -279q-66 10 -117 10q-121 0 -233.5 -39.5t-209 -119.5t-155 -218.5t-58.5 -316.5zM489 647 q0 195 53.5 292t133.5 97t133 -97t53 -292q0 -193 -52 -285t-134 -92t-134.5 92t-52.5 285zM633 545q0 -147 33 -234h10q63 0 104 82t41 254q0 147 -35 246h-8q-61 0 -103 -87t-42 -261z" />
<glyph unicode="&#xd9;" horiz-adv-x="1536" d="M-20 932v420h501l-151 75l-103 103l260 385l451 -356l102 -103q-4 -63 -26 -104h440l102 -103v-420h-110v-481q0 -240 -164 -365.5t-463 -125.5q-332 0 -530.5 155.5t-198.5 438.5v378h-8zM20 973h111v-522q0 -219 153.5 -335t432 -116t432.5 115.5t154 335.5v522h110 v338h-657v-338h110v-520q0 -76 -37.5 -124t-111.5 -48q-72 0 -111 49t-39 123v520h111v338h-658v-338zM289 1546l274 -137q133 -61 229.5 -15t102.5 146l-397 315zM711 319q53 0 83.5 39t30.5 95v376h-114v-510z" />
<glyph unicode="&#xda;" horiz-adv-x="1536" d="M-20 932v420h571q-80 88 -92 207l450 356l103 -103l260 -385l-154 -75h336l102 -103v-420h-110v-481q0 -240 -164 -365.5t-463 -125.5q-332 0 -530.5 155.5t-198.5 438.5v378h-8zM20 973h111v-522q0 -219 153.5 -335t432 -116t432.5 115.5t154 335.5v522h110v338h-657 v-338h110v-520q0 -76 -37.5 -124t-111.5 -48q-72 0 -111 49t-39 123v520h111v338h-658v-338zM502 1540q6 -100 102 -146t230 15l274 137l-209 309zM711 319q53 0 83.5 39t30.5 95v376h-114v-510z" />
<glyph unicode="&#xdb;" horiz-adv-x="1536" d="M-20 932v420h430q-55 35 -76 110l213 303q59 84 170 84q41 0 73.5 -9t87 -52t109.5 -125l211 -301l-4 -10h260l102 -103v-420h-110v-481q0 -240 -164 -365.5t-463 -125.5q-332 0 -530.5 155.5t-198.5 438.5v378h-8zM20 973h111v-522q0 -219 153.5 -335t432 -116 t432.5 115.5t154 335.5v522h110v338h-657v-338h110v-520q0 -76 -37.5 -124t-111.5 -48q-72 0 -111 49t-39 123v520h111v338h-658v-338zM379 1456q16 -55 68.5 -79.5t105.5 -15.5t84 42l80 86l76 -84q31 -33 84 -42t105 15.5t69 79.5l-199 285q-47 66 -137 65.5t-135 -65.5z M711 319q53 0 83.5 39t30.5 95v376h-114v-510z" />
<glyph unicode="&#xdc;" horiz-adv-x="1536" d="M-20 932v420h337q-86 96 -86 200q0 96 67 163t161 67q66 0 125 -35t88.5 -68.5t72.5 -93.5q12 84 76 140.5t150 56.5q123 0 227.5 -110.5t104.5 -221.5q0 -53 -23 -98h174l102 -103v-420h-110v-481q0 -240 -164 -365.5t-463 -125.5q-332 0 -530.5 155.5t-198.5 438.5v378 h-8zM20 973h111v-522q0 -219 153.5 -335t432 -116t432.5 115.5t154 335.5v522h110v338h-657v-338h110v-520q0 -76 -37.5 -124t-111.5 -48q-72 0 -111 49t-39 123v520h111v338h-658v-338zM272 1552.5q0 -77.5 54.5 -132t132.5 -54.5t133 54.5t55 132t-55 133t-133 55.5 t-132.5 -55.5t-54.5 -133zM711 319q53 0 83.5 39t30.5 95v376h-114v-510zM766 1352h70q-20 25 -50 63q-8 -38 -20 -63zM784 1552.5q0 -77.5 54.5 -132t132.5 -54.5t133 54.5t55 132t-55 133t-133 55.5t-132.5 -55.5t-54.5 -133z" />
<glyph unicode="&#xdd;" horiz-adv-x="1320" d="M-20 932v420h489q-82 92 -94 209l450 356l103 -102l260 -385l-158 -78h209l102 -103v-420h-67l-270 -479l73 -74v-419h-737l-102 102v420h110v14l-246 436h-20zM20 973h48l321 -570v-65h-110v-338h655v338h-109v65l324 570h49v338h-555v-338h68l-103 -182l-102 182h63 v338h-549v-338zM418 1542q6 -100 102 -146t230 15l274 137l-209 310z" />
<glyph unicode="&#xde;" horiz-adv-x="1376" d="M-20 -41v420h112v702h-10l-102 103v420h628l103 -103v-149h65q250 0 435.5 -166t185.5 -418q0 -225 -140.5 -341t-336.5 -116h-129l32 -35v-419h-741zM20 0h660v338h-113v117h250q178 0 307 105.5t129 309.5q0 215 -139 328t-338 113h-209v252h-547v-338h113v-887h-113 v-338zM567 770v203h148q43 0 72.5 -30t29.5 -73q0 -41 -29.5 -70.5t-72.5 -29.5h-148z" />
<glyph unicode="&#xdf;" horiz-adv-x="1959" d="M-20 -41v420h110v225h-8l-102 103v419h108v60q0 221 177 340t521 119q156 0 289 -28t242.5 -86t172 -159.5t62.5 -234.5q0 -106 -30.5 -173t-89 -132.5t-82.5 -110.5q127 -14 232.5 -46t198.5 -89.5t146 -151.5t53 -217q0 -182 -153.5 -289.5t-396.5 -107.5 q-137 0 -283 28.5t-201 49t-88 34.5v-75h-776zM20 0h695v338h-148v850q0 63 53.5 107t167.5 44q104 0 158.5 -44t54.5 -107q0 -51 -32.5 -103.5t-71.5 -91.5t-71.5 -100.5t-32.5 -126.5q0 -109 46 -180.5t115.5 -99t151.5 -46t151.5 -24.5t115.5 -32t46 -73 q0 -37 -32.5 -63.5t-83.5 -26.5q-111 0 -144 96l-4 15h-360v-271q25 -10 69.5 -26.5t184 -44t278.5 -27.5q225 0 367.5 96.5t142.5 259.5q0 106 -47 178t-117.5 102t-153.5 50.5t-154 29.5t-118 34.5t-47 70.5q0 51 33 100.5t71.5 85.5t71.5 107.5t33 161.5q0 104 -54.5 179 t-149.5 114t-197.5 55.5t-221.5 16.5q-324 0 -490.5 -109t-166.5 -309v-101h-109v-337h111v-410h-111v-338zM711 379h274q-4 4 -43 34.5t-48 40t-41 40t-43 52t-28.5 57.5t-23.5 76t-6 87q0 55 21.5 107.5t42 80t61.5 76.5q84 100 84 158q-27 8 -70 8q-92 0 -136 -31.5 t-44 -79.5v-706z" />
<glyph unicode="&#xe0;" d="M-20 510q0 315 172 471t458 174l-248 123l-102 102l260 385l451 -356l102 -102q-6 -125 -100 -187q72 -16 141.5 -38.5t104.5 -37.5l34 -16l103 -102v-539l8 2l102 -102v-406q-117 -59 -276 -59q-174 0 -266 102q-150 -102 -320 -102q-260 0 -442 201.5t-182 486.5z M20 510q0 -268 138.5 -406.5t343.5 -138.5q178 0 327 119q80 -119 258 -119q68 0 126.5 11.5t84.5 21.5l25 10v330q-111 -25 -111 74v589q-27 12 -74.5 32t-186 51.5t-263.5 31.5q-299 0 -483.5 -145.5t-184.5 -460.5zM322 1397l274 -137q133 -61 229.5 -15.5t102.5 146.5 l-398 315zM457 545q0 152 56 214t138 62l125 -28v-498q-76 -31 -139 -31q-180 0 -180 281zM600 442q0 -82 16 -137h21q39 0 98 19v352q-135 -17 -135 -234z" />
<glyph unicode="&#xe1;" d="M-20 510q0 293 149.5 447.5t400.5 189.5q-137 100 -153 262l450 356l103 -102l260 -385l-287 -141q88 -16 175 -44t130 -46l45 -19l103 -102v-539l8 2l102 -102v-406q-117 -59 -276 -59q-174 0 -266 102q-150 -102 -320 -102q-260 0 -442 201.5t-182 486.5zM20 510 q0 -268 138.5 -406.5t343.5 -138.5q178 0 327 119q80 -119 258 -119q68 0 126.5 11.5t84.5 21.5l25 10v330q-111 -25 -111 74v589q-27 12 -74.5 32t-186 51.5t-263.5 31.5q-299 0 -483.5 -145.5t-184.5 -460.5zM420 1391q6 -100 102 -146.5t230 15.5l274 137l-209 309z M457 545q0 152 56 214t138 62l125 -28v-498q-76 -31 -139 -31q-180 0 -180 281zM600 442q0 -82 16 -137h21q39 0 98 19v352q-135 -17 -135 -234z" />
<glyph unicode="&#xe2;" d="M-20 510q0 463 382 598q-63 31 -113 91.5t-75 131.5l258 352q61 80 170 80q86 0 148.5 -50t121.5 -132q176 -242 261 -352q-25 -84 -99 -123q57 -16 111.5 -35.5t81.5 -30.5l26 -12l103 -102v-539l8 2l102 -102v-406q-117 -59 -276 -59q-174 0 -266 102 q-150 -102 -320 -102q-260 0 -442 201.5t-182 486.5zM20 510q0 -268 138.5 -406.5t343.5 -138.5q178 0 327 119q80 -119 258 -119q68 0 126.5 11.5t84.5 21.5l25 10v330q-111 -25 -111 74v589q-27 12 -74.5 32t-186 51.5t-263.5 31.5q-299 0 -483.5 -145.5t-184.5 -460.5z M219 1323q16 -55 68.5 -79.5t105.5 -15.5t84 42l125 135l125 -135q31 -33 84 -42t105.5 15.5t68.5 79.5l-248 336q-47 63 -136 63t-136 -63zM457 545q0 152 56 214t138 62l125 -28v-498q-76 -31 -139 -31q-180 0 -180 281zM600 442q0 -82 16 -137h21q39 0 98 19v352 q-135 -17 -135 -234zM627 1155q20 2 61 2q31 0 96 -4l-84 82z" />
<glyph unicode="&#xe3;" d="M-20 510q0 475 403 604q-154 55 -242 207t-78 336h353l100 -101q41 12 96.5 44t118 53.5t148.5 21.5q215 0 351 -172t126 -397h-322q57 -16 111.5 -35.5t81.5 -30.5l26 -12l103 -102v-539l8 2l102 -102v-406q-117 -59 -276 -59q-174 0 -266 102q-150 -102 -320 -102 q-260 0 -442 201.5t-182 486.5zM20 510q0 -268 138.5 -406.5t343.5 -138.5q178 0 327 119q80 -119 258 -119q68 0 126.5 11.5t84.5 21.5l25 10v330q-111 -25 -111 74v589q-27 12 -74.5 32t-186 51.5t-263.5 31.5q-299 0 -483.5 -145.5t-184.5 -460.5zM104 1616 q0 -168 80 -276.5t254 -108.5q115 0 232.5 62.5t175.5 62.5q43 0 69.5 -32t26.5 -75h270q0 168 -79.5 276.5t-253.5 108.5q-115 0 -233 -62.5t-175 -62.5q-43 0 -69.5 32t-26.5 75h-271zM457 545q0 152 56 214t138 62l125 -28v-498q-76 -31 -139 -31q-180 0 -180 281z M600 442q0 -82 16 -137h21q39 0 98 19v352q-135 -17 -135 -234zM788 1153q111 -12 203 -37l-88 90q-21 -6 -115 -53z" />
<glyph unicode="&#xe4;" d="M-20 510q0 500 446 616q-82 47 -138.5 126t-56.5 163q0 96 67 163t161 67q66 0 125 -35t88.5 -69t72.5 -93q12 84 76 140.5t150 56.5q123 0 227.5 -111t104.5 -221q0 -88 -59.5 -151.5t-145.5 -74.5q94 -31 155 -59l103 -102v-539l8 2l102 -102v-406q-117 -59 -276 -59 q-174 0 -266 102q-150 -102 -320 -102q-260 0 -442 201.5t-182 486.5zM20 510q0 -268 138.5 -406.5t343.5 -138.5q178 0 327 119q80 -119 258 -119q68 0 126.5 11.5t84.5 21.5l25 10v330q-111 -25 -111 74v589q-27 12 -74.5 32t-186 51.5t-263.5 31.5q-299 0 -483.5 -145.5 t-184.5 -460.5zM272 1415q0 -78 54.5 -132t132.5 -54t133 54t55 132t-55 133.5t-133 55.5t-132.5 -55.5t-54.5 -133.5zM457 545q0 152 56 214t138 62l125 -28v-498q-76 -31 -139 -31q-180 0 -180 281zM600 442q0 -82 16 -137h21q39 0 98 19v352q-135 -17 -135 -234z M727 1155q96 -2 195 -22q-61 43 -136 145q-12 -74 -59 -123zM784 1415q0 -78 54.5 -132t132.5 -54t133 54t55 132t-55 133.5t-133 55.5t-132.5 -55.5t-54.5 -133.5z" />
<glyph unicode="&#xe5;" d="M-20 510q0 283 140 437.5t380 193.5q-121 115 -121 250q0 104 74.5 179t179.5 75q129 0 242.5 -118t113.5 -239q0 -90 -55 -158q180 -39 319 -102l103 -102v-539l8 2l102 -102v-406q-117 -59 -276 -59q-174 0 -266 102q-150 -102 -320 -102q-260 0 -442 201.5t-182 486.5 zM20 510q0 -268 138.5 -406.5t343.5 -138.5q178 0 327 119q80 -119 258 -119q68 0 126.5 11.5t84.5 21.5l25 10v330q-111 -25 -111 74v589q-27 12 -74.5 32t-186 51.5t-263.5 31.5q-299 0 -483.5 -145.5t-184.5 -460.5zM420 1391q0 -88 62.5 -150.5t150.5 -62.5t150.5 62.5 t62.5 150.5t-62.5 150.5t-150.5 62.5t-150.5 -62.5t-62.5 -150.5zM457 545q0 152 56 214t138 62l125 -28v-498q-76 -31 -139 -31q-180 0 -180 281zM535 1391q0 39 29.5 68.5t68.5 29.5t68.5 -29.5t29.5 -68.5t-29.5 -69t-68.5 -30t-68.5 30t-29.5 69zM600 442q0 -82 16 -137 h21q39 0 98 19v352q-135 -17 -135 -234z" />
<glyph unicode="&#xe6;" horiz-adv-x="2048" d="M-20 283q0 158 114.5 230.5t388.5 88.5h-321l-109 109v336q25 12 67 30.5t167 49t239 30.5q250 0 414 -90q162 90 375 90q358 0 555.5 -195.5t197.5 -515.5v-458q-18 -8 -112 -49t-147.5 -59.5t-163 -39t-228.5 -20.5q-307 0 -489 184q-201 -178 -447 -178 q-203 0 -352 135.5t-149 321.5zM20 283q0 -150 103.5 -232t255.5 -82q246 0 448 197q168 -203 488 -203q322 0 581 133l25 13v270h-338q-2 -4 -7 -13.5t-22.5 -30t-40 -36.5t-60.5 -29.5t-83 -13.5q-197 0 -225 211h784q12 137 -15.5 252t-97 205t-197.5 141t-304 51 q-217 0 -375 -98q-156 98 -414 98q-111 0 -219 -23.5t-160 -48.5l-53 -22v-270h350q2 10 7.5 23t35 37t76.5 24q131 0 131 -111v-143q-51 -6 -131 -13.5t-135 -12.5t-123.5 -15.5t-115 -28.5t-87.5 -47t-61.5 -75t-20.5 -107zM438 322q0 16 2 28t9.5 22.5t14.5 16.5 t21.5 12.5t27.5 9.5t37.5 7t44 6t54.5 7t64 9q8 -68 30 -127q-37 -35 -81 -54t-82.5 -21t-70.5 7t-51.5 29.5t-19.5 47.5zM582 608q41 4 71 8v74q-27 -4 -44 -24.5t-23 -38.5zM1143 600q12 117 62 169t120 52q166 0 166 -221h-348zM1341 641h107l-6 37h-15q-49 0 -86 -37z " />
<glyph unicode="&#xe7;" horiz-adv-x="1241" d="M-20 541q0 285 158.5 450.5t420.5 165.5q150 0 289 -40t205 -79l65 -39l103 -102v-373h-420l-103 103q-2 16 -6 32q-45 -2 -69.5 -59t-22.5 -122.5t18 -115.5q147 -57 433 99l102 -103l109 -368q-139 -106 -357 -150v-164l-20 2l88 -55l63 -194q-12 -10 -35.5 -24.5 t-104.5 -39t-169 -24.5q-137 0 -263 38.5t-215 123.5t-89 198q0 156 166 225q-162 92 -254 253t-92 362zM20 541q0 -248 138.5 -396.5t369.5 -173.5v-49q-14 0 -36.5 -1t-79 -13t-99.5 -32.5t-77.5 -67t-34.5 -107.5q0 -111 134 -168t298 -49t252 65l-39 121 q-63 -33 -162 -32q-88 0 -137 25.5t-49 70.5q0 98 221 92l43 -2v151q98 14 186 47t125 60l39 24l-86 293q-160 -94 -326 -94q-100 0 -171.5 69.5t-71.5 192.5q0 238 147 238q55 0 88 -34t39 -69l6 -34h340v311q-23 16 -63.5 38.5t-176 60.5t-278.5 38q-244 0 -391.5 -154.5 t-147.5 -420.5z" />
<glyph unicode="&#xe8;" horiz-adv-x="1318" d="M-20 541q0 164 50 286.5t139 192.5t196.5 103.5t234.5 33.5q4 0 13.5 -1t13.5 -1l-244 123l-102 102l260 385l450 -356l103 -102q-6 -164 -156 -211q217 -90 322.5 -287t68.5 -455h-82l90 -352q-8 -8 -23.5 -20.5t-69.5 -43t-115.5 -55t-159 -44t-201.5 -19.5 q-336 0 -562 195.5t-226 525.5zM20 541q0 -295 175.5 -436.5t470.5 -141.5q98 0 188 16.5t148.5 40t103.5 46t65 38.5l19 17l-76 299q-20 -12 -54 -30.5t-131.5 -50.5t-183.5 -32q-244 0 -280 191h723q53 618 -588 618q-119 0 -219 -31.5t-183 -97t-130.5 -179t-47.5 -267.5 zM342 1397l274 -137q133 -61 229.5 -15.5t102.5 146.5l-397 315zM461 631q14 190 149 190q139 0 140 -190h-289z" />
<glyph unicode="&#xe9;" horiz-adv-x="1318" d="M-20 541q0 272 131 420.5t346 183.5q-137 100 -154 264l451 356l102 -102l260 -385l-295 -145q274 -66 411.5 -276t96.5 -503h-82l90 -352q-8 -8 -23.5 -20.5t-69.5 -43t-115.5 -55t-159 -44t-201.5 -19.5q-336 0 -562 195.5t-226 525.5zM20 541q0 -295 175.5 -436.5 t470.5 -141.5q98 0 188 16.5t148.5 40t103.5 46t65 38.5l19 17l-76 299q-20 -12 -54 -30.5t-131.5 -50.5t-183.5 -32q-244 0 -280 191h723q53 618 -588 618q-119 0 -219 -31.5t-183 -97t-130.5 -179t-47.5 -267.5zM346 1391q6 -100 102.5 -146.5t229.5 15.5l274 137 l-209 309zM461 631q14 190 149 190q139 0 140 -190h-289z" />
<glyph unicode="&#xea;" horiz-adv-x="1318" d="M-20 541q0 432 337 567q-63 31 -113 91.5t-75 131.5l258 352q61 80 170 80q86 0 148.5 -50t121.5 -132q176 -242 260 -352q-33 -111 -137 -139q211 -90 312.5 -285t66.5 -451h-82l90 -352q-8 -8 -23.5 -20.5t-69.5 -43t-115.5 -55t-159 -44t-201.5 -19.5 q-336 0 -562 195.5t-226 525.5zM20 541q0 -295 175.5 -436.5t470.5 -141.5q98 0 188 16.5t148.5 40t103.5 46t65 38.5l19 17l-76 299q-20 -12 -54 -30.5t-131.5 -50.5t-183.5 -32q-244 0 -280 191h723q53 618 -588 618q-119 0 -219 -31.5t-183 -97t-130.5 -179t-47.5 -267.5 zM174 1323q16 -55 68.5 -79.5t105.5 -15.5t84 42l125 135l125 -135q31 -33 84 -42t105.5 15.5t68.5 79.5l-248 336q-47 63 -136 63t-136 -63zM461 631q14 190 149 190q139 0 140 -190h-289zM582 1157h18q68 0 145 -10l-90 88z" />
<glyph unicode="&#xeb;" horiz-adv-x="1318" d="M-20 541q0 240 104 383t281 198q-84 47 -141.5 128t-57.5 165q0 96 66.5 163t160.5 67q66 0 125.5 -35t89 -69t72.5 -93q12 84 75.5 140.5t149.5 56.5q123 0 227.5 -111t104.5 -221q0 -94 -66.5 -161t-162.5 -67q-41 0 -68 9q217 -90 321.5 -286t67.5 -454h-82l90 -352 q-8 -8 -23.5 -20.5t-69.5 -43t-115.5 -55t-159 -44t-201.5 -19.5q-336 0 -562 195.5t-226 525.5zM20 541q0 -295 175.5 -436.5t470.5 -141.5q98 0 188 16.5t148.5 40t103.5 46t65 38.5l19 17l-76 299q-20 -12 -54 -30.5t-131.5 -50.5t-183.5 -32q-244 0 -280 191h723 q53 618 -588 618q-119 0 -219 -31.5t-183 -97t-130.5 -179t-47.5 -267.5zM207 1415q0 -78 54 -132t132 -54t133.5 54t55.5 132t-55.5 133.5t-133.5 55.5t-132 -55.5t-54 -133.5zM461 631q14 190 149 190q139 0 140 -190h-289zM662 1155q137 -10 229 -43q-82 41 -170 166 q-12 -74 -59 -123zM719 1415q0 -78 54 -132t132 -54t133.5 54t55.5 132t-55.5 133.5t-133.5 55.5t-132 -55.5t-54 -133.5z" />
<glyph unicode="&#xec;" horiz-adv-x="905" d="M-20 1380l260 385l450 -356l103 -102q-6 -121 -93 -181h13l102 -102v-645h8l103 -103v-419h-740l-102 102v420h111v225h-9l-102 103v419h303l-305 152zM41 1397l274 -137q133 -61 229.5 -15.5t102.5 146.5l-397 315zM125 0h657v338h-110v747h-547v-337h111v-410h-111 v-338z" />
<glyph unicode="&#xed;" horiz-adv-x="847" d="M-20 -41v420h110v225h-8l-102 103v419h258q-74 43 -124.5 120t-58.5 163l451 356l102 -102l260 -385l-305 -152h45l103 -102v-645h8l102 -103v-419h-739zM20 0h658v338h-111v747h-547v-337h111v-410h-111v-338zM98 1391q6 -100 102.5 -146.5t229.5 15.5l275 137l-209 309 z" />
<glyph unicode="&#xee;" horiz-adv-x="917" d="M-20 1331l258 352q61 80 170 80q86 0 148 -50t122 -132q176 -242 260 -352q-23 -72 -75 -109t-113 -37h-23l61 -59v-645h9l102 -103v-419h-739l-103 102v420h111v225h-8l-103 103v419h78q-110 72 -155 205zM25 1323q16 -55 68 -79.5t105.5 -15.5t84.5 42l125 135 l124 -135q31 -33 84.5 -42t105.5 15.5t69 79.5l-248 336q-47 63 -136.5 63t-136.5 -63zM98 0h658v338h-111v747h-547v-337h111v-410h-111v-338zM401 1126h217q-6 4 -14 13l-98 96l-90 -96q-9 -9 -15 -13z" />
<glyph unicode="&#xef;" horiz-adv-x="950" d="M-20 1415q0 96 66.5 163t160.5 67q66 0 125 -35t89 -69t73 -93q12 84 75.5 140.5t149.5 56.5q123 0 227.5 -111t104.5 -221q0 -94 -66.5 -161t-163.5 -67q-27 0 -41 2l66 -63v-645h8l102 -103v-419h-739l-102 102v420h110v225h-8l-102 103v419h59q-82 47 -138 126 t-56 163zM20 1415q0 -78 54.5 -132t132.5 -54t133 54t55 132t-55 133.5t-133 55.5t-132.5 -55.5t-54.5 -133.5zM156 0h657v338h-111v747h-546v-337h110v-410h-110v-338zM440 1126h240q-68 43 -145 152q-17 -97 -95 -152zM532 1415q0 -78 54.5 -132t132.5 -54t133 54t55 132 t-55 133.5t-133 55.5t-132.5 -55.5t-54.5 -133.5z" />
<glyph unicode="&#xf0;" horiz-adv-x="1212" d="M-20 389q0 289 217 426l-78 86l-84 53l-19 31v287q131 61 281 92q23 37 73 118t60 99l275 -172l61 -78q229 -90 348 -271t119 -485q0 -377 -146.5 -564t-468.5 -187q-252 0 -445 168t-193 397zM20 389q0 -184 144.5 -303t351.5 -119q301 0 437.5 177.5t136.5 533.5 q0 293 -127 456.5t-355 198.5l39 64l-205 127l-120 -197q-68 -12 -134.5 -32.5t-97.5 -37.5l-33 -14v-217h80l-39 -63l205 -127l150 243q25 4 41 4q92 0 157.5 -105.5t48.5 -217.5q-53 55 -139 77.5t-178 4t-174 -68.5t-135.5 -151.5t-53.5 -232.5zM391 451q0 211 155.5 211 t155.5 -211q0 -213 -155.5 -213t-155.5 213zM535 348q0 -41 6 -69h6q115 0 115 172q0 37 -7 67h-6q-114 0 -114 -170zM543 883q61 -8 116 -41q-6 47 -28 92q-25 10 -53 6q-4 -6 -35 -57z" />
<glyph unicode="&#xf1;" horiz-adv-x="1515" d="M-20 -41v420h112v225h-10l-102 103v419h360q-141 61 -221 208t-70 323h352l101 -101q41 12 96 44t117.5 53.5t148.5 21.5q215 0 351.5 -172t125.5 -397h-184q119 -66 193.5 -194t74.5 -267v-266h9l102 -103v-419h-1454zM20 0h664v338h-117v336q100 70 181 69 q43 0 69.5 -26.5t26.5 -71.5v-307h-115v-338h664v338h-111v410q0 141 -80 254.5t-239 113.5q-227 0 -396 -155v124h-547v-337h113v-410h-113v-338zM90 1616q0 -168 80 -276.5t254 -108.5q115 0 232.5 62.5t174.5 62.5q43 0 70 -32t27 -75h270q0 168 -80 276.5t-254 108.5 q-115 0 -232.5 -62.5t-174.5 -62.5q-43 0 -70 32t-27 75h-270zM635 1098l22 -21q135 74 281 80l-49 49q-23 -6 -104.5 -50t-149.5 -58zM711 379h92v213q-49 -14 -92 -41v-172z" />
<glyph unicode="&#xf2;" horiz-adv-x="1368" d="M-20 541q0 291 178 449.5t456 164.5l-247 123l-103 102l260 385l451 -356l102 -102q-6 -156 -141 -207q207 -78 330 -253t123 -409q0 -295 -185.5 -456.5t-468.5 -161.5q-315 0 -535 207t-220 514zM20 541q0 -274 173.5 -426t439.5 -152t439 151.5t173 426.5 q0 283 -172 428t-440 145q-266 0 -439.5 -148.5t-173.5 -424.5zM326 1397l274 -137q133 -61 229.5 -15.5t102.5 146.5l-397 315zM453 541q0 139 49 208.5t127 69.5q82 0 130 -68.5t48 -209.5q0 -135 -50 -205t-128 -70t-127 69t-49 206zM612 307h17q66 0 103.5 71 t35.5 151.5t-20 144.5q-88 12 -130.5 -89.5t-5.5 -277.5z" />
<glyph unicode="&#xf3;" horiz-adv-x="1368" d="M-20 541q0 246 128 397.5t343 198.5q-68 45 -113 118.5t-53 153.5l450 356l103 -102l260 -385l-285 -141q256 -53 416 -241.5t160 -457.5q0 -295 -185.5 -456.5t-468.5 -161.5q-315 0 -535 207t-220 514zM20 541q0 -274 173.5 -426t439.5 -152t439 151.5t173 426.5 q0 283 -172 428t-440 145q-266 0 -439.5 -148.5t-173.5 -424.5zM328 1391q6 -100 102 -146.5t229 15.5l275 137l-209 309zM453 541q0 139 49 208.5t127 69.5q82 0 130 -68.5t48 -209.5q0 -135 -50 -205t-128 -70t-127 69t-49 206zM612 307h17q66 0 103.5 71t35.5 151.5 t-20 144.5q-88 12 -130.5 -89.5t-5.5 -277.5z" />
<glyph unicode="&#xf4;" horiz-adv-x="1368" d="M-20 541q0 217 101 361.5t275 205.5q-61 31 -111 91.5t-75 131.5l258 352q61 80 170 80q86 0 148.5 -50t121.5 -132q176 -242 260 -352q-37 -121 -155 -144q190 -84 303 -253.5t113 -393.5q0 -295 -185.5 -456.5t-468.5 -161.5q-315 0 -535 207t-220 514zM20 541 q0 -274 173.5 -426t439.5 -152t439 151.5t173 426.5q0 283 -172 428t-440 145q-266 0 -439.5 -148.5t-173.5 -424.5zM215 1323q16 -55 68.5 -79.5t105.5 -15.5t84 42l125 135l125 -135q31 -33 84 -42t105.5 15.5t68.5 79.5l-248 336q-47 63 -136 63t-136 -63zM453 541 q0 139 49 208.5t127 69.5q82 0 130 -68.5t48 -209.5q0 -135 -50 -205t-128 -70t-127 69t-49 206zM612 307h17q66 0 103.5 71t35.5 151.5t-20 144.5q-88 12 -130.5 -89.5t-5.5 -277.5zM621 1155h12q70 0 160 -14l-97 94z" />
<glyph unicode="&#xf5;" horiz-adv-x="1368" d="M-20 541q0 217 102 361.5t278 207.5q-158 53 -249 205.5t-80 341.5h352l100 -101q41 12 96.5 44t118 53.5t148.5 21.5q215 0 351 -172t126 -397h-352l-101 100q-18 -6 -122 -59q283 -37 462 -229.5t179 -479.5q0 -295 -185.5 -456.5t-468.5 -161.5q-315 0 -535 207 t-220 514zM20 541q0 -274 173.5 -426t439.5 -152t439 151.5t173 426.5q0 283 -172 428t-440 145q-266 0 -439.5 -148.5t-173.5 -424.5zM72 1616q0 -168 79.5 -276.5t254.5 -108.5q115 0 232.5 62.5t174.5 62.5q43 0 69.5 -32t26.5 -75h271q0 168 -80 276.5t-254 108.5 q-115 0 -232.5 -62.5t-175.5 -62.5q-43 0 -69.5 32t-26.5 75h-270zM453 541q0 139 49 208.5t127 69.5q82 0 130 -68.5t48 -209.5q0 -135 -50 -205t-128 -70t-127 69t-49 206zM612 307h17q66 0 103.5 71t35.5 151.5t-20 144.5q-88 12 -130.5 -89.5t-5.5 -277.5z" />
<glyph unicode="&#xf6;" horiz-adv-x="1368" d="M-20 541q0 219 103 363.5t282 207.5q-90 43 -156 128t-66 175q0 96 66.5 163t161.5 67q66 0 125 -35t88.5 -69t72.5 -93q12 84 76 140.5t150 56.5q123 0 227 -111t104 -221q0 -94 -66.5 -161t-162.5 -67h-10q190 -84 302 -253.5t112 -393.5q0 -295 -185.5 -456.5 t-468.5 -161.5q-315 0 -535 207t-220 514zM20 541q0 -274 173.5 -426t439.5 -152t439 151.5t173 426.5q0 283 -172 428t-440 145q-266 0 -439.5 -148.5t-173.5 -424.5zM184 1415q0 -78 54.5 -132t132.5 -54t133 54t55 132t-55 133.5t-133 55.5t-132.5 -55.5t-54.5 -133.5z M453 541q0 139 49 208.5t127 69.5q82 0 130 -68.5t48 -209.5q0 -135 -50 -205t-128 -70t-127 69t-49 206zM612 307h17q66 0 103.5 71t35.5 151.5t-20 144.5q-88 12 -130.5 -89.5t-5.5 -277.5zM639 1155q92 0 197 -25q-66 47 -138 148q-12 -74 -59 -123zM696 1415 q0 -78 54.5 -132t132.5 -54t133 54t55 132t-55 133.5t-133 55.5t-132.5 -55.5t-54.5 -133.5z" />
<glyph unicode="&#xf7;" horiz-adv-x="1052" d="M-20 381v324h438q-137 84 -137 225q0 90 64.5 155.5t154.5 65.5q111 0 217 -105.5t106 -218.5q0 -66 -37 -122h185l102 -103v-323h-393q143 -102 143 -230q0 -94 -63.5 -157.5t-157.5 -63.5q-115 0 -218 102.5t-103 221.5q0 70 38 127h-237zM20 422h910v242h-910v-242z M322 152q0 -76 52 -128.5t126 -52.5q78 0 129 51.5t51 129.5q0 74 -52.5 127t-127.5 53q-74 0 -126 -53t-52 -127zM322 930q0 -76 52 -128t126 -52q78 0 129 51t51 129q0 74 -52.5 127t-127.5 53q-74 0 -126 -53t-52 -127z" />
<glyph unicode="&#xf8;" horiz-adv-x="1368" d="M-20 541q0 297 184 455.5t469 158.5q47 0 65 -2q115 305 131 350l304 -114l102 -103l-117 -305q135 -119 203 -238.5t68 -304.5q0 -307 -202 -470t-499 -148q-23 -61 -73 -192.5t-68 -182.5l-305 115l-103 102l121 324q-141 127 -210.5 248t-69.5 307zM20 541 q0 -182 81 -312.5t221 -197.5l-129 -344l227 -86l137 366q49 -4 76 -4q266 0 439 151.5t173 426.5q0 360 -287 503l121 320l-225 86l-127 -342q-47 6 -94 6q-266 0 -439.5 -148.5t-173.5 -424.5zM453 541q0 139 49 208.5t127 69.5q82 0 130 -68.5t48 -209.5q0 -135 -50 -205 t-128 -70t-127 69t-49 206zM596 438q0 -76 16 -131h17q61 0 99 59.5t38 174.5q0 82 -18 133q-6 2 -17 2q-59 0 -97 -59.5t-38 -178.5z" />
<glyph unicode="&#xf9;" horiz-adv-x="1495" d="M-20 707v419h630l64 -63v63h16l-305 152l-102 102l260 385l450 -356l103 -102q-6 -121 -92 -181h299l102 -102v-637l8 2l103 -102v-406q-117 -59 -277 -59q-199 0 -291 133q-141 -133 -344 -133q-223 0 -368.5 152.5t-145.5 383.5v246h-8zM20 748h111v-390 q0 -182 99.5 -287.5t271.5 -105.5q217 0 354 162q68 -162 281 -162q68 0 126 11.5t85 21.5l24 10v330q-111 -25 -110 74v673h-547v-337h110v-351q-76 -55 -141 -55q-49 0 -82 29.5t-33 83.5v630h-549v-337zM344 1397l274 -137q133 -61 229.5 -15.5t102.5 146.5l-397 315z M713 385q39 8 71 33v186h-8l-63 64v-283z" />
<glyph unicode="&#xfa;" horiz-adv-x="1495" d="M-20 707v419h573q-74 43 -124 120t-58 163l450 356l103 -102l260 -385l-305 -152h424l102 -102v-637l8 2l103 -102v-406q-117 -59 -277 -59q-199 0 -291 133q-141 -133 -344 -133q-223 0 -368.5 152.5t-145.5 383.5v246h-8zM20 748h111v-390q0 -182 99.5 -287.5 t271.5 -105.5q217 0 354 162q68 -162 281 -162q68 0 126 11.5t85 21.5l24 10v330q-111 -25 -110 74v673h-547v-337h110v-351q-76 -55 -141 -55q-49 0 -82 29.5t-33 83.5v630h-549v-337zM414 1391q6 -100 102 -146.5t229 15.5l275 137l-209 309zM713 385q39 8 71 33v186h-8 l-63 64v-283z" />
<glyph unicode="&#xfb;" horiz-adv-x="1495" d="M-20 707v419h395q-111 72 -156 205l258 352q61 80 170 80q86 0 148.5 -50t122.5 -132q176 -242 260 -352q-20 -66 -68 -103h193l102 -102v-637l8 2l103 -102v-406q-117 -59 -277 -59q-199 0 -291 133q-141 -133 -344 -133q-223 0 -368.5 152.5t-145.5 383.5v246h-8z M20 748h111v-390q0 -182 99.5 -287.5t271.5 -105.5q217 0 354 162q68 -162 281 -162q68 0 126 11.5t85 21.5l24 10v330q-111 -25 -110 74v673h-547v-337h110v-351q-76 -55 -141 -55q-49 0 -82 29.5t-33 83.5v630h-549v-337zM264 1323q16 -55 68.5 -79.5t106 -15.5t83.5 42 l125 135l125 -135q31 -33 84 -42t105.5 15.5t68.5 79.5l-248 336q-47 63 -136 63t-136 -63zM627 1108l47 -45v63h184l-113 109zM713 385q39 8 71 33v186h-8l-63 64v-283z" />
<glyph unicode="&#xfc;" horiz-adv-x="1495" d="M-20 707v419h372q-82 47 -138 126t-56 163q0 96 66.5 163t160.5 67q66 0 125 -35t89 -69t73 -93q12 84 75.5 140.5t149.5 56.5q123 0 227.5 -111t104.5 -221q0 -119 -99 -187h173l102 -102v-637l8 2l103 -102v-406q-117 -59 -277 -59q-199 0 -291 133 q-141 -133 -344 -133q-223 0 -368.5 152.5t-145.5 383.5v246h-8zM20 748h111v-390q0 -182 99.5 -287.5t271.5 -105.5q217 0 354 162q68 -162 281 -162q68 0 126 11.5t85 21.5l24 10v330q-111 -25 -110 74v673h-547v-337h110v-351q-76 -55 -141 -55q-49 0 -82 29.5t-33 83.5 v630h-549v-337zM199 1415q0 -78 54 -132t132 -54t133 54t55 132t-55 133.5t-133 55.5t-132 -55.5t-54 -133.5zM614 1122l60 -59v63h184q-68 43 -145 152q-17 -101 -99 -156zM711 1415q0 -78 54 -132t132 -54t133 54t55 132t-55 133.5t-133 55.5t-132 -55.5t-54 -133.5z M713 385q39 8 71 33v186h-8l-63 64v-283z" />
<glyph unicode="&#xfd;" horiz-adv-x="1302" d="M-20 707v419h450q-74 43 -124 120t-58 163l450 356l103 -102l260 -385l-305 -152h465l102 -102v-420h-61l-304 -751q-49 -121 -89 -196t-99 -145.5t-140 -103.5t-188 -33q-178 0 -325 47l-103 103l52 377q117 -29 184 -29q88 0 121 41l-25 25l-262 665h-2zM20 748h54 l301 -768h82q-14 -35 -26.5 -57.5t-39 -47.5t-62.5 -34t-94.5 -8t-134.5 20l-41 -299q109 -35 281 -35q78 0 142.5 22.5t110.5 59.5t88 99t70.5 121.5t65.5 149.5l313 777h50v337h-551v-337h73l-102 -252l-98 252h69v337h-551v-337zM291 1391q6 -100 102 -146.5t230 15.5 l274 137l-209 309z" />
<glyph unicode="&#xfe;" d="M-20 -106h112v1187h-10l-102 103v420h628l103 -103v-371q86 27 166 27q258 0 423.5 -202.5t165.5 -516.5q0 -309 -141 -462.5t-348 -153.5q-123 0 -232 51l82 -82v-414h-745l-102 103v414zM20 -147v-332h664v332h-117v210q139 -98 307 -98q190 0 319.5 143.5t129.5 432 t-128 432t-318 143.5q-166 0 -310 -100v547h-547v-338h113v-1372h-113zM567 295v487q35 16 70 25.5t82 7.5t83 -25.5t60.5 -86t24.5 -163t-24.5 -165t-60.5 -88t-83 -25.5t-82 7.5t-70 25.5zM711 301q135 4 135 240q0 78 -17 131q-57 8 -118 -19v-352z" />
<glyph unicode="&#xff;" horiz-adv-x="1302" d="M-20 707v419h331q-82 47 -138 126t-56 163q0 96 66.5 163t160.5 67q66 0 125 -35t89 -69t73 -93q12 84 75.5 140.5t149.5 56.5q123 0 227.5 -111t104.5 -221q0 -119 -98 -187h131l102 -102v-420h-61l-304 -751q-49 -121 -89 -196t-99 -145.5t-140 -103.5t-188 -33 q-178 0 -325 47l-103 103l52 377q117 -29 184 -29q88 0 121 41l-25 25l-262 665h-2zM20 748h54l301 -768h82q-14 -35 -26.5 -57.5t-39 -47.5t-62.5 -34t-94.5 -8t-134.5 20l-41 -299q109 -35 281 -35q78 0 142.5 22.5t110.5 59.5t88 99t70.5 121.5t65.5 149.5l313 777h50 v337h-551v-337h73l-102 -252l-98 252h69v337h-551v-337zM158 1415q0 -78 54 -132t132 -54t133 54t55 132t-55 133.5t-133 55.5t-132 -55.5t-54 -133.5zM578 1126h239q-68 43 -145 152q-16 -97 -94 -152zM670 1415q0 -78 54 -132t132 -54t133 54t55 132t-55 133.5t-133 55.5 t-132 -55.5t-54 -133.5z" />
<glyph unicode="&#x152;" horiz-adv-x="2007" d="M-20 647q0 188 61 334.5t164.5 231.5t222.5 127t248 42q106 0 215 -30h1034l103 -103v-561h-338v-129h235l103 -102v-600h-1016q-102 -35 -234 -35q-326 0 -562 237.5t-236 587.5zM20 647q0 -178 58.5 -315t155 -214t208 -115t234.5 -38q121 0 227 35h981v518h-338v-180 h-270v217h270v240h-270v178h270v-142h338v480h-999q-104 31 -209 30q-121 0 -233.5 -39.5t-209 -119.5t-155 -218.5t-58.5 -316.5zM489 647q0 195 53.5 292t133.5 97t133 -97t53 -292q0 -193 -52 -285t-134 -92t-134.5 92t-52.5 285zM633 545q0 -147 33 -234h10q63 0 104 82 t41 254q0 147 -35 246h-8q-61 0 -103 -87t-42 -261z" />
<glyph unicode="&#x153;" horiz-adv-x="2244" d="M-20 541q0 297 184 455.5t469 158.5q266 0 461 -137q162 139 432 139q375 0 576.5 -226t152.5 -577h-82l90 -352q-8 -8 -23.5 -20.5t-69.5 -43t-115.5 -55t-159 -44t-201.5 -19.5q-293 0 -506 149q-178 -150 -453 -149q-315 0 -535 207t-220 514zM20 541 q0 -274 173.5 -426t439.5 -152q289 0 459 170q164 -170 499 -170q98 0 188.5 16.5t149 40t103.5 46t65 38.5l19 17l-76 299q-20 -12 -54 -30.5t-131.5 -50.5t-183.5 -32q-244 0 -280 191h723q53 618 -588 618q-283 0 -439 -162q-166 160 -454 160q-266 0 -439.5 -148.5 t-173.5 -424.5zM453 541q0 139 49 208.5t127 69.5q82 0 130 -68.5t48 -209.5q0 -135 -50 -205t-128 -70t-127 69t-49 206zM612 307h17q66 0 103.5 71t35.5 151.5t-20 144.5q-88 12 -130.5 -89.5t-5.5 -277.5zM1386 631q14 190 150 190q139 0 139 -190h-289z" />
<glyph unicode="&#x178;" horiz-adv-x="1320" d="M-20 932l102 -103h20l246 -436v-14h-110v-420l102 -102h737v419l-73 74l270 479h67v420l-102 103h-1259v-420zM20 973v338h549v-338h-63l102 -182l103 182h-68v338h555v-338h-49l-324 -570v-65h109v-338h-655v338h110v65l-321 570h-48zM127 1552q0 96 66.5 163t160.5 67 q66 0 125.5 -35t89 -68.5t72.5 -93.5q12 84 75.5 140.5t149.5 56.5q123 0 227.5 -110.5t104.5 -221.5q0 -94 -66.5 -160.5t-162.5 -66.5q-51 0 -95.5 16t-81 51t-57 58.5t-53.5 66.5q-12 -84 -75.5 -138t-149.5 -54q-111 0 -220.5 104t-109.5 225zM168 1552.5 q0 -77.5 54 -132t132 -54.5t133.5 54.5t55.5 132t-55.5 133t-133.5 55.5t-132 -55.5t-54 -133zM680 1552.5q0 -77.5 54 -132t132 -54.5t133.5 54.5t55.5 132t-55.5 133t-133.5 55.5t-132 -55.5t-54 -133z" />
<glyph unicode="&#x2c6;" horiz-adv-x="917" d="M-20 1331l258 352q61 80 170 80q86 0 148 -50t122 -132q176 -242 260 -352q-23 -72 -75 -109t-113 -37q-86 0 -146 56l-98 96l-90 -96q-51 -55 -146 -56q-92 0 -173.5 73t-116.5 175zM25 1323q16 -55 68 -79.5t105.5 -15.5t84.5 42l125 135l124 -135q31 -33 84.5 -42 t105.5 15.5t69 79.5l-248 336q-47 63 -136.5 63t-136.5 -63z" />
<glyph unicode="&#x2dc;" horiz-adv-x="1255" d="M-18 1657h352l100 -101q41 12 96.5 44t118 53.5t148.5 21.5q215 0 351 -172t126 -397h-352l-101 100q-27 -6 -83 -38.5t-126.5 -56.5t-152.5 -24q-219 0 -353 169.5t-124 400.5zM23 1616q0 -168 79.5 -276.5t253.5 -108.5q115 0 233 62.5t175 62.5q43 0 69.5 -32 t26.5 -75h270q0 168 -79.5 276.5t-253.5 108.5q-115 0 -233 -62.5t-175 -62.5q-43 0 -69.5 32t-26.5 75h-270z" />
<glyph unicode="&#x2000;" horiz-adv-x="962" />
<glyph unicode="&#x2001;" horiz-adv-x="1925" />
<glyph unicode="&#x2002;" horiz-adv-x="962" />
<glyph unicode="&#x2003;" horiz-adv-x="1925" />
<glyph unicode="&#x2004;" horiz-adv-x="641" />
<glyph unicode="&#x2005;" horiz-adv-x="481" />
<glyph unicode="&#x2006;" horiz-adv-x="319" />
<glyph unicode="&#x2007;" horiz-adv-x="319" />
<glyph unicode="&#x2008;" horiz-adv-x="239" />
<glyph unicode="&#x2009;" horiz-adv-x="385" />
<glyph unicode="&#x200a;" horiz-adv-x="106" />
<glyph unicode="&#x2010;" horiz-adv-x="894" d="M-20 346v324h833l102 -103v-323h-833zM20 387h752v242h-752v-242z" />
<glyph unicode="&#x2011;" horiz-adv-x="894" d="M-20 346v324h833l102 -103v-323h-833zM20 387h752v242h-752v-242z" />
<glyph unicode="&#x2012;" horiz-adv-x="894" d="M-20 346v324h833l102 -103v-323h-833zM20 387h752v242h-752v-242z" />
<glyph unicode="&#x2013;" horiz-adv-x="1052" d="M-20 346v324h991l102 -103v-323h-991zM20 387h910v242h-910v-242z" />
<glyph unicode="&#x2014;" horiz-adv-x="1558" d="M-20 346v324h1497l102 -103v-323h-1497zM20 387h1416v242h-1416v-242z" />
<glyph unicode="&#x2018;" horiz-adv-x="481" d="M-20 1251q0 84 38.5 156t94 114t111 72.5t93.5 40.5l39 13l103 -103l43 -145q-8 0 -21.5 -1t-41 -22.5t-42.5 -60.5q102 -47 103 -170q0 -90 -58.5 -148.5t-144.5 -58.5q-131 0 -224 94t-93 219zM20 1251q0 -78 50.5 -124t124.5 -46q68 0 114.5 47.5t46.5 118.5 q0 61 -36.5 99t-86.5 47q29 82 138 118l4 2l-41 86q-12 -4 -33.5 -10t-76 -34.5t-95.5 -64.5t-75 -99.5t-34 -139.5z" />
<glyph unicode="&#x2019;" horiz-adv-x="514" d="M-20 1200q88 6 129 70q-94 45 -95 166q0 90 58.5 148t144.5 58q121 0 219.5 -94t98.5 -219q0 -84 -39 -155.5t-94.5 -113.5t-110.5 -73t-94 -41l-39 -12l-103 102zM37 1169l41 -86q12 4 33.5 10.5t76 35t95.5 64.5t74.5 99.5t33.5 139.5q0 78 -50 124t-124 46 q-70 0 -116 -47.5t-46 -118.5q0 -61 37 -99.5t86 -46.5q-29 -82 -137 -119z" />
<glyph unicode="&#x201a;" horiz-adv-x="487" d="M-20 -156q106 25 147 90q-119 51 -119 177q0 90 59.5 149t145.5 59q113 0 204 -92t91 -200q0 -231 -262 -363q-66 -33 -121 -47l-78 78zM20 -176l43 -92q14 4 37 11t80.5 38t102.5 68.5t80.5 106.5t35.5 148q0 84 -53 134.5t-133 50.5q-74 0 -124 -50.5t-50 -127.5 q0 -63 40 -105.5t91 -50.5q-14 -43 -52 -76t-69 -43z" />
<glyph unicode="&#x201c;" horiz-adv-x="866" d="M-20 1251q0 84 38.5 156t94 114t111 72.5t93.5 40.5l39 13l103 -103l14 -47q49 49 115.5 86t109.5 51l43 13l103 -103l43 -145q-8 0 -21.5 -1t-41 -22.5t-42.5 -60.5q102 -47 103 -170q0 -90 -58.5 -148.5t-144.5 -58.5q-127 0 -217 86q-59 -86 -168 -86q-131 0 -224 94 t-93 219zM20 1251q0 -78 50.5 -124t124.5 -46q68 0 114.5 47.5t46.5 118.5q0 61 -36.5 99t-86.5 47q29 82 138 118l4 2l-41 86q-12 -4 -33.5 -10t-76 -34.5t-95.5 -64.5t-75 -99.5t-34 -139.5zM406 1251q0 -78 50 -124t124 -46q68 0 114.5 47.5t46.5 118.5q0 61 -36.5 99 t-86.5 47q29 82 138 118l4 2l-41 86q-12 -4 -33.5 -10t-76 -34.5t-95.5 -64.5t-74.5 -99.5t-33.5 -139.5z" />
<glyph unicode="&#x201d;" horiz-adv-x="923" d="M-20 1200q88 6 129 70q-94 45 -95 166q0 90 58.5 148t144.5 58q133 0 229 -106q57 106 181 106q121 0 219 -94t98 -219q0 -84 -39 -155.5t-94 -113.5t-110.5 -73t-94.5 -41l-39 -12l-102 102l-27 58q-111 -113 -280 -160l-103 102zM37 1169l41 -86q12 4 33.5 10.5t76 35 t95.5 64.5t74.5 99.5t33.5 139.5q0 78 -50 124t-124 46q-70 0 -116 -47.5t-46 -118.5q0 -61 37 -99.5t86 -46.5q-29 -82 -137 -119zM446 1169l41 -86q12 4 34 10.5t76 35t95 64.5t75 99.5t34 139.5q0 78 -50.5 124t-123.5 46q-70 0 -116 -47.5t-46 -118.5q0 -61 37 -99.5 t86 -46.5q-29 -82 -137 -119z" />
<glyph unicode="&#x201e;" horiz-adv-x="886" d="M-20 -156q106 25 147 90q-119 51 -119 177q0 90 59.5 149t145.5 59q123 0 217 -108q55 109 182 108q113 0 204 -92t91 -200q0 -231 -262 -363q-66 -33 -121 -47l-80 78l-38 86q-106 -115 -277 -162l-4 -2l-80 78zM18 -176l45 -92q14 4 37 11t80.5 38t101.5 68.5 t79.5 106.5t35.5 148q0 86 -52 135.5t-132 49.5q-74 0 -124 -50.5t-50 -127.5q0 -63 40 -105.5t91 -50.5q-14 -43 -52 -76t-69 -43zM418 -176l45 -92q14 4 36.5 11t80 38t101.5 68.5t80 106.5t36 148q0 86 -52.5 135.5t-132.5 49.5q-74 0 -124 -50.5t-50 -127.5 q0 -63 40 -105.5t91 -50.5q-14 -43 -52 -76t-68 -43z" />
<glyph unicode="&#x2022;" horiz-adv-x="964" d="M-20 551q0 176 121.5 301t293.5 125q150 0 289 -94.5t220 -230.5t81 -265q0 -178 -124 -301t-302 -123q-219 0 -399 190.5t-180 397.5zM45 551q0 -152 102.5 -255t247.5 -103q152 0 256.5 103t104.5 255q0 147 -105.5 253.5t-255.5 106.5q-143 0 -246.5 -106.5 t-103.5 -253.5z" />
<glyph unicode="&#x2026;" horiz-adv-x="1619" d="M-20 201q0 109 76.5 187.5t183.5 78.5q158 0 282 -154q31 70 94.5 112t141.5 42q156 0 278 -152q33 68 96.5 110t139.5 42q141 0 254.5 -122t113.5 -247q0 -111 -77.5 -187.5t-188.5 -76.5q-156 0 -274 148q-33 -68 -97.5 -108t-142.5 -40q-158 0 -278 150 q-33 -68 -97.5 -109t-142.5 -41q-137 0 -249.5 119t-112.5 248zM20 201q0 -94 63.5 -159t156.5 -65q94 0 159.5 64.5t65.5 159.5q0 92 -65.5 158.5t-159.5 66.5q-90 0 -155 -66.5t-65 -158.5zM539 201q0 -94 63.5 -159t155.5 -65q94 0 159.5 64.5t65.5 159.5 q0 92 -65.5 158.5t-159.5 66.5q-90 0 -154.5 -66.5t-64.5 -158.5zM1053 201q0 -94 63.5 -159t155.5 -65q94 0 159.5 64.5t65.5 159.5q0 92 -65.5 158.5t-159.5 66.5q-90 0 -154.5 -66.5t-64.5 -158.5z" />
<glyph unicode="&#x202f;" horiz-adv-x="385" />
<glyph unicode="&#x2039;" horiz-adv-x="632" d="M-20 362v338l571 369l102 -102v-392l-198 -129l96 -61l102 -102v-392l-571 369zM20 385l490 -315v292l-262 168l262 170v293l-490 -315v-293z" />
<glyph unicode="&#x203a;" horiz-adv-x="632" d="M-20 -4v391l196 129l-94 62l-102 102v391l571 -369l102 -102v-338l-571 -368zM20 72l490 315v293l-490 315v-293l263 -167l-263 -170v-293z" />
<glyph unicode="&#x205f;" horiz-adv-x="481" />
<glyph unicode="&#x20ac;" horiz-adv-x="1396" d="M-20 446v390h131q39 279 201.5 412.5t410.5 133.5q117 0 220.5 -17t168 -42t113.5 -49.5t69 -40.5l21 -19l102 -102v-330h-391l49 -49v-313h240l102 -103v-329q-8 -6 -22.5 -17.5t-67.5 -41t-114.5 -51t-166 -40t-221.5 -18.5q-268 0 -444 140t-244 384h-55zM20 487h132 q70 -524 571 -524q176 0 314.5 37t187.5 74l49 35v270h-340q-6 -14 -16.5 -33.5t-50.5 -53.5t-89 -34q-78 0 -123 52t-61 177h338v127h-346v54h346v127h-340q29 252 186 252q31 0 57.5 -12.5t44 -30t31 -36t19.5 -30.5l4 -12h340v270q-6 6 -18.5 15.5t-60.5 35t-106.5 45 t-156.5 34.5t-209 15q-240 0 -393.5 -134t-182.5 -412h-127v-127h121v-54h-121v-127zM745 344q2 -16 11 -45h22q45 0 82 45h-115zM776 836h178l-49 49l-8 16q-10 2 -16 2q-66 1 -105 -67z" />
<glyph unicode="&#x2122;" horiz-adv-x="1869" d="M-20 1278v324h1220l70 -60v60h518l102 -103v-252h-57v-190l55 -49v-252h-411l-23 20l-12 -33h-207l-37 99v-86h-412l-102 102v252h55v66h-129v-115l56 -53v-252h-414l-102 102v252h55v66h-123zM20 1319h170v72h56v-322h-56v-170h332v170h-55v322h55v-72h170v242h-672 v-242zM725 899h330v170h-56v254l162 -436h150l159 436v-254h-55v-170h330v170h-55v322h57v170h-436v-170h35l-111 -301l-111 301h35v170h-434v-170h55v-322h-55v-170z" />
<glyph unicode="&#xe000;" horiz-adv-x="1125" d="M0 1125h1125v-1125h-1125v1125z" />
<glyph unicode="&#xfb01;" horiz-adv-x="1544" d="M-20 -41v420h110v225h-8l-102 103v419h108v76q0 231 153.5 366.5t491.5 135.5q174 0 324.5 -41t260 -146.5t109.5 -261.5q0 -86 -45 -155l72 -76v-645h8l103 -103v-419h-1483zM20 0h695v338h-148v410h307v-410h-110v-338h657v338h-110v747h-744v158q0 63 44 96t102.5 31 t113.5 -12q-8 -100 57.5 -167t174.5 -67q96 0 160.5 68t64.5 166q0 92 -54 155.5t-144.5 94t-175.5 43t-177 12.5q-315 0 -459.5 -124t-144.5 -337v-117h-109v-337h111v-410h-111v-338zM711 379h123v225h-123v-225zM711 1126h188q-59 37 -90 99q-98 -8 -98 -84v-15z" />
<glyph unicode="&#xfb02;" horiz-adv-x="1544" d="M-20 -41v420h110v225h-8l-102 103v419h108v60q0 215 152.5 337t412.5 122q289 0 682 -140l17 -6l102 -102v-1018h8l103 -103v-419h-1483zM20 0h695v338h-148v410h148v337h-150q2 33 2 103q0 66 35 98.5t86 32.5t99.5 -11.5t86.5 -29.5v-940h-110v-338h657v338h-110v1132 q-39 14 -106.5 37t-242 60t-309.5 37q-242 0 -383 -111t-141 -307v-101h-109v-337h111v-410h-111v-338zM711 379h123v225h-123v-225zM717 1126h39l78 -102v150q-10 2 -27 2q-72 -1 -90 -50z" />
<glyph unicode="&#xfb03;" horiz-adv-x="3258" d="M2438 -41v420h110v225h-8l-102 103v419h221q-147 117 -148 273q0 123 86 211t207 88q147 0 274.5 -130t127.5 -272q0 -121 -93 -217l56 -55v-645h8l102 -103v-419h-739zM2478 0h658v338h-111v747h-547v-337h111v-410h-111v-338zM2552 1399q0 -109 74 -182.5t178 -73.5 q109 0 183.5 73.5t74.5 182.5q0 106 -75.5 182t-182.5 76q-104 0 -178 -76t-74 -182zM1209 -41v420h110v225h-8l-102 103v419h108v60q0 215 152.5 337t412.5 122q90 0 173 -17.5t139.5 -42t99.5 -50.5t61 -44l21 -16l102 -103v-278h-403q-20 74 -66 73q-51 0 -63 -41h39 l102 -102v-420h-147v-225h45l102 -103v-419h-776zM1249 0h695v338h-148v410h148v337h-150q2 33 2 103q0 123 111 123q33 0 57.5 -18.5t30.5 -37.5l8 -18h332v221q-6 6 -18.5 15.5t-54.5 35t-90 45t-127 35t-163 15.5q-242 0 -383 -111t-141 -307v-101h-109v-337h111v-410 h-111v-338zM-20 -41v420h110v225h-8l-102 103v419h108v60q0 215 152.5 337t412.5 122q90 0 173 -17.5t139.5 -42t99.5 -50.5t61 -44l21 -16l102 -103v-278h-403q-20 74 -66 73q-51 0 -63 -41h39l102 -102v-420h-147v-225h45l102 -103v-419h-776zM20 0h695v338h-148v410h148 v337h-150q2 33 2 103q0 123 111 123q33 0 57.5 -18.5t30.5 -37.5l8 -18h332v221q-6 6 -18.5 15.5t-54.5 35t-90 45t-127 35t-163 15.5q-242 0 -383 -111t-141 -307v-101h-109v-337h111v-410h-111v-338z" />
<glyph unicode="&#xfb04;" horiz-adv-x="3258" d="M2438 -41v420h110v704h-8l-102 103v420h628l103 -103v-1124h8l102 -103v-419h-739zM2478 0h658v338h-111v1227h-547v-338h111v-889h-111v-338zM1209 -41v420h110v225h-8l-102 103v419h108v60q0 215 152.5 337t412.5 122q90 0 173 -17.5t139.5 -42t99.5 -50.5t61 -44 l21 -16l102 -103v-278h-403q-20 74 -66 73q-51 0 -63 -41h39l102 -102v-420h-147v-225h45l102 -103v-419h-776zM1249 0h695v338h-148v410h148v337h-150q2 33 2 103q0 123 111 123q33 0 57.5 -18.5t30.5 -37.5l8 -18h332v221q-6 6 -18.5 15.5t-54.5 35t-90 45t-127 35 t-163 15.5q-242 0 -383 -111t-141 -307v-101h-109v-337h111v-410h-111v-338zM-20 -41v420h110v225h-8l-102 103v419h108v60q0 215 152.5 337t412.5 122q90 0 173 -17.5t139.5 -42t99.5 -50.5t61 -44l21 -16l102 -103v-278h-403q-20 74 -66 73q-51 0 -63 -41h39l102 -102 v-420h-147v-225h45l102 -103v-419h-776zM20 0h695v338h-148v410h148v337h-150q2 33 2 103q0 123 111 123q33 0 57.5 -18.5t30.5 -37.5l8 -18h332v221q-6 6 -18.5 15.5t-54.5 35t-90 45t-127 35t-163 15.5q-242 0 -383 -111t-141 -307v-101h-109v-337h111v-410h-111v-338z " />
</font>
</defs>
</svg>
