<?xml version="1.0" encoding="utf-8"?>
<!-- Generator: Adobe Illustrator 17.0.0, SVG Export Plug-In . SVG Version: 6.00 Build 0)  -->
<!DOCTYPE svg PUBLIC "-//W3C//DTD SVG 1.0//EN" "http://www.w3.org/TR/2001/REC-SVG-20010904/DTD/svg10.dtd">
<svg version="1.0" id="Layer_1" xmlns="http://www.w3.org/2000/svg" xmlns:xlink="http://www.w3.org/1999/xlink" x="0px" y="0px"
	 width="20px" height="20px" viewBox="0 0 20 20" enable-background="new 0 0 20 20" xml:space="preserve">
<g>
	<path fill="#FFFFFF" d="M14.031,5.627c0.802,0.616,1.414,1.361,1.837,2.234c0.423,0.874,0.634,1.798,0.634,2.771
		c0,0.888-0.168,1.715-0.505,2.481c-0.337,0.767-0.791,1.437-1.364,2.009c-0.573,0.573-1.25,1.024-2.03,1.354
		c-0.78,0.33-1.608,0.494-2.481,0.494c-0.888,0-1.715-0.164-2.481-0.494c-0.767-0.329-1.436-0.78-2.009-1.354
		c-0.573-0.572-1.024-1.242-1.354-2.009c-0.33-0.766-0.494-1.593-0.494-2.481c0-0.974,0.204-1.897,0.612-2.771
		c0.408-0.874,1.013-1.618,1.815-2.234c0.157-0.143,0.34-0.197,0.548-0.161c0.208,0.036,0.376,0.133,0.505,0.29
		c0.114,0.172,0.161,0.358,0.14,0.559C7.382,6.516,7.292,6.68,7.135,6.809C6.533,7.268,6.075,7.826,5.76,8.485
		C5.444,9.144,5.287,9.86,5.287,10.633c0,0.673,0.125,1.303,0.376,1.89c0.25,0.588,0.594,1.1,1.031,1.536
		c0.437,0.438,0.949,0.781,1.536,1.031c0.587,0.251,1.217,0.376,1.891,0.376c0.673,0,1.307-0.125,1.901-0.376
		c0.594-0.25,1.11-0.594,1.547-1.031c0.437-0.437,0.784-0.948,1.042-1.536c0.258-0.587,0.387-1.217,0.387-1.89
		c0-0.773-0.161-1.489-0.483-2.148c-0.322-0.659-0.777-1.217-1.364-1.676c-0.172-0.129-0.269-0.297-0.29-0.505
		c-0.021-0.208,0.032-0.39,0.161-0.548c0.129-0.186,0.297-0.29,0.505-0.312S13.902,5.484,14.031,5.627z M9.154,5.133
		c0-0.243,0.093-0.465,0.279-0.666c0.186-0.2,0.415-0.301,0.688-0.301c0.272,0,0.508,0.101,0.709,0.301
		c0.2,0.201,0.301,0.423,0.301,0.666v5.006c0,0.244-0.101,0.469-0.301,0.677c-0.201,0.208-0.437,0.311-0.709,0.311
		c-0.272,0-0.501-0.104-0.688-0.311c-0.187-0.208-0.279-0.433-0.279-0.677V5.133z"/>
</g>
<g>
</g>
<g>
</g>
<g>
</g>
<g>
</g>
<g>
</g>
<g>
</g>
<g>
</g>
<g>
</g>
<g>
</g>
<g>
</g>
<g>
</g>
<g>
</g>
<g>
</g>
<g>
</g>
<g>
</g>
</svg>
