<?xml version="1.0" encoding="utf-8"?>
<!-- Generator: Adobe Illustrator 17.0.0, SVG Export Plug-In . SVG Version: 6.00 Build 0)  -->
<!DOCTYPE svg PUBLIC "-//W3C//DTD SVG 1.1//EN" "http://www.w3.org/Graphics/SVG/1.1/DTD/svg11.dtd">
<svg version="1.1" id="Layer_1" xmlns="http://www.w3.org/2000/svg" xmlns:xlink="http://www.w3.org/1999/xlink" x="0px" y="0px"
	 width="24px" height="24px" viewBox="0 0 24 24" enable-background="new 0 0 24 24" xml:space="preserve">
<g>
	<g>
		<path fill="#FFFFFF" d="M23.244,17.009H0.75c-0.413,0-0.75,0.36-0.75,0.801v3.421C0,21.654,0.337,22,0.75,22h22.494
			c0.414,0,0.75-0.346,0.75-0.77v-3.42C23.994,17.369,23.658,17.009,23.244,17.009z M23.244,9.009H0.75C0.337,9.009,0,9.369,0,9.81
			v3.421C0,13.655,0.337,14,0.75,14h22.494c0.414,0,0.75-0.345,0.75-0.769V9.81C23.994,9.369,23.658,9.009,23.244,9.009z
			 M23.244,1.009H0.75C0.337,1.009,0,1.369,0,1.81v3.42c0,0.423,0.337,0.769,0.75,0.769h22.494c0.414,0,0.75-0.346,0.75-0.769V1.81
			C23.994,1.369,23.658,1.009,23.244,1.009z"/>
	</g>
</g>
</svg>
