<!-- Created with Inkscape (http://www.inkscape.org/) -->
<svg xmlns:rdf="http://www.w3.org/1999/02/22-rdf-syntax-ns#" xmlns="http://www.w3.org/2000/svg" height="500" width="500" version="1.1" xmlns:cc="http://creativecommons.org/ns#" xmlns:xlink="http://www.w3.org/1999/xlink" xmlns:dc="http://purl.org/dc/elements/1.1/">
<defs>
<linearGradient id="linearGradient3810" y2="802.4" gradientUnits="userSpaceOnUse" x2="500" y1="802.4">
<stop stop-color="#42698f" offset="0"/>
<stop stop-color="#3b7bb9" stop-opacity="0.94017094" offset="0.5"/>
<stop stop-color="#42698f" offset="1"/>
</linearGradient>
<filter id="filter3777">
<feGaussianBlur stdDeviation="3"/>
</filter>
<filter id="filter3781">
<feGaussianBlur stdDeviation="3"/>
</filter>
<filter id="filter3785">
<feGaussianBlur stdDeviation="3"/>
</filter>
<filter id="filter3789">
<feGaussianBlur stdDeviation="3"/>
</filter>
<filter id="filter3797" height="1.528" width="1.528" y="-0.264" x="-0.264">
<feGaussianBlur stdDeviation="11"/>
</filter>
<filter id="filter3801" height="1.528" width="1.528" y="-0.264" x="-0.264">
<feGaussianBlur stdDeviation="11"/>
</filter>
<filter id="filter3805" height="1.528" width="1.528" y="-0.264" x="-0.264">
<feGaussianBlur stdDeviation="11"/>
</filter>
<filter id="filter3809" height="1.528" width="1.528" y="-0.264" x="-0.264">
<feGaussianBlur stdDeviation="11"/>
</filter>
<filter id="filter3813" height="1.528" width="1.528" y="-0.264" x="-0.264">
<feGaussianBlur stdDeviation="11"/>
</filter>
<filter id="filter3817" height="1.36" width="1.36" y="-0.18" x="-0.18">
<feGaussianBlur stdDeviation="7.5"/>
</filter>
<filter id="filter3821" height="1.36" width="1.36" y="-0.18" x="-0.18">
<feGaussianBlur stdDeviation="7.5"/>
</filter>
<filter id="filter3833" height="1.36" width="1.36" y="-0.18" x="-0.18">
<feGaussianBlur stdDeviation="7.5"/>
</filter>
</defs>
<metadata>
<rdf:RDF>
<cc:Work rdf:about="">
<dc:format>image/svg+xml</dc:format>
<dc:type rdf:resource="http://purl.org/dc/dcmitype/StillImage"/>
<dc:title/>
</cc:Work>
</rdf:RDF>
</metadata>
<g fill-rule="nonzero" transform="translate(0,-552.36218)">
<rect height="500" width="500" y="552.4" x="0" fill="url(#linearGradient3810)"/>
<rect fill-opacity="0.2044" rx="10" height="100" filter="url(#filter3781)" width="100" y="617.4" x="144" fill="#f3f8e4"/>
<rect fill-opacity="0.3511" rx="10" height="100" filter="url(#filter3821)" width="100" y="617.4" x="230" fill="#bde2ed"/>
<rect fill-opacity="0.2133" rx="10" height="100" filter="url(#filter3785)" width="100" y="722.4" x="264" fill="#f4f8e6"/>
<rect fill-opacity="0.3511" rx="10" height="100" filter="url(#filter3817)" width="100" y="722.4" x="330" fill="#bfe3ee"/>
<rect fill-opacity="0.36" rx="10" height="100" filter="url(#filter3833)" width="100" y="832.4" x="235" fill="#bfe3ee"/>
<rect fill-opacity="0.2133" rx="10" height="100" filter="url(#filter3777)" width="100" y="617.4" x="-10" fill="#f3f8e4"/>
<rect fill-opacity="0.4471" rx="10" height="100" filter="url(#filter3797)" width="100" y="787.4" x="80" fill="#a4c6e6"/>
<rect fill-opacity="0.4471" rx="10" height="100" filter="url(#filter3809)" width="100" y="882.4" x="415" fill="#a4c6e6"/>
<rect fill-opacity="0.4471" rx="10" height="100" filter="url(#filter3813)" width="100" y="532.4" x="360" fill="#a4c6e6"/>
<rect fill-opacity="0.4471" rx="10" height="100" filter="url(#filter3801)" width="100" y="882.4" x="-70" fill="#a4c6e6"/>
<rect fill-opacity="0.2039" rx="10" height="100" filter="url(#filter3789)" width="100" y="617.4" x="485" fill="#f3f8e4"/>
<rect fill-opacity="0.4471" rx="10" height="100" filter="url(#filter3805)" width="100" y="1022" x="360" fill="#a4c6e6"/>
<rect fill-opacity="0.2044" rx="10" height="100" filter="url(#filter3781)" width="100" y="482.4" x="50" fill="#f3f8e4"/>
<rect fill-opacity="0.3511" rx="10" height="100" filter="url(#filter3821)" width="100" y="482.4" x="130" fill="#bde2ed"/>
<rect fill-opacity="0.2044" rx="10" height="100" filter="url(#filter3781)" width="100" y="980.4" x="50" fill="#f3f8e4"/>
<rect fill-opacity="0.3511" rx="10" height="100" filter="url(#filter3821)" width="100" y="980.4" x="130" fill="#bde2ed"/>
</g>
</svg>
