<?xml version="1.0" encoding="UTF-8" standalone="no"?>
<!-- Created with Inkscape (http://www.inkscape.org/) -->

<svg
   xmlns:dc="http://purl.org/dc/elements/1.1/"
   xmlns:cc="http://creativecommons.org/ns#"
   xmlns:rdf="http://www.w3.org/1999/02/22-rdf-syntax-ns#"
   xmlns:svg="http://www.w3.org/2000/svg"
   xmlns="http://www.w3.org/2000/svg"
   xmlns:xlink="http://www.w3.org/1999/xlink"
   xmlns:sodipodi="http://sodipodi.sourceforge.net/DTD/sodipodi-0.dtd"
   xmlns:inkscape="http://www.inkscape.org/namespaces/inkscape"
   width="32"
   height="32"
   id="svg2"
   version="1.1"
   inkscape:version="0.47 r22583"
   sodipodi:docname="moon.svg"
   inkscape:export-filename="/home/ameen/Desktop/moon.png"
   inkscape:export-xdpi="23040"
   inkscape:export-ydpi="23040">
  <defs
     id="defs4">
    <linearGradient
       id="linearGradient3635">
      <stop
         style="stop-color:#ffffff;stop-opacity:1;"
         offset="0"
         id="stop3637" />
      <stop
         id="stop3647"
         offset="0.25"
         style="stop-color:#ffffff;stop-opacity:0.87450981;" />
      <stop
         id="stop3643"
         offset="0.5"
         style="stop-color:#ffffff;stop-opacity:0.49803922;" />
      <stop
         style="stop-color:#ffffff;stop-opacity:0.87450981;"
         offset="0.75"
         id="stop3645" />
      <stop
         style="stop-color:#ffffff;stop-opacity:1;"
         offset="1"
         id="stop3639" />
    </linearGradient>
    <inkscape:perspective
       sodipodi:type="inkscape:persp3d"
       inkscape:vp_x="0 : 526.18109 : 1"
       inkscape:vp_y="0 : 1000 : 0"
       inkscape:vp_z="744.09448 : 526.18109 : 1"
       inkscape:persp3d-origin="372.04724 : 350.78739 : 1"
       id="perspective10" />
    <inkscape:perspective
       id="perspective3003"
       inkscape:persp3d-origin="0.5 : 0.33333333 : 1"
       inkscape:vp_z="1 : 0.5 : 1"
       inkscape:vp_y="0 : 1000 : 0"
       inkscape:vp_x="0 : 0.5 : 1"
       sodipodi:type="inkscape:persp3d" />
    <clipPath
       clipPathUnits="userSpaceOnUse"
       id="clipPath20">
      <path
         d="M 0,3401.57 0,0 l 4535.43,0 0,3401.57 -4535.43,0 z"
         id="path22" />
    </clipPath>
    <radialGradient
       fx="0"
       fy="0"
       cx="0"
       cy="0"
       r="1"
       gradientUnits="userSpaceOnUse"
       gradientTransform="matrix(132.24,0,0,-132.24,97.793,224.71)"
       spreadMethod="pad"
       id="radialGradient38">
      <stop
         style="stop-color:#bfbfbf;stop-opacity:1;"
         offset="0"
         id="stop40" />
      <stop
         id="stop3609"
         offset="0.5"
         style="stop-color:#bfbfbf;stop-opacity:1;" />
      <stop
         style="stop-color:#afafaf;stop-opacity:1;"
         offset="1"
         id="stop42" />
    </radialGradient>
    <radialGradient
       inkscape:collect="always"
       xlink:href="#radialGradient38"
       id="radialGradient3607"
       cx="1196.1395"
       cy="2112.8201"
       fx="1196.1395"
       fy="2112.8201"
       r="839.28052"
       gradientTransform="translate(0,0.00125871)"
       gradientUnits="userSpaceOnUse" />
    <linearGradient
       inkscape:collect="always"
       xlink:href="#linearGradient3635"
       id="linearGradient3641"
       x1="356.85892"
       y1="2952.1021"
       x2="2035.4198"
       y2="1273.5315"
       gradientUnits="userSpaceOnUse" />
    <linearGradient
       inkscape:collect="always"
       xlink:href="#linearGradient3635"
       id="linearGradient2842"
       gradientUnits="userSpaceOnUse"
       x1="356.85892"
       y1="2952.1021"
       x2="2035.4198"
       y2="1273.5315" />
    <linearGradient
       inkscape:collect="always"
       xlink:href="#linearGradient3635"
       id="linearGradient2844"
       gradientUnits="userSpaceOnUse"
       x1="356.85892"
       y1="2952.1021"
       x2="2035.4198"
       y2="1273.5315" />
    <linearGradient
       inkscape:collect="always"
       xlink:href="#linearGradient3635"
       id="linearGradient2846"
       gradientUnits="userSpaceOnUse"
       x1="356.85892"
       y1="2952.1021"
       x2="2035.4198"
       y2="1273.5315" />
    <linearGradient
       inkscape:collect="always"
       xlink:href="#linearGradient3635"
       id="linearGradient2848"
       gradientUnits="userSpaceOnUse"
       x1="356.85892"
       y1="2952.1021"
       x2="2035.4198"
       y2="1273.5315" />
    <linearGradient
       inkscape:collect="always"
       xlink:href="#linearGradient3635"
       id="linearGradient2850"
       gradientUnits="userSpaceOnUse"
       x1="356.85892"
       y1="2952.1021"
       x2="2035.4198"
       y2="1273.5315" />
    <linearGradient
       inkscape:collect="always"
       xlink:href="#linearGradient3635"
       id="linearGradient2852"
       gradientUnits="userSpaceOnUse"
       x1="356.85892"
       y1="2952.1021"
       x2="2035.4198"
       y2="1273.5315" />
    <linearGradient
       inkscape:collect="always"
       xlink:href="#linearGradient3635"
       id="linearGradient2854"
       gradientUnits="userSpaceOnUse"
       x1="356.85892"
       y1="2952.1021"
       x2="2035.4198"
       y2="1273.5315" />
    <linearGradient
       inkscape:collect="always"
       xlink:href="#linearGradient3635"
       id="linearGradient2856"
       gradientUnits="userSpaceOnUse"
       x1="356.85892"
       y1="2952.1021"
       x2="2035.4198"
       y2="1273.5315" />
    <linearGradient
       inkscape:collect="always"
       xlink:href="#linearGradient3635"
       id="linearGradient2858"
       gradientUnits="userSpaceOnUse"
       x1="356.85892"
       y1="2952.1021"
       x2="2035.4198"
       y2="1273.5315" />
    <linearGradient
       inkscape:collect="always"
       xlink:href="#linearGradient3635"
       id="linearGradient2860"
       gradientUnits="userSpaceOnUse"
       x1="356.85892"
       y1="2952.1021"
       x2="2035.4198"
       y2="1273.5315" />
  </defs>
  <sodipodi:namedview
     id="base"
     pagecolor="#ffffff"
     bordercolor="#666666"
     borderopacity="1.0"
     inkscape:pageopacity="0.0"
     inkscape:pageshadow="2"
     inkscape:zoom="22.627417"
     inkscape:cx="16.620734"
     inkscape:cy="13.888335"
     inkscape:document-units="px"
     inkscape:current-layer="layer1"
     showgrid="false"
     inkscape:window-width="1920"
     inkscape:window-height="1391"
     inkscape:window-x="0"
     inkscape:window-y="25"
     inkscape:window-maximized="1"
     inkscape:snap-page="true"
     inkscape:snap-bbox="true"
     inkscape:bbox-paths="true"
     inkscape:bbox-nodes="true"
     inkscape:snap-bbox-edge-midpoints="true"
     inkscape:snap-bbox-midpoints="true"
     inkscape:object-paths="true"
     inkscape:snap-intersection-paths="true"
     inkscape:object-nodes="true"
     inkscape:snap-smooth-nodes="true"
     inkscape:snap-midpoints="true"
     inkscape:snap-object-midpoints="true"
     inkscape:snap-center="true">
    <inkscape:grid
       type="xygrid"
       id="grid2816"
       empspacing="5"
       visible="true"
       enabled="true"
       snapvisiblegridlinesonly="true" />
  </sodipodi:namedview>
  <metadata
     id="metadata7">
    <rdf:RDF>
      <cc:Work
         rdf:about="">
        <dc:format>image/svg+xml</dc:format>
        <dc:type
           rdf:resource="http://purl.org/dc/dcmitype/StillImage" />
        <dc:title></dc:title>
      </cc:Work>
    </rdf:RDF>
  </metadata>
  <g
     inkscape:label="Layer 1"
     inkscape:groupmode="layer"
     id="layer1"
     transform="translate(0,-1020.3622)">
    <path
       sodipodi:type="arc"
       style="color:#000000;fill:#afafaf;fill-opacity:1;fill-rule:nonzero;stroke:none;stroke-width:3;marker:none;visibility:visible;display:inline;overflow:visible;enable-background:accumulate"
       id="path2866"
       sodipodi:cx="-2.5"
       sodipodi:cy="-1"
       sodipodi:rx="16.5"
       sodipodi:ry="16.5"
       d="m 14,-1 a 16.5,16.5 0 1 1 -33,0 16.5,16.5 0 1 1 33,0 z"
       transform="matrix(0.96969697,0,0,0.96969697,18.424242,1037.3319)" />
    <g
       id="g18"
       clip-path="url(#clipPath20)"
       transform="matrix(0.01787245,0,0,-0.01787233,-5.3779446,1074.1231)">
      <path
         d="m 1196.14,1273.54 c 462.26,0 839.28,377.02 839.28,839.28 0,462.26 -377.02,839.28 -839.28,839.28 -462.257,0 -839.281,-377.02 -839.281,-839.28 0,-462.26 377.024,-839.28 839.281,-839.28"
         style="fill:url(#radialGradient3607);fill-opacity:1;fill-rule:evenodd;stroke:none"
         id="path44" />
      <g
         id="g3623"
         transform="translate(2.743529e-6,0)"
         style="fill:url(#linearGradient3641);fill-opacity:1">
        <path
           id="path46"
           style="fill:url(#linearGradient2842);fill-opacity:1;fill-rule:evenodd;stroke:none"
           d="m 635.348,2734.92 54.984,-3.33 41.656,26.66 61.649,34.99 13.992,9.04 9.891,-5.94 8.902,0.99 1.98,5.94 6.926,12.86 7.914,-1.98 18.793,-5.94 8.903,0 8.906,3.96 20.769,22.76 10.887,-3.96 2.969,-9.89 10.883,10.88 9.89,16.82 19.785,2.97 8.903,-8.91 5.937,-18.8 27.695,5.94 12.858,11.87 17.81,9.9 11.87,-5.94 6.93,-2.97 16.82,1.98 18.79,7.91 4.95,-9.89 16.81,-4.95 29.68,1.98 48.48,18.8 16.82,29.68 14.83,3.95 15.83,-4.94 7.92,-1.98 12.86,2.97 15.83,0 7.91,-18.8 20.78,2.97 3.95,16.82 9.89,-0.99 16.83,-13.85 7.91,2.96 13.84,2.97 27.7,-13.85 15.83,-14.83 9.9,-5.94 9.89,1.98 1.98,-16.82 -5.94,-8.91 -26.71,-2.97 -16.82,0 16.82,-14.83 8.91,-30.67 -4.95,-28.69 -10.88,-11.87 -11.87,-1.98 -26.72,3.96 -11.86,11.87 -5.7,10.71 1.45,12.34 10.14,11.6 11.58,1.45 13.04,-3.63 -2.17,11.61 -9.42,14.51 -13.03,-5.8 -8.7,-10.88 -12.31,-1.46 -13.04,2.91 -13.76,4.35 -13.03,5.8 -24.63,1.45 -24.63,-2.17 -13.03,-3.63 -5.08,-8.71 5.8,-11.6 4.34,-7.99 -10.14,-5.8 -18.83,-4.35 -4.34,-7.25 -11.59,1.45 -18.83,8.7 -4.35,6.53 -4.35,0 -7.24,5.08 -1.45,10.16 -4.34,7.25 -9.42,-1.45 0,-9.43 -0.73,-2.9 -4.34,-4.35 -13.04,-0.73 -13.76,0 -10.86,7.25 -14.49,15.96 -6.52,9.44 -22.45,2.9 -20.28,1.45 -18.834,-0.73 -18.11,-5.08 -15.933,-13.05 -9.414,-10.16 -10.867,-8.7 -17.383,-0.73 -18.832,-0.73 -12.317,-11.61 -16.652,-8.7 4.344,10.15 10.136,9.43 6.52,7.99 -12.313,2.17 -9.421,-12.33 -10.137,-8.71 -12.309,-2.18 -21.011,0 -34.039,-1.45 -39.114,-17.41 -16.656,-17.41 -10.148,4.35 -5.067,9.44 -7.242,-6.53 -1.449,-9.44 4.343,-8.7 2.903,-10.89 -18.832,-15.96 -13.762,-11.61 -25.355,-15.23 -10.864,1.45 -14.484,3.63 -25.352,-4.35 -12.312,-23.22 -4.348,-18.87 12.317,6.54 3.617,10.15 9.418,12.34 9.414,0 -3.617,-24.67 7.964,-10.88 -7.964,-10.88 -5.797,-3.63 0.726,-9.43 3.621,-8.71 -10.867,-22.49 -1.441,-16.69 1.441,-14.51 7.246,-7.25 22.453,6.52 20.278,25.4 15.211,0.72 7.969,6.53 5.796,18.87 5.793,10.15 18.11,0 11.59,12.34 -2.176,9.43 -12.313,8.71 3.617,27.57 11.594,18.86 11.586,12.33 11.594,-0.73 13.758,1.45 5.074,9.44 20.277,-1.45 15.934,-7.26 15.937,-9.43 8.692,18.86 7.242,13.06 21.004,15.24 28.25,19.59 15.933,2.18 18.836,-6.54 26.797,-0.72 23.18,0 26.07,5.08 13.767,2.9 16.66,-5.8 22.45,-0.73 17.38,-16.69 15.94,-23.21 16.66,-3.63 23.18,2.9 36.21,4.35 31.87,0.73 -13.04,-29.02 0,-35.55 3.62,-21.04 -1.44,-13.06 -5.07,-1.45 -13.04,-10.16 21,-2.9 3.63,-21.03 5.79,16.68 14.48,-3.63 13.77,-2.9 -3.62,10.88 -1.45,17.41 0,13.79 19.56,17.41 0.72,14.52 0,10.87 47.8,0 34.77,-0.73 25.35,0.73 3.62,-13.06 11.59,-6.53 10.14,9.43 -2.17,5.08 8.69,-2.17 10.86,-2.18 -13.03,10.88 -8.7,6.53 -14.48,2.18 -14.49,0 -1.45,11.61 0,8.7 -7.24,6.53 0,8.71 7.24,8.71 -2.89,6.53 -10.14,5.8 17.38,-0.73 18.83,3.63 16.66,-5.8 34.77,-28.29 -19.56,32.64 18.83,3.63 17.38,-11.61 13.77,-16.69 11.59,-15.96 11.59,5.08 2.17,7.98 2.17,19.59 15.21,-5.08 10.14,6.53 2.18,13.06 12.31,-2.9 0.72,-11.61 4.35,-19.59 6.52,-10.88 19.55,0.72 12.32,-1.45 8.69,-9.43 5.79,-18.86 10.15,-17.41 -21.74,15.95 -9.41,-1.44 -10.86,2.9 -8.69,12.33 -6.52,-2.18 2.89,-16.68 -13.04,-11.61 -10.86,-5.8 -13.76,2.17 -12.31,10.88 -7.24,8.71 -8.7,2.9 -16.66,-17.41 -4.35,-15.96 8.69,-14.51 16.67,-16.69 13.75,-2.9 4.35,-9.43 15.94,-10.88 12.31,-0.73 10.14,-6.53 -2.17,-10.15 -0.73,-4.36 -15.21,-2.9 7.24,-15.24 15.94,-19.58 9.42,-7.26 2.9,-14.51 -1.45,-13.78 -2.9,-6.53 -7.97,-0.73 -7.97,4.35 -6.52,2.18 8.7,-15.97 15.93,-5.07 11.59,5.81 13.04,-18.15 7.97,0 6.51,7.99 10.87,-19.59 15.93,-7.98 15.94,8.71 4.35,21.76 -5.8,18.14 -8.69,8.7 -14.49,15.97 -18.11,13.78 -11.59,12.33 -7.23,16.69 5.07,9.43 10.13,4.35 2.17,-16.68 7.25,-10.88 10.87,-5.81 5.06,5.08 -2.89,16.68 7.96,1.46 8.7,-10.89 2.89,-10.88 10.15,1.45 8.69,-0.72 5.06,-9.43 2.18,-15.96 -12.31,-4.36 14.48,-11.61 18.83,5.08 10.15,3.63 5.79,-7.98 -0.73,-12.34 -7.96,-7.97 -5.07,-14.52 5.79,-7.98 10.14,-2.17 5.8,-29.75 12.31,-9.43 32.59,-3.63 13.77,2.18 2.16,-12.34 16.67,-2.9 -11.59,-10.15 -10.87,-1.45 -16.66,-0.73 1.45,-14.51 14.49,-18.87 13.76,8.71 -5.79,7.26 14.48,-2.91 28.25,1.46 11.59,2.17 10.87,-2.17 11.58,-18.14 34.77,-31.2 28.97,-27.57 15.94,1.45 0,11.61 18.11,2.9 -15.21,17.41 1.45,25.4 15.93,-13.06 15.21,-5.08 0.73,9.43 -2.9,1.45 -12.94,23.79 -26.2,11.63 10.19,14.56 16.01,-8.73 17.46,-4.37 4.37,16.01 -1.46,20.37 11.64,1.46 5.82,-26.19 13.1,-17.47 1.45,-32.01 -10.18,-20.38 1.45,-24.73 4.37,-30.57 -4.37,-8.73 -11.64,11.65 -14.55,37.83 -5.82,-29.1 7.28,-39.29 13.09,-18.92 -18.91,-37.84 -20.38,-27.64 10.19,-55.3 7.27,-23.29 -2.9,-21.82 -13.1,-26.2 5.82,-20.37 24.74,21.83 17.46,1.46 -7.28,-21.83 -27.64,-21.83 -26.2,1.45 -2.91,-20.37 0,-20.37 -13.1,-21.83 -16.01,8.73 -7.27,-11.64 -7.27,-1.46 -17.47,45.11 -7.27,24.74 18.91,2.91 0,16.01 -10.18,17.46 2.91,7.28 17.46,-1.46 -1.46,-13.09 5.83,-14.55 20.37,16 -8.73,16.01 -10.19,5.82 -18.92,7.28 -7.27,8.73 -10.19,-7.28 0,-13.09 -8.73,-17.47 -5.82,24.74 -4.36,11.64 -10.19,0 -10.19,-20.37 -2.91,30.56 1.45,27.64 13.1,4.38 8.74,-17.47 2.91,17.47 -16.02,5.82 -17.46,0 -16,-20.38 -5.82,11.64 -7.28,5.83 7.28,17.46 0,13.09 -16.01,2.91 5.82,14.56 18.92,13.09 -1.46,14.55 -1.45,11.64 -14.55,-8.73 -13.1,-1.45 1.45,14.55 27.65,55.3 1.46,33.47 -13.1,2.91 -17.46,-32.01 -17.46,-37.84 2.91,-23.29 -7.28,10.2 -5.82,24.73 -24.74,0 -14.55,5.82 0,11.64 -13.1,-2.91 -18.92,7.28 0,-20.37 -2.91,-24.74 -5.81,-5.82 -2.92,-14.56 0,-39.29 -11.64,1.46 2.91,-11.64 11.65,-17.46 8.72,-10.19 11.65,-21.83 10.18,-24.74 10.19,14.55 26.19,-2.91 27.65,0 -1.45,-20.37 11.64,-10.18 14.55,0 1.46,-10.19 -34.93,-46.57 43.66,37.84 5.82,-20.37 -2.91,-10.19 -10.19,4.36 -2.91,-13.09 13.1,-5.82 -14.56,-13.1 10.19,-10.19 1.46,-18.91 13.09,-13.1 5.82,-21.83 -8.73,-10.19 -16,-5.82 4.36,16.01 1.46,23.28 -27.65,11.65 -14.55,-16.01 -10.19,-21.83 -8.73,20.38 -7.28,-21.84 -14.55,-17.46 -14.55,-11.64 0,18.92 -14.55,11.64 8.73,26.19 -8.73,17.47 -21.83,-1.46 -10.19,7.28 -8.73,18.91 -13.1,18.92 21.83,0 4.37,23.29 8.73,24.73 20.37,14.56 -14.55,23.28 -14.55,8.73 -37.84,10.19 -33.47,8.73 -21.82,-8.73 -7.28,11.64 0,16.01 26.19,7.27 2.91,10.19 16.01,5.82 -13.1,14.55 -1.45,10.19 -2.91,8.73 -11.64,0 -11.65,7.27 -4.36,-11.64 -24.74,4.37 -21.83,-4.37 -1.46,16.01 -13.09,-2.91 -8.73,23.29 -13.1,16 -13.09,11.64 4.36,10.19 14.55,11.64 -5.82,24.74 -26.19,30.56 -1.46,24.74 -24.74,18.91 10.19,11.65 23.28,8.73 0,18.92 24.74,13.09 0,14.55 -27.65,-4.36 -8.73,-8.73 -21.83,0 -24.73,5.82 -13.1,-18.92 20.37,-4.36 11.64,0 5.82,-11.65 -7.27,-10.19 -23.28,2.91 0,-24.73 -1.46,-14.55 -27.65,-10.19 8.73,-21.83 -10.18,-11.64 18.91,-17.46 -5.81,-20.38 -2.92,-23.28 0,-16.01 -13.1,13.1 -7.27,14.55 -26.2,8.73 -8.73,-13.09 11.64,-14.55 0,-8.74 -16,-2.91 -8.73,-26.19 5.82,-14.55 -23.28,-5.82 -7.28,-17.47 -5.82,-18.91 16.01,-11.64 -26.2,-8.73 -27.65,14.55 -27.64,-8.73 -2.92,-17.47 -7.27,-26.19 -14.55,-8.73 -14.55,10.18 -7.29,17.47 -18.91,-2.92 0,-14.55 -7.28,-11.64 -13.09,5.82 -18.92,14.55 -13.1,-1.45 5.82,-14.55 -13.09,-11.64 -14.56,10.18 -7.27,13.1 -8.73,-5.82 5.81,-24.74 27.66,-8.73 17.46,-23.28 23.28,1.45 -14.55,-14.55 14.55,-18.92 16.01,0 13.1,-14.55 14.55,-24.74 13.1,-32.01 2.91,-29.11 -14.55,-26.19 -7.28,-13.1 2.91,-13.09 13.1,8.73 26.19,0 8.73,-13.1 -14.55,-17.47 7.28,-20.37 16,-4.36 2.91,-10.19 -18.91,-17.46 -4.37,-14.55 -5.82,-24.74 -23.29,-8.73 -11.64,2.91 -29.1,4.36 2.91,-16 14.55,-11.64 -7.28,-17.46 -20.37,0 -10.19,7.27 -21.82,27.65 -18.92,0 -17.46,13.1 24.74,-32.02 -5.82,-13.09 -132.429,139.69 119.329,-145.52 -7.28,-2.91 -24.736,23.29 -139.699,173.16 117.871,-199.35 -11.641,-5.83 -37.836,46.57 -11.644,16.01 -20.371,5.82 -37.832,10.18 -1.457,27.65 -17.465,30.56 -23.282,0 11.641,-11.64 -8.73,-23.28 1.457,-33.47 18.914,-10.19 21.832,-8.73 7.273,-32.01 4.367,-21.84 34.926,-11.64 13.098,-32.01 0,-40.74 -11.645,-17.46 -13.097,-20.38 2.91,-16.01 27.648,10.19 14.555,-1.46 -7.277,-21.83 8.73,-13.09 11.641,-7.28 8.734,-11.64 -14.555,-14.55 -13.093,-14.56 0,-27.65 -8.735,-17.46 -21.828,0 -18.918,16.01 -20.371,53.85 8.73,-58.22 32.852,-45.77 c 93.277,-35.8 194.563,-55.43 300.433,-55.43 463.45,0 839.28,375.84 839.28,839.29 0,463.44 -375.83,839.28 -839.28,839.28 -216.038,0 -413.003,-81.71 -561.765,-215.87 l 0.973,-1.31" />
        <path
           id="path48"
           style="fill:url(#linearGradient2844);fill-opacity:1;fill-rule:evenodd;stroke:none"
           d="m 1341.5,2384.04 -14.77,13.29 -27.03,5.73 -13.24,15.27 -13.23,0 -17.3,-15.27 -4.08,12.22 2.04,20.36 -17.31,7.13 -9.16,-6.11 -7.12,29.52 -9.16,20.36 10.17,-4.08 0,14.25 -11.19,18.33 -13.24,-8.14 -7.12,1.01 -3.06,20.36 -25.45,-9.16 -5.09,-11.2 12.22,-9.16 -6.11,-16.29 -6.11,-14.25 -23.41,-7.12 -30.54,4.07 -23.41,23.41 -13.23,8.14 16.28,12.22 0,12.22 -8.14,11.2 -25.45,3.05 -11.2,-10.18 -1.02,-13.23 2.04,-12.22 -10.18,-9.16 -17.3,-8.15 -9.16,-12.21 3.05,-17.3 27.48,-17.31 22.4,-8.14 31.55,6.11 2.04,-12.22 2.04,-15.27 8.14,-8.14 -17.31,-18.33 -22.39,-28.5 -15.27,-15.27 -12.22,-13.24 -14.25,-2.03 -35.626,-9.16 2.035,-30.54 -12.214,8.14 5.089,18.33 44.796,61.07 -55.991,-54.97 -10.184,-19.34 -20.359,-33.59 -12.215,8.14 40.719,92.64 -25.449,-24.43 -11.196,29.52 -4.074,-51.92 -9.16,-14.25 -2.035,-24.43 -11.195,-10.18 4.07,25.45 7.125,51.92 -2.035,21.37 -12.219,-34.61 -6.109,-16.29 1.019,-33.59 -10.18,-6.11 -3.05,78.39 1.015,24.42 -10.179,30.55 -14.254,15.27 -17.305,-4.08 3.059,-30.53 16.281,-13.24 3.059,15.27 7.124,-25.45 3.055,-48.86 1.016,-26.47 -25.449,31.56 -23.414,15.27 -32.575,11.2 34.614,-22.4 26.468,-24.43 2.035,-19.34 -15.273,-11.2 -5.09,25.45 -14.25,16.29 -25.449,-7.13 -12.215,-15.27 -11.199,-4.07 -32.574,16.29 -17.305,-1.02 -27.488,0 -28.5,3.05 26.469,-12.21 28.5,-5.09 27.484,-6.11 0,-7.13 -34.61,-1.01 -52.933,13.23 48.863,-21.38 29.52,-15.27 10.179,-13.23 -40.718,7.12 -40.719,3.06 44.793,-16.29 41.734,-9.16 6.11,-25.45 -16.289,-11.2 -25.45,-18.32 59.043,11.2 -15.269,-12.22 -36.645,-17.3 37.66,10.18 22.399,4.07 21.375,-6.11 10.176,-28.5 9.168,-50.9 12.214,11.2 1.016,32.57 13.238,3.06 -11.203,-21.38 5.094,-37.67 5.09,-34.61 17.304,5.09 16.29,-1.02 7.121,11.2 -12.211,37.67 -9.164,29.52 -7.125,16.28 16.289,3.06 2.035,-18.32 7.125,22.39 18.324,5.09 4.066,-19.34 8.149,26.47 10.18,5.09 12.214,9.16 14.25,-8.15 19.344,-1.01 15.27,-1.02 35.621,-19.34 37.67,-5.09 0,5.09 -35.63,10.18 -8.14,13.23 -11.2,11.2 -21.38,-1.02 -16.281,11.2 2.035,1.01 17.305,0 32.571,-2.03 11.2,9.16 14.25,7.13 -12.21,6.1 -15.27,-4.07 -13.24,-1.01 1.02,11.19 -10.177,7.13 -2.035,7.13 12.212,3.05 12.22,6.11 4.07,7.12 -18.33,-3.05 -20.355,3.05 -19.34,-5.09 -23.41,-4.07 18.32,11.2 18.324,12.21 20.356,13.24 8.145,13.23 -5.09,23.42 21.38,8.14 22.4,8.14 13.23,-21.38 18.32,-5.09 40.72,0 14.25,-14.25 0,-16.28 -8.14,-3.06 -5.09,-13.23 -8.15,-9.16 -7.12,-8.15 -3.06,7.13 -17.3,9.16 -7.13,-11.2 -2.03,-16.28 28.5,-39.7 23.42,-28.51 17.3,-1.02 7.12,16.29 8.15,8.14 7.12,-14.25 10.18,9.16 20.36,1.02 -13.23,16.29 7.13,19.34 23.41,15.27 5.09,15.27 -18.33,21.38 -18.32,7.12 -20.36,-2.03 -8.14,16.28 -6.11,16.29 15.27,11.2 -29.52,5.09 1.02,20.36 14.25,8.14 9.16,22.4 -7.13,17.3 2.04,21.38 17.31,-26.47 26.46,-5.08 8.15,6.1 -15.27,14.25 -10.18,16.29 24.43,-5.09 6.11,6.11 -8.15,24.43 30.54,-16.29 10.18,0 -1.02,-15.27 1.02,-15.27 11.2,-10.18 4.07,13.24 19.34,-4.08 13.24,-11.19 8.14,13.23 21.38,2.04 15.27,2.03 6.17,0.32" />
        <path
           id="path50"
           style="fill:url(#linearGradient2846);fill-opacity:1;fill-rule:evenodd;stroke:none"
           d="m 912.016,2041.44 -7.879,19.27 1.754,15.77 7.882,14.9 7.883,-15.77 7.887,-17.53 6.133,21.91 0,13.14 11.39,-6.13 7.012,-8.76 4.379,-19.28 -7.012,-17.52 0.879,-17.53 2.625,-9.63 19.281,2.63 12.262,-0.88 4.383,-17.52 -9.637,-5.26 -7.886,-0.88 -5.262,-7.88 7.012,-9.64 7.011,-1.75 21.027,-11.39 -9.64,-9.64 3.508,-21.91 22.782,-10.51 9.63,-26.28 0.88,-21.91 -12.27,-19.27 -9.64,18.4 -20.144,21.9 -22.781,18.4 -15.774,13.14 -21.023,12.27 -17.523,12.27 0,32.41 -6.133,-31.54 1.75,-20.15 -13.141,8.76 -0.879,16.65 6.137,15.77 -14.02,16.65 7.004,0.87 20.153,0 9.64,14.9 2.629,21.02 -12.269,17.53" />
        <path
           id="path52"
           style="fill:url(#linearGradient2848);fill-opacity:1;fill-rule:evenodd;stroke:none"
           d="m 787.605,1546.4 11.387,9.64 -1.746,22.79 -4.387,17.52 -19.273,14.89 -16.645,21.91 -8.761,24.53 -14.02,0.87 -5.258,-15.76 -4.382,5.25 0.875,28.04 14.898,5.26 15.766,-2.63 0,15.77 -7.004,7.01 -8.762,-0.88 -11.391,0 -11.39,21.03 7.008,13.14 -2.625,25.41 1.75,22.78 1.75,17.53 7.886,6.13 -12.265,1.75 -17.524,2.63 -7.008,22.78 -28.918,25.41 3.508,-21.91 -3.508,-13.14 -13.136,-1.75 -13.141,12.27 -7.891,7 -4.378,14.9 -3.508,-14.9 1.754,-13.14 -16.645,7.01 -21.031,14.02 0.879,-17.52 14.898,-8.77 8.758,-8.76 0.875,-19.27 -20.152,2.63 -14.02,12.26 -14.89,18.4 -3.504,17.52 -8.762,-18.4 0.875,-25.41 13.141,-14.89 14.894,-12.26 14.895,-10.52 3.507,-14.02 -20.156,13.14 -19.273,21.91 -22.782,0.87 -16.644,28.04 -15.774,19.28 -4.382,-9.64 -5.254,20.15 -19.278,35.05 -8.757,-11.39 -4.383,45.56 -9.637,20.15 -14.894,9.64 -21.032,7.01 -9.636,45.56 2.632,19.27 14.02,-7.01 9.637,-11.38 -4.383,28.03 -13.141,21.03 -22.785,27.16 -10.512,17.53 0,30.66 24.532,50.82 -21.899,-21.9 -16.652,-24.54 -13.559,-26.76 c 3.274,-199.68 76.313,-382.42 195.801,-524.9 l 0,17.2 -21.902,25.41 -17.524,30.67 3.504,13.14 36.801,9.64 17.519,7.88 3.504,21.9 15.774,-8.76 23.656,12.27 -0.879,29.79 14.02,-13.14 15.769,-4.38 8.766,6.13 -3.504,30.67 12.265,9.63 6.133,-14.89 6.133,-24.53 11.391,-8.77 6.133,-0.87 0.875,-21.03 -12.266,-12.26 -15.773,0.87 -13.137,11.39 0,-10.51 9.637,-10.52 2.624,-7 1.754,-12.27 -5.257,-10.52 2.629,-20.15 10.515,-3.5 0,20.15 7.887,29.79 -0.879,-31.54 32.418,-21.91 27.16,-13.14 26.285,-33.29 13.145,-14.9 1.754,-12.27 7.882,6.13" />
        <path
           id="path54"
           style="fill:url(#linearGradient2850);fill-opacity:1;fill-rule:evenodd;stroke:none"
           d="m 762.555,2129.46 -50.016,-0.85 0.852,11.03 4.238,6.8 -19.5,0.84 3.391,11.04 3.39,10.19 -5.93,5.1 -6.785,0.85 -1.691,16.98 -8.484,-7.64 0.851,-11.89 -9.32,0.85 0,12.74 -5.09,-11.04 -5.082,1.69 -2.543,3.4 -5.938,-6.79 -2.543,13.58 -2.543,17.83 -5.085,-23.77 -4.239,-6.79 -5.933,2.54 -38.993,77.27 29.668,-73.02 -2.539,-10.19 1.696,-8.49 0,-5.1 -4.242,-3.39 -51.707,26.32 41.535,-28.87 11.023,-2.55 -1.699,-10.18 -12.711,1.69 -43.231,3.4 53.403,-11.89 5.082,-3.39 -4.238,-5.1 -155.965,-35.66 145.797,21.23 14.406,1.7 6.781,-1.7 -108.5,-78.12 95.785,58.59 16.953,11.04 0,-13.59 -10.168,-16.98 3.387,-14.43 14.41,-21.23 22.891,-5.94 6.777,5.94 -11.015,8.49 -21.192,13.59 1.696,18.68 11.863,-1.7 8.476,-17.83 10.172,-5.94 9.324,6.79 -3.39,17.83 12.719,2.54 7.629,11.89 -8.477,19.53 0.848,1.7 17.796,6.79 5.934,4.24 50.016,9.35" />
        <path
           id="path56"
           style="fill:url(#linearGradient2852);fill-opacity:1;fill-rule:evenodd;stroke:none"
           d="m 548.73,2440.54 -11.085,-0.86 0,-17.05 -5.961,-13.64 -8.532,9.38 -10.226,-9.38 -11.934,-23.02 -3.41,-23.87 11.078,-23.87 12.789,-23.87 6.821,-19.61 19.613,3.42 17.898,-18.76 19.61,-57.12 15.347,-15.34 -11.937,26.42 -11.938,30.7 0,22.16 6.825,4.26 23.871,-4.26 28.129,-4.26 11.941,6.82 -24.731,7.67 -28.132,8.52 -11.078,6.82 0,20.46 19.609,-4.26 24.723,-2.55 34.097,-1.71 -22.168,9.38 -35.804,17.05 -16.196,12.79 4.262,33.25 -5.117,27.28 -12.785,7.67 8.523,-30.69 -1.703,-23.02 -9.383,-13.64 -12.781,17.9 -13.645,17.91 0.852,17.05 2.558,23.87" />
        <path
           id="path58"
           style="fill:url(#linearGradient2854);fill-opacity:1;fill-rule:evenodd;stroke:none"
           d="m 1782.8,2516.66 -19.11,-21.84 -7.28,-14.56 0,10.92 -5.46,16.38 2.73,19.11 -10.92,-0.91 -3.64,-5.46 -4.55,25.48 -6.37,17.28 4.55,10.92 10.92,0 1.82,-19.1 2.73,-13.65 13.65,-5.46 8.18,9.1 9.11,16.38 8.18,8.19 10.93,4.54 12.74,-14.55 20.92,-15.47 13.65,0.91 18.2,-8.19 20.02,-3.64 1.82,-12.74 5.46,-18.2 10.92,-19.11 13.64,-14.56 2.73,-18.2 -4.55,-3.64 -16.37,4.55 -10.01,-3.64 6.36,-16.38 4.55,-21.83 -8.18,-11.83 -10.01,-5.46 -5.46,-4.55 -6.37,-10.01 -6.37,-14.56 -9.1,15.47 -18.2,8.19 0,12.74 -9.1,2.72 -7.28,-4.54 -0.91,-4.55 -13.64,16.38 -20.02,10.91 -16.39,10.92 -0.9,9.1 40.04,-5.46 10,-0.9 -14.56,6.36 -17.29,9.1 -9.1,6.37 19.11,11.83 0,6.37 -20.93,-12.74 -10.92,1.82 -0.9,7.28 10.01,20.93 10.92,25.48" />
        <path
           id="path60"
           style="fill:url(#linearGradient2856);fill-opacity:1;fill-rule:evenodd;stroke:none"
           d="m 1670.87,2496.64 0.91,14.56 -10.92,13.65 -11.83,15.47 15.47,-10.01 8.2,4.55 -3.65,9.1 0,7.28 16.38,0 -0.91,-12.74 -3.64,-5.46 0,-5.46 -0.91,-11.83 0,-6.37 -9.1,-12.74" />
        <path
           id="path62"
           style="fill:url(#linearGradient2858);fill-opacity:1;fill-rule:evenodd;stroke:none"
           d="m 1604.7,2791.98 -9.74,9.74 -13.22,6.26 -12.52,5.57 -9.74,0 -15.3,9.74 -13.91,7.64 -13.21,-2.78 0.7,-7.65 12.51,-7.65 4.87,-9.04 9.04,1.39 17.4,-4.17 10.43,-4.18 10.43,-8.34 10.43,-4.17 9.04,0 2.79,7.64" />
        <path
           id="path64"
           style="fill:url(#linearGradient2860);fill-opacity:1;fill-rule:evenodd;stroke:none"
           d="m 1487.85,2849.71 9.04,5.57 -4.87,12.52 -15.99,5.56 -11.83,0 -7.65,-2.08 6.26,-6.96 9.04,-6.26 16,-8.35" />
      </g>
      <path
         d="m 1487.85,2849.71 9.04,5.57 -4.87,12.52 -15.99,5.56 -11.83,0 -7.65,-2.08 6.26,-6.96 9.04,-6.26 16,-8.35 z"
         style="fill:none;stroke:none"
         id="path66" />
    </g>
  </g>
</svg>
