<?xml version="1.0" encoding="UTF-8" standalone="no"?>
<!-- Created with Inkscape (http://www.inkscape.org/) -->

<svg
   xmlns:dc="http://purl.org/dc/elements/1.1/"
   xmlns:cc="http://creativecommons.org/ns#"
   xmlns:rdf="http://www.w3.org/1999/02/22-rdf-syntax-ns#"
   xmlns:svg="http://www.w3.org/2000/svg"
   xmlns="http://www.w3.org/2000/svg"
   xmlns:sodipodi="http://sodipodi.sourceforge.net/DTD/sodipodi-0.dtd"
   xmlns:inkscape="http://www.inkscape.org/namespaces/inkscape"
   width="557.90826"
   height="532.99829"
   id="svg2"
   sodipodi:version="0.32"
   inkscape:version="0.47 r22583"
   sodipodi:docname="sunflower.svg"
   inkscape:output_extension="org.inkscape.output.svg.inkscape"
   version="1.1">
  <defs
     id="defs4">
    <inkscape:perspective
       sodipodi:type="inkscape:persp3d"
       inkscape:vp_x="0 : 526.18109 : 1"
       inkscape:vp_y="0 : 1000 : 0"
       inkscape:vp_z="744.09448 : 526.18109 : 1"
       inkscape:persp3d-origin="372.04724 : 350.78739 : 1"
       id="perspective10" />
    <inkscape:perspective
       id="perspective2447"
       inkscape:persp3d-origin="372.04724 : 350.78739 : 1"
       inkscape:vp_z="744.09448 : 526.18109 : 1"
       inkscape:vp_y="0 : 1000 : 0"
       inkscape:vp_x="0 : 526.18109 : 1"
       sodipodi:type="inkscape:persp3d" />
    <inkscape:perspective
       id="perspective3622"
       inkscape:persp3d-origin="0.5 : 0.33333333 : 1"
       inkscape:vp_z="1 : 0.5 : 1"
       inkscape:vp_y="0 : 1000 : 0"
       inkscape:vp_x="0 : 0.5 : 1"
       sodipodi:type="inkscape:persp3d" />
  </defs>
  <sodipodi:namedview
     id="base"
     pagecolor="#ffffff"
     bordercolor="#666666"
     borderopacity="1.0"
     inkscape:pageopacity="0.0"
     inkscape:pageshadow="2"
     inkscape:zoom="0.24748738"
     inkscape:cx="672.05338"
     inkscape:cy="144.06517"
     inkscape:document-units="px"
     inkscape:current-layer="layer1"
     showgrid="false"
     inkscape:window-width="1280"
     inkscape:window-height="719"
     inkscape:window-x="-4"
     inkscape:window-y="-4"
     inkscape:window-maximized="0" />
  <metadata
     id="metadata7">
    <rdf:RDF>
      <cc:Work
         rdf:about="">
        <dc:format>image/svg+xml</dc:format>
        <dc:type
           rdf:resource="http://purl.org/dc/dcmitype/StillImage" />
      </cc:Work>
    </rdf:RDF>
  </metadata>
  <g
     inkscape:label="Camada 1"
     inkscape:groupmode="layer"
     id="layer1"
     transform="translate(-78.187488,-296.77679)">
    <g
       id="g3666">
      <path
         sodipodi:nodetypes="cscccc"
         id="path3225"
         d="m 147.05196,607.69159 c -21.09674,4.09949 -83.971049,1.3764 -63.611941,-27.35122 20.529231,-28.96767 68.807401,-18.4801 103.317301,-17.47124 25.51342,3.94923 79.89756,-14.12195 82.48807,20.42216 -18.64243,19.61409 -50.01861,16.24433 -74.85949,21.32169 -15.75613,1.3447 -31.56036,1.986 -47.33394,3.07861 z"
         style="fill:#ffd400;fill-opacity:1;stroke:#c65900;stroke-width:2.5;stroke-miterlimit:4;stroke-opacity:1;stroke-dasharray:none;stroke-dashoffset:0" />
      <path
         sodipodi:nodetypes="cscccc"
         id="path3230"
         d="M 293.57144,555.93359 C 232.69103,531.41403 159.22142,515.04017 119.7018,462.9783 c -22.204722,-29.25178 42.23333,-32.21728 58.40699,-15.08339 23.72078,16.70198 52.23167,27.12587 76.70856,43.38326 15.58629,15.31444 66.67657,28.57453 44.83058,54.98836 -2.32827,3.00811 -4.69222,6.07981 -6.07649,9.66706 z"
         style="fill:#ffd400;fill-opacity:1;stroke:#c65900;stroke-width:2.5;stroke-miterlimit:4;stroke-opacity:1;stroke-dasharray:none;stroke-dashoffset:0" />
      <path
         sodipodi:nodetypes="ccccs"
         id="path3232"
         d="m 173.57143,386.64789 c -11.65443,-41.61417 57.74898,-24.13332 70.4385,0.95043 38.35165,38.81232 60.85414,89.30725 85.99007,136.90675 -27.77451,17.06889 -53.59973,-11.37769 -69.14869,-31.99274 -27.73797,-36.37063 -74.75472,-61.14121 -87.27988,-105.86444 z"
         style="fill:#ffd400;fill-opacity:1;stroke:#c65900;stroke-width:2.5;stroke-miterlimit:4;stroke-opacity:1;stroke-dasharray:none;stroke-dashoffset:0" />
      <path
         sodipodi:nodetypes="csccc"
         id="path3237"
         d="m 413.28427,496.42382 c 2.70324,-61.14186 29.9623,-125.31192 74.32033,-161.05474 31.92499,-25.72453 35.15332,50.80701 12.29577,66.78502 -19.5017,36.33802 -35.91497,76.46046 -68.67802,103.24938 -7.28541,0.12443 -11.75039,-6.37343 -17.93808,-8.97966 z"
         style="fill:#ffd400;fill-opacity:1;stroke:#c65900;stroke-width:2.5;stroke-miterlimit:4;stroke-opacity:1;stroke-dasharray:none;stroke-dashoffset:0" />
      <path
         sodipodi:nodetypes="csscc"
         id="path3241"
         d="m 411.42856,577.36218 c 71.8364,2.18247 155.28478,0.17441 209.81016,49.03411 32.11113,28.7745 -36.44992,41.35614 -61.40346,29.75558 -48.74153,-22.65928 -102.74882,-36.75033 -151.26382,-61.6468 0.95237,-5.7143 1.90475,-11.42859 2.85712,-17.14289 z"
         style="fill:#ffd400;fill-opacity:1;stroke:#c65900;stroke-width:2.5;stroke-miterlimit:4;stroke-opacity:1;stroke-dasharray:none;stroke-dashoffset:0" />
      <path
         sodipodi:nodetypes="csccc"
         id="path3243"
         d="m 418.57144,533.07648 c 51.75186,-35.11302 128.62924,-78.56857 175.46274,-59.7149 26.22646,10.55794 -30.67986,46.58767 -54.48233,55.84786 -34.68108,9.32405 -69.91568,24.63831 -106.28145,22.65461 -8.30099,-2.19403 -15.45755,-9.7823 -14.69896,-18.78757 z"
         style="fill:#ffd400;fill-opacity:1;stroke:#c65900;stroke-width:2.5;stroke-miterlimit:4;stroke-opacity:1;stroke-dasharray:none;stroke-dashoffset:0" />
      <path
         sodipodi:nodetypes="csccc"
         id="path3245"
         d="m 359.28571,500.21933 c -8.25193,-60.49989 -14.99706,-124.20497 -1.10442,-182.9961 8.70639,-36.84389 64.75154,-15.45565 52.47394,20.44711 2.56171,55.7277 -15.28828,109.38531 -28.97445,162.66311 -5.2092,7.5381 -16.22924,4.01984 -22.39507,-0.11412 z"
         style="fill:#ffd400;fill-opacity:1;stroke:#c65900;stroke-width:2.5;stroke-miterlimit:4;stroke-opacity:1;stroke-dasharray:none;stroke-dashoffset:0" />
      <path
         id="path3247"
         d="m 335,510.21933 c -41.73161,-37.56095 -63.40043,-93.05585 -71.61976,-147.55205 0.45408,-36.96637 47.62047,-13.31368 52.5773,10.23709 13.92881,42.62488 41.87893,83.12686 37.37903,129.79652 -4.45886,5.96031 -12.72276,3.63615 -18.33657,7.51844 z"
         style="fill:#ffd400;fill-opacity:1;stroke:#c65900;stroke-width:2.5;stroke-miterlimit:4;stroke-opacity:1;stroke-dasharray:none;stroke-dashoffset:0" />
      <path
         sodipodi:nodetypes="csscc"
         id="path3249"
         d="m 415,521.64789 c 44.60526,-44.77063 97.43305,-92.75321 159.63096,-100.90886 36.70598,-4.81304 2.55577,42.69197 -15.44792,54.1044 -42.62979,27.02278 -87.57759,53.93707 -137.04019,66.80446 -2.38095,-6.66667 -4.7619,-13.33333 -7.14285,-20 z"
         style="fill:#ffd400;fill-opacity:1;stroke:#c65900;stroke-width:2.5;stroke-miterlimit:4;stroke-opacity:1;stroke-dasharray:none;stroke-dashoffset:0" />
      <path
         id="path3251"
         d="m 344.28571,626.64789 c -32.53557,53.9184 -58.66272,118.77698 -42.81225,182.45394 18.76416,30.44073 48.5656,-5.16911 54.54227,-27.02011 9.28569,-39.20432 16.80318,-79.54868 16.96607,-120.0313 -1.26233,-15.5223 -9.84899,-36.81501 -28.69609,-35.40253 z"
         style="fill:#ffd400;fill-opacity:1;stroke:#c65900;stroke-width:2.5;stroke-miterlimit:4;stroke-opacity:1;stroke-dasharray:none;stroke-dashoffset:0" />
      <path
         sodipodi:nodetypes="ccscc"
         id="path3253"
         d="m 385.71429,613.79077 c 19.7743,56.68364 66.20666,97.29445 107.13867,138.86461 28.01005,23.09034 52.98223,-20.724 30.286,-42.26703 -35.76846,-33.95104 -79.29622,-72.70347 -118.85325,-104.45476 -6.19047,2.61906 -12.38095,5.23812 -18.57142,7.85718 z"
         style="fill:#ffd400;fill-opacity:1;stroke:#c65900;stroke-width:2.5;stroke-miterlimit:4;stroke-opacity:1;stroke-dasharray:none;stroke-dashoffset:0" />
      <path
         id="path3255"
         d="m 327.85715,611.64789 c -46.00919,26.63615 -85.97541,65.94348 -109.55947,113.80235 -12.65121,25.10092 14.31839,55.48843 32.09845,24.49599 35.84101,-35.90974 72.08796,-73.93323 91.16057,-121.82009 -0.69324,-7.98739 -8.59308,-11.61525 -13.69955,-16.47825 z"
         style="fill:#ffd400;fill-opacity:1;stroke:#c65900;stroke-width:2.5;stroke-miterlimit:4;stroke-opacity:1;stroke-dasharray:none;stroke-dashoffset:0" />
      <path
         sodipodi:nodetypes="csccc"
         id="path3257"
         d="m 287.85715,585.2193 c -63.34025,22.34004 -152.53011,45.81237 -170.81868,106.7411 -9.0901,30.28383 48.98977,9.72642 69.09403,-1.59212 41.94436,-20.53004 80.44521,-47.65275 115.47036,-78.44274 6.33836,-11.59551 -10.64347,-17.45301 -13.74571,-26.70624 z"
         style="fill:#ffd400;fill-opacity:1;stroke:#c65900;stroke-width:2.5;stroke-miterlimit:4;stroke-opacity:1;stroke-dasharray:none;stroke-dashoffset:0" />
      <path
         sodipodi:nodetypes="csccc"
         id="path3259"
         d="m 415,557.36218 c 66.70875,-19.54052 141.3165,-50.52197 207.32003,-24.71475 38.76296,15.15623 -22.63253,54.52769 -46.56708,43.60334 -51.83768,6.27474 -104.56561,10.72194 -156.52266,3.16361 -6.23232,-5.63819 -2.73517,-14.85852 -4.23029,-22.0522 z"
         style="fill:#ffd400;fill-opacity:1;stroke:#c65900;stroke-width:2.5;stroke-miterlimit:4;stroke-opacity:1;stroke-dasharray:none;stroke-dashoffset:0" />
      <path
         sodipodi:nodetypes="csccc"
         id="path3261"
         d="m 307.14285,602.36218 c -56.81962,45.03983 -132.89793,86.36233 -150.37757,158.01994 -8.96758,36.76251 53.42388,18.57808 67.61496,-1.62552 41.13178,-36.90146 76.25795,-81.14347 102.16669,-129.87338 3.17963,-12.84472 -9.43951,-21.77387 -19.40408,-26.52104 z"
         style="fill:#ffd400;fill-opacity:1;stroke:#c65900;stroke-width:2.5;stroke-miterlimit:4;stroke-opacity:1;stroke-dasharray:none;stroke-dashoffset:0" />
      <path
         sodipodi:nodetypes="cscc"
         id="path3263"
         d="M 302.85715,553.79077 C 236.87776,531.4607 92.014528,498.11793 89.386382,523.96713 c -4.909002,48.2826 161.587598,59.40977 202.904468,59.50114 11.99501,-4.85941 8.29423,-19.74353 10.5663,-29.6775 z"
         style="fill:#ffd400;fill-opacity:1;stroke:#c65900;stroke-width:2.5;stroke-miterlimit:4;stroke-opacity:1;stroke-dasharray:none;stroke-dashoffset:0" />
      <path
         sodipodi:nodetypes="csccc"
         id="path3267"
         d="m 354.81384,610.42566 c 7.92002,72.0717 2.44909,158.47497 53.83357,211.38986 26.36181,27.14695 44.14704,-35.35951 34.58597,-58.1226 -9.37217,-54.45828 -28.15486,-107.73503 -55.64039,-155.59328 -9.1778,-9.51338 -23.46801,-3.59538 -32.77915,2.32602 z"
         style="fill:#ffd400;fill-opacity:1;stroke:#c65900;stroke-width:2.5;stroke-miterlimit:4;stroke-opacity:1;stroke-dasharray:none;stroke-dashoffset:0" />
      <path
         sodipodi:nodetypes="csscc"
         id="path3269"
         d="M 306.569,538.59973 C 248.52614,513.59842 184.471,482.13337 154.0006,427.30044 c -17.98204,-32.35953 38.75616,-18.08581 55.99268,-5.54478 40.81334,29.69517 82.3787,61.58565 112.5441,102.84297 -5.32279,4.66703 -10.64559,9.33407 -15.96838,14.0011 z"
         style="fill:#ffd400;fill-opacity:1;stroke:#c65900;stroke-width:2.5;stroke-miterlimit:4;stroke-opacity:1;stroke-dasharray:none;stroke-dashoffset:0" />
      <path
         sodipodi:nodetypes="czcc"
         id="path3271"
         d="m 390.26416,599.97943 c 44.37206,32.55359 118.36539,151.80882 84.85651,178.40475 -33.50888,26.59593 -98.10196,-131.72795 -102.44363,-169.2697 3.90545,-6.33674 12.34472,-4.76422 17.58712,-9.13505 z"
         style="fill:#ffd400;fill-opacity:1;stroke:#c65900;stroke-width:2.5;stroke-miterlimit:4;stroke-opacity:1;stroke-dasharray:none;stroke-dashoffset:0" />
      <path
         sodipodi:nodetypes="csscc"
         id="path3273"
         d="m 337.65158,634.28772 c -10.79849,60.0976 -24.01835,122.77986 -55.35645,174.42602 -19.6393,32.36618 -58.79178,-1.55083 -43.61624,-35.62613 22.3116,-50.09866 48.26105,-99.34662 77.70326,-145.81157 7.27911,-5.56537 16.6781,1.17842 21.26943,7.01168 z"
         style="fill:#ffd400;fill-opacity:1;stroke:#c65900;stroke-width:2.5;stroke-miterlimit:4;stroke-opacity:1;stroke-dasharray:none;stroke-dashoffset:0" />
      <path
         sodipodi:nodetypes="csccs"
         id="path3275"
         d="m 578.68195,682.95734 c 21.95452,37.22318 -45.96442,33.71592 -68.31836,17.17813 -43.38978,-32.10042 -81.75581,-70.6753 -118.277,-110.21934 22.457,-23.63161 54.72371,-2.77474 75.04705,13.15361 36.15105,28.02355 87.95354,39.88343 111.54831,79.8876 z"
         style="fill:#ffd400;fill-opacity:1;stroke:#c65900;stroke-width:2.5;stroke-miterlimit:4;stroke-opacity:1;stroke-dasharray:none;stroke-dashoffset:0" />
      <path
         sodipodi:nodetypes="czcc"
         id="path3277"
         d="M 273.42502,601.48242 C 227.69517,642.15692 107.35636,678.1628 87.949524,640.73589 68.542687,603.30897 228.73316,582.59941 267.36246,582.36035 c 5.16678,5.13778 3.61899,12.86837 6.06256,19.12207 z"
         style="fill:#ffd400;fill-opacity:1;stroke:#c65900;stroke-width:2.5;stroke-miterlimit:4;stroke-opacity:1;stroke-dasharray:none;stroke-dashoffset:0" />
      <path
         sodipodi:nodetypes="csccc"
         id="path3279"
         d="m 415.74667,527.62579 c 57.83431,-24.91882 123.75779,-60.89222 140.98418,-123.47381 9.38745,-34.10356 -42.50501,-24.05539 -60.08031,-9.7622 -30.36397,26.48078 -59.95332,54.91756 -83.64173,87.74634 -7.98886,13.35147 -13.42898,35.68362 2.73786,45.48967 z"
         style="fill:#ffd400;fill-opacity:1;stroke:#c65900;stroke-width:2.5;stroke-miterlimit:4;stroke-opacity:1;stroke-dasharray:none;stroke-dashoffset:0" />
      <path
         sodipodi:nodetypes="cscc"
         id="path3281"
         d="m 422.75952,556.40925 c 54.5326,-7.40356 173.44024,-5.85019 168.66625,42.85372 -2.54655,25.97979 -144.44894,1.27599 -174.97255,-24.06578 -1.59216,-7.2713 5.57115,-12.00217 6.3063,-18.78794 z"
         style="fill:#ffd400;fill-opacity:1;stroke:#c65900;stroke-width:2.5;stroke-miterlimit:4;stroke-opacity:1;stroke-dasharray:none;stroke-dashoffset:0" />
      <path
         sodipodi:nodetypes="cscc"
         id="path3283"
         d="m 274.48534,535.54541 c -41.38463,-33.37128 -136.007,-75.50582 -145.56039,-61.37113 -32.182881,47.61611 99.0843,77.06526 135.10263,80.07529 7.20532,-3.51599 7.7535,-12.19172 10.45776,-18.70416 z"
         style="fill:#ffd400;fill-opacity:1;stroke:#c65900;stroke-width:2.5;stroke-miterlimit:4;stroke-opacity:1;stroke-dasharray:none;stroke-dashoffset:0" />
      <path
         sodipodi:nodetypes="csccc"
         id="path3285"
         d="m 397.63293,518.06549 c 34.40901,-63.82064 87.97882,-131.83329 75.73304,-204.56834 -6.28247,-37.31533 -56.41791,4.03454 -61.47478,28.20065 -23.21142,50.14751 -38.00602,104.66654 -42.56009,159.6677 2.15249,13.05617 17.27245,16.27475 28.30183,16.69999 z"
         style="fill:#ffd400;fill-opacity:1;stroke:#c65900;stroke-width:2.5;stroke-miterlimit:4;stroke-opacity:1;stroke-dasharray:none;stroke-dashoffset:0" />
      <path
         sodipodi:nodetypes="cccss"
         id="path3287"
         d="m 291.60486,317.66641 c 6.21569,-42.76598 62.57432,1.34887 64.00596,29.42323 19.32531,51.02722 19.42628,106.30912 23.10835,160.01173 -30.35434,24.87219 -48.98496,-7.95146 -58.10005,-52.27764 -9.20864,-44.78106 -35.69433,-91.19622 -29.01426,-137.15732 z"
         style="fill:#ffd400;fill-opacity:1;stroke:#c65900;stroke-width:2.5;stroke-miterlimit:4;stroke-opacity:1;stroke-dasharray:none;stroke-dashoffset:0" />
      <path
         sodipodi:nodetypes="ccccc"
         id="path3289"
         d="M 339.95831,514.35547 C 328.25333,455.4738 287.91548,408.80415 253.15776,361.94895 c -24.52933,-26.75892 -49.21259,13.92933 -31.13764,39.57647 30.59494,45.00961 63.69447,81.0895 98.45504,118.03006 6.49438,-1.73334 12.98877,-3.46667 19.48315,-5.20001 z"
         style="fill:#ffd400;fill-opacity:1;stroke:#c65900;stroke-width:2.5;stroke-miterlimit:4;stroke-opacity:1;stroke-dasharray:none;stroke-dashoffset:0" />
      <path
         id="path3265"
         d="m 299.97927,514.29298 c 40.69727,-38.77092 124.51861,-16.56245 130.40058,42.60366 6.75267,45.85621 -31.51717,99.59504 -81.00312,93.03424 -36.7806,-1.29282 -81.37475,-20.65648 -87.39445,-61.14533 -4.73211,-30.49768 18.73584,-54.35452 37.99699,-74.49257 z"
         style="fill:#522500;fill-opacity:1;stroke:#291200;stroke-width:10;stroke-miterlimit:4;stroke-opacity:1;stroke-dasharray:none;stroke-dashoffset:0" />
      <path
         id="path3265-1"
         d="m 376.78015,541.95643 c -25.45194,-24.95447 -77.89426,-1.17554 -67.7614,35.98598 3.85958,30.54832 39.29401,43.74547 64.75463,29.77141 31.81647,-11.63865 27.13946,-48.05481 3.00677,-65.75739 z"
         style="fill:#393f00;fill-opacity:1;stroke:#1f2400;stroke-width:6.25;stroke-miterlimit:4;stroke-opacity:1;stroke-dasharray:none;stroke-dashoffset:0" />
    </g>
  </g>
</svg>
